<svg width="54" height="54" viewBox="0 0 54 54" xmlns="http://www.w3.org/2000/svg">
    <path fill-rule="evenodd" clip-rule="evenodd"
          d="M34.2905 38.764L36.173 38.5403C37.1203 38.4278 40.3323 37.0294 40.8796 38.4317C40.6968 38.3793 40.4989 38.3396 40.2846 38.3132C38.8857 38.3124 39.5201 40.0228 39.5831 40.0339C39.6219 40.0407 39.6609 40.0478 39.6999 40.0548C39.6179 39.7663 39.4703 38.7118 40.366 38.6307C41.2598 38.7793 41.5265 39.4343 41.6478 40.3295C41.7377 40.9917 41.6345 40.7346 41.0877 40.543C40.9429 40.4922 40.7935 40.4409 40.6412 40.391C40.5196 40.5909 40.3669 40.7133 40.1866 40.6926C37.3905 40.3726 36.7887 39.8193 33.9186 40.0044C32.0993 40.122 33.2649 39.0624 34.2905 38.764ZM27.0857 40.0738C16.6706 40.1739 12.5955 33.7259 12.9655 27.9756C12.9592 27.9376 12.9538 27.8993 12.9496 27.8608C13.065 26.5285 13.4105 25.237 13.9607 24.0808C13.961 24.0802 13.9613 24.0796 13.9616 24.0791C15.1484 21.5854 15.5453 18.1306 17.2333 16.9009C17.4334 16.7555 17.6446 16.6132 17.8671 16.476H17.8674C17.8989 16.4567 17.9306 16.4374 17.9624 16.4182L17.9641 16.417C17.9955 16.3983 18.027 16.3796 18.0585 16.3609L18.0624 16.3589C18.0936 16.3405 18.1248 16.3223 18.1563 16.3045L18.1617 16.3014C18.9029 15.8782 19.6958 15.5465 20.5158 15.3101C20.517 15.3098 20.5184 15.3092 20.5195 15.309C20.6326 15.0397 20.6326 14.7293 20.5541 14.38C20.4719 14.0152 20.0742 13.6711 20.4906 13.8301C20.7092 13.9135 21.1604 14.2576 21.3243 14.759C21.3696 14.8982 21.3416 14.4756 21.5357 14.1113C21.883 13.4602 22.2092 13.2079 22.5573 13.1098C22.6971 13.0495 22.4488 14.1598 22.8932 14.3148C23.0761 13.8038 24.9586 13.2609 24.6924 13.5914C24.5266 13.7975 23.9897 14.3832 24.1652 14.8761L24.1728 14.8764C24.1824 14.8767 24.1924 14.877 24.202 14.8775C24.2448 14.8792 24.2876 14.8812 24.3304 14.8835C24.3384 14.8838 24.3463 14.8843 24.3539 14.8846C24.3993 14.8872 24.4449 14.89 24.4906 14.8928L24.5064 14.8937C24.5552 14.8971 24.604 14.9005 24.653 14.9045L24.6587 14.9047C24.8679 14.9212 25.0796 14.943 25.2936 14.9705C26.7688 15.1604 28.1342 15.9286 29.2533 17.1727C30.8297 18.9257 30.3804 19.3554 32.7122 21.2796C32.7564 21.3159 32.8009 21.3521 32.8454 21.3884L32.8497 21.3918C34.6531 22.8545 36.8468 24.161 38.3933 25.73C42.3816 29.7764 44.0428 37.6162 43.6253 37.8438C42.7241 38.3354 42.7868 37.2624 41.5295 37.246C40.7694 37.2361 40.1707 37.3007 39.6531 37.4161C38.4458 37.2607 36.5326 38.0159 35.845 38.1018C35.2177 38.188 34.5558 38.2741 33.9282 38.3946C33.1195 38.6636 32.4857 39.2765 32.4177 39.7354C31.0426 39.925 29.3157 40.0526 27.0857 40.0738ZM17.4984 38.1174C16.621 37.9683 15.7905 37.9771 15.5509 38.5488C15.6431 38.5307 15.7392 38.5156 15.8401 38.5043C16.7355 38.5037 16.6125 39.3028 16.4952 39.6455C16.517 39.2867 16.4373 38.7053 15.8282 38.7058C14.9503 38.8263 14.5906 39.3584 14.4712 40.0852C14.3831 40.6232 14.4846 40.4143 15.0217 40.2587C15.234 40.1971 15.4789 40.1348 15.7287 40.0764C15.8418 40.2731 15.9903 40.399 16.1692 40.3803C17.9564 40.1932 19.5577 40.0336 21.2647 40.0146C19.7989 39.5449 18.5477 38.8958 17.4984 38.1174ZM20.5532 23.8407C21.0351 25.3147 21.1556 26.6393 22.4074 26.7649C23.3666 26.8613 24.5617 26.6538 25.2755 26.2705C26.5511 25.5857 26.4638 24.3027 26.2223 22.9891C25.9306 23.2565 25.8282 23.7327 25.7429 24.1284C25.6995 24.3302 25.6607 24.5116 25.6057 24.6335C25.5068 24.8535 25.2151 25.281 24.8826 25.6115C24.649 25.8434 24.3948 26.0268 24.1725 26.0551C23.7635 26.107 23.247 25.91 22.7277 25.5967C22.0675 25.1982 21.4011 24.6114 20.9441 24.1074C20.8237 23.9742 20.6893 23.8931 20.5532 23.8407ZM19.4007 22.6569C19.3162 23.492 20.2052 22.9214 20.7976 23.5748C21.61 24.4711 23.0903 25.6322 24.0124 25.5151C24.5453 25.4474 25.2709 24.472 25.4393 24.0978C25.6258 23.6834 25.619 22.6331 26.2401 22.3258C27.0148 21.9426 27.1798 21.7158 26.9216 21.3108C26.6846 20.9386 25.9518 20.718 25.1717 20.6282C24.0645 20.5003 24.2408 20.2055 22.9633 20.4088C22.0321 20.5567 21.9425 20.9136 21.0127 21.4377C20.5955 21.6727 19.4715 21.9548 19.4007 22.6569ZM28.5546 19.197C28.6572 19.1777 28.7618 19.2752 28.7879 19.4144C28.8137 19.5538 28.7516 19.6825 28.649 19.7018C28.5464 19.7211 28.4418 19.6236 28.4157 19.4841C28.3896 19.3446 28.452 19.216 28.5546 19.197ZM17.0023 21.0602C17.1168 21.0389 17.2313 21.0451 17.3424 21.0755C17.483 21.3051 17.5927 21.5885 17.6517 21.9038C17.7917 22.6527 17.5995 23.3387 17.2143 23.5853C16.784 23.5144 16.3962 23.0804 16.2874 22.4993C16.1573 21.8028 16.4773 21.1585 17.0023 21.0602ZM16.627 21.5914C16.7296 21.5721 16.8339 21.6696 16.86 21.8091C16.8861 21.9483 16.824 22.077 16.7211 22.0962C16.6185 22.1155 16.5142 22.018 16.4881 21.8785C16.462 21.7391 16.5241 21.6104 16.627 21.5914ZM28.528 18.7548C29.0526 18.6567 29.5839 19.142 29.7143 19.8384C29.8228 20.4195 29.6176 20.9641 29.242 21.1857C28.7938 21.095 28.3667 20.5247 28.2269 19.7758C28.168 19.4606 28.168 19.1564 28.2161 18.8917C28.3086 18.8234 28.4134 18.776 28.528 18.7548ZM2.71935 36.7236L5.78045 35.298L5.96925 35.7034L4.71205 36.289L5.45305 37.8798L6.71025 37.2942L6.89925 37.6998L3.83815 39.1254L3.64905 38.72L5.09165 38.0482L4.35065 36.4571L2.90835 37.1292L2.71935 36.7236ZM46.7808 10.0853L47.3086 9.95433L47.9736 10.6179L46.2677 12.3269L45.4848 11.5454L45.584 11.4212C45.8567 11.0318 45.9993 10.684 46.0115 10.3778C46.0234 10.0714 45.9622 9.83243 45.8275 9.66093C45.6929 9.48913 45.6109 9.38683 45.582 9.35373C45.5528 9.32083 45.5177 9.28343 45.4763 9.24233C45.095 8.86163 44.6613 8.72443 44.1752 8.83043C43.6891 8.93643 43.1357 9.30043 42.5155 9.92173C42.0523 10.3857 41.8003 10.8515 41.7592 11.3195C41.7184 11.7872 41.8678 12.1906 42.2077 12.5296C42.5059 12.8275 42.8361 12.9894 43.1984 13.016C43.5604 13.0427 43.9195 12.9233 44.2753 12.658L44.4737 12.484L45.2816 13.2904C45.232 13.34 45.1866 13.3834 45.1452 13.4208C45.1038 13.4582 45.0687 13.4914 45.0398 13.5203C44.4731 13.9968 43.8367 14.166 43.1309 14.028C42.4251 13.8902 41.6994 13.4491 40.9536 12.7048C40.2699 12.0225 39.9383 11.2509 39.9578 10.3897C39.9779 9.52883 40.3206 8.76493 40.9865 8.09793C41.1642 7.91993 41.4392 7.70023 41.8114 7.43913C42.1836 7.17783 42.7215 7.05933 43.4254 7.08343C44.129 7.10753 44.6506 7.24783 44.9902 7.50433C45.33 7.76033 45.5608 7.94543 45.6832 8.05913C45.8054 8.17273 45.8686 8.23173 45.8726 8.23603C46.1793 8.54183 46.4052 8.84803 46.5504 9.15413C46.6955 9.46023 46.7723 9.77063 46.7808 10.0853ZM13.4947 8.22723L10.9404 10.555L11.068 10.6947C11.3103 10.9606 11.5717 11.1046 11.852 11.1267C12.1326 11.1485 12.3824 11.0598 12.6018 10.8597C12.6763 10.792 12.7818 10.6661 12.9176 10.4824C13.0533 10.299 13.0275 10.0107 12.8405 9.61783L12.7787 9.50763L13.7583 8.61493C14.1169 9.16773 14.2209 9.66633 14.0707 10.1105C13.9205 10.5547 13.7994 10.8552 13.7073 11.0116C13.6152 11.1684 13.4757 11.3317 13.2892 11.5017C12.6919 12.0457 12.0714 12.3677 11.428 12.4675C10.7845 12.5673 10.2989 12.4888 9.97115 12.2322C9.64345 11.9757 9.43065 11.7937 9.33315 11.6866C8.83985 11.1454 8.62925 10.53 8.70155 9.84093C8.77385 9.15183 9.12735 8.51803 9.76175 7.94003C10.3261 7.42553 10.9302 7.16983 11.5734 7.17303C12.2166 7.17613 12.7741 7.43663 13.2461 7.95453C13.2886 8.00103 13.33 8.04663 13.3703 8.09083C13.4108 8.13503 13.4522 8.18073 13.4947 8.22723ZM10.4455 9.95543L11.5861 8.91603C11.5697 8.88853 11.5399 8.85143 11.4977 8.80463C11.4506 8.75333 11.3775 8.69403 11.278 8.62683C11.1782 8.55973 11.041 8.50983 10.8661 8.47723C10.6912 8.44433 10.5197 8.50473 10.3516 8.65773C10.179 8.81513 10.0988 8.97983 10.111 9.15243C10.1229 9.32503 10.1521 9.46963 10.198 9.58553C10.2439 9.70153 10.3009 9.79673 10.3689 9.87153L10.4455 9.95543ZM4.23045 17.2941L3.47415 16.8003L4.91045 14.5992L7.13425 16.0505L7.40665 16.2282C7.56255 16.3085 7.71765 16.3269 7.87095 16.2849C8.02435 16.243 8.14735 16.1506 8.24035 16.0083C8.30385 15.911 8.34745 15.7835 8.37185 15.625C8.41125 15.2642 8.23975 14.9597 7.85515 14.7089L6.86045 14.0597C6.61725 13.901 6.43525 13.9154 6.31365 14.102L6.06195 14.4878L5.30535 13.994L6.76665 11.7552L9.48955 13.5322C9.52985 13.5586 9.56895 13.5841 9.60665 13.6087C9.64465 13.6334 9.70445 13.649 9.78635 13.6558C9.86825 13.6623 9.94705 13.6079 10.0228 13.492L10.2694 13.1138L11.0033 13.5926L9.58655 15.7634L9.09495 15.4425L9.13185 15.6174C9.18255 15.881 9.18885 16.1276 9.15025 16.3578C9.11145 16.5877 9.01165 16.8261 8.85035 17.0732C8.42265 17.7289 8.02295 18.0934 7.65105 18.1671C7.27945 18.2411 6.75555 18.0574 6.08005 17.6166L4.99075 16.9057L4.83935 16.8071L4.76135 16.7776C4.64775 16.7538 4.55955 16.7898 4.49695 16.8856L4.23045 17.2941ZM6.44575 22.7635L5.63445 22.5053L5.80345 21.9936C5.84735 21.8607 5.82835 21.7589 5.74725 21.6883L5.68885 21.641L5.50495 21.5823L5.25405 21.5024L1.89245 20.4317C1.73085 20.3801 1.61835 20.3668 1.55485 20.3912C1.49135 20.4156 1.43835 20.4915 1.39665 20.6188L1.23625 21.1041L0.425252 20.8459L1.28665 18.2363L6.10305 19.7704L6.26205 19.8209L6.28985 19.8203L6.35415 19.8214C6.46985 19.8073 6.54945 19.7336 6.59345 19.6009L6.74795 19.1326L7.55885 19.3908L6.44575 22.7635ZM0.985952 29.8898L0.110352 29.8688L0.212052 25.6228C0.226852 25.0114 0.260852 24.578 0.314152 24.3234C0.367652 24.0686 0.497552 23.8157 0.703852 23.5649C0.910252 23.3137 1.22175 23.1932 1.63875 23.2034C2.02255 23.2125 2.31195 23.3296 2.50675 23.5538C2.70175 23.7783 2.85395 24.0394 2.96395 24.3367L3.01075 24.4714L3.04755 24.3305C3.17205 23.8327 3.36905 23.4577 3.64055 23.2054C3.91245 22.9531 4.23525 22.8315 4.61055 22.8406C4.71065 22.8429 4.89345 22.8752 5.15765 22.9373C5.42185 22.9994 5.65825 23.1802 5.86515 23.4801C6.07355 23.7797 6.19965 24.2114 6.24165 24.7744L6.23205 25.1832L6.11635 30.0043L5.24045 29.9834L5.25405 29.4164L5.25655 29.3161L5.25855 29.2242C5.26255 29.0576 5.13665 28.9711 4.88105 28.9649L4.48075 28.947L1.39435 28.873C1.24985 28.8696 1.15205 28.8838 1.10125 28.9161C1.05055 28.9481 1.01825 29.0142 1.00465 29.114L1.00235 29.214L0.999852 29.3226L0.985952 29.8898ZM2.58605 26.865L2.60705 25.9893L2.61015 25.864C2.58295 25.5965 2.50845 25.404 2.38455 25.2869C2.26205 25.1698 2.06905 25.1083 1.80625 25.1021C1.54915 25.0959 1.36095 25.1622 1.24355 25.3014C1.12485 25.4403 1.06215 25.6767 1.05425 26.0103L1.03435 26.8278L2.58605 26.865ZM5.24695 26.929L5.26625 26.128L5.27105 25.9278C5.23305 25.415 5.08705 25.1307 4.83365 25.0746C4.58195 25.0182 4.41305 24.9893 4.32935 24.9873C3.78175 24.974 3.49885 25.3484 3.48045 26.1104L3.46195 26.8862L5.24695 26.929ZM37.4285 4.95263L37.846 4.00133C37.9089 3.85813 37.9268 3.74593 37.8999 3.66513C37.8729 3.58403 37.8018 3.51833 37.6858 3.46753L37.2723 3.28583L37.6246 2.48363L40.0973 3.56963L38.0059 8.33293C37.9429 8.47633 37.9248 8.58833 37.9517 8.66943C37.9787 8.75023 38.0529 8.81733 38.1743 8.87033L38.6125 9.06313L38.2601 9.86503L35.8121 8.79043L36.0412 8.26943C35.883 8.34453 35.6616 8.40693 35.377 8.45623C35.0924 8.50553 34.7129 8.42623 34.2389 8.21783C33.9577 8.09453 33.723 7.92073 33.5354 7.69683C33.3474 7.47293 33.1887 7.15343 33.0589 6.73783C32.9287 6.32263 32.9908 5.82543 33.2451 5.24633C33.3273 5.05893 33.4719 4.80493 33.6782 4.48463C33.8846 4.16433 34.223 3.92163 34.6933 3.75643C35.1636 3.59143 35.6429 3.58973 36.131 3.75133C36.4562 3.89413 36.7266 4.06083 36.9423 4.25073C37.1583 4.44093 37.3202 4.67483 37.4285 4.95263ZM35.1712 5.91473L35.0695 6.14603C34.9339 6.45473 34.884 6.72233 34.918 6.94763C34.9534 7.17383 35.0289 7.32833 35.1462 7.41283C35.2621 7.49673 35.3514 7.55223 35.4122 7.57893C35.6476 7.68233 35.8754 7.66223 36.0958 7.51913C36.3153 7.37543 36.5163 7.09703 36.6979 6.68343L36.7561 6.55103C36.7728 6.51253 36.7911 6.47113 36.8105 6.42723C36.8349 6.37193 36.853 6.33053 36.8648 6.30303L36.908 6.11483C36.9876 5.73553 36.9565 5.47673 36.8148 5.33893C36.673 5.20123 36.5519 5.11023 36.4514 5.06603C36.25 4.97753 36.0425 4.99003 35.8269 5.10253C35.6115 5.21513 35.4178 5.42773 35.2474 5.74093L35.1712 5.91473ZM27.7073 6.54233L27.8386 5.67633L28.285 5.74403C28.535 5.78173 28.6813 5.66073 28.7238 5.38093L28.7726 5.05943L29.0081 3.50583C29.0314 3.35073 29.0198 3.23793 28.9727 3.16703C28.9257 3.09593 28.8366 3.05033 28.7057 3.03043L28.2502 2.96123L28.3896 2.04173L31.0599 2.44653L30.9663 3.06273C31.218 2.68683 31.4851 2.49413 31.7665 2.48503C32.048 2.47603 32.2334 2.47823 32.3227 2.49183C32.5489 2.52613 32.7374 2.60803 32.8885 2.73763C33.0393 2.86683 33.1309 2.99643 33.1629 3.12623C33.1949 3.25603 33.2131 3.36833 33.2167 3.46333C33.2207 3.55823 33.2184 3.63253 33.2105 3.68613C33.1771 3.90633 33.0886 4.08773 32.9452 4.23063C32.8018 4.37323 32.6592 4.44913 32.5177 4.45823C32.3763 4.46733 32.2669 4.46593 32.1895 4.45403C31.9871 4.42343 31.8207 4.34633 31.69 4.22293C31.5596 4.09963 31.4902 3.97493 31.4819 3.84883C31.4737 3.72263 31.4746 3.62683 31.4845 3.56133C31.508 3.40663 31.5724 3.28243 31.6781 3.18893C31.4825 3.23223 31.3127 3.32833 31.1684 3.47693C30.97 3.66003 30.8524 3.87373 30.8155 4.11783L30.5811 5.66273C30.5559 5.82933 30.5672 5.94533 30.6151 6.01053C30.663 6.07543 30.7764 6.12163 30.955 6.14853L31.4105 6.21773L31.2793 7.08403L27.7073 6.54233ZM23.3944 6.75513L23.3332 5.88093L23.7836 5.84953C24.0359 5.83193 24.1524 5.68193 24.1326 5.39963L24.1085 5.05723L23.9982 3.48033C23.9871 3.31813 23.9492 3.20933 23.8848 3.15343C23.8207 3.09733 23.7255 3.07413 23.5994 3.08283L23.1399 3.11493L23.0766 2.21373L25.7888 2.02443L26.0156 5.26783L26.0264 5.42113L26.0386 5.46543L26.0615 5.53623C26.1228 5.63463 26.2285 5.67853 26.3787 5.66803L26.8382 5.63603L26.8992 6.50993L23.3944 6.75513ZM23.7332 0.981828C23.7167 0.747728 23.789 0.531428 23.9503 0.333028C24.1113 0.134528 24.3392 0.0251277 24.6334 0.0044277C24.9458 -0.0173723 25.208 0.0413277 25.4201 0.180528C25.6321 0.319428 25.7469 0.518128 25.765 0.776328C25.7809 1.00483 25.6959 1.21143 25.5096 1.39623C25.3234 1.58133 25.0921 1.68373 24.8157 1.70293C24.5212 1.72363 24.2712 1.66413 24.0654 1.52463C23.8593 1.38493 23.7487 1.20403 23.7332 0.981828ZM13.9559 4.10983L13.6441 3.24703L17.8258 1.73553C18.4284 1.51763 18.8638 1.38663 19.1328 1.34213C19.4015 1.29733 19.6975 1.32823 20.0206 1.43423C20.3441 1.54053 20.5799 1.79903 20.7284 2.20983C20.8648 2.58763 20.8608 2.91423 20.7157 3.18973C20.5705 3.46503 20.3735 3.71273 20.1249 3.93273L20.0113 4.02933L20.1629 4.01183C20.6958 3.94463 21.1366 3.99423 21.4858 4.16373C21.8348 4.33323 22.076 4.60223 22.2098 4.97193C22.2452 5.07053 22.2835 5.26103 22.3232 5.54223C22.3629 5.82373 22.2759 6.12303 22.0618 6.43883C21.8484 6.75603 21.4751 7.04263 20.9419 7.29743L20.5391 7.44283L15.7905 9.15953L15.4787 8.29663L16.0374 8.09483L16.136 8.05913L16.2264 8.02653C16.3906 7.96723 16.4274 7.81133 16.3361 7.55963L16.2018 7.16223L15.1031 4.12233C15.0515 3.98003 15.0005 3.89023 14.9497 3.85273C14.899 3.81533 14.8224 3.80883 14.7198 3.83353L14.6215 3.86923L14.5146 3.90773L13.9559 4.10983ZM17.5145 4.52343L18.3771 4.21133L18.5004 4.16683C18.7515 4.03903 18.9106 3.89333 18.978 3.72803C19.0458 3.56423 19.0325 3.35213 18.9389 3.09333C18.8474 2.83993 18.7113 2.68173 18.531 2.62003C18.3504 2.55673 18.0959 2.58543 17.7674 2.70413L16.962 2.99533L17.5145 4.52343ZM18.4618 7.14403L19.2507 6.85893L19.4477 6.78773C19.9339 6.55613 20.1561 6.30563 20.1147 6.03743C20.0739 5.77013 20.0382 5.59433 20.0084 5.51213C19.8134 4.97273 19.3409 4.83863 18.5905 5.10963L17.8263 5.38603L18.4618 7.14403ZM49.3526 29.5995L49.348 26.3028L49.1675 26.3031C48.8242 26.3037 48.555 26.3958 48.3596 26.5798C48.1641 26.7638 48.0666 26.9971 48.0668 27.2802C48.0672 27.3766 48.0883 27.5317 48.1309 27.7451C48.1735 27.9588 48.3933 28.1258 48.7909 28.2457L48.9085 28.2726L48.9101 29.5369C48.2896 29.4354 47.8709 29.1894 47.6535 28.7982C47.4361 28.407 47.3018 28.1286 47.2505 27.9631C47.1992 27.7976 47.173 27.5946 47.1727 27.3537C47.1716 26.5829 47.3425 25.9383 47.6851 25.4201C48.0275 24.902 48.3946 24.6091 48.7858 24.5425C49.1768 24.4756 49.442 24.4422 49.5802 24.4419C50.2789 24.4411 50.8482 24.6871 51.2885 25.1803C51.7286 25.6733 51.9495 26.3295 51.9506 27.1484C51.9515 27.8769 51.7448 28.4674 51.3298 28.9195C50.9151 29.3716 50.3733 29.5981 49.7049 29.5993C49.6449 29.5993 49.5859 29.5993 49.5289 29.5995C49.4716 29.5995 49.4131 29.5995 49.3526 29.5995ZM50.0888 26.338L50.0908 27.8103C50.1212 27.8163 50.1662 27.8191 50.2263 27.8191C50.2926 27.8191 50.3814 27.8055 50.4928 27.778C50.6042 27.7508 50.7275 27.6859 50.863 27.5833C50.9982 27.4809 51.0657 27.3211 51.0654 27.1045C51.0651 26.8814 51.0002 26.719 50.8706 26.6169C50.7408 26.5146 50.6203 26.4426 50.5089 26.4006C50.3975 26.3587 50.2935 26.3377 50.1971 26.338H50.0888ZM49.7575 19.9759L50.6685 19.7463L50.8738 20.5607L51.2768 20.4592C51.7321 20.3444 52.1082 20.3521 52.4047 20.4822C52.7015 20.6123 52.9445 20.8739 53.1338 21.2671C53.3229 21.6603 53.4615 22.0322 53.5499 22.3825C53.6942 22.9546 53.7061 23.4331 53.5857 23.8171C53.4652 24.2015 53.2648 24.4291 52.9844 24.4997C52.9436 24.5099 52.9175 24.5165 52.9059 24.5196C52.7015 24.5712 52.5173 24.5553 52.354 24.4739C52.1902 24.3912 52.0788 24.2871 52.0195 24.1638C51.9603 24.0391 51.9226 23.9572 51.9056 23.9147C51.8888 23.8724 51.873 23.822 51.8582 23.7636C51.8055 23.5549 51.8066 23.3684 51.8613 23.2026C51.9155 23.0368 51.9852 22.9308 52.0691 22.8817C52.1527 22.8324 52.2298 22.7992 52.2999 22.7814C52.4226 22.7505 52.5417 22.761 52.657 22.8125C52.7724 22.8641 52.8574 22.9483 52.9116 23.0651L52.9289 22.9115C52.9286 22.7876 52.9189 22.6875 52.8997 22.6116C52.7922 22.1852 52.4583 22.0429 51.8979 22.1841L51.7752 22.215L51.3196 22.3298L51.6289 23.5561L50.7181 23.7857L50.4245 22.6209L48.1837 23.1856C48.0261 23.2256 47.9254 23.2882 47.8846 23.373C47.8441 23.4577 47.85 23.6051 47.9033 23.8154L47.9297 23.9203L48.04 24.3583L47.1904 24.5726L46.2544 20.8592L47.104 20.6449L47.2188 21.1004C47.2539 21.2405 47.3055 21.3283 47.3735 21.364C47.4416 21.3998 47.5575 21.3969 47.7208 21.3555L49.963 20.7906L49.7575 19.9759ZM47.4648 14.4535C47.4911 14.5629 47.4809 14.6683 47.4342 14.7704C47.3874 14.8719 47.3115 14.9521 47.2063 15.0108C47.1275 15.0544 47.0313 15.0802 46.9186 15.0881C46.8058 15.0958 46.6884 15.0643 46.5667 14.9943C46.4452 14.9243 46.3431 14.8154 46.2612 14.668C46.2467 14.642 46.2139 14.5583 46.1634 14.4177C46.1127 14.2771 46.1157 14.1221 46.173 13.9523C46.2303 13.7828 46.338 13.6541 46.4956 13.5662C46.5798 13.5194 46.7377 13.4903 46.969 13.4786C47.2003 13.467 47.4865 13.6042 47.8282 13.8897C48.1695 14.1751 48.5159 14.6335 48.8671 15.265C49.2447 15.9436 49.4118 16.4916 49.3683 16.9085C49.3246 17.3258 49.1054 17.6439 48.7106 17.8635L47.0928 18.7638L47.0138 18.8078L46.9191 18.8602C46.7805 18.958 46.7234 19.0603 46.7479 19.1658C46.791 19.3174 46.8783 19.3755 47.0089 19.3376L47.0484 19.3154L47.1527 19.2987L47.35 19.189L47.5394 19.0836L47.86 19.6599L47.7178 19.7389C47.2233 20.0142 46.8375 20.1321 46.5611 20.093C46.2845 20.0542 46.0685 19.926 45.9131 19.7092C45.7581 19.4923 45.6623 19.3509 45.6257 19.2851C45.5891 19.2194 45.5622 19.1709 45.5446 19.1391C45.4156 18.9075 45.3368 18.6949 45.3082 18.5008C45.2793 18.3063 45.2909 18.1416 45.3431 18.0058C45.3949 17.8701 45.4644 17.7504 45.5513 17.647C45.262 17.622 44.9859 17.5188 44.7231 17.3377C44.4604 17.1566 44.2369 16.9003 44.0525 16.5687C43.7891 16.0953 43.695 15.6877 43.7715 15.3452C43.8467 15.0037 44.0661 14.7318 44.4303 14.5291C44.942 14.2445 45.4635 14.3645 45.9972 14.8874L46.4916 15.46L46.683 15.6738C46.9795 15.9842 47.2117 16.1721 47.3789 16.2376C47.5476 16.3022 47.7262 16.2821 47.9155 16.1769C48.0574 16.0978 48.1457 15.9867 48.1772 15.8453C48.2085 15.7035 48.1851 15.5377 48.1066 15.3469L48.0387 15.1882L47.9906 15.1015L47.9337 14.9988C47.8573 14.8619 47.7859 14.7554 47.7194 14.6788C47.6525 14.602 47.5676 14.5272 47.4648 14.4535ZM46.8694 16.7277L46.5457 16.5358L46.4835 16.4981L46.3412 16.3912L46.2323 16.307L46.1157 16.2271L46.0279 16.1625C45.7957 16.0295 45.6162 15.9983 45.4902 16.0686C45.4216 16.1069 45.3502 16.1795 45.2752 16.2863C45.2005 16.3935 45.2172 16.5443 45.3255 16.739C45.3374 16.7603 45.3538 16.7869 45.3757 16.8198C45.3972 16.8524 45.4429 16.9063 45.5123 16.9817C45.5815 17.0565 45.6691 17.1027 45.7751 17.1194C45.8808 17.1365 45.9746 17.1376 46.0563 17.1234C46.1376 17.109 46.2257 17.0755 46.3207 17.0228L46.4748 16.9471L46.5616 16.8989L46.8694 16.7277ZM5.30395 41.0229C5.11175 40.9611 4.95555 40.8845 4.83425 40.7933C4.71375 40.7009 4.61035 40.5855 4.52415 40.4474C4.38185 40.2193 4.32795 40.0101 4.36285 39.8179C4.39795 39.6263 4.50235 39.4757 4.67525 39.368C4.77695 39.3042 4.88385 39.2691 4.99725 39.2634C5.11005 39.2569 5.21525 39.2753 5.31245 39.3187C5.41025 39.3623 5.50155 39.4222 5.58595 39.5001C5.64695 39.5574 5.72995 39.6503 5.83375 39.7793C6.04495 40.0421 6.21585 40.2266 6.34685 40.3309C6.39555 40.3023 6.42675 40.2839 6.43945 40.276C6.58295 40.1864 6.66345 40.0897 6.67985 39.9868C6.70395 39.8476 6.65975 39.6889 6.54945 39.5123C6.44605 39.347 6.34115 39.2427 6.23375 39.1996C6.12655 39.1571 5.98765 39.1634 5.81645 39.2172L5.64945 38.8442C5.81555 38.7838 5.96725 38.7605 6.10165 38.7759C6.23685 38.7906 6.37175 38.851 6.50495 38.9559C6.63825 39.061 6.76095 39.2022 6.87235 39.3811C6.98315 39.5582 7.05125 39.715 7.07895 39.8516C7.10625 39.9885 7.10505 40.1025 7.07445 40.1946C7.04355 40.2862 6.98655 40.3718 6.90325 40.4534C6.85055 40.5022 6.74625 40.5756 6.59005 40.6731L6.12115 40.9659C5.79375 41.1703 5.59165 41.3066 5.51515 41.3758C5.43745 41.4447 5.37285 41.5266 5.32095 41.6201L5.09165 41.2528C5.14175 41.1711 5.21205 41.094 5.30395 41.0229ZM6.07125 40.503C5.93865 40.4078 5.77505 40.2439 5.57945 40.012C5.46835 39.8802 5.38105 39.7921 5.31785 39.749C5.25465 39.7051 5.18745 39.6821 5.11655 39.6818C5.04625 39.6804 4.98055 39.6983 4.91895 39.7365C4.82515 39.7952 4.76965 39.88 4.75085 39.9897C4.73305 40.0994 4.76645 40.2229 4.85205 40.3596C4.93655 40.4951 5.04115 40.5974 5.16645 40.6657C5.29145 40.734 5.42155 40.7612 5.55505 40.7465C5.65825 40.7349 5.78725 40.6805 5.94205 40.5838L6.07125 40.503ZM5.75015 42.1497L7.72955 40.7128L7.94865 41.0144L7.66745 41.2185C7.99065 41.2063 8.25195 41.3372 8.45095 41.6114C8.53775 41.7313 8.59555 41.8563 8.62525 41.9872C8.65505 42.119 8.65305 42.2341 8.61905 42.3345C8.58615 42.4351 8.52865 42.5295 8.44785 42.6191C8.39425 42.6766 8.29025 42.7619 8.13485 42.8745L6.91775 43.758L6.67395 43.4221L7.87835 42.5479C8.01445 42.449 8.10765 42.362 8.15675 42.2863C8.20515 42.2114 8.22565 42.1258 8.21765 42.0303C8.21005 41.9339 8.17405 41.8415 8.10885 41.752C8.00475 41.6088 7.87015 41.5192 7.70405 41.4804C7.53765 41.443 7.32845 41.5158 7.07475 41.7004L5.99365 42.485L5.75015 42.1497ZM8.50705 45.5005L8.72965 45.2862C8.44725 45.3432 8.20175 45.2632 7.99255 45.0467C7.85735 44.9061 7.77125 44.74 7.73525 44.5475C7.69865 44.3556 7.71875 44.1603 7.79535 43.961C7.87155 43.7626 7.99945 43.5769 8.17995 43.4028C8.35545 43.2336 8.54335 43.1092 8.74265 43.0292C8.94245 42.9502 9.13695 42.9317 9.32575 42.976C9.51505 43.0193 9.68035 43.1134 9.82005 43.2583C9.92215 43.364 9.99075 43.4802 10.0257 43.6061C10.0614 43.7325 10.0679 43.8558 10.0464 43.9774L10.9183 43.1361L11.2043 43.4326L8.77415 45.7771L8.50705 45.5005ZM8.47595 43.7096C8.24995 43.9273 8.12725 44.1376 8.10765 44.3403C8.08785 44.5427 8.14005 44.7088 8.26475 44.8383C8.39055 44.9684 8.55135 45.0277 8.74545 45.016C8.93965 45.0044 9.14685 44.893 9.36595 44.6818C9.60695 44.4494 9.73875 44.2325 9.76175 44.0313C9.78525 43.8292 9.73105 43.6608 9.59955 43.5245C9.47205 43.3921 9.31045 43.3337 9.11655 43.349C8.92295 43.3646 8.70895 43.4848 8.47595 43.7096ZM10.3726 47.2112L12.3107 44.446L12.8617 44.8324L12.1437 47.2486C12.0765 47.4734 12.0252 47.6409 11.9886 47.7506C12.0907 47.6724 12.2432 47.5584 12.447 47.4105L14.4573 45.9506L14.9497 46.2959L13.0117 49.0611L12.6588 48.8136L14.281 46.4991L11.8554 48.2507L11.5252 48.0191L12.3753 45.1048L10.7252 47.4587L10.3726 47.2112ZM15.2542 49.9738C15.0563 50.0132 14.8823 50.022 14.7323 50.0008C14.5821 49.9784 14.4355 49.9279 14.2932 49.8488C14.0582 49.7184 13.9097 49.5614 13.847 49.3766C13.7847 49.1918 13.8031 49.0095 13.902 48.8315C13.9604 48.7263 14.0367 48.6438 14.1331 48.5837C14.2286 48.5236 14.3295 48.4888 14.4355 48.4794C14.5421 48.4703 14.6509 48.4783 14.7629 48.5055C14.844 48.5262 14.9616 48.567 15.1147 48.6297C15.4271 48.7569 15.6658 48.8354 15.831 48.8635C15.8599 48.8148 15.8781 48.7833 15.8854 48.7703C15.9674 48.6226 15.9909 48.499 15.9555 48.4012C15.909 48.2674 15.7933 48.1503 15.6113 48.0491C15.4407 47.9544 15.2984 47.9142 15.1836 47.9286C15.0691 47.9434 14.9506 48.0162 14.8273 48.1463L14.5001 47.9011C14.6164 47.7676 14.7377 47.6741 14.8627 47.6222C14.988 47.5692 15.1354 47.5567 15.3029 47.584C15.4702 47.6112 15.6459 47.6755 15.8302 47.7776C16.013 47.879 16.1485 47.9831 16.2392 48.0891C16.3291 48.1957 16.3832 48.2957 16.4013 48.3915C16.4189 48.4865 16.4104 48.5888 16.3772 48.7008C16.3546 48.7691 16.299 48.8839 16.2097 49.0446L15.9416 49.528C15.7542 49.8656 15.6434 50.083 15.6102 50.1802C15.5756 50.278 15.5589 50.3812 15.5589 50.4883L15.1799 50.278C15.1844 50.1825 15.2085 50.0807 15.2542 49.9738ZM15.6734 49.1473C15.5113 49.1283 15.2887 49.0642 15.0053 48.9565C14.8443 48.895 14.7249 48.8601 14.649 48.853C14.5721 48.8457 14.5024 48.8581 14.4403 48.8919C14.378 48.9247 14.3292 48.9724 14.2941 49.0356C14.2402 49.1325 14.2328 49.2337 14.2697 49.3386C14.3071 49.4432 14.3967 49.5348 14.5376 49.613C14.677 49.6904 14.8182 49.7295 14.9608 49.7284C15.1034 49.7275 15.2304 49.6884 15.3401 49.6104C15.4245 49.5506 15.511 49.4404 15.5994 49.2808L15.6734 49.1473ZM17.6285 51.3645L17.7543 51.0822C17.5139 51.2412 17.2565 51.2588 16.9816 51.1363C16.8033 51.057 16.6613 50.9351 16.5557 50.7701C16.4501 50.606 16.3954 50.4172 16.3917 50.2037C16.3883 49.9914 16.4373 49.7712 16.5394 49.5421C16.6385 49.3196 16.7662 49.1337 16.9212 48.9848C17.0767 48.8366 17.2502 48.747 17.4417 48.717C17.6338 48.6863 17.8221 48.7116 18.0058 48.7935C18.1401 48.8536 18.2473 48.9358 18.3269 49.0393C18.4071 49.143 18.4596 49.255 18.4851 49.3757L18.9783 48.2691L19.3548 48.4369L17.9797 51.521L17.6285 51.3645ZM16.9286 49.7156C16.8007 50.0022 16.7659 50.2431 16.8234 50.4384C16.881 50.6337 16.9915 50.7681 17.1559 50.8412C17.3212 50.9149 17.4921 50.9096 17.6681 50.8259C17.8439 50.7426 17.9941 50.5615 18.118 50.2837C18.2544 49.9778 18.2955 49.7275 18.2413 49.5322C18.1877 49.336 18.0744 49.2003 17.9012 49.1232C17.7331 49.048 17.5616 49.0543 17.3878 49.1413C17.214 49.2283 17.0604 49.42 16.9286 49.7156ZM20.5629 51.4345L20.9631 51.5964C20.8327 51.8212 20.6618 51.9765 20.4495 52.0627C20.2369 52.1483 19.9934 52.1545 19.7193 52.0808C19.3738 51.9881 19.1283 51.8081 18.9834 51.5414C18.8377 51.2744 18.8167 50.9487 18.9199 50.5646C19.0268 50.1666 19.2122 49.886 19.4752 49.7213C19.7391 49.5569 20.0337 49.5177 20.3602 49.6056C20.676 49.6904 20.9053 49.8675 21.0473 50.136C21.1902 50.4047 21.2089 50.7347 21.1046 51.1241C21.0981 51.1482 21.0876 51.184 21.0734 51.2304L19.312 50.7576C19.2564 51.0212 19.2768 51.2398 19.3721 51.413C19.467 51.5865 19.6124 51.6996 19.81 51.7526C19.9566 51.792 20.0923 51.7869 20.2171 51.7373C20.3415 51.6885 20.4566 51.5876 20.5629 51.4345ZM19.4222 50.4339L20.7412 50.7882C20.7769 50.5853 20.7661 50.422 20.71 50.301C20.6238 50.1125 20.4793 49.9908 20.2763 49.9364C20.0926 49.8871 19.9211 49.9069 19.7629 49.9962C19.6045 50.0858 19.4911 50.2318 19.4222 50.4339ZM25.2735 51.8121L25.7064 51.9717C25.5748 52.3263 25.3775 52.5871 25.1156 52.7538C24.8528 52.9199 24.5475 52.984 24.1969 52.9468C23.8352 52.9088 23.5489 52.8042 23.3374 52.6333C23.1265 52.4615 22.9763 52.2299 22.8876 51.9383C22.7991 51.646 22.7714 51.3396 22.8051 51.019C22.8419 50.6695 22.9406 50.3715 23.1019 50.1252C23.2632 49.8789 23.4738 49.7011 23.7354 49.592C23.9959 49.4826 24.2743 49.4443 24.5708 49.4755C24.907 49.5109 25.18 49.626 25.3911 49.8213C25.602 50.0166 25.7364 50.2735 25.7934 50.5935L25.3455 50.6508C25.2931 50.3976 25.1992 50.2083 25.0626 50.0807C24.9265 49.9534 24.7463 49.8783 24.5209 49.8545C24.2632 49.8273 24.0416 49.8664 23.855 49.9716C23.6682 50.0773 23.5288 50.2304 23.4372 50.4319C23.3448 50.6323 23.287 50.8438 23.2635 51.0649C23.2334 51.3509 23.2487 51.604 23.3088 51.8263C23.3703 52.0477 23.4823 52.2209 23.6473 52.345C23.812 52.4692 23.9962 52.5417 24.2012 52.5633C24.4498 52.5894 24.6677 52.5398 24.8557 52.4148C25.0436 52.2892 25.1828 52.0879 25.2735 51.8121ZM25.9694 51.8796C25.9379 51.4277 26.0403 51.0842 26.277 50.8495C26.4737 50.6544 26.7231 50.5456 27.025 50.5246C27.3606 50.5014 27.643 50.5921 27.8709 50.7976C28.0994 51.0025 28.2264 51.2988 28.2533 51.6863C28.2751 52.0006 28.2451 52.2509 28.1637 52.4371C28.0821 52.6242 27.9545 52.7733 27.7819 52.8853C27.6084 52.9976 27.4156 53.0605 27.2022 53.0752C26.8612 53.099 26.5774 53.0092 26.3512 52.8042C26.125 52.6001 25.998 52.292 25.9694 51.8796ZM26.3943 51.8501C26.4161 52.163 26.5006 52.3921 26.648 52.5378C26.7954 52.6843 26.9726 52.7501 27.1787 52.7356C27.3842 52.7215 27.5497 52.631 27.6753 52.4655C27.8003 52.3 27.8519 52.057 27.8298 51.737C27.8085 51.4348 27.7246 51.2106 27.5764 51.0649C27.4284 50.9192 27.2529 50.8531 27.0488 50.8676C26.8425 50.8818 26.6764 50.9714 26.5505 51.1355C26.4246 51.2993 26.3728 51.538 26.3943 51.8501ZM29.066 52.8796L28.8449 50.7675L28.4812 50.8058L28.4477 50.4852L28.8111 50.4469L28.7842 50.1881C28.7672 50.0249 28.7692 49.9013 28.7899 49.8194C28.8185 49.708 28.8789 49.6138 28.9721 49.537C29.0651 49.4599 29.2018 49.4126 29.3823 49.3936C29.4983 49.3817 29.6278 49.3814 29.7715 49.3947L29.7474 49.761C29.6604 49.7542 29.5785 49.755 29.5017 49.7629C29.3766 49.776 29.291 49.812 29.2451 49.8712C29.1984 49.9299 29.183 50.0328 29.1984 50.1796L29.2215 50.4041L29.6958 50.3545L29.7293 50.6751L29.2553 50.7247L29.4764 52.8368L29.066 52.8796ZM30.4277 52.7478L30.1329 50.6448L29.7709 50.6955L29.7262 50.3764L30.0884 50.3256L30.0521 50.068C30.0295 49.9052 30.0272 49.7817 30.0448 49.6989C30.0697 49.5869 30.127 49.4905 30.2174 49.4106C30.3078 49.3304 30.4425 49.2782 30.6225 49.253C30.7376 49.2368 30.8671 49.232 31.0111 49.2405L30.9998 49.6073C30.9127 49.6036 30.8308 49.607 30.7543 49.6178C30.6298 49.6354 30.5457 49.6742 30.5017 49.7352C30.4569 49.7953 30.4453 49.8984 30.4657 50.045L30.4969 50.2684L30.9689 50.2023L31.0137 50.5215L30.5417 50.5875L30.8365 52.6906L30.4277 52.7478ZM33.2051 51.3475L33.6334 51.2951C33.6283 51.555 33.5541 51.7736 33.4104 51.9519C33.2658 52.1296 33.056 52.2532 32.7805 52.3218C32.4335 52.408 32.1314 52.3697 31.8754 52.2067C31.6186 52.0437 31.4423 51.7693 31.3464 51.3832C31.2467 50.9833 31.2727 50.6479 31.4233 50.3764C31.5741 50.1048 31.813 49.9276 32.141 49.846C32.4585 49.7672 32.7448 49.8108 32.999 49.977C33.2542 50.1425 33.4308 50.422 33.5283 50.8135C33.5342 50.8378 33.5424 50.8738 33.5526 50.9215L31.7827 51.362C31.8621 51.6194 31.9857 51.8008 32.1529 51.9059C32.3204 52.0117 32.5023 52.04 32.7008 51.9907C32.8479 51.9541 32.9641 51.8838 33.0492 51.7801C33.1345 51.6769 33.1864 51.5329 33.2051 51.3475ZM31.7223 51.0255L33.0475 50.6955C32.9803 50.5008 32.8919 50.3633 32.7842 50.2848C32.6175 50.1618 32.4318 50.1252 32.228 50.176C32.0435 50.2219 31.9032 50.3225 31.8079 50.4773C31.713 50.6323 31.6846 50.8152 31.7223 51.0255ZM35.7209 50.5059L36.1378 50.3942C36.169 50.6522 36.1259 50.8792 36.0086 51.0757C35.8901 51.2718 35.6993 51.4232 35.4363 51.5295C35.1046 51.6633 34.8002 51.6675 34.5238 51.5417C34.2469 51.4161 34.0343 51.1686 33.8852 50.7999C33.7309 50.4177 33.71 50.0818 33.8214 49.7921C33.9331 49.5022 34.1448 49.2935 34.4583 49.1671C34.7616 49.0446 35.0513 49.048 35.3263 49.177C35.6021 49.3057 35.8158 49.558 35.9666 49.9319C35.976 49.9551 35.9893 49.9897 36.006 50.0356L34.3143 50.7182C34.4288 50.962 34.5768 51.1244 34.7568 51.2049C34.9371 51.2866 35.1216 51.2894 35.311 51.2129C35.4519 51.1562 35.557 51.0703 35.627 50.9558C35.6971 50.8418 35.7282 50.6919 35.7209 50.5059ZM34.208 50.3931L35.4743 49.8823C35.3806 49.6986 35.2738 49.5747 35.1562 49.5121C34.9739 49.4134 34.7852 49.4032 34.5904 49.4817C34.4141 49.5529 34.2891 49.672 34.2164 49.8386C34.1437 50.0053 34.1413 50.1904 34.208 50.3931ZM38.3064 50.308L36.5684 47.4127L37.8517 46.6423C38.1099 46.4872 38.3219 46.396 38.4872 46.3673C38.6525 46.3387 38.8146 46.3659 38.9745 46.449C39.1341 46.5329 39.2613 46.6545 39.3569 46.8138C39.4802 47.0193 39.5176 47.2313 39.4688 47.4524C39.4206 47.673 39.2687 47.8861 39.0142 48.0914C39.1451 48.0789 39.2506 48.0806 39.3319 48.0967C39.5051 48.1322 39.6885 48.1974 39.8813 48.2906L40.8577 48.7765L40.3756 49.0656L39.631 48.6929C39.4153 48.5868 39.2426 48.5089 39.1148 48.4607C38.9872 48.4117 38.8838 48.3859 38.8047 48.3839C38.725 48.3813 38.6516 48.3904 38.5836 48.4111C38.5343 48.4287 38.4608 48.4664 38.3616 48.5259L37.9174 48.7926L38.689 50.0782L38.3064 50.308ZM37.7183 48.461L38.5422 47.9666C38.7168 47.8617 38.8432 47.7608 38.9198 47.6656C38.9972 47.5695 39.0371 47.4666 39.0405 47.3563C39.0442 47.2461 39.0177 47.1446 38.9617 47.0508C38.8795 46.9138 38.7626 46.8308 38.6099 46.8024C38.458 46.7735 38.2746 46.824 38.0595 46.9532L37.1436 47.5032L37.7183 48.461ZM40.4216 47.6302C40.1492 47.2682 40.048 46.9243 40.1185 46.5986C40.1775 46.3279 40.3275 46.1009 40.5692 45.9186C40.838 45.7165 41.124 45.6388 41.427 45.6873C41.7303 45.7343 41.9981 45.9138 42.2318 46.2239C42.4214 46.4759 42.5325 46.7021 42.5657 46.9025C42.5989 47.1038 42.5733 47.2985 42.4894 47.4864C42.405 47.6749 42.2777 47.8328 42.107 47.9615C41.8338 48.167 41.5469 48.2464 41.2456 48.1977C40.9446 48.1495 40.6704 47.9604 40.4216 47.6302ZM40.762 47.3739C40.9508 47.6242 41.1464 47.7705 41.3493 47.8124C41.5526 47.8552 41.7368 47.8138 41.9024 47.6894C42.0668 47.5655 42.1564 47.3997 42.1714 47.1922C42.1861 46.9856 42.0971 46.7534 41.9041 46.4971C41.7221 46.2554 41.5293 46.1131 41.3258 46.0717C41.1223 46.03 40.9392 46.0703 40.7759 46.1933C40.6106 46.3177 40.5199 46.4835 40.5038 46.6893C40.4876 46.8954 40.5738 47.1239 40.762 47.3739ZM44.4173 45.5132C44.3898 45.7134 44.3416 45.8806 44.2727 46.0155C44.2027 46.1505 44.1072 46.2724 43.9861 46.3812C43.7863 46.5609 43.5896 46.6502 43.394 46.6494C43.1992 46.648 43.0328 46.5714 42.8968 46.4198C42.8163 46.3305 42.763 46.2313 42.7378 46.121C42.712 46.011 42.712 45.9041 42.7375 45.8007C42.7635 45.6969 42.8066 45.5966 42.8687 45.4996C42.9146 45.4299 42.9915 45.3321 43.1006 45.2077C43.3228 44.9537 43.4748 44.7536 43.555 44.6064C43.5181 44.5634 43.4946 44.5359 43.4847 44.5248C43.3716 44.3989 43.2624 44.3363 43.1581 44.3383C43.0167 44.3386 42.8684 44.4097 42.7134 44.5492C42.5685 44.6796 42.4841 44.8009 42.4602 44.9143C42.437 45.0271 42.467 45.1629 42.5501 45.3222L42.2116 45.5515C42.1235 45.3982 42.0744 45.253 42.0659 45.1178C42.0569 44.982 42.0929 44.8386 42.1734 44.6892C42.2533 44.5398 42.3712 44.3947 42.528 44.2535C42.6836 44.1138 42.8259 44.0194 42.9557 43.9684C43.0858 43.9179 43.1981 43.8995 43.2942 43.9134C43.3897 43.9278 43.4838 43.9689 43.5788 44.037C43.6361 44.0806 43.7265 44.1708 43.8495 44.3074L44.2191 44.7184C44.4774 45.0053 44.6469 45.1807 44.7282 45.244C44.8093 45.3083 44.9014 45.3579 45.0026 45.3928L44.6806 45.6825C44.5916 45.647 44.5032 45.5912 44.4173 45.5132ZM43.7721 44.8477C43.7012 44.9951 43.5683 45.1844 43.3738 45.4174C43.2635 45.5495 43.1919 45.651 43.1604 45.7207C43.1283 45.7908 43.1173 45.8611 43.1292 45.9305C43.1399 46.0002 43.1688 46.0617 43.2174 46.1156C43.2914 46.1981 43.3846 46.2381 43.496 46.2372C43.6068 46.2358 43.7228 46.1814 43.8424 46.0737C43.9612 45.9668 44.044 45.8457 44.0896 45.7108C44.1348 45.5756 44.1392 45.4427 44.1015 45.314C44.0723 45.2145 43.9961 45.0968 43.8741 44.9611L43.7721 44.8477ZM44.8269 44.541L45.0534 44.1937C45.1906 44.2867 45.3272 44.323 45.4632 44.3037C45.5982 44.2844 45.7292 44.2048 45.8561 44.0639C45.9834 43.9224 46.0489 43.7912 46.0532 43.6713C46.0571 43.5508 46.0203 43.4553 45.9431 43.3858C45.8731 43.3226 45.7915 43.3039 45.6966 43.3286C45.6311 43.3459 45.5018 43.4199 45.3088 43.5497C45.0483 43.7234 44.8577 43.8363 44.7373 43.8853C44.6174 43.9352 44.4995 43.9497 44.3855 43.9281C44.2713 43.9068 44.1695 43.8564 44.0807 43.7765C43.9996 43.7033 43.9416 43.6171 43.9065 43.5177C43.8702 43.4184 43.8589 43.3161 43.8704 43.2112C43.8787 43.1319 43.9072 43.0392 43.9569 42.9346C44.007 42.8294 44.0749 42.7296 44.1602 42.6349C44.2886 42.4926 44.4221 42.3866 44.5604 42.3152C44.6987 42.244 44.8258 42.2146 44.9422 42.2265C45.0592 42.2387 45.1842 42.288 45.319 42.3744L45.0894 42.7126C44.9834 42.6423 44.8745 42.6162 44.7631 42.6344C44.6514 42.6522 44.5414 42.7214 44.4337 42.8413C44.3062 42.9828 44.2383 43.1049 44.2309 43.207C44.223 43.3099 44.2505 43.3898 44.313 43.4459C44.3531 43.4822 44.4006 43.5015 44.4552 43.5055C44.5114 43.5103 44.5732 43.4953 44.6441 43.4615C44.6832 43.4405 44.7909 43.3739 44.9674 43.26C45.2223 43.0947 45.4066 42.9856 45.521 42.9334C45.6359 42.8801 45.7513 42.8614 45.8661 42.8759C45.9809 42.8906 46.0909 42.9451 46.1959 43.0397C46.2985 43.1324 46.3678 43.2495 46.4049 43.3912C46.4415 43.533 46.4336 43.6826 46.3817 43.84C46.3295 43.9976 46.2388 44.1475 46.1104 44.2901C45.8972 44.5265 45.6861 44.6623 45.4766 44.6977C45.2668 44.7331 45.0503 44.681 44.8269 44.541ZM47.263 42.0547L47.6 42.2103C47.5549 42.3203 47.507 42.4141 47.4555 42.4904C47.371 42.6154 47.2862 42.6987 47.2001 42.741C47.1147 42.7829 47.03 42.796 46.9466 42.7804C46.8639 42.7653 46.7184 42.6882 46.5126 42.5491L45.3462 41.7616L45.1761 42.0139L44.9088 41.8336L45.0792 41.5813L44.5766 41.242L44.6018 40.761L45.3099 41.2392L45.5432 40.8939L45.8102 41.0742L45.5772 41.4194L46.7627 42.2197C46.861 42.2863 46.9274 42.3226 46.9634 42.3297C46.9996 42.3362 47.0351 42.3316 47.0705 42.3158C47.1054 42.2993 47.1402 42.2662 47.1745 42.2151C47.2003 42.1769 47.2298 42.1233 47.263 42.0547ZM48.1601 40.0089L48.4201 39.6642C48.6035 39.8482 48.7092 40.0537 48.7378 40.2808C48.7651 40.5084 48.7081 40.7451 48.5661 40.9908C48.3872 41.3004 48.1499 41.4912 47.8546 41.562C47.5589 41.6335 47.2392 41.5697 46.8948 41.3707C46.5379 41.1643 46.3148 40.9129 46.2238 40.6158C46.1334 40.3185 46.1719 40.024 46.3412 39.7311C46.5047 39.448 46.7352 39.2725 47.0314 39.2047C47.3279 39.1364 47.6513 39.2036 48.0006 39.4051C48.0224 39.4179 48.0538 39.4369 48.0952 39.4627L47.1828 41.0422C47.4229 41.1638 47.6394 41.2006 47.831 41.1536C48.0232 41.1065 48.1704 40.9954 48.2727 40.8185C48.3484 40.687 48.3787 40.5546 48.3631 40.4214C48.3484 40.2884 48.2806 40.1509 48.1601 40.0089ZM46.8987 40.8517L47.5819 39.6691C47.3951 39.582 47.2346 39.5503 47.1034 39.5732C46.899 39.6078 46.744 39.7161 46.6388 39.8978C46.5438 40.0625 46.5186 40.2331 46.564 40.4092C46.6093 40.5855 46.7213 40.7326 46.8987 40.8517ZM49.3812 39.5083L47.1651 38.4737L47.3228 38.1361L47.6583 38.2925C47.5419 38.1332 47.4749 38.0048 47.4594 37.9082C47.4435 37.8124 47.4554 37.72 47.4963 37.6324C47.5555 37.5054 47.656 37.3962 47.7976 37.3027L48.0863 37.5952C47.9888 37.6607 47.9188 37.7401 47.876 37.8319C47.8376 37.9147 47.8281 37.9997 47.8465 38.0882C47.8658 38.1769 47.9127 38.2551 47.9871 38.3237C48.1008 38.428 48.2371 38.5171 48.3962 38.591L49.5568 39.133L49.3812 39.5083ZM51.0205 38.3152L50.6441 38.2055C50.7023 38.1313 50.7448 38.0635 50.771 38.0014C50.8071 37.9167 50.8216 37.8427 50.8148 37.78C50.8083 37.7165 50.787 37.6587 50.7493 37.6043C50.722 37.5638 50.6436 37.4852 50.5152 37.3673C50.4965 37.3509 50.4711 37.3265 50.4364 37.2936L47.818 37.189L47.9925 36.778L49.4949 36.863C49.6863 36.8732 49.8833 36.8922 50.086 36.9217C49.9298 36.8032 49.7812 36.6785 49.6398 36.5467L48.5322 35.5081L48.6945 35.1268L50.6201 36.9557C50.8284 37.1527 50.9681 37.2967 51.0399 37.3869C51.1371 37.5085 51.1958 37.625 51.2173 37.7375C51.2383 37.8506 51.2238 37.9674 51.1721 38.089C51.1408 38.1627 51.09 38.2378 51.0205 38.3152Z"/>
</svg>
