<svg width="56" height="56" viewBox="0 0 56 56" xmlns="http://www.w3.org/2000/svg">
    <path fill-rule="evenodd" clip-rule="evenodd"
          d="M8.42269 42.6743C6.93429 40.6467 5.75509 38.3772 4.95629 35.9358C4.18519 33.5799 3.76799 31.0636 3.76799 28.4506C3.76799 23.3446 5.35909 18.6096 8.07239 14.715C10.8631 10.7091 14.8415 7.59164 19.4971 5.87324L19.5762 6.08894C14.9654 7.79094 11.025 10.8784 8.26089 14.846C5.57389 18.7031 3.99809 23.3927 3.99809 28.4506C3.99809 31.0398 4.41119 33.532 5.17449 35.8649C5.96569 38.2826 7.13359 40.5304 8.60809 42.5385L8.42269 42.6743ZM23.4671 4.78674C24.1791 4.65634 24.9028 4.55684 25.6359 4.49054C26.361 4.42474 27.0923 4.39104 27.8279 4.39104C34.4714 4.39104 40.4868 7.08424 44.8406 11.4379C49.1943 15.7916 51.8875 21.8068 51.8875 28.4506C51.8875 31.167 51.4368 33.7789 50.606 36.2153C49.7451 38.7409 48.4749 41.0781 46.8761 43.1474L46.6944 43.0074C48.2781 40.9579 49.5356 38.6431 50.3885 36.1416C51.2112 33.7296 51.6576 31.1424 51.6576 28.4506C51.6576 21.8703 48.9902 15.9127 44.6779 11.6006C40.3658 7.28834 34.4082 4.62124 27.8279 4.62124C27.0926 4.62124 26.3683 4.65434 25.6565 4.71874C24.9309 4.78444 24.2143 4.88284 23.5084 5.01214L23.4671 4.78674ZM12.4502 42.1564C10.7959 40.3017 9.47159 38.1457 8.57069 35.7813C7.70299 33.5039 7.22739 31.0324 7.22739 28.4506C7.22739 23.8389 8.74329 19.5816 11.3033 16.1488C13.9265 12.6316 17.6473 9.98014 21.9582 8.70084L22.0228 8.92074C17.7609 10.1856 14.0821 12.8076 11.4876 16.2863C8.95619 19.6805 7.45759 23.8905 7.45759 28.4506C7.45759 31.0043 7.92749 33.4478 8.78559 35.6996C9.67619 38.0377 10.9858 40.1696 12.6217 42.0036L12.4502 42.1564ZM44.7292 16.6732C45.9152 18.372 46.852 20.2571 47.4859 22.2756C48.0979 24.2253 48.4281 26.2997 48.4281 28.4506C48.4281 31.1061 47.9252 33.6445 47.0096 35.9755C46.0586 38.3962 44.6626 40.5937 42.9227 42.4668L42.7546 42.3106C44.4749 40.4584 45.8557 38.2857 46.7956 35.8921C47.7007 33.5875 48.1982 31.0772 48.1982 28.4506C48.1982 26.3226 47.8717 24.2712 47.2665 22.3439C46.6394 20.3472 45.7134 18.4829 44.5415 16.8042L44.7292 16.6732ZM21.3932 44.3413C18.2077 43.0502 15.498 40.8289 13.6016 38.0147C11.7614 35.2829 10.6868 31.9922 10.6868 28.4506C10.6868 24.1845 12.2461 20.282 14.8254 17.2821C17.4417 14.2394 21.1078 12.125 25.2614 11.5014L25.2954 11.7285C21.1976 12.3439 17.5806 14.4296 14.9997 17.4312C12.455 20.3906 10.917 24.2409 10.917 28.4506C10.917 31.9449 11.9768 35.1914 13.7921 37.8863C15.6633 40.6631 18.3366 42.8546 21.4794 44.1285L21.3932 44.3413ZM44.404 24.0756C44.5894 24.7797 44.7314 25.5029 44.8267 26.2418C44.9202 26.9672 44.9687 27.7045 44.9687 28.4506C44.9687 31.4644 44.1903 34.2971 42.8234 36.7584C41.4067 39.3098 39.3572 41.4619 36.8877 43.0028L36.7664 42.8078C39.2033 41.2873 41.2256 39.1641 42.623 36.647C43.9709 34.22 44.7388 31.4253 44.7388 28.4506C44.7388 27.7096 44.6912 26.982 44.5996 26.2708C44.5058 25.5442 44.3655 24.8308 44.1821 24.134L44.404 24.0756ZM23.1788 41.321C20.5083 40.3561 18.2238 38.5839 16.6211 36.3C15.0618 34.0779 14.1465 31.3711 14.1465 28.4506C14.1465 24.6726 15.6777 21.2523 18.1535 18.7765C20.6293 16.3007 24.0496 14.7692 27.8279 14.7692C27.9163 14.7692 28.017 14.7709 28.1281 14.7734C28.2307 14.7757 28.3302 14.7794 28.4263 14.7834L28.4166 15.0124C28.3163 15.0081 28.2179 15.0047 28.1233 15.0025C28.0362 15.0005 27.9381 14.9994 27.8279 14.9994C24.1134 14.9994 20.7503 16.5048 18.3162 18.9392C15.8821 21.3731 14.3764 24.7364 14.3764 28.4506C14.3764 31.3227 15.2761 33.9838 16.8088 36.1679C18.3851 38.4144 20.631 40.1568 23.2562 41.1053L23.1788 41.321ZM41.5059 28.6898C41.4571 31.5248 40.5464 34.1497 39.0244 36.3128C37.4611 38.5354 35.2521 40.2714 32.6709 41.249L32.5898 41.0342C35.1277 40.0732 37.2996 38.3662 38.8368 36.1807C40.3332 34.0538 41.229 31.4729 41.2769 28.6862L41.5059 28.6898ZM7.12649 46.5799C4.96479 44.1137 3.23619 41.2581 2.06099 38.1323C0.928194 35.1205 0.308594 31.8576 0.308594 28.4506C0.308594 20.8518 3.38899 13.9715 8.36889 8.99164C13.3488 4.01204 20.2288 0.931641 27.8279 0.931641C35.427 0.931641 42.307 4.01204 47.2869 8.99164C52.2665 13.9715 55.3469 20.8515 55.3469 28.4506C55.3469 31.9925 54.6774 35.3782 53.4579 38.4881C52.1919 41.717 50.333 44.6492 48.0154 47.1499L47.8473 46.9934C50.1453 44.5143 51.9887 41.6068 53.2442 38.4045C54.4529 35.3212 55.117 31.9636 55.117 28.4506C55.117 20.915 52.0624 14.0926 47.1242 9.15434C42.1859 4.21614 35.3635 1.16184 27.8279 1.16184C20.292 1.16184 13.4696 4.21614 8.53129 9.15434C3.59309 14.0926 0.538694 20.915 0.538694 28.4506C0.538694 31.8301 1.15299 35.0658 2.27579 38.0513C3.44169 41.1518 5.15549 43.9839 7.29879 46.4291L7.12649 46.5799Z"
    />
    <path fill-rule="evenodd" clip-rule="evenodd"
          d="M25.8791 47.4753C25.9533 47.4291 26.037 47.3996 26.1019 47.3903C26.1112 47.3903 26.1203 47.3903 26.1296 47.3903C26.139 47.3903 26.139 47.3809 26.139 47.3809C26.4267 47.3625 26.6305 47.5774 26.6305 47.828C26.6305 48.3288 26.2223 48.6367 25.3966 48.5624C25.4337 48.1063 25.5729 47.661 25.8791 47.4753ZM45.6567 49.3159C45.6445 48.1528 45.63 46.9934 45.63 45.8327C45.63 44.9553 45.0889 44.4142 44.3329 44.4142C43.8102 44.4142 43.3045 44.7782 43.2039 45.0769C43.1333 45.2853 43.6764 45.2079 43.7061 45.8859C43.7061 46.4132 43.7061 46.8698 43.7061 47.3974C43.417 46.9067 42.9598 46.5651 42.3158 46.5651C41.0838 46.5651 40.4401 47.8064 40.4401 49.006C40.4401 50.1796 41.0932 51.3968 42.2693 51.3968C43.0224 51.3968 43.4354 50.931 43.7436 50.3329C43.8742 50.9954 44.3689 51.3968 45.0126 51.3968C45.5353 51.3968 46.0393 51.0328 46.1326 50.7343C46.2259 50.4823 45.6717 50.7995 45.6567 49.3159ZM15.4969 45.9596C15.3642 45.0914 14.9096 45.2918 14.9821 45.0769C15.0411 44.902 15.2387 44.705 15.4972 44.5715C15.5011 44.531 15.5434 44.531 15.5434 44.531L15.5816 44.5313C15.7446 44.4595 15.9269 44.4142 16.1112 44.4142C16.7351 44.4142 17.2124 44.7827 17.3604 45.4043C17.41 45.558 17.4355 45.7346 17.4361 45.9372L17.4454 49.3371C17.4494 50.8123 18.0776 50.4973 17.9928 50.7474C17.8922 51.0447 17.3156 51.4061 16.796 51.4061C16.0445 51.4061 15.4969 50.8681 15.4969 49.9959V45.9596ZM43.7623 48.849C43.7623 49.3156 43.6781 50.1884 43.0624 50.1884C42.6049 50.1884 42.3529 49.6631 42.3529 49.006C42.3529 48.3495 42.6049 47.7475 43.0624 47.7475C43.6452 47.7475 43.7623 48.4944 43.7623 48.849ZM41.4277 44.4428C40.0631 44.5639 39.6053 46.342 39.4754 46.9401C39.3819 46.6635 38.9958 46.3015 38.3705 46.3015C37.8481 46.3015 37.3441 46.6655 37.2415 46.9642C37.1573 47.216 37.7919 46.8988 37.7919 48.3841C37.7919 49.0296 37.7908 51.1541 37.7908 51.1541C37.7908 51.2009 37.8282 51.2009 37.8282 51.2009H39.7039C39.7039 51.2009 39.7413 51.2009 39.7413 51.1541C39.7413 51.1541 39.6302 50.1345 39.6676 49.078C39.726 47.4402 40.1991 46.3293 40.5132 45.8675C40.6527 45.6623 40.8851 45.5795 40.8851 45.9123C40.8851 46.1005 40.8519 46.164 40.9038 46.2499C40.9353 46.3018 41.1465 46.435 41.3704 46.435C42.0051 46.435 42.5329 46.0787 42.549 45.3046C42.5612 44.7308 42.0119 44.3912 41.4277 44.4428ZM28.2823 49.7609C28.2451 49.7331 28.1987 49.7425 28.1615 49.7703C27.0296 50.4027 25.7957 50.31 25.4709 49.3805C26.6864 49.5846 28.3843 49.4083 28.3843 47.9487C28.3843 47.2882 27.7256 46.331 26.2039 46.331C24.608 46.331 23.5598 47.5031 23.5598 48.8592C23.5598 50.2618 24.6823 51.3971 26.0832 51.3971C27.4378 51.3971 28.208 50.2989 28.3101 49.9094C28.3378 49.8258 28.3194 49.7887 28.2823 49.7609ZM23.0215 49.3371C23.0215 48.6971 23.0957 46.5816 23.0957 46.5816C23.0957 46.5444 23.0586 46.5351 23.0586 46.5351H21.1937C21.1937 46.5351 21.1565 46.5444 21.1565 46.5909C21.1565 46.5909 21.1565 48.0845 21.1565 49.1424C21.1197 50.1816 20.2846 50.4784 20.2846 49.569C20.2846 48.9289 20.2846 48.0845 20.2846 47.7693C20.2846 46.8971 19.663 46.3588 18.9112 46.3588C18.3916 46.3588 17.8907 46.7207 17.7887 47.0175C17.7051 47.2681 18.4103 46.9526 18.4103 48.4281C18.4103 49.1237 18.4103 49.4857 18.4103 49.8751C18.4103 50.8032 18.9948 51.4061 19.6814 51.4061C20.1732 51.4061 20.7948 51.1278 21.1843 50.3392C21.3144 51.0073 21.8062 51.4061 22.4463 51.4061C22.9659 51.4061 23.4668 51.0444 23.5688 50.7474C23.6524 50.4971 23.0215 50.8123 23.0215 49.3371ZM12.3425 50.2927C11.7486 50.2927 11.5633 49.8289 11.5445 49.3743C11.5445 49.133 11.5445 48.4927 11.5445 48.1775C12.4074 48.0105 13.1498 48.4558 13.1498 49.3C13.1498 49.9032 12.8527 50.2927 12.3425 50.2927ZM12.7413 46.1827C12.7413 46.6743 12.4168 47.1567 11.5445 47.1567C11.5445 46.6836 11.5445 45.8114 11.5445 45.4032C11.9992 45.2918 12.7413 45.3476 12.7413 46.1827ZM33.1596 47.3653C33.5142 47.2256 33.9343 46.647 33.9343 46.003C33.9343 44.6778 32.4878 44.3232 31.3026 44.3232C29.7999 44.3232 28.8016 44.6126 28.8016 44.6126C28.7922 44.6126 28.7548 44.622 28.7548 44.6685C28.7548 44.6591 28.7548 47.8319 28.7548 48.6905C28.7548 49.8664 29.3801 51.4061 31.4707 51.4061C32.973 51.4061 34.4009 50.753 34.4009 49.1104C34.4009 48.4572 33.9995 47.7106 33.1692 47.4215C33.1318 47.4121 33.1318 47.3841 33.1596 47.3653ZM36.941 51.1448C36.941 51.1448 36.941 49.1835 36.941 48.4558C36.941 47.5785 36.3999 47.0374 35.6439 47.0374C35.1211 47.0374 34.6154 47.4011 34.5145 47.6998C34.4298 47.951 35.065 47.6349 35.065 49.1189C35.065 49.7626 34.9905 51.1541 34.9905 51.1541C34.9905 51.1915 35.0372 51.2009 35.0372 51.2009H36.9036C36.9036 51.2009 36.941 51.1915 36.941 51.1448ZM36.8758 45.9171C36.8758 45.4412 36.3809 45.0494 35.7836 45.0494C35.1866 45.0494 34.7013 45.4412 34.7013 45.9171C34.7013 46.4027 35.1866 46.7851 35.7836 46.7851C36.3809 46.7851 36.8758 46.4027 36.8758 45.9171ZM32.0025 46.1524C32.0025 46.647 31.6759 47.1323 30.7986 47.1323C30.7986 46.6561 30.7986 45.7791 30.7986 45.3683C31.2558 45.2564 32.0025 45.3122 32.0025 46.1524ZM31.6014 50.2864C31.0038 50.2864 30.8173 49.8199 30.7986 49.3624C30.7986 49.12 30.7986 48.476 30.7986 48.1588C31.6666 47.9907 32.4132 48.4388 32.4132 49.2878C32.4132 49.8944 32.1144 50.2864 31.6014 50.2864ZM13.8919 47.3889C14.2445 47.2497 14.6621 46.6743 14.6621 46.0342C14.6621 44.7167 13.2241 44.364 12.0457 44.364C10.5519 44.364 9.5592 44.6517 9.5592 44.6517C9.5498 44.6517 9.5127 44.6611 9.5127 44.7073C9.5127 44.6979 9.5127 47.8526 9.5127 48.7064C9.5127 49.8751 10.1343 51.4061 12.2127 51.4061C13.7062 51.4061 15.1258 50.7567 15.1258 49.1237C15.1258 48.4743 14.727 47.7321 13.9013 47.4444C13.8641 47.4351 13.8641 47.4073 13.8919 47.3889Z"
    />
    <path fill-rule="evenodd" clip-rule="evenodd"
          d="M15.7854 54.4498V55.3373H15.458V53.4401H15.7854V54.2834H15.7936L16.4203 53.4401H16.7755L16.0819 54.3525L16.7755 55.3373H16.39L15.7936 54.4469L15.7854 54.4498ZM18.5078 55.3373C18.484 55.254 18.4613 55.1712 18.44 55.089C18.4185 55.0068 18.3961 54.924 18.372 54.8407H17.8532L17.7285 55.3373H17.3872L17.9255 53.4401H18.3C18.3904 53.7581 18.4811 54.0745 18.5715 54.3888C18.6623 54.7029 18.7538 55.0193 18.8462 55.3373H18.5078ZM18.103 53.7729C18.0899 53.8358 18.0769 53.8973 18.0641 53.9574C18.0511 54.0175 18.0372 54.0779 18.0225 54.1391C18.0041 54.2131 17.9859 54.2862 17.9683 54.3582C17.9508 54.4302 17.9338 54.5033 17.917 54.5773H18.3082L18.1999 54.1391C18.1852 54.0779 18.171 54.0169 18.1571 53.956C18.1432 53.895 18.1299 53.8338 18.1169 53.7729H18.103ZM20.4484 55.3373L20.1434 54.5467H19.9047V55.3373H19.5829V53.4429H20.1074C20.1847 53.4429 20.2607 53.4508 20.3347 53.4664C20.4084 53.482 20.4739 53.5098 20.53 53.5498C20.5864 53.5895 20.6318 53.643 20.6661 53.7105C20.7004 53.778 20.7174 53.8636 20.7174 53.967C20.7174 54.1224 20.6822 54.2454 20.6119 54.3358C20.5416 54.4265 20.4475 54.4875 20.329 54.5189L20.5065 54.6522L20.7894 55.3373H20.4484ZM20.3903 53.9755C20.3903 53.92 20.3812 53.8746 20.3639 53.8395C20.3463 53.8043 20.3225 53.7765 20.293 53.7561C20.2635 53.736 20.2295 53.7221 20.1918 53.7147C20.1538 53.7074 20.1156 53.7037 20.0767 53.7037H19.9047V54.2862H20.0878C20.1876 54.2862 20.263 54.2616 20.3137 54.2125C20.3647 54.1635 20.3903 54.0844 20.3903 53.9755ZM22.544 55.3373C22.5202 55.254 22.4975 55.1712 22.4763 55.089C22.455 55.0068 22.4323 54.924 22.4082 54.8407H21.8895L21.7648 55.3373H21.4235L21.9618 53.4401H22.3362C22.4267 53.7581 22.5174 54.0745 22.6078 54.3888C22.6985 54.7029 22.7901 55.0193 22.8825 55.3373H22.544ZM22.1392 53.7729C22.1262 53.8358 22.1132 53.8973 22.1004 53.9574C22.0874 54.0175 22.0735 54.0779 22.0587 54.1391C22.0403 54.2131 22.0222 54.2862 22.0046 54.3582C21.987 54.4302 21.97 54.5033 21.9533 54.5773H22.3445L22.2362 54.1391C22.2214 54.0779 22.2073 54.0169 22.1934 53.956C22.1795 53.895 22.1659 53.8338 22.1531 53.7729H22.1392ZM24.2627 55.3761C24.1351 55.3761 24.028 55.352 23.9409 55.3039C23.8542 55.2559 23.7842 55.1879 23.7317 55.1C23.6787 55.0122 23.6413 54.9079 23.6192 54.7868C23.5971 54.6655 23.586 54.5311 23.586 54.3832C23.586 54.2352 23.5979 54.1005 23.622 53.9795C23.6461 53.8585 23.685 53.755 23.7385 53.6688C23.7921 53.5829 23.8618 53.5163 23.948 53.4693C24.0339 53.4219 24.1388 53.3984 24.2627 53.3984C24.3865 53.3984 24.4914 53.4216 24.5776 53.4679C24.6635 53.5141 24.7329 53.5801 24.7857 53.666C24.8381 53.7522 24.8766 53.8556 24.9007 53.9767C24.9246 54.098 24.9367 54.2332 24.9367 54.3832C24.9367 54.5311 24.9257 54.6655 24.9033 54.7868C24.8812 54.9079 24.8443 55.0122 24.7925 55.1C24.7406 55.1879 24.6714 55.2559 24.5844 55.3039C24.4977 55.352 24.3902 55.3761 24.2627 55.3761ZM24.2627 53.6677C24.1924 53.6677 24.136 53.685 24.0934 53.7201C24.0509 53.7553 24.018 53.8049 23.9951 53.8687C23.9718 53.9325 23.9568 54.0079 23.9492 54.0946C23.9418 54.1816 23.9381 54.2777 23.9381 54.3832C23.9381 54.494 23.9423 54.5941 23.9506 54.6825C23.9591 54.7715 23.9747 54.8472 23.9979 54.9101C24.0209 54.973 24.0538 55.0215 24.0963 55.0555C24.1388 55.0898 24.1943 55.1068 24.2627 55.1068C24.3293 55.1068 24.3837 55.0898 24.4265 55.0555C24.4687 55.0215 24.5016 54.9725 24.5249 54.9087C24.5478 54.8449 24.5637 54.7687 24.5719 54.6799C24.5804 54.5912 24.5844 54.4923 24.5844 54.3832C24.5844 54.2794 24.5807 54.1839 24.5733 54.096C24.566 54.0081 24.5507 53.9325 24.5277 53.8687C24.5045 53.8049 24.4716 53.7553 24.4291 53.7201C24.3865 53.685 24.3313 53.6677 24.2627 53.6677ZM26.0729 54.4498V55.3373H25.7455V53.4401H26.0729V54.2834H26.0811L26.7081 53.4401H27.063L26.3697 54.3525L27.063 55.3373H26.6775L26.0811 54.4469L26.0729 54.4498ZM27.7969 53.4372H28.8454V53.7062H28.1215V54.2111H28.7595V54.4801H28.1215V55.0683H28.8454V55.3373H27.7969V53.4372ZM31.2407 55.3373L30.9357 54.5467H30.697V55.3373H30.3753V53.4429H30.8997C30.9774 53.4429 31.0531 53.4508 31.127 53.4664C31.201 53.482 31.2662 53.5098 31.3226 53.5498C31.379 53.5895 31.4244 53.643 31.4584 53.7105C31.4927 53.778 31.5097 53.8636 31.5097 53.967C31.5097 54.1224 31.4746 54.2454 31.4043 54.3358C31.3343 54.4265 31.2399 54.4875 31.1214 54.5189L31.2991 54.6522L31.582 55.3373H31.2407ZM31.1826 53.9755C31.1826 53.92 31.1738 53.8746 31.1562 53.8395C31.1387 53.8043 31.1151 53.7765 31.0854 53.7561C31.0559 53.736 31.0222 53.7221 30.9842 53.7147C30.9462 53.7074 30.9079 53.7037 30.8691 53.7037H30.697V54.2862H30.8801C30.9799 54.2862 31.0553 54.2616 31.1063 54.2125C31.1571 54.1635 31.1826 54.0844 31.1826 53.9755ZM32.9676 55.3761C32.84 55.3761 32.7329 55.352 32.6458 55.3039C32.5591 55.2559 32.4891 55.1879 32.4366 55.1C32.3839 55.0122 32.3465 54.9079 32.3241 54.7868C32.302 54.6655 32.2909 54.5311 32.2909 54.3832C32.2909 54.2352 32.3029 54.1005 32.3269 53.9795C32.351 53.8585 32.3899 53.755 32.4435 53.6688C32.497 53.5829 32.5668 53.5163 32.6529 53.4693C32.7388 53.4219 32.8437 53.3984 32.9676 53.3984C33.0915 53.3984 33.1963 53.4216 33.2825 53.4679C33.3684 53.5141 33.4378 53.5801 33.4906 53.666C33.543 53.7522 33.5816 53.8556 33.6057 53.9767C33.6298 54.098 33.6417 54.2332 33.6417 54.3832C33.6417 54.5311 33.6306 54.6655 33.6085 54.7868C33.5861 54.9079 33.5492 55.0122 33.4974 55.1C33.4455 55.1879 33.3763 55.2559 33.2893 55.3039C33.2026 55.352 33.0951 55.3761 32.9676 55.3761ZM32.9676 53.6677C32.8973 53.6677 32.8409 53.685 32.7983 53.7201C32.7558 53.7553 32.7229 53.8049 32.7 53.8687C32.6767 53.9325 32.6617 54.0079 32.6543 54.0946C32.647 54.1816 32.643 54.2777 32.643 54.3832C32.643 54.494 32.6473 54.5941 32.6555 54.6825C32.664 54.7715 32.6796 54.8472 32.7028 54.9101C32.7258 54.973 32.7587 55.0215 32.8012 55.0555C32.8437 55.0898 32.8993 55.1068 32.9676 55.1068C33.0342 55.1068 33.0889 55.0898 33.1314 55.0555C33.1739 55.0215 33.2065 54.9725 33.2298 54.9087C33.2527 54.8449 33.2686 54.7687 33.2768 54.6799C33.2853 54.5912 33.2893 54.4923 33.2893 54.3832C33.2893 54.2794 33.2856 54.1839 33.2783 54.096C33.2709 54.0081 33.2556 53.9325 33.2326 53.8687C33.2094 53.8049 33.1765 53.7553 33.134 53.7201C33.0915 53.685 33.0362 53.6677 32.9676 53.6677ZM35.0802 55.3761C34.9527 55.3761 34.8452 55.352 34.7585 55.3039C34.6715 55.2559 34.6018 55.1879 34.549 55.1C34.4963 55.0122 34.4589 54.9079 34.4368 54.7868C34.4144 54.6655 34.4033 54.5311 34.4033 54.3832C34.4033 54.2352 34.4155 54.1005 34.4393 53.9795C34.4634 53.8585 34.5023 53.755 34.5558 53.6688C34.6097 53.5829 34.6794 53.5163 34.7653 53.4693C34.8512 53.4219 34.9564 53.3984 35.0802 53.3984C35.2041 53.3984 35.309 53.4216 35.3949 53.4679C35.4808 53.5141 35.5502 53.5801 35.6029 53.666C35.6557 53.7522 35.6939 53.8556 35.718 53.9767C35.7421 54.098 35.754 54.2332 35.754 54.3832C35.754 54.5311 35.743 54.6655 35.7209 54.7868C35.6988 54.9079 35.6616 55.0122 35.6098 55.1C35.5582 55.1879 35.4887 55.2559 35.402 55.3039C35.3149 55.352 35.2078 55.3761 35.0802 55.3761ZM35.0802 53.6677C35.0099 53.6677 34.9535 53.685 34.911 53.7201C34.8685 53.7553 34.8356 53.8049 34.8124 53.8687C34.7894 53.9325 34.7741 54.0079 34.7667 54.0946C34.7594 54.1816 34.7557 54.2777 34.7557 54.3832C34.7557 54.494 34.7599 54.5941 34.7681 54.6825C34.7764 54.7715 34.7922 54.8472 34.8152 54.9101C34.8384 54.973 34.871 55.0215 34.9138 55.0555C34.9564 55.0898 35.0116 55.1068 35.0802 55.1068C35.1466 55.1068 35.2013 55.0898 35.2438 55.0555C35.2863 55.0215 35.3192 54.9725 35.3422 54.9087C35.3654 54.8449 35.381 54.7687 35.3895 54.6799C35.3977 54.5912 35.402 54.4923 35.402 54.3832C35.402 54.2794 35.3983 54.1839 35.3906 54.096C35.3833 54.0081 35.368 53.9325 35.345 53.8687C35.3218 53.8049 35.2892 53.7553 35.2466 53.7201C35.2041 53.685 35.1486 53.6677 35.0802 53.6677ZM37.3743 54.4747L37.4798 54.2222L37.7802 53.4401H38.1689V55.3373H37.8582V53.9531H37.8443L37.7638 54.1584L37.4755 54.8906H37.2621L36.9678 54.153L36.8902 53.9503H36.8791V55.3373H36.5684V53.4401H36.9605L37.266 54.225L37.3658 54.4747H37.3743ZM39.5187 55.3733C39.4779 55.3733 39.4345 55.371 39.3883 55.3662C39.3421 55.3617 39.2968 55.3557 39.2526 55.3478C39.2081 55.3404 39.1655 55.3311 39.1247 55.32C39.0842 55.309 39.049 55.2956 39.0193 55.2809L39.1054 55.0323C39.1443 55.047 39.1834 55.0589 39.2234 55.0683C39.263 55.0774 39.301 55.0847 39.337 55.0904C39.373 55.0958 39.4059 55.0995 39.4354 55.1015C39.4649 55.1034 39.4881 55.1043 39.5048 55.1043C39.612 55.1043 39.697 55.083 39.76 55.0405C39.8229 54.998 39.8543 54.9226 39.8543 54.8135C39.8543 54.7579 39.8473 54.7131 39.8334 54.6791C39.8195 54.6451 39.7994 54.6162 39.7724 54.5921C39.7455 54.568 39.7118 54.5481 39.6712 54.5325C39.6304 54.5167 39.5834 54.4997 39.5298 54.4812C39.4484 54.4535 39.3747 54.426 39.3092 54.3993C39.2435 54.373 39.1876 54.3398 39.1414 54.2998C39.0952 54.2601 39.0592 54.2108 39.0334 54.1516C39.0074 54.0929 38.9943 54.0169 38.9943 53.9245C38.9943 53.8264 39.013 53.7448 39.0499 53.6782C39.087 53.6116 39.1358 53.5574 39.197 53.5163C39.2579 53.4747 39.3268 53.4452 39.4036 53.4276C39.4802 53.41 39.5593 53.4012 39.6406 53.4012C39.6758 53.4012 39.7132 53.4035 39.7529 53.4083C39.7928 53.4129 39.8331 53.4194 39.8736 53.4276C39.9144 53.4358 39.9533 53.4457 39.9901 53.4568C40.0273 53.4679 40.0596 53.4809 40.0871 53.4956L40.0122 53.7312C39.9643 53.7111 39.9156 53.6966 39.8668 53.6884C39.8178 53.6799 39.7724 53.6745 39.7308 53.6717C39.6891 53.6688 39.6545 53.668 39.6267 53.6688C39.5989 53.67 39.5825 53.6702 39.5768 53.6702C39.5564 53.6702 39.5326 53.6736 39.5048 53.6799C39.4771 53.6864 39.4507 53.698 39.4258 53.7147C39.4008 53.7312 39.379 53.7544 39.3606 53.7839C39.3421 53.8137 39.3328 53.8505 39.3328 53.895C39.3328 53.9412 39.3384 53.9795 39.3495 54.0101C39.3606 54.0407 39.3781 54.0665 39.4022 54.0878C39.426 54.109 39.4572 54.128 39.4949 54.1445C39.5329 54.1612 39.5788 54.1779 39.6324 54.1947C39.7231 54.2241 39.8033 54.2547 39.8736 54.2862C39.9439 54.3174 40.0032 54.3562 40.0511 54.4024C40.0993 54.4486 40.1358 54.5042 40.1608 54.5688C40.1857 54.6337 40.1982 54.714 40.1982 54.8103C40.1982 54.9118 40.1806 54.9983 40.1455 55.0694C40.1103 55.1409 40.0621 55.199 40.0012 55.2443C39.9402 55.2897 39.8685 55.3226 39.7863 55.3427C39.7041 55.3631 39.6148 55.3733 39.5187 55.3733Z"
    />
    <path fill-rule="evenodd" clip-rule="evenodd"
          d="M23.9905 23.2619C23.2161 22.964 22.3005 23.0408 21.5145 23.3832L19.3769 21.232C19.3491 21.2042 19.3037 21.2039 19.2757 21.232C19.2518 21.2555 19.2482 21.2924 19.2649 21.3202C19.3593 21.4741 19.4987 21.6717 19.6563 21.8953C20.2516 22.7398 21.1165 23.9669 20.7667 24.523C20.4024 25.1022 18.9188 24.8547 17.9048 24.6857C17.6352 24.6407 17.3977 24.6013 17.218 24.5837C17.1789 24.58 17.1437 24.6089 17.14 24.6483C17.1369 24.6818 17.1579 24.7124 17.1885 24.7229L19.6977 25.5789C21.216 26.7108 19.8874 30.088 21.9156 33.7008C23.3507 36.2573 25.9521 38.6248 30.6083 38.3178L28.8208 40.075C28.3732 40.5153 27.5707 40.9521 26.6993 40.9521H25.3157C24.6065 40.9521 24.2454 41.7364 24.9566 41.7364H30.8747C31.586 41.7364 31.2968 40.9521 30.5873 40.9521H29.8245C29.5714 40.9521 29.2817 40.7228 29.634 40.3528L32.105 37.7586C40.2815 34.0888 36.7955 19.6282 33.3803 16.5605C38.4217 17.4781 41.2677 21.2252 40.3357 27.3775C40.036 29.3547 47.6935 19.8232 40.7997 13.1119C36.292 8.72333 30.0453 9.93453 21.9448 5.65193C20.8699 5.08363 20.6717 6.04573 21.1723 6.42503C26.0791 10.1429 33.8574 16.6379 33.3261 23.4685C33.1705 25.4741 31.6475 26.7528 30.4317 26.6292C27.5627 26.3378 26.1684 24.0998 23.9905 23.2619ZM22.3938 23.953C22.0647 23.953 21.7976 24.22 21.7976 24.5494C21.7976 24.8785 22.0647 25.1455 22.3938 25.1455C22.7232 25.1455 22.9902 24.8785 22.9902 24.5494C22.9902 24.22 22.7232 23.953 22.3938 23.953Z"
    />
    <path fill-rule="evenodd" clip-rule="evenodd"
          d="M33.3804 16.5604C38.4218 17.478 41.2678 21.2251 40.3358 27.3774C40.3267 27.437 40.3253 27.4854 40.3301 27.5243L40.3769 27.389C42.6959 20.538 39.8839 14.8874 35.4848 11.9791C31.2725 9.19459 25.6047 8.96469 21.5925 5.50899C20.8323 5.30829 20.7325 6.09149 21.1724 6.42489C24.3248 8.81359 28.663 12.3487 31.2207 16.3827L33.3804 16.5604Z"
    />
    <path fill-rule="evenodd" clip-rule="evenodd"
          d="M23.9905 23.2616C23.2161 22.9637 22.3005 23.0405 21.5145 23.3829L19.3769 21.232C19.3491 21.2039 19.3037 21.2036 19.2757 21.2317C19.2516 21.2555 19.2482 21.2921 19.2649 21.3199C19.3596 21.4738 19.4987 21.6714 19.6563 21.895C20.2516 22.7395 21.1165 23.9666 20.7667 24.5227C20.4024 25.1019 18.9188 24.8544 17.9048 24.6854C17.6352 24.6404 17.3977 24.601 17.218 24.5834C17.1789 24.5797 17.1437 24.6086 17.14 24.648C17.1369 24.6815 17.1579 24.7121 17.1885 24.7226L19.6977 25.5786C21.216 26.7105 19.8874 30.0877 21.9156 33.7005C23.3507 36.257 25.9521 38.6245 30.6083 38.3175L28.8208 40.0747C28.3732 40.515 27.5707 40.9518 26.6993 40.9518H25.316C24.6065 40.9518 24.2454 41.7361 24.9566 41.7361H30.8747C31.586 41.7361 31.2968 40.9518 30.5873 40.9518H29.8245C29.5714 40.9518 29.2814 40.7225 29.634 40.3525L32.105 37.7583C40.2308 34.1115 36.8386 19.8099 33.4443 16.6209C32.7105 16.4636 31.9479 16.3612 31.1758 16.3125C32.6254 18.5773 33.518 21.001 33.3261 23.4682C33.1705 25.4738 31.6478 26.7525 30.4317 26.6289C27.5627 26.3375 26.1684 24.0995 23.9905 23.2616ZM40.4797 26.067C40.4513 26.4908 40.4037 26.9276 40.3357 27.3772C40.3133 27.5249 40.3359 27.6071 40.3929 27.6323C40.4459 27.0904 40.4751 26.5662 40.4797 26.067ZM22.3938 23.9527C22.0647 23.9527 21.7976 24.2197 21.7976 24.5491C21.7976 24.8782 22.0647 25.1452 22.3938 25.1452C22.7232 25.1452 22.9902 24.8782 22.9902 24.5491C22.9902 24.2197 22.7232 23.9527 22.3938 23.9527Z"
    />
    <path fill-rule="evenodd" clip-rule="evenodd"
          d="M23.9905 23.2618C23.2161 22.9639 22.3005 23.0407 21.5145 23.3831L19.3769 21.2322C19.3491 21.2041 19.3037 21.2038 19.2757 21.2319C19.2516 21.2557 19.2482 21.2923 19.2649 21.3201C19.3596 21.474 19.4987 21.6716 19.6563 21.8952C20.2516 22.7397 21.1165 23.9668 20.7667 24.5229C20.4024 25.1021 18.9188 24.8546 17.9048 24.6856C17.6352 24.6406 17.3977 24.6012 17.218 24.5836C17.1789 24.5799 17.1437 24.6088 17.14 24.6482C17.1369 24.6817 17.1579 24.7123 17.1885 24.7228L19.6977 25.5788C20.236 25.9799 20.4163 26.6634 20.5152 27.5393C20.5308 27.6223 20.5453 27.7062 20.5532 27.7961C21.3064 36.6612 29.8982 36.4642 32.5962 28.4943C33.4092 26.093 33.5909 23.8392 33.2955 21.7991C33.3573 22.3524 33.3698 22.9095 33.3261 23.4684C33.1705 25.474 31.6478 26.7527 30.4317 26.6291C27.5627 26.3377 26.1684 24.0997 23.9905 23.2618ZM22.3938 23.9529C22.0647 23.9529 21.7976 24.2199 21.7976 24.5493C21.7976 24.8784 22.0647 25.1454 22.3938 25.1454C22.7232 25.1454 22.9902 24.8784 22.9902 24.5493C22.9902 24.2199 22.7232 23.9529 22.3938 23.9529Z"
    />
    <path fill-rule="evenodd" clip-rule="evenodd"
          d="M26.2228 37.6794C27.4312 38.1766 28.8777 38.432 30.608 38.3177L28.8205 40.0749C28.3729 40.5152 27.5704 40.952 26.699 40.952H25.3157C24.6062 40.952 24.2451 41.7363 24.9563 41.7363H30.8744C31.5857 41.7363 31.2965 40.952 30.587 40.952H29.8242C29.5711 40.952 29.2811 40.7227 29.6337 40.3527L32.1047 37.7585C40.2305 34.1117 36.8383 19.8101 33.444 16.6211C41.2566 33.4277 18.974 27.8199 26.2228 37.6794Z"
    />
    <path fill-rule="evenodd" clip-rule="evenodd"
          d="M30.608 38.317L28.8205 40.0742C28.3729 40.5145 27.5704 40.9513 26.699 40.9513H25.3157C24.6062 40.9513 24.2451 41.7356 24.9563 41.7356H30.8744C31.5857 41.7356 31.2965 40.9513 30.587 40.9513H29.8242C29.5711 40.9513 29.2811 40.722 29.6337 40.352L32.1047 37.7578L30.608 38.317Z"
    />
    <path fill-rule="evenodd" clip-rule="evenodd"
          d="M40.3297 27.5241C40.4836 28.7829 47.486 19.6208 40.7997 13.1116C36.2915 8.72299 30.045 9.93419 21.9445 5.65159C21.8141 5.58279 21.697 5.53659 21.5918 5.50879C25.6043 8.96479 31.2721 9.19439 35.4844 11.9789C39.8835 14.8872 42.6955 20.5378 40.3765 27.3888L40.3297 27.5241Z"
    />
    <path fill-rule="evenodd" clip-rule="evenodd"
          d="M24.6299 36.801C26.0042 37.7761 27.7962 38.4034 30.1283 38.3396C31.0034 38.1472 31.8158 37.8742 32.5723 37.5281C34.0103 36.767 35.0526 35.6482 35.7738 34.3125C32.1174 37.0652 28.3994 37.7892 24.6299 36.801Z"
    />
    <path fill-rule="evenodd" clip-rule="evenodd"
          d="M23.9905 23.2618C23.2161 22.9639 22.3005 23.0407 21.5145 23.3831L19.3769 21.2322C19.3491 21.2041 19.3037 21.2038 19.2757 21.2319C19.2516 21.2557 19.2482 21.2923 19.2649 21.3201C19.3596 21.474 19.4987 21.6716 19.6563 21.8952C20.2516 22.7397 21.1165 23.9668 20.7667 24.5229C20.4024 25.1021 18.9188 24.8546 17.9048 24.6856C17.6352 24.6406 17.3977 24.6012 17.218 24.5836C17.1789 24.5799 17.1437 24.6088 17.14 24.6482C17.1369 24.6817 17.1579 24.7123 17.1885 24.7228L19.6977 25.5788C20.236 25.9799 20.4163 26.6634 20.5152 27.5393C20.5308 27.6223 20.5453 27.7062 20.5532 27.7961C21.083 34.0335 25.5986 34.1383 29.024 32.4959C32.5951 30.7838 34.9813 27.1719 30.4317 26.6291C27.5684 26.2872 26.1684 24.0997 23.9905 23.2618ZM22.3938 23.9529C22.0647 23.9529 21.7976 24.2199 21.7976 24.5493C21.7976 24.8784 22.0647 25.1454 22.3938 25.1454C22.7232 25.1454 22.9902 24.8784 22.9902 24.5493C22.9902 24.2199 22.7232 23.9529 22.3938 23.9529Z"
    />
    <path fill-rule="evenodd" clip-rule="evenodd"
          d="M19.6976 25.5783C20.2359 25.9794 20.4162 26.6629 20.5151 27.5388C21.338 32.373 23.877 30.8754 23.5394 29.4768C22.8044 26.431 19.5301 25.1957 19.6976 25.5783Z"
    />
    <path fill-rule="evenodd" clip-rule="evenodd"
          d="M25.0632 25.7624C24.9781 24.19 21.3643 22.2117 21.3643 24.7422C21.3643 26.4181 25.1006 26.4529 25.0632 25.7624ZM22.3944 23.9525C22.0653 23.9525 21.7982 24.2195 21.7982 24.5489C21.7982 24.878 22.0653 25.145 22.3944 25.145C22.7238 25.145 22.9908 24.878 22.9908 24.5489C22.9908 24.2195 22.7238 23.9525 22.3944 23.9525Z"
    />
</svg>
