<svg width="53" height="56" viewBox="0 0 53 56" xmlns="http://www.w3.org/2000/svg">
    <path fill-rule="evenodd" clip-rule="evenodd"
          d="M13.1958 11.3826C13.6604 12.1079 14.4366 12.202 15.1427 11.7499L16.7811 10.7005L14.3082 6.83887L12.5152 7.98717C11.7428 8.48187 11.5872 9.23497 12.0217 9.91337C12.2763 10.3108 12.6706 10.5015 13.1247 10.4208C12.9773 10.7252 13.0147 11.0994 13.1958 11.3826ZM14.7512 11.005C14.4643 11.1887 14.165 11.1223 13.9893 10.8355C13.8277 10.571 13.9045 10.3026 14.186 10.1223L14.9417 9.63807L15.5069 10.5208L14.7512 11.005ZM13.6335 9.52697C13.5068 9.60827 13.3892 9.66787 13.2531 9.66157C13.0842 9.65307 12.9316 9.54847 12.8384 9.39057C12.6887 9.12077 12.7482 8.84917 13.0297 8.66887L13.9453 8.08247L14.5105 8.96517L13.6335 9.52697ZM12.4625 13.7965L13.2137 13.163L10.2569 9.65767L8.04356 11.5246L8.60966 12.1955L10.0718 10.9622L12.4625 13.7965ZM6.16016 13.7767C5.55356 14.533 5.45896 15.5404 6.26116 16.1842L8.64706 18.099L9.25396 17.3427L6.88336 15.4403C6.50006 15.1328 6.55196 14.6705 6.83486 14.3181C7.11776 13.9655 7.56196 13.8096 7.94516 14.1171L10.3158 16.0195L10.931 15.253L8.54466 13.3385C7.74246 12.6947 6.76706 13.0207 6.16016 13.7767ZM7.07576 21.1425L8.34066 18.6327L4.24566 16.5688L2.95706 19.1254L3.75276 19.5262L4.59606 17.8532L5.53206 18.3249L4.76556 19.846L5.53176 20.2323L6.29826 18.7112L7.12906 19.1299L6.30926 20.7562L7.07576 21.1425ZM4.18046 26.0606C5.01496 26.2746 5.64716 25.8143 5.85516 25.0022L6.33846 23.1174L1.89636 21.9787L1.36766 24.0409C1.13976 24.9293 1.53946 25.5864 2.32016 25.7865C2.77706 25.9036 3.19576 25.7743 3.47266 25.4058C3.57246 25.729 3.85476 25.977 4.18046 26.0606ZM5.06096 24.7241C4.97616 25.054 4.71196 25.2094 4.38796 25.1195C4.08926 25.0362 3.96246 24.7873 4.04556 24.4639L4.26836 23.5945L5.28376 23.8547L5.06096 24.7241ZM3.23546 24.4049C3.19826 24.5509 3.15296 24.6745 3.04916 24.7629C2.91996 24.8718 2.73676 24.8993 2.56076 24.8474C2.26736 24.7519 2.12596 24.5126 2.20866 24.1889L2.47886 23.1356L3.49426 23.3958L3.23546 24.4049ZM1.58366 28.2481L4.61536 28.5452L4.55726 29.1385L5.31346 29.2125L5.52556 27.0479L4.76926 26.974L4.71116 27.5672L1.67946 27.2702L1.74266 26.6247L0.966858 26.5488L0.744658 28.8176L1.52046 28.8936L1.58366 28.2481ZM2.61436 32.8198C2.90886 33.3233 3.43976 33.5784 4.01896 33.5342C4.82566 33.4727 5.53996 32.8468 5.46036 31.8016C5.41726 31.148 5.36136 30.5017 5.31156 29.8486L0.739258 30.1969L0.813758 31.1766L2.32916 31.0612L2.39156 31.8779L0.947558 32.9338L1.02726 33.9789L1.16556 33.9684L2.61436 32.8198ZM3.13166 30.987L4.52946 30.8804L4.60426 31.8603C4.63606 32.2784 4.35056 32.5562 3.96646 32.5857C3.57586 32.622 3.23766 32.3782 3.20626 31.9666L3.13166 30.987ZM5.77786 33.9937L1.36086 35.227L1.81896 36.8674C2.21726 38.2935 3.52026 38.746 4.64766 38.4106C5.77386 38.0963 6.62876 37.0412 6.23586 35.6341L5.77786 33.9937ZM2.47516 35.9292L5.18846 35.1717L5.38036 35.8594C5.60436 36.6608 5.08756 37.2742 4.37866 37.4723C3.66996 37.6702 2.89466 37.431 2.66736 36.6171L2.47516 35.9292ZM8.11836 40.0933L7.59766 39.2675L3.71876 41.7133L4.23916 42.539L5.79626 41.5571C5.90476 41.7289 6.08646 42.0171 6.21946 42.1424L5.23836 44.1238L5.82886 45.0604L5.95076 44.9836L6.99846 42.6657C7.38706 42.7536 7.81986 42.6666 8.33666 42.5036C8.68276 42.4015 8.88206 42.5084 9.04986 42.8361L9.61506 42.4797C9.25426 41.5146 8.66436 41.4139 8.09856 41.5851C7.59426 41.7558 7.25156 41.8632 7.01146 41.728C6.83626 41.622 6.66706 41.3414 6.51676 41.103L8.11836 40.0933ZM8.99226 47.4614L8.68046 48.2423L9.37126 48.9864L9.46736 48.8974L11.3349 44.3036L11.0273 43.9722L6.29856 45.4836L6.20246 45.5726L6.89776 46.3218L7.69546 46.0642L8.99226 47.4614ZM10.0602 45.1741L9.38346 46.6691L8.51866 45.7376L10.0602 45.1741ZM13.4317 49.8549C14.0074 49.9479 14.5417 49.7004 14.8762 49.2254C15.3417 48.5637 15.313 47.6144 14.4558 47.0112C13.9241 46.6288 13.3897 46.2609 12.854 45.8839L10.2149 49.6338L11.0185 50.1993L11.893 48.9566L12.5629 49.4277L12.4597 51.2136L13.3166 51.8168L13.3965 51.7034L13.4317 49.8549ZM12.3463 48.2899L13.153 47.1436L13.9567 47.7091C14.2996 47.9503 14.3325 48.3475 14.1106 48.6627C13.8903 48.987 13.4872 49.093 13.1499 48.8554L12.3463 48.2899ZM17.2276 52.8659L17.2344 53.7069L18.1553 54.1344L18.2106 54.0153L18.201 49.0567L17.7908 48.8662L13.9856 52.0549L13.9306 52.1737L14.8575 52.6037L15.4981 52.0634L17.2276 52.8659ZM17.3503 50.3448L17.2896 51.9849L16.1368 51.4497L17.3503 50.3448ZM23.9077 53.1176C24.2614 51.6192 23.3481 50.5557 22.1814 50.2801C20.9954 50.0001 19.7042 50.5367 19.349 52.0413C18.9938 53.5459 19.8816 54.6038 21.0739 54.8853C22.4254 55.2045 23.5871 54.4757 23.9077 53.1176ZM20.3116 52.2686C20.5345 51.325 21.2723 50.9945 21.9736 51.16C22.6687 51.3241 23.182 51.9435 22.9578 52.8934C22.7273 53.8688 21.9878 54.1789 21.2927 54.0148C20.5787 53.8461 20.0815 53.244 20.3116 52.2686ZM25.8276 50.783L24.8519 50.7617L24.753 55.3465L25.7289 55.3675L25.7686 53.5272C25.9716 53.5315 26.3123 53.5388 26.49 53.4969L27.6021 55.4077L28.709 55.4315L28.7121 55.2875L27.356 53.1355C27.6437 52.8597 27.8099 52.4506 27.9587 51.9296C28.0644 51.5846 28.2634 51.4775 28.6293 51.518L28.6438 50.8499C27.6395 50.6186 27.2305 51.0554 27.0612 51.622C26.9254 52.1365 26.8262 52.4818 26.5813 52.6077C26.3959 52.6952 26.0685 52.6816 25.7868 52.6757L25.8276 50.783ZM31.8997 50.1889L29.1288 50.658L29.8945 55.1792L32.7172 54.7013L32.5684 53.8229L30.721 54.1358L30.5461 53.1023L32.2254 52.8177L32.0819 51.9718L30.4027 52.2562L30.2474 51.3389L32.0431 51.0347L31.8997 50.1889ZM36.5255 53.3926L35.9767 52.21L36.862 51.7992C37.8127 51.3579 38.0191 50.4173 37.6619 49.6477C37.2994 48.8662 36.449 48.3724 35.4804 48.822C34.8863 49.0978 34.2952 49.3648 33.7039 49.6466L35.634 53.8061L36.5255 53.3926ZM35.606 51.4576L34.9384 50.0196C35.2417 49.879 35.536 49.735 35.8418 49.6004C36.2339 49.4184 36.6225 49.633 36.8011 50.0182C36.9856 50.4153 36.8895 50.8621 36.5091 51.0384L35.606 51.4576ZM41.5057 49.6466L42.245 50.048L43.0651 49.4493L42.9877 49.3433L38.6447 46.95L38.2796 47.2164L39.2261 52.09L39.3032 52.1958L40.1287 51.5931L39.9662 50.7708L41.5057 49.6466ZM39.3596 48.318L40.765 49.1655L39.7386 49.915L39.3596 48.318ZM44.564 45.6305C44.7378 45.074 44.5691 44.5096 44.1465 44.1111C43.558 43.5561 42.6141 43.4492 41.8949 44.2117C41.4405 44.6837 41.0003 45.1602 40.551 45.6367L43.8868 48.7831L44.5612 48.0683L43.4554 47.0254L44.0172 46.4295L45.7702 46.7861L46.4893 46.0236L46.3884 45.9287L44.564 45.6305ZM42.8601 46.482L41.8405 45.5202L42.5146 44.8053C42.8023 44.5003 43.2 44.5241 43.4803 44.7886C43.77 45.0528 43.8177 45.4669 43.5345 45.7671L42.8601 46.482ZM44.5649 42.2788L47.6575 44.3713L48.1898 43.5844L45.0972 41.4922L45.7801 40.483L45.0745 40.0057L43.1731 42.8162L43.8783 43.2936L44.5649 42.2788ZM47.5923 38.9812L46.614 39.0079L45.4893 39.1184L45.049 40.0768L45.18 40.1372L48.2082 39.7905L49.875 40.5559L50.2852 39.663L48.6184 38.8973L46.9052 36.3804L46.7742 36.3203L46.3394 37.2671L46.967 38.1606L47.6059 38.9515L47.5923 38.9812ZM49.0158 31.9935C48.1657 31.8544 47.5767 32.3686 47.4412 33.196L47.1268 35.1162L51.6521 35.8574L51.9962 33.7564C52.1444 32.8513 51.6883 32.2322 50.8932 32.1021C50.4278 32.0259 50.0221 32.1917 49.7789 32.5831C49.6508 32.2702 49.3475 32.048 49.0158 31.9935ZM48.257 33.4026C48.3123 33.0665 48.5614 32.8884 48.8922 32.9491C49.1973 33.0058 49.3455 33.2425 49.2914 33.5722L49.1462 34.458L48.1122 34.2885L48.257 33.4026ZM50.1035 33.5591C50.1279 33.4106 50.1619 33.2833 50.2574 33.1861C50.3767 33.0665 50.5565 33.0228 50.7365 33.0588C51.0372 33.128 51.1994 33.3539 51.1452 33.6836L50.9695 34.7565L49.9351 34.5872L50.1035 33.5591ZM52.3701 29.1671C52.3593 28.1977 51.7929 27.3589 50.7645 27.3702L47.7054 27.4043L47.7162 28.3737L50.7557 28.34C51.247 28.3346 51.5001 28.7249 51.5052 29.1768C51.5103 29.6289 51.2657 30.0311 50.7745 30.0365L47.7351 30.0702L47.7459 31.053L50.8051 31.019C51.8335 31.0077 52.3808 30.1366 52.3701 29.1671ZM50.8459 26.3421C51.8227 26.1168 52.0495 25.0895 51.8431 24.1957C51.6209 23.3195 51.0846 22.4816 50.0315 22.7248C48.9844 22.9663 48.9611 23.8255 49.0961 24.7893C49.1525 25.2672 49.153 25.6774 48.757 25.7687C48.4123 25.848 48.1212 25.5186 48.0328 25.1357C47.9446 24.7527 48.011 24.3406 48.363 24.2056L48.1567 23.3119C47.1546 23.5432 47.0038 24.4925 47.1968 25.3284C47.4015 26.216 48.0036 26.9309 48.9929 26.7024C49.9184 26.4889 50.0043 25.6085 49.8875 24.7816C49.8206 24.3465 49.7387 23.7872 50.2495 23.6693C50.7155 23.5619 50.9173 23.9996 51.0086 24.3953C51.1087 24.8293 51.0395 25.3157 50.6353 25.4294L50.8459 26.3421Z"/>
    <path fill-rule="evenodd" clip-rule="evenodd"
          d="M20.1596 22.763C19.1916 22.3908 18.0642 22.5036 17.1277 22.9115L14.5107 20.2778C14.4764 20.2435 14.4209 20.2435 14.3863 20.2778C14.3574 20.3067 14.3528 20.3513 14.3732 20.3856C14.4892 20.5741 14.6598 20.8159 14.8529 21.09C15.5814 22.1235 16.6404 23.6258 16.2118 24.307C15.7665 25.0159 13.9495 24.7135 12.7082 24.5066C12.3782 24.4513 12.0871 24.4028 11.8671 24.3816C11.8192 24.377 11.7764 24.4119 11.7719 24.4604C11.7679 24.5012 11.7934 24.5386 11.8308 24.5516L14.9033 25.5996C16.7623 26.9852 15.1355 31.1204 17.6189 35.5438C19.3761 38.6738 22.5611 41.5725 28.2619 41.1967L26.0732 43.3482C25.5253 43.887 24.5425 44.4219 23.4758 44.4219H21.7819C20.9133 44.4219 20.4714 45.3823 21.3422 45.3823H28.5876C29.4586 45.3823 29.1046 44.4219 28.2358 44.4219H27.3023C26.9922 44.4219 26.6373 44.1413 27.0688 43.6883L30.0942 40.5118C40.1056 36.0189 35.8372 18.3143 31.6555 14.5581C37.8282 15.6817 41.3129 20.269 40.1713 27.8018C39.8048 30.2226 49.1801 18.5527 40.7394 10.3359C35.2206 4.96246 27.5725 6.44556 17.6546 1.20206C16.3385 0.506159 16.0958 1.68426 16.7087 2.14826C22.7167 6.70066 32.2397 14.6528 31.5895 23.0158C31.3987 25.4715 29.5343 27.0368 28.0453 26.8857C24.5329 26.5291 22.8256 23.7888 20.1596 22.763ZM18.759 23.8444C19.2749 23.8773 19.6831 24.3062 19.6831 24.83C19.6831 25.3757 19.2409 25.8179 18.6949 25.8179C18.1495 25.8179 17.7076 25.3757 17.7076 24.83C17.7076 24.3147 18.1022 23.8917 18.6056 23.8464L18.759 23.8444Z"/>
</svg>
