<svg width="56" height="56" viewBox="0 0 56 56" xmlns="http://www.w3.org/2000/svg">
    <path fill-rule="evenodd" clip-rule="evenodd"
          d="M27.6323 1.97361C34.774 1.84424 41.293 4.62311 46.0588 9.21937C50.8246 13.8156 53.8378 20.2303 53.9669 27.3727C54.0963 34.5143 51.3176 41.0334 46.7214 45.799C42.125 50.565 35.7102 53.5781 28.568 53.7074C21.4265 53.8365 14.9073 51.0579 10.1417 46.4618C5.37549 41.8652 2.36249 35.4504 2.23338 28.3082C2.10419 21.1667 4.88269 14.6476 9.47895 9.88189C14.0754 5.11591 20.4901 2.10292 27.6323 1.97361ZM45.7684 9.52095C41.0792 4.9985 34.6654 2.26456 27.639 2.3917C20.6133 2.51891 14.3028 5.48316 9.78071 10.1721C5.25827 14.8613 2.52432 21.2755 2.65147 28.3017C2.76334 34.4771 5.06761 40.0996 8.8079 44.4411C8.85372 44.6315 8.92856 44.8121 9.03464 44.9799C9.16312 45.1824 9.32832 45.3538 9.52311 45.4938L9.5457 45.5102C9.69449 45.6157 9.85472 45.6985 10.0248 45.7579C10.159 45.8936 10.2946 46.0276 10.4319 46.16C15.1211 50.6825 21.5351 53.4164 28.5613 53.2892C35.587 53.1621 41.8975 50.1978 46.4196 45.5086C50.942 40.8197 53.6762 34.4056 53.5488 27.3792C53.4218 20.3535 50.4573 14.0431 45.7684 9.52095ZM27.6657 3.80971C28.6411 3.79208 29.6038 3.83338 30.5508 3.92935C30.536 3.96486 30.5227 4.00151 30.511 4.03899L30.4198 4.33649C29.5173 4.24842 28.6007 4.21126 27.6722 4.22806C26.8038 4.24358 25.9475 4.30652 25.1051 4.4133L25.0688 4.30168C25.0448 4.19808 25.0084 4.10053 24.9617 4.00997C25.8485 3.89416 26.7506 3.82632 27.6657 3.80971ZM38.7911 6.31024C38.8493 6.33932 38.9076 6.36815 38.9655 6.39774C38.9264 6.43904 38.8893 6.48358 38.8553 6.53106C38.8376 6.45635 38.8163 6.38278 38.7911 6.31024ZM49.4019 16.7009C49.5314 16.9478 49.6566 17.1973 49.7777 17.4495C49.7053 17.4585 49.6328 17.4736 49.5608 17.4959L49.3646 17.5559C49.3058 17.4347 49.2461 17.3139 49.1854 17.1939C49.2571 17.0719 49.3175 16.9428 49.3667 16.8064C49.3794 16.7714 49.3911 16.7362 49.4019 16.7009ZM52.0579 25.9139C52.097 26.4071 52.1216 26.9046 52.1308 27.4059C52.1992 31.1838 51.3914 34.774 49.8951 37.9829C49.9057 37.8431 49.9018 37.7021 49.8835 37.5601C49.8662 37.4259 49.8377 37.2976 49.7975 37.1764C51.0868 34.1858 51.7754 30.8796 51.7127 27.4126C51.7075 27.1236 51.6968 26.8363 51.6813 26.5502C51.7121 26.5083 51.7421 26.4657 51.7713 26.4224C51.8739 26.2702 51.9695 26.1004 52.0579 25.9139ZM46.9788 42.7144C46.4823 43.3436 45.9554 43.9479 45.3995 44.5243C43.6241 46.3653 41.5564 47.9245 39.2696 49.1268C39.4801 48.8872 39.663 48.6286 39.8149 48.3506C41.7691 47.2319 43.5467 45.8422 45.0977 44.2338C45.5443 43.7709 45.972 43.2897 46.3799 42.7916L46.9788 42.7144ZM36.6256 50.3183C34.1068 51.274 31.3829 51.8195 28.5348 51.871C27.4952 51.89 26.4701 51.8424 25.4632 51.7323C25.5987 51.7346 25.7341 51.7267 25.8689 51.7094L27.1963 51.5382C27.3578 51.5174 27.5187 51.4895 27.6774 51.4529C27.9597 51.4579 28.2435 51.4581 28.5281 51.453C30.5526 51.4165 32.5129 51.1255 34.3795 50.6119L34.4053 50.6087L34.4047 50.6051L34.4093 50.6038C34.513 50.5898 34.6163 50.5733 34.7188 50.5539C34.7838 50.5524 34.8525 50.5509 34.9167 50.5427C35.226 50.5028 35.5212 50.4095 35.7905 50.2519C36.0647 50.3177 36.3453 50.3393 36.6256 50.3183ZM18.5544 49.9039C16.0674 48.8259 13.7963 47.3388 11.8274 45.5265C11.9436 45.45 12.0532 45.3613 12.1563 45.2604C14.0106 46.9584 16.1359 48.3632 18.4577 49.4037V49.4044C18.4795 49.5733 18.5114 49.7401 18.5544 49.9039ZM9.05182 42.4979C8.73052 42.0811 8.42278 41.6532 8.12878 41.2152C8.3438 41.3601 8.57557 41.478 8.8247 41.5632C8.84831 41.5713 8.87192 41.5791 8.89591 41.5865C8.99156 41.7199 9.08879 41.8525 9.18711 41.9839L9.05182 42.4979ZM6.57255 38.5385C5.03077 35.4421 4.13642 31.963 4.06954 28.275L4.06808 28.1471C4.09531 28.1544 4.12274 28.1605 4.15068 28.1659C4.24161 28.1836 4.30474 28.1949 4.48712 28.2294L4.48763 28.2685C4.5477 31.5878 5.29053 34.7352 6.57961 37.5788C6.54226 37.8963 6.54048 38.2167 6.57255 38.5385ZM5.48558 19.6843C5.56041 19.4772 5.63799 19.2714 5.71823 19.0668C5.75902 19.1017 5.80249 19.1345 5.8485 19.1646L6.07218 19.3107C6.04602 19.3782 6.02038 19.446 5.99499 19.5136C5.81515 19.5525 5.64537 19.6091 5.48558 19.6843ZM8.78232 13.5407C8.99334 13.256 9.21053 12.9763 9.4337 12.7014C9.46635 12.7553 9.50332 12.8078 9.54494 12.8577L9.61169 12.9382L9.69741 13.0414C9.51395 13.2694 9.33462 13.5008 9.15949 13.7355L9.13805 13.7215C9.12036 13.7086 9.10209 13.696 9.08319 13.6837C8.98742 13.6215 8.88618 13.5741 8.78232 13.5407ZM27.6989 5.64607C28.5944 5.62984 29.4782 5.66738 30.3479 5.75482C30.441 5.93975 30.5786 6.09992 30.7489 6.21987C29.7529 6.09903 28.737 6.04545 27.7054 6.06422C27.0212 6.07663 26.3449 6.12067 25.6778 6.19461C25.6731 6.17807 25.6681 6.16127 25.6629 6.14466L25.548 5.78861C26.2551 5.70741 26.9726 5.65924 27.6989 5.64607ZM50.2973 27.6846C50.3152 30.1426 49.9315 32.5119 49.2074 34.73C49.1476 34.5232 49.0641 34.3246 48.9553 34.1358C49.556 32.1452 49.8791 30.0363 49.8796 27.8549C50.0239 27.8055 50.1631 27.7486 50.2973 27.6846ZM44.2522 43.066C44.1944 43.1275 44.1363 43.1887 44.0777 43.2494C42.9481 44.4207 41.6902 45.4684 40.3263 46.37C40.329 46.2065 40.3232 46.0422 40.3096 45.8777C41.4905 45.0764 42.5882 44.1625 43.5873 43.1517L44.2522 43.066ZM18.5389 47.8785C17.7724 47.512 17.0301 47.1029 16.3151 46.6539C16.4511 46.6461 16.5869 46.6328 16.7211 46.6157L16.9975 46.5799C17.5372 46.9003 18.0919 47.1981 18.6601 47.472C18.6184 47.5892 18.582 47.7086 18.5508 47.8304C18.5468 47.8465 18.5428 47.8625 18.5389 47.8785ZM13.2003 44.2933C13.0906 44.194 12.9819 44.0933 12.8742 43.9917C12.8767 43.9831 12.879 43.9744 12.8816 43.9656C12.8906 43.9387 12.8989 43.9115 12.9063 43.8841L12.9328 43.7832L13.2003 44.2933ZM7.30749 35.6278C6.44502 33.3255 5.95292 30.8398 5.90583 28.2418L5.90424 28.1141C6.08242 27.9898 6.22713 27.8203 6.32144 27.6215C6.31947 27.8255 6.32023 28.0301 6.32379 28.2352C6.36821 30.6884 6.81736 33.0394 7.60562 35.2264L7.60403 35.2286C7.57819 35.2562 7.55401 35.2852 7.53098 35.3152C7.45251 35.4171 7.3778 35.5212 7.30749 35.6278ZM10.223 14.6807C10.4184 14.4159 10.6197 14.1556 10.8263 13.8998C11.0223 13.9289 11.2233 13.9112 11.4115 13.8479C11.029 14.3037 10.6648 14.7755 10.3201 15.2618C10.334 15.063 10.3004 14.8635 10.223 14.6807ZM27.7321 7.48223C28.6546 7.46562 29.5634 7.51093 30.4554 7.6137L30.4222 7.72176C30.1183 7.69452 29.8208 7.78024 29.5812 7.95123C28.9739 7.90668 28.3593 7.88918 27.7386 7.90038C27.2385 7.90936 26.743 7.93697 26.2527 7.98209L26.1896 7.7831L26.1903 7.78546C26.1965 7.80461 26.1779 7.74594 26.1892 7.78183L26.1223 7.57444C26.653 7.52315 27.1898 7.49196 27.7321 7.48223ZM48.4598 28.1071C48.4383 29.8166 48.2051 31.4769 47.7851 33.0626C47.6583 33.0019 47.5273 32.9508 47.3926 32.9095C47.7956 31.373 48.02 29.7656 48.0414 28.111C48.1711 28.1205 48.3016 28.1199 48.4329 28.1093L48.4598 28.1071ZM41.1553 43.4652C40.7563 43.7991 40.3446 44.118 39.9202 44.4209C39.8566 44.2954 39.7853 44.1746 39.7063 44.0594C39.9288 43.8997 40.1479 43.7358 40.3635 43.5675L41.1553 43.4652ZM8.75057 34.1957C8.13126 32.3085 7.77986 30.2981 7.74199 28.2085C7.73964 28.0825 7.73913 27.9568 7.73913 27.8313L7.76904 27.8369L7.81829 27.8462C7.82536 28.1691 7.95721 28.4713 8.1751 28.6952C8.25325 30.5356 8.58028 32.3097 9.12252 33.9857C9.03846 34.0279 8.95529 34.073 8.87319 34.121C8.83189 34.1454 8.79098 34.1702 8.75057 34.1957ZM27.7654 9.31839C28.1408 9.31171 28.5139 9.31642 28.8844 9.33176C28.8579 9.40621 28.8382 9.48397 28.8259 9.56518C28.8168 9.62633 28.8122 9.68729 28.8121 9.74756C28.4675 9.73419 28.1208 9.73018 27.7719 9.73655C27.4371 9.74266 27.1049 9.75799 26.7749 9.78198C26.7731 9.66076 26.7537 9.53775 26.7149 9.41652L26.6994 9.36835C27.052 9.34181 27.4074 9.32488 27.7654 9.31839ZM46.6231 27.5793C46.6487 29.3889 46.4138 31.1419 45.9528 32.8028L45.9461 32.8036C45.7924 32.8235 45.6412 32.8519 45.4931 32.8891C45.9876 31.185 46.2377 29.379 46.204 27.5122C46.2024 27.417 46.1997 27.3219 46.1964 27.227C46.3345 27.3587 46.4766 27.4761 46.6231 27.5793ZM10.4766 33.5623C10.0266 32.1746 9.73547 30.714 9.62525 29.2018L9.64364 29.2055V29.2044C9.70282 29.2156 9.76359 29.2226 9.82545 29.2249C9.90035 29.2279 9.97391 29.2242 10.0456 29.2145C10.1578 30.7086 10.4511 32.1508 10.9029 33.5199C10.7897 33.5257 10.6762 33.5358 10.5629 33.5504C10.5342 33.5542 10.5053 33.5582 10.4766 33.5623ZM27.7986 11.1547C32.4053 11.0714 36.6105 12.8637 39.6846 15.8285C42.759 18.7933 44.7027 22.9314 44.7858 27.5389C44.8239 29.6366 44.4726 31.6508 43.7991 33.5131C43.6804 33.4359 43.5545 33.3734 43.4218 33.326C44.0681 31.5227 44.4045 29.574 44.3678 27.5456C44.2865 23.0546 42.3915 19.0208 39.3943 16.1302C36.3967 13.2393 32.2966 11.4915 27.8051 11.5728C23.3143 11.654 19.2806 13.549 16.3899 16.5465C13.4989 19.5439 11.7513 23.6441 11.8326 28.1356C11.8705 30.2364 12.3058 32.2372 13.0649 34.0678C12.8839 33.9539 12.6953 33.8571 12.4991 33.7777C11.8314 32.0237 11.4504 30.1265 11.4145 28.1421C11.3311 23.5352 13.1235 19.3302 16.0882 16.256C19.0532 13.1817 23.1912 11.238 27.7986 11.1547ZM27.5991 0.137447C35.2477 -0.00108933 42.2296 2.97493 47.3336 7.89746C52.4378 12.82 55.6648 19.6901 55.8033 27.3394C55.9416 34.9879 52.9658 41.97 48.0432 47.0738C43.1205 52.1781 36.2505 55.405 28.6012 55.5435C20.9526 55.6821 13.9708 52.706 8.86689 47.7835C3.76249 42.8609 0.535749 35.9909 0.397213 28.3414C0.258677 20.693 3.2345 13.7111 8.15709 8.60713C13.0798 3.50292 19.9499 0.275983 27.5991 0.137447ZM47.0434 8.19909C42.0158 3.35045 35.1389 0.419038 27.6056 0.555538C20.0731 0.691911 13.3073 3.87017 8.45886 8.89737C3.61009 13.9249 0.678995 20.8018 0.815177 28.3349C0.95174 35.8677 4.12993 42.6334 9.15714 47.4817C14.1845 52.3305 21.0614 55.2617 28.5947 55.1254C36.1273 54.989 42.8932 51.8108 47.7415 46.7836C52.5902 41.7562 55.5215 34.8793 55.3851 27.3461C55.2488 19.8133 52.0704 13.0475 47.0434 8.19909Z"/>
    <path fill-rule="evenodd" clip-rule="evenodd"
          d="M11.151 21.1271C10.9293 20.9821 10.7066 20.8371 10.4852 20.6924C10.5592 20.5086 10.6344 20.327 10.7132 20.1458C10.7307 20.1063 10.7484 20.0661 10.7663 20.0264C10.7728 20.0118 10.7801 19.9967 10.7872 19.982C10.8242 19.9041 10.7776 19.8069 10.6454 19.6959C10.6191 19.6749 10.5913 19.6546 10.5648 19.6332C10.4583 19.5643 10.3515 19.4952 10.2453 19.4252C9.85334 19.1696 9.46096 18.9133 9.06934 18.6571C8.67645 18.4002 8.28362 18.1441 7.89181 17.8874C7.78013 17.8141 7.69931 17.7775 7.64897 17.7772C7.59851 17.7767 7.55085 17.8068 7.51139 17.8701C7.50127 17.8867 7.4951 17.9053 7.48772 17.922C7.47455 17.9522 7.46067 17.9823 7.44642 18.011C7.36541 18.1906 7.28714 18.3708 7.21045 18.5523C6.98569 18.4054 6.76112 18.2584 6.53712 18.112C6.80045 17.5182 7.0772 16.9347 7.39106 16.3739C7.70402 15.8142 8.0502 15.2743 8.39937 14.7366C8.62127 14.8825 8.84241 15.0274 9.06482 15.1724C8.95695 15.3369 8.84966 15.5009 8.74396 15.6658C8.72825 15.6915 8.71221 15.7168 8.69649 15.7408C8.68548 15.7599 8.67091 15.7767 8.66187 15.7958C8.6312 15.8599 8.63101 15.9197 8.65449 15.9744C8.67772 16.0278 8.74231 16.0891 8.84782 16.1584C9.33324 16.4761 9.81993 16.7933 10.3055 17.1112C10.7904 17.4285 11.2769 17.7456 11.7627 18.0627C11.8684 17.8878 11.9738 17.7124 12.0865 17.5414C12.4642 16.9654 12.6681 16.5466 12.6785 16.2704C12.6897 15.9953 12.5063 15.7341 12.1248 15.4848C12.0427 15.4311 11.9597 15.3764 11.8771 15.3226C12.0896 15.044 12.3068 14.7685 12.5292 14.4968C12.8501 14.7068 13.1715 14.9168 13.4919 15.1264C13.8136 15.3367 14.1355 15.5458 14.4562 15.7552C13.7841 16.5697 13.1458 17.4076 12.5932 18.3015C12.0398 19.1968 11.5753 20.1478 11.151 21.1271ZM5.18688 27.0846C4.92101 27.0326 4.65297 26.983 4.38672 26.9313C4.4172 26.2342 4.45506 25.5399 4.54021 24.8523C4.62555 24.1683 4.74588 23.4869 4.89536 22.8127C5.02296 22.23 5.16022 21.826 5.27292 21.5947C5.3846 21.3613 5.5722 21.1426 5.83216 20.9395C6.09567 20.7346 6.41716 20.6706 6.79917 20.7426C7.14968 20.81 7.37896 20.9644 7.49173 21.2033C7.6057 21.4432 7.67481 21.7103 7.69772 22.0069C7.70096 22.0521 7.70383 22.096 7.70765 22.1413C7.72998 22.0994 7.75219 22.0561 7.77599 22.0134C8.02201 21.5637 8.3141 21.2422 8.64132 21.0497C8.97267 20.8553 9.31071 20.7923 9.65384 20.8578C9.74598 20.8753 9.90418 20.9328 10.1281 21.031C10.3503 21.1286 10.5072 21.3341 10.6035 21.6432C10.7012 21.9544 10.7035 22.3799 10.5915 22.9157C10.5628 23.0463 10.5199 23.1725 10.487 23.3011C10.3094 24.0646 10.1503 24.8339 10.0499 25.6112C9.95038 26.3916 9.90692 27.1787 9.87459 27.9708C9.60891 27.9201 9.34157 27.8693 9.07494 27.8175C9.08143 27.6308 9.08792 27.4448 9.0946 27.2583C9.09734 27.2263 9.09766 27.193 9.1002 27.1598C9.10109 27.1295 9.10364 27.0999 9.10491 27.0698C9.11395 26.9056 9.00335 26.8035 8.76885 26.7575C8.64724 26.7332 8.52531 26.7054 8.40516 26.6793C7.93457 26.5896 7.46481 26.5008 6.996 26.4107C6.52738 26.3203 6.05692 26.231 5.58735 26.1417C5.45511 26.1166 5.36443 26.1163 5.31657 26.1396C5.26897 26.1637 5.23378 26.2229 5.2201 26.3199C5.21609 26.3529 5.21628 26.3862 5.21393 26.4188C5.21323 26.455 5.21126 26.4902 5.2089 26.5254C5.20044 26.7121 5.19318 26.8977 5.18688 27.0846ZM6.85963 24.3635C6.90761 24.0844 6.95941 23.8048 7.01496 23.5239C7.02375 23.4844 7.03584 23.4456 7.03966 23.4047C7.06867 23.1451 7.03571 22.9503 6.94802 22.8199C6.85944 22.69 6.69602 22.6023 6.45662 22.5565C6.22339 22.512 6.03706 22.5472 5.90139 22.6609C5.76451 22.7759 5.65735 22.9924 5.59244 23.3109C5.53886 23.5703 5.49208 23.8322 5.44684 24.0936C5.68331 24.1389 5.91908 24.1833 6.15212 24.2295C6.38846 24.2753 6.62513 24.319 6.85963 24.3635ZM9.2822 24.8265C9.32477 24.5695 9.3704 24.314 9.42023 24.057C9.4334 23.9938 9.45052 23.9309 9.45987 23.8667C9.52847 23.3713 9.45249 23.0789 9.23295 22.9866C9.01397 22.896 8.86551 22.8429 8.7901 22.8282C8.29227 22.7326 7.94806 23.045 7.79241 23.7725C7.73921 24.0186 7.69912 24.2678 7.65693 24.5168C7.9284 24.568 8.19975 24.6189 8.46976 24.671C8.74034 24.7242 9.01073 24.774 9.2822 24.8265ZM49.1518 18.9345C49.4114 18.8552 49.6702 18.7754 49.9298 18.6963C50.1809 19.2661 50.4219 19.8396 50.6153 20.4292C50.809 21.0177 50.9679 21.6176 51.1074 22.2208C51.2477 22.8242 51.2975 23.3778 51.2762 23.8733C51.2553 24.371 51.1626 24.812 51.0058 25.1939C50.849 25.5773 50.6362 25.8946 50.3647 26.1435C50.0949 26.3948 49.7689 26.5799 49.3821 26.6982C49.17 26.7642 48.8202 26.8165 48.3344 26.855C47.8496 26.8946 47.3865 26.6704 46.9365 26.19C46.7113 25.948 46.5099 25.63 46.3286 25.2383C46.1467 24.8453 45.9858 24.3784 45.837 23.8375C45.6735 23.2425 45.4939 22.6514 45.2961 22.068C45.0949 21.4845 44.8597 20.9116 44.6125 20.3421C44.8708 20.2624 45.1299 20.183 45.3878 20.1027C45.4694 20.2824 45.5488 20.462 45.6245 20.6434C45.637 20.6726 45.6489 20.7025 45.6622 20.7326C45.6727 20.7608 45.6828 20.7907 45.6954 20.8172C45.734 20.8906 45.7872 20.9366 45.8482 20.9585C45.9073 20.9786 45.9992 20.9722 46.122 20.9341C46.1749 20.9163 46.2292 20.8986 46.2838 20.8833C46.7705 20.7333 47.2563 20.5856 47.743 20.4366C48.2295 20.2887 48.7167 20.1413 49.2028 19.9909C49.3329 19.9517 49.4139 19.9126 49.4507 19.8736C49.4878 19.8334 49.4922 19.7759 49.4601 19.6994C49.4574 19.6741 49.4563 19.6488 49.4541 19.6254C49.4411 19.594 49.4296 19.5632 49.4171 19.5342C49.3336 19.3328 49.2429 19.1335 49.1518 18.9345ZM46.4388 22.9194C46.4995 23.1282 46.5593 23.3367 46.6154 23.5465C46.7608 24.0961 46.9771 24.465 47.2754 24.6514C47.5705 24.8381 48.0024 24.8442 48.576 24.6681C48.6626 24.6414 48.75 24.6138 48.8386 24.588C48.9283 24.5599 49.0214 24.5382 49.111 24.5116C49.7197 24.3285 50.1031 24.0817 50.2668 23.786C50.4311 23.4882 50.4511 23.0396 50.3128 22.4409C50.2608 22.2204 50.2041 22.0018 50.1453 21.7859C49.5277 21.9741 48.9088 22.1636 48.2917 22.3512C47.6743 22.5416 47.0562 22.7297 46.4388 22.9194ZM43.9722 11.3749C44.1876 11.2077 44.4049 11.0404 44.6223 10.8731C44.8699 11.0929 45.1118 11.3195 45.3435 11.5528C45.5756 11.7858 45.799 12.0283 46.0116 12.2766C46.2259 12.5241 46.4334 12.7787 46.6378 13.0357C46.8399 13.2911 47.0396 13.5507 47.2365 13.8123C47.539 14.2098 47.767 14.574 47.9304 14.896C48.0954 15.2191 48.195 15.5022 48.232 15.7413C48.3067 16.223 48.1689 16.6 47.8265 16.8651C47.801 16.8832 47.7772 16.9027 47.752 16.9218C47.7249 16.9438 47.5871 17.0275 47.3411 17.1722C47.0943 17.3172 46.7265 17.1925 46.2321 16.7953C46.161 16.7378 46.0944 16.6756 46.0257 16.6148C46.0403 16.6542 46.0589 16.6956 46.0706 16.7363C46.1623 17.0493 46.1639 17.3237 46.0816 17.5553C45.9999 17.7853 45.8132 18.0151 45.5204 18.2427C45.3996 18.3378 45.2762 18.4322 45.1561 18.5258C45.1398 18.5391 45.1214 18.5517 45.1061 18.5644C45.0594 18.6057 45.0267 18.6661 44.9998 18.7426C44.9753 18.8165 44.9856 18.8918 45.0329 18.9672C45.0646 19.0181 45.1124 19.0518 45.1737 19.0659C45.2369 19.0788 45.3022 19.0741 45.3678 19.0518C45.4336 19.0292 45.5206 18.974 45.6303 18.8893C45.6896 18.8429 45.7502 18.7956 45.8118 18.7475C45.9432 18.9675 46.0726 19.1887 46.2006 19.4136C46.0856 19.5018 45.9714 19.5897 45.8581 19.6795C45.5673 19.9055 45.2724 19.9738 44.971 19.8933C44.6687 19.8128 44.3961 19.5662 44.1376 19.1631C43.7907 18.6233 43.6179 18.1764 43.6363 17.8071C43.6556 17.4415 43.8866 17.0838 44.3326 16.7365C44.3771 16.701 44.4228 16.6667 44.4666 16.6313C44.7323 16.4284 44.8761 16.2345 44.9012 16.054C44.9231 15.8748 44.8355 15.654 44.6339 15.3916C44.5168 15.2395 44.3964 15.0876 44.2763 14.939C43.9157 15.2184 43.555 15.498 43.1947 15.778C43.0893 15.8597 43.0266 15.926 43.0065 15.9749C42.9853 16.026 42.9963 16.0862 43.0415 16.1541C43.0549 16.1737 43.072 16.1927 43.0867 16.2113C43.1074 16.2361 43.1271 16.2628 43.1478 16.2877C43.2687 16.4404 43.3888 16.5945 43.5057 16.7508C43.2932 16.9157 43.0782 17.0821 42.8651 17.2481C42.6631 16.9883 42.4587 16.7293 42.2511 16.4733C42.043 16.2185 41.8297 15.9668 41.6106 15.7201C41.3921 15.4722 41.1638 15.2339 40.9314 14.9982C40.6978 14.7627 40.4588 14.5304 40.217 14.3015C40.4299 14.1346 40.6455 13.9682 40.8594 13.8016C41.0065 13.9349 41.1515 14.0695 41.2931 14.2061C41.3171 14.2293 41.3407 14.2517 41.3645 14.2749C41.3845 14.2957 41.4067 14.3172 41.4287 14.3393C41.5368 14.4471 41.684 14.4296 41.8717 14.2818C41.9338 14.2355 41.9948 14.1862 42.0558 14.1395C42.2554 13.9836 42.4548 13.8309 42.653 13.6762C42.852 13.5221 43.0504 13.3671 43.2494 13.2123C43.4478 13.0583 43.6478 12.904 43.8463 12.7512C44.0438 12.5954 44.2445 12.4408 44.4424 12.2869C44.6268 12.1433 44.6623 12.0116 44.5472 11.8971C44.525 11.8762 44.5038 11.8551 44.4841 11.8322C44.4604 11.8102 44.4352 11.7876 44.4116 11.7647C44.2687 11.6314 44.1221 11.5013 43.9722 11.3749ZM46.043 13.5664C45.8489 13.7174 45.6541 13.868 45.4623 14.0175C45.2688 14.1678 45.0743 14.3185 44.8811 14.4687C45.1036 14.7508 45.3272 15.0355 45.5442 15.3232C45.6489 15.4612 45.7881 15.551 45.9644 15.5887C46.141 15.6255 46.3004 15.5891 46.4424 15.4789C46.6713 15.3021 46.7965 15.1156 46.8185 14.9189C46.8405 14.7243 46.7586 14.4968 46.5647 14.2427C46.3933 14.0156 46.2185 13.7912 46.043 13.5664ZM39.4078 7.92791C39.5639 7.70601 39.7201 7.48469 39.8765 7.26355C40.4848 7.5545 41.06 7.89164 41.5967 8.28148C42.1351 8.67106 42.6422 9.10417 43.1338 9.56057C42.9766 9.7812 42.8217 10.0027 42.6644 10.2237C42.5192 10.0824 42.3705 9.9455 42.2201 9.81149C42.1791 9.77521 42.138 9.7404 42.0964 9.7047C42.0463 9.66143 42.0004 9.6466 41.9601 9.65691C41.9208 9.66773 41.8589 9.70833 41.7814 9.78406C41.7588 9.80678 41.7401 9.83223 41.7199 9.85673C41.4087 10.2987 41.0961 10.7432 40.7856 11.1849C40.4718 11.6265 40.1606 12.0689 39.8492 12.5102C39.7655 12.6308 39.7203 12.7164 39.7115 12.77C39.7042 12.8223 39.7327 12.8753 39.7953 12.928C39.8109 12.9388 39.8247 12.9498 39.8399 12.963C39.8637 12.9831 39.8915 13.0043 39.9155 13.0244C40.0744 13.162 40.23 13.3027 40.3826 13.4501C40.2277 13.6685 40.0737 13.8875 39.9189 14.107C39.4238 13.6618 38.9067 13.2442 38.3655 12.867C37.8226 12.489 37.2553 12.145 36.677 11.8195C36.8299 11.6007 36.9853 11.3823 37.1391 11.162C37.3145 11.2509 37.4867 11.3458 37.6563 11.4432C37.6848 11.4604 37.713 11.4781 37.7416 11.4934C37.7645 11.5071 37.786 11.5228 37.8102 11.5355C37.8852 11.5717 37.9539 11.5757 38.0156 11.5552C38.0757 11.5353 38.1442 11.4692 38.2207 11.365C38.2653 11.3022 38.31 11.2364 38.3551 11.173C38.6466 10.7585 38.9392 10.3433 39.2307 9.93036C39.5226 9.51634 39.8141 9.10022 40.1068 8.68837C40.2436 8.49466 40.2512 8.36408 40.1355 8.2935C40.1169 8.28148 40.0973 8.27244 40.0789 8.26213C40.051 8.2452 40.0206 8.2284 39.9943 8.21199C39.8044 8.10953 39.6095 8.01395 39.4078 7.92791ZM31.4707 5.19142C31.5507 4.93223 31.63 4.6717 31.7111 4.41309C32.4009 4.51949 33.086 4.63473 33.7601 4.79548C34.4308 4.95495 35.0943 5.15063 35.748 5.37342C36.3135 5.56503 36.6992 5.74646 36.9172 5.8834C37.1364 6.01997 37.3329 6.23118 37.5059 6.5122C37.6806 6.79614 37.7093 7.12317 37.5948 7.49461C37.4896 7.83532 37.3105 8.04602 37.0603 8.13225C36.8096 8.21867 36.5363 8.2578 36.2392 8.24788C36.1939 8.2461 36.1492 8.24374 36.1042 8.24266C36.1434 8.26951 36.1843 8.29662 36.2235 8.32475C36.6438 8.61856 36.9313 8.94457 37.0859 9.29145C37.2427 9.64266 37.2672 9.98502 37.1644 10.3192C37.1368 10.4093 37.0616 10.559 36.9398 10.7713C36.8184 10.9816 36.5971 11.1142 36.2788 11.1759C35.9587 11.2383 35.5358 11.1943 35.0158 11.0231C34.8895 10.9804 34.7685 10.9237 34.6438 10.8767C33.905 10.6162 33.158 10.3719 32.3962 10.1869C31.6325 10.0018 30.8547 9.87137 30.0703 9.7523C30.1502 9.49311 30.2308 9.23278 30.3113 8.97269C30.4962 9.00063 30.6809 9.02717 30.8653 9.05529C30.8976 9.06128 30.9297 9.06522 30.9622 9.07152C30.9919 9.07642 31.0213 9.08126 31.0512 9.08616C31.2133 9.11301 31.3272 9.01457 31.3994 8.78656C31.4366 8.66889 31.4781 8.55091 31.5163 8.4342C31.6579 7.97659 31.7986 7.51892 31.9393 7.06367C32.0815 6.60689 32.2225 6.14966 32.3629 5.69288C32.4029 5.56427 32.4132 5.47448 32.3951 5.42395C32.3762 5.37361 32.3214 5.33282 32.2259 5.30813C32.1942 5.29986 32.1614 5.29661 32.1287 5.29082C32.0932 5.2856 32.0585 5.28051 32.0232 5.27479C31.8394 5.2452 31.6554 5.21777 31.4707 5.19142ZM33.9898 7.15403C34.2616 7.2325 34.5351 7.31548 34.8067 7.4017C34.8448 7.41418 34.8827 7.4304 34.9227 7.43957C35.1774 7.49659 35.3753 7.48577 35.5131 7.41341C35.6525 7.33909 35.7579 7.18668 35.8297 6.95383C35.9001 6.72652 35.886 6.53746 35.7875 6.39046C35.6883 6.2411 35.4856 6.11122 35.1762 6.01144C34.9243 5.92903 34.6684 5.85381 34.4139 5.77949C34.3426 6.00909 34.273 6.23875 34.2014 6.46695C34.1303 6.69585 34.0599 6.92602 33.9898 7.15403ZM33.2619 9.51004C33.5126 9.5815 33.7612 9.65488 34.0107 9.73321C34.072 9.75307 34.133 9.77757 34.1956 9.7931C34.6799 9.91649 34.9794 9.87353 35.0951 9.66557C35.2099 9.4585 35.2792 9.31614 35.3015 9.24309C35.452 8.75837 35.1798 8.38228 34.4741 8.1467C34.2351 8.06677 33.9919 7.99931 33.7497 7.9288C33.668 8.1934 33.5872 8.45769 33.506 8.7205C33.4235 8.9837 33.3434 9.2469 33.2619 9.51004ZM17.7272 7.48558C17.6448 7.23288 17.5638 6.97795 17.4821 6.7227C18.4966 6.22488 19.5188 5.75263 20.5807 5.39888C21.641 5.04474 22.7385 4.8061 23.8437 4.58751C23.9471 4.912 24.0518 5.23597 24.1551 5.55924C24.2591 5.88264 24.3634 6.20553 24.4674 6.52842C24.1361 6.58837 23.8061 6.65309 23.4795 6.722C23.4516 6.63705 23.4245 6.55229 23.3973 6.46746C23.2988 6.16079 23.1119 5.94831 22.8334 5.83415C22.5587 5.72107 22.1847 5.72629 21.7184 5.85343C21.6327 5.87653 21.548 5.9023 21.4641 5.92795C21.1347 6.02824 20.8067 6.13502 20.4812 6.24779C20.5556 6.47993 20.6316 6.71278 20.7054 6.94441C20.7795 7.17745 20.8549 7.40947 20.9299 7.6411C21.0395 7.60356 21.1491 7.56404 21.2595 7.52707C21.4763 7.45509 21.6228 7.35334 21.6997 7.21786C21.7756 7.08314 21.7771 6.90203 21.7045 6.67561C21.6966 6.64876 21.6865 6.62152 21.6788 6.59499C21.9699 6.51092 22.263 6.42921 22.5585 6.35221C22.6763 6.7227 22.7955 7.0916 22.9135 7.4612C23.0322 7.83157 23.1519 8.20028 23.2707 8.56988C22.9872 8.64439 22.7046 8.72337 22.4227 8.80495C22.4078 8.75404 22.3902 8.70262 22.3745 8.65286C22.317 8.47302 22.2089 8.346 22.0501 8.27047C21.8917 8.19398 21.7175 8.18653 21.527 8.25023C21.4056 8.28994 21.2855 8.33321 21.1657 8.3747C21.25 8.63841 21.3353 8.90289 21.4195 9.1664C21.5036 9.43049 21.5898 9.6935 21.6746 9.9567C22.0347 9.83223 22.3956 9.70941 22.7603 9.60206C23.3403 9.43393 23.716 9.25804 23.8805 9.05059C24.0451 8.84319 24.0595 8.5268 23.9217 8.09706C23.8966 8.01987 23.8715 7.94325 23.8463 7.86568C24.1748 7.79708 24.5034 7.73255 24.8357 7.67299C24.949 8.02782 25.0639 8.38228 25.1768 8.73673C25.2913 9.09176 25.4056 9.44545 25.5193 9.80009C24.4154 10.0196 23.3185 10.2657 22.2598 10.6243C21.2007 10.9838 20.179 11.4584 19.1649 11.9584C19.0826 11.7047 19.0014 11.451 18.9206 11.1965C19.0978 11.1037 19.2758 11.0107 19.456 10.9221C19.4852 10.9079 19.5148 10.894 19.5442 10.8794C19.5688 10.8671 19.5926 10.8547 19.6182 10.8429C19.7611 10.7742 19.7979 10.6299 19.7252 10.4067C19.7048 10.3442 19.6855 10.2818 19.6645 10.217C19.5117 9.74295 19.3597 9.26873 19.2067 8.79394C19.0545 8.31826 18.9005 7.84366 18.7484 7.36836C18.7097 7.24713 18.6681 7.17115 18.6239 7.1387C18.5793 7.10656 18.5171 7.09956 18.441 7.12877C18.4155 7.13819 18.3909 7.15257 18.367 7.16447C18.3367 7.17949 18.3075 7.19317 18.2783 7.20761C18.0935 7.29817 17.9103 7.39248 17.7272 7.48558ZM11.0101 12.6583C10.8424 12.4575 10.6761 12.2573 10.5089 12.056C10.9394 11.5719 11.3785 11.098 11.8453 10.6564C12.3109 10.215 12.8017 9.8001 13.2964 9.39174C13.4622 9.59086 13.6284 9.79036 13.7957 9.98954C13.6443 10.1127 13.4931 10.2375 13.3445 10.3629C13.2452 10.4477 13.1935 10.5226 13.1888 10.5889C13.1843 10.6561 13.2253 10.7404 13.3113 10.8431C13.5509 11.1305 13.7917 11.4189 14.0314 11.7064C14.2705 11.9941 14.5115 12.2808 14.7521 12.5683C14.8237 12.65 14.8968 12.7307 14.9673 12.8142C15.1726 13.0561 15.3898 13.1852 15.6252 13.2001C15.862 13.2145 16.1167 13.1072 16.3891 12.8822C16.4405 12.8398 16.493 12.7931 16.5489 12.7424C16.6068 12.6908 16.7441 12.544 16.9676 12.3095C17.1909 12.076 17.1617 11.7889 16.8716 11.4409C16.8227 11.3829 16.7735 11.3235 16.7242 11.2647C16.7102 11.2477 16.6959 11.2313 16.6815 11.2142C16.4272 10.9098 16.1721 10.6038 15.9183 10.3001C15.6634 9.99476 15.409 9.69064 15.1543 9.38525C15.0728 9.28744 15.0088 9.22756 14.9624 9.20573C14.9166 9.18429 14.8627 9.18772 14.8039 9.21929C14.7916 9.22578 14.7815 9.23443 14.7708 9.2427C14.746 9.26059 14.7218 9.27809 14.698 9.29539C14.5412 9.41249 14.3842 9.5292 14.2297 9.64769C14.0632 9.44889 13.897 9.2492 13.7307 9.05008C14.1296 8.75048 14.532 8.45425 14.9481 8.17629C15.3656 7.89756 15.7972 7.63837 16.2349 7.3849C16.4015 7.58389 16.5668 7.7825 16.7324 7.97946C16.5584 8.07994 16.3838 8.18061 16.2132 8.28364C16.1869 8.2991 16.1618 8.31571 16.136 8.33035C16.119 8.3404 16.1015 8.34944 16.087 8.36083C16.0315 8.4034 16.0092 8.45514 16.0146 8.50802C16.0202 8.5623 16.0609 8.63339 16.1376 8.72432C16.3837 9.01902 16.6297 9.31417 16.8754 9.60893C17.1214 9.90382 17.3684 10.1982 17.615 10.4932C17.8123 10.7302 17.9543 10.9564 18.0423 11.1722C18.1313 11.3868 18.163 11.5921 18.1437 11.7867C18.1049 12.1798 17.92 12.5284 17.6011 12.8469C17.2798 13.1663 16.9961 13.4329 16.743 13.6468C16.3281 13.9963 15.9623 14.271 15.6397 14.464C15.3181 14.6568 15.0351 14.7646 14.789 14.7826C14.5424 14.801 14.293 14.7382 14.0394 14.5915C13.7857 14.4443 13.5271 14.212 13.2635 13.8965C13.0308 13.6181 12.7972 13.3388 12.5638 13.0597C12.3317 12.7799 12.0977 12.5012 11.8646 12.2215C11.7277 12.0566 11.6056 12.0158 11.5042 12.1065C11.4856 12.1233 11.4705 12.1426 11.4535 12.1612C11.4317 12.1852 11.4097 12.2087 11.3868 12.2332C11.26 12.3735 11.135 12.5163 11.0101 12.6583Z"/>
    <path fill-rule="evenodd" clip-rule="evenodd"
          d="M28.1898 32.6968C28.3958 32.68 28.597 32.6587 28.7938 32.6324L28.2155 34.9953C27.8875 35.1682 27.6151 35.3548 27.3581 35.5795C27.3189 35.6136 27.2821 35.6481 27.2471 35.6831C27.261 35.6899 27.2747 35.6973 27.2884 35.7048C27.3101 35.7161 27.3312 35.7277 27.3521 35.7398C27.5078 35.5954 27.6815 35.4726 27.8546 35.3508C27.7158 35.502 27.5505 35.627 27.4028 35.7699C27.4753 35.8148 27.5428 35.8635 27.6054 35.9158L27.631 35.8929C27.7735 35.7684 27.9192 35.6581 28.0783 35.5552L28.0614 35.6245C28.1161 35.5826 28.1714 35.5427 28.2277 35.5043C28.3058 35.4515 28.385 35.4019 28.4654 35.356C28.4904 35.2545 28.5158 35.1533 28.5412 35.0519C28.7284 34.3044 28.9123 33.5563 29.1031 32.8096C29.2683 32.1636 29.4541 31.5187 29.6935 30.8956C29.6315 31.1489 29.5696 31.402 29.5075 31.6553C29.2133 32.8579 28.9235 34.0616 28.635 35.2659C28.8899 35.1396 29.1567 35.048 29.4354 34.9911L29.4459 34.9479C29.4505 34.9464 29.455 34.9451 29.4597 34.9437C29.8701 34.8219 30.2946 34.6962 30.5909 34.4334C31.0158 34.0558 30.8937 33.5345 30.7955 33.1157C30.7432 32.8925 30.6942 32.681 30.7122 32.4982C30.7526 32.4713 30.7901 32.4416 30.8254 32.4093C30.9784 32.4223 31.1327 32.3798 31.268 32.2846C31.4171 32.1794 31.5268 32.022 31.5793 31.838C31.6873 31.7871 31.7934 31.7342 31.8969 31.68C32.2023 31.7225 32.5752 31.7571 33.0253 31.7864C33.1963 31.9538 33.5125 32.2217 33.4295 32.5312L32.8752 32.6414C32.3936 32.8088 31.8636 33.3335 32.7278 33.2278C34.0912 33.061 35.237 33.1122 36.5773 33.1822C36.6739 33.1871 36.7497 33.1101 36.8045 32.9935C36.8776 33.0049 36.9492 33.0179 37.0183 33.0309C37.2476 33.0735 37.284 33.1839 37.2661 32.8853C37.2423 32.4818 37.0668 32.2173 36.6867 32.2235C36.3934 32.2801 36.3976 32.6728 36.4237 32.8572C36.3916 32.842 36.094 32.1345 36.6981 32.0992C36.7524 32.1026 36.8045 32.108 36.8545 32.1156C36.5623 31.4743 35.0602 32.2069 34.6125 32.2958L34.1991 32.378C33.9521 32.2402 33.8667 31.9697 33.6582 31.7871C33.9653 31.2844 34.1316 30.5377 34.0908 29.9513C35.1203 28.7646 35.6849 27.3494 35.8862 26.0175C35.8151 27.4532 35.3861 28.9249 34.4191 30.1074C34.4528 30.1288 34.4866 30.149 34.5211 30.1667C34.9635 30.3944 35.6156 30.378 36.4308 30.0505C36.4268 30.0404 36.4232 30.0322 36.4192 30.0222C36.0509 29.9548 35.8335 29.9438 35.6284 29.4652C35.8965 29.7053 36.315 30.2518 37.9486 29.1199C37.4682 29.0266 36.7721 29.0355 36.4035 28.2838C36.8693 28.7043 37.3744 28.8187 37.8805 28.7209C38.3952 28.6213 38.9004 28.303 39.3628 27.8844C38.7855 27.9061 38.2568 27.7663 37.8503 27.5675C37.4581 27.3756 37.177 27.127 37.0668 26.908C37.1186 27.0393 37.5732 27.4073 38.268 27.491C38.9916 27.5783 39.9665 27.3545 40.8977 26.2622C40.6469 26.318 39.8918 26.2609 39.1672 26.1279C38.476 26.001 37.8167 25.8049 37.617 25.5649C38.4468 25.9644 39.2953 26.0744 40.0798 25.9103C40.8885 25.7409 41.5929 25.29 42.1155 24.6135C42.1101 24.6328 42.104 24.6499 42.0991 24.6676C42.1127 24.6467 42.128 24.6247 42.1432 24.6025C40.3087 24.8289 39.5065 24.5561 38.6962 24.2766C38.3308 24.1502 37.0432 23.7397 35.7963 23.5332C35.3478 21.7571 34.1243 20.5101 33.1963 19.9267C32.9327 19.9061 32.2806 19.8643 32.0606 19.9649C30.0821 20.853 28.185 21.0541 27.4206 21.0099C27.1118 20.992 26.1604 20.7929 27.0058 20.7379C27.7098 20.6917 28.4485 20.592 29.1332 20.3937C29.393 20.4819 29.7323 20.4583 30.0188 20.2911C30.4345 20.0481 30.536 19.6898 30.4086 19.3498C30.1751 18.9485 29.6342 18.7692 29.2182 19.0119C29.0653 19.1014 28.9419 19.2329 28.8592 19.3832C28.869 19.3345 28.8818 19.2856 28.8974 19.2373C29.1702 18.6961 29.8029 18.4542 30.2886 18.7816C30.548 18.9562 30.7336 19.2499 30.8088 19.5682C31.0646 19.3603 31.2864 19.1178 31.4635 18.8346C31.4341 18.5835 31.6525 18.1418 31.9097 17.8954C31.9981 17.7085 32.0694 17.5174 32.0867 17.3352C32.1297 16.8837 31.8632 16.6548 31.7452 16.5861C29.101 15.3313 25.9694 17.0636 24.8774 19.3103C24.4465 20.1951 24.4513 20.9998 24.1943 21.8812C24.9748 23.2227 25.8055 24.3952 26.7105 25.2239C24.3167 23.2956 22.1348 19.3924 20.0865 15.9737C20.0672 16.0021 20.0477 16.0304 20.0286 16.056C20.0522 16.0449 20.0748 16.0323 20.1007 16.0203C18.769 18.4169 21.8835 23.2862 24.0276 25.0121C22.1911 24.1898 19.0644 18.9219 18.7394 18.2597C17.7067 20.5656 20.4493 24.6595 22.2443 25.5712C20.6073 25.0378 18.6652 22.1777 17.7994 21.0045C17.3529 23.226 18.7552 25.201 20.6287 26.4258C19.035 25.6345 18.1022 24.2455 17.3742 23.4891C17.3854 26.3091 18.8113 26.8883 19.5379 27.278C18.4803 27.0301 18.2036 26.6827 17.6522 26.1018C17.6305 26.0973 17.6125 26.093 17.5905 26.0884C18 27.4548 18.7448 28.5055 19.6574 29.1783C20.5351 29.8254 21.5604 30.116 22.5879 30.0171C22.82 29.9972 23.0407 29.9717 23.2507 29.9408C23.0688 30.0099 22.8416 30.0631 22.556 30.0955C21.5172 30.223 20.4446 29.9546 19.5251 29.3557C19.1162 29.0893 18.7356 28.7548 18.3964 28.3567C17.5385 28.3513 16.5494 28.2786 16.281 28.3376C15.4803 28.5137 20.2453 32.5256 24.8902 30.0673C24.625 30.3246 24.3571 30.5488 24.0886 30.7434L24.0876 30.7435C24.0301 30.7852 23.9728 30.8258 23.915 30.8648L23.911 30.8677L23.8863 30.8842L23.8833 30.8863L23.8468 30.9103L23.8319 30.9202H23.8321C23.3138 31.2591 22.7936 31.4922 22.2814 31.6385V31.6378C22.2286 31.6527 22.1763 31.6664 22.1238 31.6796C22.1764 31.7025 22.2298 31.7253 22.2836 31.7476C22.4251 32.0519 22.83 32.391 23.2708 32.6609C23.0694 32.8797 22.9334 33.134 22.4961 33.1826C21.7333 33.0648 19.7068 32.3413 19.3933 33.267C19.5163 33.2255 19.6503 33.192 19.7957 33.1676C20.5528 33.133 20.4705 33.8736 20.3827 34.1864C20.3688 33.8995 20.255 33.4098 19.7499 33.3871C19.1625 33.5163 19.0635 33.9725 19.0934 34.5887C19.1155 35.0443 19.1532 34.8652 19.5001 34.7175C19.5509 34.6959 19.6027 34.6739 19.6552 34.6522C19.7362 34.7526 19.8305 34.809 19.9359 34.7922C21.8343 34.4871 22.228 34.0899 24.1926 34.1284C25.4379 34.1527 24.6099 33.4638 23.9006 33.2912L23.7117 33.2773C23.6635 33.1524 23.6944 33.0338 23.7617 32.9257C24.1035 33.0863 24.4158 33.1815 24.5893 33.1606C25.3352 32.8366 26.0651 31.8109 26.2857 31.023C26.2521 31.5205 26.0014 32.1474 25.6377 32.6337C26.4635 32.7383 27.3227 32.7671 28.1898 32.6968ZM30.3155 34.122C30.5435 33.9198 30.4928 33.6438 30.3912 33.2109C30.3469 33.022 30.3025 32.8287 30.2948 32.636C30.2789 32.6371 30.2623 32.6367 30.2458 32.6369C30.2393 32.6371 30.2332 32.6373 30.2267 32.6373C30.2029 32.6371 30.1781 32.6358 30.1526 32.6342C30.1452 32.6335 30.1378 32.6335 30.1301 32.6328C30.0974 32.6299 30.064 32.6259 30.0292 32.6201C30.0249 32.6194 30.0204 32.6187 30.016 32.618L29.5607 34.4787C29.8537 34.3877 30.1335 34.2835 30.3155 34.122ZM29.3643 19.1591C29.273 19.2252 29.2473 19.3466 29.3066 19.4305C29.3661 19.5143 29.4884 19.5289 29.5799 19.4627C29.6711 19.3969 29.697 19.2753 29.6374 19.1914C29.5781 19.1076 29.4558 19.0931 29.3643 19.1591ZM27.3631 16.5353C27.1694 16.4422 27.0303 16.2661 26.9228 16.0273C26.8203 15.7998 26.8941 15.4567 26.7363 15.7086C26.6534 15.8405 26.551 16.2053 26.6648 16.5385C26.6964 16.6308 26.5421 16.3942 26.2929 16.278C25.8473 16.0702 25.5726 16.0668 25.3482 16.1539C25.2499 16.1779 25.8265 16.6702 25.6523 16.9314C25.3502 16.7322 24.1313 17.1982 24.4051 17.2678C24.5777 17.3116 25.1066 17.4098 25.2034 17.751C25.4566 18.6447 26.5027 16.8913 27.3631 16.5353ZM33.528 16.0313C33.2071 16.3017 32.0387 17.8042 31.9837 18.4302C31.9635 18.6586 31.9391 19.0572 32.2895 19.3062C32.3964 19.3862 32.3861 19.2628 32.8903 19.3493C33.9158 19.525 34.4591 20.198 34.7094 20.1536C34.2176 19.689 33.3361 19.2185 33.039 19.0695C32.8261 18.9627 32.6169 18.5373 32.632 18.2984C32.6441 18.1097 33.3669 16.2243 34.1404 15.8722C34.1453 15.8348 33.8653 15.7863 33.528 16.0313ZM28.7775 31.498C28.7703 31.6329 28.7818 31.7563 28.8092 31.8885C28.8036 31.7651 28.8107 31.6531 28.833 31.5321C28.8656 31.3908 28.9177 31.2523 28.9792 31.1215C29.0677 30.9335 29.1608 30.7483 29.2553 30.5635L29.9453 30.7427C29.9136 30.9822 29.8818 31.2222 29.8634 31.463C29.8501 31.6347 29.8546 31.8051 29.8846 31.9743C29.9028 32.1109 29.9663 32.2402 30.0211 32.3647C29.9895 32.248 29.9562 32.1309 29.9473 32.0095C29.935 31.8399 29.9614 31.6763 29.9924 31.5102C30.0446 31.2721 30.1135 31.038 30.1822 30.8042L30.1835 30.8046C30.2393 30.6137 30.2957 30.4297 30.3274 30.3258L29.1734 30.042C29.1493 30.1241 29.1132 30.246 29.0724 30.385C29.0009 30.605 28.9296 30.8254 28.8665 31.0482C28.8253 31.1931 28.7856 31.3469 28.7775 31.498ZM28.1954 26.8517C28.3136 26.8784 28.4308 26.9071 28.5466 26.9428C28.6949 26.9905 28.8401 27.0446 28.9857 27.1003C29.0257 26.9343 29.0714 26.7696 29.1217 26.6058C28.9912 26.6021 28.8612 26.599 28.7305 26.6017C28.5789 26.6053 28.4284 26.6212 28.278 26.6374C28.2499 26.7087 28.2223 26.7801 28.1954 26.8517ZM28.3859 26.3694C28.508 26.3939 28.6296 26.4204 28.7496 26.4547C28.8778 26.4924 29.0043 26.5348 29.1305 26.5781C29.1796 26.4202 29.2319 26.263 29.2875 26.1067C29.0142 26.1116 28.7448 26.1279 28.4721 26.1628C28.4433 26.2315 28.4144 26.3003 28.3859 26.3694ZM28.5879 25.8919C28.8295 25.9391 29.0654 25.9989 29.3012 26.0687C29.3564 25.9146 29.4134 25.7611 29.4716 25.6085C29.2052 25.6229 28.9417 25.6473 28.6765 25.6871C28.6469 25.7553 28.6175 25.8235 28.5879 25.8919ZM28.8865 25.2111C28.8865 25.2093 28.8863 25.2075 28.8863 25.2057C28.856 25.2746 28.8259 25.3439 28.7956 25.4133C29.0292 25.4541 29.259 25.5053 29.4884 25.5652C29.5465 25.4132 29.6053 25.2618 29.6636 25.1108C29.4029 25.1343 29.1453 25.166 28.8865 25.2111ZM29.0986 24.7253C29.0674 24.7948 29.0362 24.8646 29.0052 24.9348C29.2328 24.9696 29.4574 25.0132 29.6818 25.0639C29.7406 24.9125 29.8016 24.762 29.8658 24.6126C29.6089 24.6451 29.354 24.684 29.099 24.7346C29.0988 24.7315 29.0986 24.7284 29.0986 24.7253ZM29.2205 24.4567C29.4437 24.4863 29.665 24.5231 29.8864 24.5655C29.9534 24.4117 30.0242 24.2594 30.0996 24.1096C29.8362 24.1522 29.5747 24.1997 29.3136 24.2576C29.2824 24.3235 29.2514 24.39 29.2205 24.4567ZM29.5579 23.7735C29.5209 23.8413 29.4848 23.9101 29.4494 23.9798C29.6735 24.0047 29.8961 24.0359 30.1192 24.0715C30.2026 23.9086 30.2918 23.7486 30.3887 23.5932C30.1102 23.6481 29.8337 23.7063 29.5579 23.7735ZM33.6178 23.501C33.5376 23.4467 33.4481 23.3923 33.3476 23.3977C33.1685 23.4076 33.0505 23.6114 33.0056 23.7653C33.1185 23.6863 33.2006 23.514 33.3406 23.4823C33.4185 23.4641 33.5062 23.504 33.5762 23.5348C33.6389 23.5628 33.7012 23.5923 33.7649 23.6185C33.7692 23.6002 33.6321 23.5106 33.6178 23.501ZM33.265 24.4595C33.0911 24.2538 32.8862 24.0895 32.6556 23.9542C32.6556 23.954 32.6556 23.954 32.6558 23.9538C32.112 23.7671 31.532 23.735 30.9771 23.5904C30.9122 23.7597 30.8485 23.9297 30.7852 24.0996C30.813 24.0906 30.9229 24.0713 30.9341 24.0696C31.0082 24.0595 31.083 24.054 31.1577 24.0491C31.3277 24.0379 31.4979 24.0389 31.6679 24.0478C31.9572 24.064 32.2563 24.1046 32.5276 24.2111C32.5479 24.219 32.5678 24.2282 32.5877 24.237C32.8014 24.32 33.0022 24.4315 33.1773 24.583C33.3857 24.7536 33.5722 24.9414 33.753 25.1411C33.6048 24.9016 33.4472 24.6743 33.265 24.4595ZM31.8935 27.5924C31.7284 27.4515 31.5602 27.3267 31.3731 27.2194C31.3735 27.2179 31.3742 27.2166 31.3747 27.2152C31.1007 27.094 30.8132 27.0006 30.5294 26.9062C30.383 26.8573 30.236 26.8104 30.0893 26.7628C30.0231 26.7415 29.9571 26.7208 29.8913 26.6986C29.8864 26.6972 29.8216 26.6724 29.7911 26.6578C29.7886 26.6636 29.7863 26.6695 29.7839 26.6753C29.7164 26.836 29.6477 26.9968 29.5824 27.1588C30.1585 27.1079 30.7573 27.2511 31.2802 27.4867C31.2832 27.488 31.286 27.4894 31.2888 27.4908C31.3028 27.4955 31.3165 27.5004 31.3301 27.5051C31.4236 27.5374 31.5151 27.5807 31.6022 27.627C31.951 27.8135 32.2541 28.0567 32.5559 28.31C32.3493 28.0583 32.1426 27.8038 31.8935 27.5924C31.9319 27.625 31.8544 27.5589 31.8935 27.5924ZM29.8857 26.6385C29.9564 26.6345 30.0279 26.63 30.0986 26.6338C30.2529 26.638 30.4062 26.6493 30.5589 26.6726C30.8468 26.717 31.1334 26.7922 31.4029 26.9037C31.4418 26.9201 31.4801 26.9376 31.5179 26.956C31.5304 26.9594 31.5418 26.9621 31.5479 26.9643C31.6383 26.9977 31.7254 27.0384 31.8107 27.0837C32.1605 27.2645 32.4608 27.5239 32.7554 27.7818C32.5557 27.5253 32.3532 27.2689 32.1075 27.0541C32.1167 27.0622 32.1251 27.0696 32.1071 27.054C32.1003 27.048 32.097 27.0453 32.0961 27.0444C32.0975 27.0456 32.102 27.0496 32.1068 27.0536C31.9475 26.9144 31.7848 26.7917 31.6038 26.6854C31.6049 26.6831 31.606 26.6806 31.6071 26.678C31.4491 26.6071 31.28 26.5557 31.1175 26.502C30.8424 26.4109 30.5639 26.3299 30.2864 26.2466C30.214 26.2247 30.1407 26.2036 30.0687 26.1796C30.0603 26.1769 30.0202 26.1628 30.0018 26.1504C29.9347 26.3138 29.8669 26.4769 29.7985 26.6398C29.8274 26.6358 29.8725 26.6391 29.8857 26.6385ZM30.0108 26.1312C30.1573 26.1143 30.3059 26.1134 30.4531 26.119C30.8069 26.1322 31.1671 26.1995 31.5006 26.3183C31.5773 26.3458 31.6505 26.3764 31.7216 26.4102C31.7223 26.4089 31.7227 26.4076 31.7234 26.4062C31.7299 26.4093 31.7382 26.4125 31.7496 26.4168C31.849 26.4545 31.9442 26.4989 32.0375 26.5496C32.3795 26.73 32.6719 26.9942 32.9551 27.2537C32.7626 26.994 32.5647 26.7363 32.3241 26.5187C32.3313 26.5252 32.3357 26.529 32.3207 26.5157C32.3037 26.5003 32.3091 26.5052 32.3171 26.5124C32.163 26.3744 32.0054 26.2539 31.8298 26.1489C31.8311 26.1463 31.8322 26.1431 31.8332 26.1403C31.6783 26.0707 31.5104 26.0225 31.3497 25.9741C31.0627 25.8874 30.7733 25.8094 30.4845 25.7296C30.4087 25.7084 30.3328 25.6879 30.2578 25.6644C30.2379 25.6581 30.2163 25.6491 30.2065 25.6402C30.1421 25.8046 30.0761 25.9682 30.0094 26.1316C30.0097 26.1314 30.0101 26.1314 30.0108 26.1312ZM30.2371 25.6166C30.3878 25.5978 30.5417 25.5957 30.6932 25.6004C31.0422 25.6107 31.3922 25.6709 31.7236 25.7806C31.7981 25.8053 31.8701 25.8349 31.9397 25.8682C31.94 25.8668 31.9406 25.8656 31.9411 25.8641C31.9413 25.8641 31.9413 25.8643 31.9415 25.8643C31.962 25.8712 31.9821 25.8802 32.0021 25.8881C32.0912 25.9283 32.1783 25.9676 32.264 26.0156C32.5989 26.1953 32.8817 26.4655 33.1544 26.7253C32.9676 26.4614 32.7744 26.2016 32.5371 25.9801C32.5443 25.9866 32.5488 25.9907 32.5343 25.9772C32.517 25.9611 32.5231 25.9669 32.5312 25.9745C32.3764 25.8322 32.2179 25.709 32.0392 25.6024C32.0405 25.5991 32.0416 25.5961 32.0429 25.5928C31.874 25.5159 31.6789 25.4703 31.5026 25.4221C31.194 25.3378 30.8818 25.2676 30.5732 25.183C30.5334 25.1727 30.4937 25.1624 30.4541 25.1509C30.4392 25.1465 30.4145 25.1424 30.4017 25.1314C30.34 25.2952 30.2776 25.4586 30.214 25.6215C30.2196 25.6195 30.2267 25.6179 30.2371 25.6166ZM30.5318 25.0942C30.6931 25.0796 30.8554 25.0765 31.017 25.0839C31.3504 25.0991 31.6854 25.1516 32.0019 25.2598C32.0504 25.2764 32.0973 25.2961 32.1435 25.3172C32.1442 25.3152 32.145 25.3132 32.1459 25.311C32.1691 25.3238 32.1935 25.3345 32.203 25.3387C32.2987 25.3789 32.3897 25.424 32.4796 25.4752C32.8097 25.6633 33.0871 25.9307 33.3539 26.1973C33.1732 25.9302 32.9847 25.6678 32.752 25.4429C32.7579 25.4487 32.7608 25.4512 32.7478 25.4388C32.732 25.4238 32.7359 25.4276 32.7428 25.4342C32.5857 25.286 32.4246 25.1597 32.24 25.0504C32.241 25.0482 32.2417 25.0461 32.2424 25.0439C32.1892 25.0246 32.1325 25.0119 32.0817 24.9892C31.9258 24.9404 31.7683 24.8998 31.6101 24.8612C31.295 24.7845 30.9764 24.7221 30.6627 24.64C30.6494 24.6364 30.5983 24.6268 30.5942 24.6147C30.5321 24.7823 30.4701 24.9497 30.4072 25.1169C30.4369 25.104 30.522 25.0951 30.5318 25.0942ZM30.6137 24.6007C30.6761 24.582 30.7475 24.5787 30.8118 24.5744C30.9737 24.5621 31.1352 24.5587 31.2977 24.5643C31.6138 24.5756 31.9437 24.6194 32.2429 24.727C32.2769 24.7392 32.3102 24.7528 32.3428 24.7672C32.3434 24.7659 32.3437 24.7647 32.3443 24.7632C32.3674 24.775 32.3919 24.7854 32.4137 24.7932C32.5054 24.8226 32.594 24.8753 32.6767 24.9236C33.0103 25.1184 33.2884 25.391 33.5534 25.6693C33.3785 25.3983 33.1939 25.133 32.9652 24.9045C32.9711 24.9103 32.9741 24.9129 32.9614 24.9006C32.8685 24.8105 32.7767 24.719 32.671 24.6436C32.5965 24.5907 32.5205 24.544 32.4421 24.4986C32.4426 24.4969 32.4433 24.4952 32.4439 24.4936C32.3843 24.4707 32.3207 24.4542 32.2611 24.4362C32.0882 24.3839 31.9105 24.3447 31.7335 24.309C31.547 24.2715 31.3601 24.234 31.1743 24.1945C31.093 24.1772 31.0118 24.1595 30.9308 24.1414C30.9088 24.1366 30.8053 24.127 30.7825 24.1064C30.7203 24.2738 30.6584 24.4414 30.5963 24.609C30.5992 24.6063 30.6045 24.6036 30.6137 24.6007ZM32.64 28.4875C32.8005 28.1554 32.9455 27.815 33.0808 27.4719C33.3547 26.7774 33.6137 26.0743 33.8321 25.3601C33.911 25.1029 33.9829 24.8429 34.0383 24.5794C33.8269 25.1799 33.6003 25.7743 33.3748 26.3696C33.1079 27.0743 32.8487 27.7824 32.5617 28.4794C32.4524 28.7449 32.3407 29.0102 32.2004 29.2609C32.3744 29.0201 32.5112 28.7543 32.64 28.4875ZM31.3724 30.4502C31.4185 30.473 31.4656 30.4934 31.5133 30.5127C31.1476 30.182 30.8152 29.6694 30.8112 29.1977C30.8081 28.821 30.8983 28.4458 31.0486 28.0255C31.1213 28.0513 31.1922 28.0798 31.2616 28.1112C31.1994 28.3255 31.1357 28.5391 31.0902 28.7575C31.0603 28.9011 31.0405 29.0571 31.0552 29.2038C31.0664 29.3145 31.087 29.4183 31.1126 29.5263C31.1023 29.4186 31.0958 29.3151 31.0998 29.2067C31.1058 29.0635 31.1451 28.9162 31.1933 28.782C31.2643 28.5831 31.3513 28.3906 31.4379 28.198C31.7664 28.373 32.0625 28.6022 32.3564 28.838C32.1855 28.6412 32.018 28.4439 31.8284 28.2645C31.6208 28.0683 31.3977 27.8969 31.1494 27.7569C31.1498 27.756 31.1501 27.7551 31.1505 27.7542C31.1357 27.7477 31.1213 27.7407 31.1063 27.7342C30.83 27.6146 30.5477 27.5076 30.2639 27.407C30.0366 27.3265 29.803 27.2576 29.5784 27.1692C29.5321 27.2845 29.4874 27.4001 29.4473 27.5174C29.4615 27.418 29.4794 27.3198 29.5027 27.222C29.6719 26.5094 29.9471 25.8169 30.212 25.1353C30.4517 24.5186 30.7118 23.8959 31.0764 23.3412C31.047 23.418 31.0139 23.4936 30.9845 23.5705C30.9831 23.5747 30.9815 23.579 30.9799 23.5831C31.0661 23.5665 31.1537 23.5535 31.241 23.5446C31.5883 23.5085 31.9473 23.5034 32.2933 23.5582C32.4487 23.5827 32.6275 23.6112 32.777 23.6773C32.8259 23.5723 32.8745 23.4758 32.923 23.3901C33.1465 22.9942 33.4005 23.1659 33.6985 23.3067C33.5556 23.1684 33.3934 23.0355 33.2008 22.9468C33.1347 22.9173 33.0593 22.8921 32.9809 22.8695C32.7224 22.8634 32.5066 23 32.3809 23.2336C32.433 23.0452 32.5434 22.8988 32.6917 22.8024C32.6132 22.7876 32.5335 22.7741 32.4518 22.7629C32.424 22.7591 32.3955 22.7564 32.3677 22.753C32.1291 22.7757 31.9454 22.9611 31.825 23.1733C31.8771 23.0106 31.9581 22.8603 32.0837 22.742C32.0894 22.7366 32.0956 22.7319 32.1015 22.7266C31.9795 22.7173 31.8553 22.7111 31.729 22.7082C31.5233 22.7555 31.3534 22.9188 31.2494 23.1033C31.2939 22.9527 31.3738 22.8134 31.4826 22.7057C31.3648 22.7072 31.2454 22.7111 31.1254 22.7193C30.9385 22.7864 30.7861 22.9689 30.6853 23.1303C30.7347 22.9922 30.8072 22.852 30.9048 22.7391C30.8291 22.7478 30.7533 22.7586 30.6777 22.7718C30.6702 22.773 30.6627 22.775 30.6551 22.7763C30.4495 22.8593 30.2805 23.038 30.166 23.2247C30.215 23.0901 30.2857 22.9601 30.3767 22.8488C30.3319 22.8652 30.2897 22.8843 30.2544 22.9062C30.1282 22.9868 30.015 23.0973 29.9142 23.2224C29.8429 23.3108 29.7768 23.4058 29.7145 23.5048C29.9423 23.5258 30.1692 23.5519 30.3968 23.5806C30.4612 23.478 30.5287 23.3773 30.6002 23.279C30.5659 23.3536 30.5314 23.4287 30.4977 23.5038C30.1966 24.1759 29.9502 24.8682 29.6818 25.5537C29.5447 25.9036 29.4009 26.2509 29.2555 26.5978C29.1385 26.877 29.0167 27.1553 28.9182 27.442C28.931 27.3532 28.946 27.2654 28.9662 27.1779C28.9715 27.1552 28.9778 27.1329 28.9832 27.1104C28.8297 27.1001 28.6772 27.0906 28.5237 27.0899C28.3826 27.0895 28.2425 27.0998 28.1021 27.1117C27.9862 27.4533 27.8859 27.8042 27.8658 28.1525C27.8574 28.3287 27.873 28.5046 27.9299 28.6594C27.9629 28.7514 27.9948 28.8224 28.0361 28.9032C28.0778 28.9812 28.1224 29.0575 28.174 29.1297C28.2966 29.3057 28.4463 29.4625 28.6117 29.6013C28.5672 29.5462 28.5239 29.4897 28.4828 29.4309C28.3141 29.1906 28.1925 28.9092 28.1483 28.6183C28.098 28.2889 28.1554 27.9672 28.2928 27.6662C28.2102 27.9573 28.1915 28.2494 28.2611 28.5459C28.3222 28.8055 28.4582 29.0521 28.6262 29.2579C28.753 29.4134 28.8962 29.5472 29.0486 29.6713C28.9983 29.6055 28.9505 29.5371 28.9049 29.466C28.5876 28.9715 28.5201 28.3186 28.7537 27.7795C28.7209 27.9023 28.6951 28.0271 28.6918 28.155C28.6765 28.7676 28.9682 29.3465 29.4357 29.7347C29.4828 29.7738 29.5312 29.811 29.5797 29.8474C29.5335 29.7861 29.4897 29.7222 29.4478 29.6559C29.1226 29.1407 29.0504 28.4357 29.2879 27.8742C29.255 28.0015 29.2315 28.1308 29.2294 28.2631C29.2243 28.5634 29.2732 28.8835 29.4049 29.1558C29.4632 29.2767 29.522 29.4029 29.6046 29.5094C29.6862 29.6151 29.7686 29.7112 29.8615 29.807C29.9365 29.8842 30.0206 29.9538 30.1091 30.0182C30.0778 29.9749 30.0478 29.9309 30.0199 29.8857C29.8308 29.5794 29.7262 29.2235 29.7005 28.8654C29.6789 28.5658 29.7033 28.2472 29.822 27.9685C29.737 28.2497 29.7453 28.5589 29.7969 28.8459C29.8564 29.1787 29.989 29.5029 30.198 29.7697C30.3095 29.912 30.4371 30.0305 30.5778 30.1314C30.5493 30.0884 30.522 30.0448 30.4969 29.9996C30.3218 29.6827 30.2336 29.3295 30.2161 28.9687C30.2019 28.6666 30.226 28.3404 30.3561 28.0632C30.2935 28.2864 30.2973 28.5239 30.3197 28.7528C30.3472 29.0359 30.4176 29.3113 30.533 29.5714C30.646 29.8252 30.8135 30.0601 31.0316 30.2336C31.1377 30.318 31.2512 30.3902 31.3724 30.4502ZM30.8431 32.2191C30.73 32.1506 30.6298 32.07 30.5718 31.9471C30.512 31.8329 30.4955 31.6936 30.5217 31.5681C30.5503 31.431 30.624 31.3044 30.7353 31.2185C30.8492 31.1307 30.9748 31.1 31.1153 31.0899C30.7859 30.931 30.442 31.1803 30.3532 31.503C30.3236 31.674 30.3377 31.8432 30.4376 31.9904C30.5302 32.1266 30.6777 32.2151 30.8431 32.2191ZM30.438 34.2362C30.7069 33.9828 30.6532 33.582 30.5327 33.2699C30.592 33.5524 30.6537 33.9093 30.4399 34.1462C30.2466 34.382 29.934 34.4951 29.6549 34.5916C29.9397 34.5456 30.226 34.4364 30.438 34.2362Z"/>
    <path fill-rule="evenodd" clip-rule="evenodd"
          d="M23.5032 50.7435L22.109 50.9233L21.7085 50.9749C21.1933 51.0413 20.7476 50.9141 20.3778 50.5927C20.006 50.2736 19.7827 49.8237 19.7084 49.2472C19.609 48.4766 19.7889 47.7729 20.2476 47.1363C20.7064 46.4997 21.2947 46.1341 22.0126 46.0415C22.5004 45.9786 22.9151 46.0646 23.2543 46.2979C23.5955 46.5307 23.7933 46.8659 23.8497 47.303C23.8892 47.6091 23.8456 47.8701 23.7189 48.086C23.5921 48.3022 23.4083 48.4246 23.1718 48.4551C22.7939 48.5038 22.5809 48.3508 22.5352 47.9962C22.5284 47.9434 22.5226 47.8991 22.5177 47.8611C22.5119 47.8167 22.5063 47.7723 22.5011 47.7323C22.4638 47.4429 22.3018 47.318 22.0166 47.3547C21.7486 47.3892 21.5218 47.5624 21.3369 47.8759C21.1516 48.1874 21.0827 48.5184 21.1278 48.8689C21.1656 49.1602 21.283 49.3554 21.4782 49.4548C21.6753 49.5518 21.9894 49.5735 22.4201 49.5179L23.5899 49.3671C23.7164 49.3509 23.8291 49.3473 23.928 49.3565C24.2379 49.3206 24.483 49.3277 24.6627 49.3778C24.6782 49.302 24.698 49.2183 24.7224 49.1267L26.2216 43.4699L26.2674 43.2924C26.3932 42.8041 26.6701 42.5363 27.086 42.4827C27.2592 42.4603 27.4127 42.498 27.5496 42.5989C27.6853 42.699 27.7639 42.829 27.785 42.9916C27.8007 43.1139 27.7885 43.26 27.7462 43.4238L27.7004 43.6013L26.2631 49.0224L26.9112 48.9389C27.0379 48.9227 27.1504 48.919 27.2491 48.9281C27.5584 48.8896 27.8052 48.8929 27.9889 48.9374C27.9652 48.7428 27.9885 48.5063 28.061 48.2325L28.6332 46.0616C28.7939 45.4591 29.0779 45.1306 29.4853 45.0781C29.6628 45.0552 29.8199 45.0927 29.9572 45.191C30.0963 45.2868 30.1753 45.4183 30.1966 45.583C30.2126 45.7076 30.1993 45.8532 30.1546 46.0221L30.1062 46.198L29.6673 47.8708L29.6255 48.0631C29.6013 48.1755 29.5927 48.2583 29.5954 48.3117C29.6105 48.4964 29.7429 48.5738 29.99 48.5421C30.5009 48.476 30.8162 48.2251 30.9322 47.7915L31.459 45.783C31.6144 45.1747 31.9043 44.8434 32.3246 44.7891C32.4978 44.7669 32.6529 44.8048 32.7925 44.9049C32.932 45.0048 33.0112 45.1364 33.0319 45.2969C33.0485 45.4257 33.0213 45.631 32.9482 45.9129L32.3317 48.2401L33.0496 48.1475C33.193 48.1289 33.3171 48.1239 33.4216 48.1322L34.172 48.0355L35.6823 42.3458L35.7276 42.1639C35.8497 41.6733 36.1304 41.4079 36.5336 41.356C36.7194 41.332 36.8808 41.3692 37.0222 41.4667C37.1612 41.5627 37.2427 41.6938 37.2638 41.8585C37.2804 41.9873 37.2614 42.1324 37.2198 42.3L37.1746 42.4818L36.6956 44.2256C36.8727 44.1513 37.0341 44.1047 37.1797 44.0859C37.657 44.0245 38.0683 44.1516 38.41 44.4704C38.7536 44.7887 38.9612 45.2321 39.0345 45.8002C39.1763 46.9004 38.8623 47.8124 38.0927 48.5363C37.8227 48.7879 37.5281 48.9353 37.2072 48.9768L36.618 49.0527C36.2105 49.1052 35.8432 49.0044 35.5162 48.7482C35.3831 49.0638 35.1294 49.2447 34.7598 49.2923C34.7005 49.2998 34.6435 49.3007 34.5887 49.2948C34.4692 49.3231 34.3395 49.3464 34.1992 49.3644L32.963 49.5239L32.1745 49.6256L31.8545 49.6668C31.5082 49.7115 31.2605 49.6059 31.1099 49.3527C30.9185 49.6502 30.6508 49.822 30.3088 49.8661L29.4051 49.9826C29.0419 50.0295 28.7274 49.9541 28.4596 49.7589C28.4149 49.7265 28.3734 49.6918 28.335 49.6551C28.2841 49.7627 28.1983 49.86 28.0778 49.9463C27.8426 50.1148 27.4959 50.2289 27.0397 50.2877L26.8248 50.3152L25.8502 50.441L25.712 50.4589C25.4079 50.498 25.16 50.4569 24.964 50.3342C24.927 50.3111 24.8931 50.2858 24.8618 50.2583C24.8222 50.3007 24.7758 50.3409 24.7226 50.3789C24.4874 50.5474 24.1408 50.6614 23.6845 50.7202L23.5032 50.7435ZM33.668 41.6637C34.2347 41.5907 34.545 41.7539 34.5962 42.1518C34.6312 42.4239 34.5584 42.6517 34.378 42.8315C34.1963 43.0125 33.9258 43.1267 33.5671 43.1729C30.9003 43.5166 32.304 43.3357 29.6372 43.6795C29.0706 43.7526 28.7602 43.5894 28.709 43.1916C28.6738 42.9196 28.7472 42.6912 28.9272 42.5119C29.1084 42.3313 29.38 42.2168 29.738 42.1706C32.4049 41.8266 31.0012 42.0076 33.668 41.6637ZM43.0939 37.8866L43.6255 37.8181C43.7359 37.8038 43.8383 37.7948 43.933 37.7908C43.8755 37.6285 43.834 37.4481 43.8084 37.2497C43.7084 36.4747 43.884 35.771 44.3369 35.1408C44.7899 34.5103 45.3801 34.1472 46.1037 34.0538C46.6311 33.9858 47.0736 34.0691 47.4284 34.3022C47.7834 34.5372 47.991 34.879 48.0491 35.3305C48.1191 35.8726 47.9503 36.3028 47.5409 36.6218C47.3169 36.8016 46.9596 36.923 46.4752 36.9854L45.2673 37.1411C45.3067 37.4461 45.5531 37.5695 46.0086 37.5107L47.8018 37.2796C48.3108 37.214 48.5874 37.3606 48.6334 37.7171C48.6648 37.9604 48.5987 38.1637 48.4369 38.3228C48.2753 38.482 48.0325 38.5823 47.711 38.6238L46.0024 38.8441C45.4551 38.9148 45.0063 38.8557 44.6537 38.6674C44.6064 38.7267 44.5469 38.782 44.4749 38.8336C44.2394 39.0023 43.8934 39.1161 43.4366 39.1749L42.7689 39.2611L42.7176 39.2676L42.7172 39.2648C42.5675 39.2671 42.4264 39.1943 42.2926 39.0458L42.2064 38.946L40.532 37.0267L40.0702 38.7918C39.9228 39.3557 39.638 39.6647 39.2197 39.7186C39.1633 39.726 39.1089 39.7271 39.0568 39.7224C38.9561 39.7468 38.8474 39.7668 38.7302 39.7818L36.0471 40.1277L36.0464 40.1216C35.956 40.1375 35.8595 40.1519 35.757 40.1651C35.0995 40.2499 34.6483 40.2284 34.3974 40.1016C34.2584 40.0299 34.1332 39.9466 34.022 39.8516C33.9793 39.9896 33.8837 40.1122 33.7354 40.2183C33.5 40.3869 33.1538 40.5008 32.6973 40.5596L32.3564 40.6036L31.9781 40.6523L31.5834 40.7031C31.2372 40.7479 30.9829 40.6445 30.8245 40.3904C30.5563 40.6996 30.283 40.871 30.0005 40.9074L29.3122 40.9961C28.9593 41.0416 28.6469 40.9793 28.3753 40.8107C28.3364 40.8514 28.2915 40.89 28.2401 40.9268C28.0047 41.0955 27.6587 41.2093 27.202 41.2681L26.5422 41.3533L26.4828 41.3608L25.357 41.506C24.9573 41.5577 24.6118 41.4617 24.3204 41.2166C24.305 41.2036 24.2899 41.1902 24.2752 41.1765C24.2318 41.2847 24.1564 41.3818 24.049 41.4673C23.8419 41.6322 23.5357 41.7409 23.1303 41.793L21.5298 41.9994L20.7568 42.0992L20.4473 42.139L20.4415 42.0943C20.2519 42.0582 20.1034 41.9558 19.9979 41.7864C19.7297 42.0954 19.4564 42.2668 19.1739 42.3032L18.4855 42.3919C18.0425 42.4491 17.6634 42.3368 17.3485 42.0566C17.036 41.7765 16.8467 41.3818 16.7809 40.8706C16.6811 40.0976 16.8601 39.3726 17.3152 38.6938C17.7706 38.0171 18.3353 37.6341 19.007 37.5475C19.5244 37.4807 19.9221 37.6076 20.2066 37.9292C20.3695 37.6002 20.6139 37.4156 20.9397 37.3738C21.1168 37.3508 21.2725 37.3873 21.4066 37.4852C21.5387 37.5836 21.6165 37.716 21.6378 37.8809C21.6524 37.9941 21.6369 38.1345 21.5932 38.2993L21.5484 38.4707L20.9547 40.7411L21.6205 40.6552L23.2789 40.4414C23.5054 40.4122 23.6947 40.41 23.8473 40.4349C23.8266 40.3545 23.8106 40.2699 23.7992 40.1815C23.7628 39.8992 23.7954 39.6164 23.8972 39.3328C23.9989 39.0494 24.1982 38.6927 24.4924 38.2609L23.8638 38.3419L23.7254 38.8773C23.5981 39.3526 23.3861 39.6104 23.0894 39.6486C22.91 39.6717 22.7526 39.6376 22.6191 39.5438C22.4834 39.4502 22.406 39.3218 22.3853 39.161C22.3734 39.0683 22.3965 38.9062 22.4564 38.672L22.9209 36.8961C23.0315 36.4692 23.238 36.235 23.5411 36.196C23.8378 36.1578 24.0371 36.2745 24.1438 36.5479L24.2154 36.7292C24.2525 36.8229 24.2954 36.8803 24.3479 36.8965C24.3984 36.9153 24.5175 36.9123 24.7073 36.888L26.1209 36.7056C26.6466 36.6378 26.9323 36.7897 26.9801 37.1606C27.046 37.6718 26.7451 37.9705 26.0793 38.0564L26.0212 38.1245C25.4678 38.8223 25.2118 39.3393 25.2551 39.6754C25.2986 40.0112 25.5013 40.1548 25.8641 40.1081L26.3138 40.05H26.3147L26.6267 40.0098L27.3909 39.9113C27.4994 39.8972 27.6007 39.8882 27.6941 39.8842C27.6552 39.7572 27.6263 39.6207 27.6074 39.4747C27.5078 38.7018 27.6867 37.9768 28.1418 37.2978C28.5973 36.621 29.1619 36.2382 29.8337 36.1515C30.351 36.0849 30.7488 36.2118 31.0332 36.5334C31.1961 36.2043 31.4406 36.0198 31.7661 35.9778C31.9435 35.9549 32.0989 35.9914 32.2332 36.0894C32.3652 36.1876 32.4432 36.3201 32.4644 36.485C32.479 36.5983 32.4635 36.7387 32.4199 36.9035L32.3749 37.0749L31.7813 39.345L31.8091 39.3416L31.81 39.3415L32.4471 39.2594L32.886 39.2027C33.1492 39.1688 33.3676 39.1643 33.5413 39.1896C33.462 39.0027 33.4075 38.7945 33.3779 38.565C33.2794 37.8006 33.4702 37.1034 33.9485 36.4738C34.4289 35.8441 35.044 35.4797 35.7963 35.3828C36.3795 35.3076 36.8837 35.4312 37.3064 35.7517C37.7313 36.0741 37.9796 36.5198 38.0531 37.0908C38.1087 37.5215 38.0647 37.9609 37.9236 38.4108C37.9076 38.4613 37.8906 38.5111 37.8728 38.5598L38.6755 38.4563L40.1951 32.7275L40.2398 32.554C40.3624 32.0776 40.6328 31.8163 41.0389 31.7638C41.2079 31.7421 41.3611 31.7794 41.4957 31.8768C41.6313 31.975 41.7089 32.1007 41.7291 32.2573C41.7448 32.3791 41.7298 32.5215 41.6861 32.6882L41.641 32.8596L40.7819 36.0726L42.0123 34.8893C42.2675 34.6427 42.4952 34.5066 42.697 34.4804C42.866 34.4586 43.0132 34.4941 43.1406 34.5888C43.2681 34.6835 43.341 34.8101 43.3619 34.973C43.3968 35.243 43.28 35.5075 43.0098 35.7685L42.8828 35.8876L42.0691 36.6631L43.0939 37.8866ZM45.6572 40.118L47.3925 39.8941C47.9593 39.8211 48.2695 39.9845 48.3207 40.3823C48.3559 40.6543 48.2825 40.8816 48.1025 41.0619C47.9205 41.2425 47.6503 41.3571 47.2917 41.4033L46.132 41.5528V41.5529L39.2911 42.4349C38.7246 42.5079 38.4141 42.3447 38.3629 41.9469C38.3277 41.6749 38.4011 41.4465 38.5811 41.267C38.7624 41.0867 39.0339 40.9719 39.392 40.9257L45.6572 40.118ZM14.2086 40.1918L15.9295 43.4961C16.0783 43.7818 16.3416 43.8976 16.7127 43.8498L24.1349 42.8929C24.7017 42.8198 25.012 42.983 25.0632 43.3808C25.0982 43.6529 25.0251 43.8808 24.8449 44.0607C24.6634 44.2415 24.3923 44.3558 24.0341 44.402L16.5644 45.3651C16.0329 45.4336 15.6481 45.4071 15.4127 45.2893C15.1756 45.1708 14.9398 44.8894 14.7023 44.4444L12.5434 40.3267L11.6889 43.5632C11.5255 44.1982 11.2205 44.5454 10.7731 44.6031C10.5877 44.627 10.4192 44.588 10.2717 44.4833C10.1223 44.3811 10.0377 44.2452 10.0164 44.0805C9.99944 43.9485 10.0148 43.7915 10.0606 43.6095L10.11 43.4252L11.4925 38.1731C11.6538 37.5551 11.7209 37.1337 11.6917 36.9069C11.6664 36.7112 11.5578 36.5512 11.3684 36.431C11.1792 36.3111 10.9698 36.2646 10.739 36.2944C10.329 36.3472 9.98175 36.5658 9.69659 36.9525C9.41303 37.3368 9.29791 37.7435 9.35276 38.1702C9.41284 38.6359 9.70811 38.9269 10.2383 39.0409C10.5615 39.1102 10.7403 39.2779 10.7751 39.548C10.804 39.7724 10.7392 39.9695 10.583 40.1384C10.4268 40.3072 10.2157 40.41 9.954 40.4438C9.44911 40.5089 8.98876 40.3523 8.57513 39.9719C8.15952 39.5918 7.91471 39.1078 7.8386 38.5163C7.72514 37.6364 7.95601 36.8271 8.52855 36.0847C9.10344 35.3424 9.83405 34.9149 10.7202 34.8007C11.3819 34.7154 11.9572 34.8381 12.45 35.1666C12.9428 35.4947 13.2273 35.9464 13.302 36.5254C13.3548 36.9356 13.3094 37.4109 13.1672 37.9508L12.7114 39.6786L15.4522 35.9581C15.7482 35.5574 16.0384 35.3378 16.3187 35.3015C16.5125 35.2766 16.6815 35.3197 16.8255 35.429C16.9718 35.5399 17.056 35.6906 17.0811 35.8843C17.1116 36.1213 16.9863 36.4329 16.7044 36.815L14.2086 40.1918ZM45.414 36.0034L46.0776 35.9179C46.5084 35.8623 46.7069 35.7424 46.6704 35.5585C46.6311 35.3499 46.4794 35.2626 46.2135 35.2968C45.8424 35.3448 45.5774 35.58 45.414 36.0034ZM35.8156 36.6878C35.5189 36.726 35.2678 36.9071 35.0627 37.2332C34.8554 37.5596 34.7756 37.8989 34.8212 38.2533C34.8816 38.7213 35.1713 38.9206 35.6926 38.8535C35.9976 38.8142 36.2184 38.6892 36.3588 38.4783C36.591 38.1341 36.6813 37.7621 36.6299 37.3622C36.6003 37.1335 36.5105 36.9566 36.3604 36.8334C36.2102 36.7081 36.0281 36.6603 35.8156 36.6878ZM29.5936 39.6524L29.744 39.6329C30.0759 39.5902 30.2789 39.4256 30.3533 39.1416L30.6431 38.0419C30.6809 37.8967 30.6952 37.7794 30.6833 37.6869C30.6692 37.5776 30.6034 37.4896 30.4858 37.4232C30.3684 37.3566 30.2331 37.3321 30.0848 37.3512C29.7881 37.3895 29.5216 37.5978 29.2873 37.9759C29.0515 38.3562 28.957 38.7286 29.0044 39.0956C29.0578 39.5097 29.2536 39.6962 29.5936 39.6524ZM18.7671 41.0482L18.9176 41.0288C19.2493 40.986 19.4522 40.8217 19.5268 40.5376L19.8166 39.4377C19.8545 39.2925 19.8685 39.1755 19.8566 39.0828C19.8426 38.9734 19.7768 38.8856 19.6593 38.8191C19.5417 38.7525 19.4066 38.7279 19.2581 38.747C18.9614 38.7855 18.695 38.9936 18.4607 39.3717C18.2249 39.752 18.1304 40.1247 18.1778 40.4916C18.2312 40.9058 18.4269 41.0921 18.7671 41.0482ZM35.8557 47.4186C36.0949 47.6582 36.3548 47.7599 36.6314 47.7243C36.8299 47.6988 36.9896 47.6223 37.1125 47.4928C37.2829 47.3161 37.4184 47.069 37.5234 46.7506C37.6262 46.4326 37.6634 46.1552 37.6327 45.9165C37.6087 45.7307 37.5365 45.5877 37.4137 45.4833C37.2908 45.3809 37.1419 45.3402 36.9687 45.3623C36.576 45.4131 36.3007 45.7426 36.1389 46.3518L35.8557 47.4186Z"/>
</svg>
