<svg width="20" height="20" viewBox="0 0 20 20" fill="none" xmlns="http://www.w3.org/2000/svg">
<path fill-rule="evenodd" clip-rule="evenodd" d="M20 7.73422V10.3226H19.3548V7.73422C19.3548 7.30359 19.0778 6.93092 18.6654 6.80743L16.588 6.18416C16.4003 6.42799 16.037 6.77419 15.4839 6.77419C14.9307 6.77419 14.5675 6.42799 14.3797 6.18448L12.9845 6.6033C13.5248 6.9065 13.871 7.48 13.871 8.11712V8.42285C14.2813 8.00356 14.8523 7.74225 15.4839 7.74225C16.729 7.74225 17.7419 8.7552 17.7419 10.0003V10.9681C17.7419 11.7332 17.3584 12.4097 16.7742 12.8183V13.3083L18.8506 13.9313C19.538 14.1375 20 14.7584 20 15.4762V18.3871H16.129C15.9514 18.3871 15.8065 18.532 15.8065 18.7097V20H4.19355V18.7097C4.19355 18.532 4.04864 18.3871 3.87097 18.3871H0V15.4762C0 14.7584 0.461977 14.1375 1.14935 13.931L3.22581 13.308V12.818C2.6416 12.4097 2.25806 11.7332 2.25806 10.9677V10C2.25806 8.75488 3.27101 7.74194 4.51613 7.74194C5.1635 7.74194 5.74676 8.01742 6.15864 8.45514C6.24354 7.75186 6.52328 7.10906 6.9432 6.58093L5.62027 6.18416C5.43252 6.42799 5.0693 6.77419 4.51613 6.77419C3.96295 6.77419 3.59974 6.42799 3.41198 6.18416L1.3349 6.80743C0.922222 6.93092 0.645161 7.30359 0.645161 7.73422V10.3226H0V7.73422C0 7.01644 0.461977 6.39554 1.14935 6.18904L3.22581 5.56609V5.07608C2.6416 4.66781 2.25806 3.99131 2.25806 3.22581V2.25806C2.25806 1.01295 3.27101 0 4.51613 0C5.76125 0 6.77419 1.01295 6.77419 2.25806V3.22612C6.77419 3.99131 6.39066 4.66781 5.80645 5.07639V5.56641L7.44708 6.05878C8.10122 5.50025 8.94768 5.16129 9.87289 5.16129C10.8019 5.16129 11.6769 5.50104 12.3636 6.11517L14.1935 5.56609V5.07608C13.6093 4.66781 13.2258 3.99131 13.2258 3.22581V2.25806C13.2258 1.01295 14.2388 0 15.4839 0C16.729 0 17.7419 1.01295 17.7419 2.25806V3.22612C17.7419 3.99131 17.3584 4.66781 16.7742 5.07639V5.56641L18.8506 6.18936C19.538 6.39554 20 7.01644 20 7.73422ZM6.12903 2.25806C6.12903 1.36876 5.40543 0.645161 4.51613 0.645161C3.62683 0.645161 2.90323 1.36876 2.90323 2.25806H3.09224C3.29716 2.25806 3.49814 2.1749 3.64289 2.02999L3.87097 1.80192L4.09904 2.02999C4.24379 2.1749 4.44478 2.25806 4.6497 2.25806H6.12903ZM2.90323 3.22581V2.90323H3.09224C3.37324 2.90323 3.64163 2.82258 3.87097 2.672C4.1003 2.82258 4.3687 2.90323 4.6497 2.90323H6.12903V3.22581C6.12903 4.11511 5.40543 4.83871 4.51613 4.83871C3.62683 4.83871 2.90323 4.11511 2.90323 3.22581ZM3.87097 5.71777C3.95098 5.84095 4.17323 6.12903 4.51613 6.12903C4.85903 6.12903 5.08127 5.84126 5.16129 5.71746V5.38873C4.95684 5.45001 4.74027 5.48387 4.51613 5.48387C4.29199 5.48387 4.07542 5.45001 3.87097 5.38905V5.71777ZM13.3832 11.7909C13.5474 12.2081 13.831 12.5649 14.1935 12.8183V13.3083L12.1174 13.9313C12.049 13.9516 11.9826 13.9781 11.9177 14.0074L11.6129 13.9371V13.3016C11.9577 13.0245 12.2294 12.6607 12.3962 12.2436C12.7678 12.211 13.1162 12.0528 13.3832 11.7909ZM10.9677 13.681C10.6688 13.8026 10.3423 13.871 10 13.871C9.65773 13.871 9.33121 13.8026 9.03226 13.681V14.0323L10 14.7581L10.9677 14.0323V13.681ZM8.63612 14.5416L9.42257 15.1317L8.6136 15.6171L8.40899 14.5943L8.63612 14.5416ZM10.6074 19.3548L10.3564 17.0968H9.64355L9.39264 19.3548H10.6074ZM10.4125 16.4516H9.58717L9.40193 15.8961L10 15.5374L10.5978 15.8961L10.4125 16.4516ZM11.3639 14.5416L10.5774 15.1317L11.3864 15.6168L11.591 14.5939L11.3639 14.5416ZM12.9743 11.2962C12.8626 11.4187 12.7207 11.5045 12.5668 11.5568C12.5758 11.4691 12.5806 11.3803 12.5806 11.2903V9.74672C12.9278 9.8784 13.1861 10.1838 13.2209 10.5488C13.2474 10.8265 13.16 11.0915 12.9743 11.2962ZM10 13.2258C11.0674 13.2258 11.9355 12.3578 11.9355 11.2903V9.67742H11.4135L11.1583 9.16677C10.5467 9.50195 9.86265 9.67742 9.15968 9.67742H8.06452V11.2903C8.06452 12.3578 8.93255 13.2258 10 13.2258ZM7.43322 11.5568C7.27933 11.5045 7.13741 11.4187 7.02574 11.2962C6.84003 11.0919 6.75261 10.8265 6.77908 10.5491C6.81389 10.1841 7.0722 9.8784 7.41935 9.74704V11.2903C7.41935 11.3803 7.42424 11.4691 7.43322 11.5568ZM8.3871 13.3016C8.04199 13.0245 7.77029 12.6607 7.6038 12.2436C7.23223 12.211 6.88382 12.0528 6.61684 11.7909C6.45256 12.2081 6.16873 12.5649 5.80645 12.8183V13.3083L7.88291 13.9313C7.95095 13.9519 8.01711 13.9781 8.08232 14.0074L8.3871 13.9371V13.3016ZM4.51613 8.3871C5.40543 8.3871 6.12903 9.1107 6.12903 10H5.94002C5.7351 10 5.53412 9.91683 5.38937 9.77192L5.16129 9.54385L4.93322 9.77192C4.78846 9.91683 4.58748 10 4.38256 10H2.90323C2.90323 9.1107 3.62683 8.3871 4.51613 8.3871ZM2.90323 10.6452V10.9677C2.90323 11.857 3.62683 12.5806 4.51613 12.5806C5.40543 12.5806 6.12903 11.857 6.12903 10.9677V10.6452H5.94002C5.65902 10.6452 5.39062 10.5645 5.16129 10.4139C4.93196 10.5645 4.66356 10.6452 4.38256 10.6452H2.90323ZM4.51613 13.2258C4.74027 13.2258 4.95684 13.1919 5.16129 13.1307V13.4594C5.08127 13.5832 4.85903 13.871 4.51613 13.871C4.17323 13.871 3.95098 13.5829 3.87097 13.4597V13.131C4.07542 13.1919 4.29199 13.2258 4.51613 13.2258ZM2.58065 17.7419H3.87097C4.40445 17.7419 4.83871 18.1762 4.83871 18.7097V19.3548H6.45161V16.7742H7.09677V19.3548H8.74354L9.02612 16.809L8.83521 16.2361L8.16028 16.6409L7.78005 14.739L6.08902 15.1293C5.35298 15.2994 4.83871 15.9455 4.83871 16.701V17.0968H4.19355V16.701C4.19355 15.6436 4.91321 14.7387 5.9438 14.5007L6.8435 14.2933L5.62027 13.9261C5.43252 14.1699 5.0693 14.5161 4.51613 14.5161C3.96295 14.5161 3.59974 14.1699 3.41198 13.9261L1.3349 14.5494C0.922222 14.6729 0.645161 15.0455 0.645161 15.4762V17.7419H1.93548V15.4839H2.58065V17.7419ZM18.6651 14.5494C19.0778 14.6729 19.3548 15.0455 19.3548 15.4762V17.7419H18.0645V15.4839H17.4194V17.7419H16.129C15.5955 17.7419 15.1613 18.1762 15.1613 18.7097V19.3548H13.5484V16.7742H12.9032V19.3548H11.2565L10.9736 16.809L11.1645 16.2361L11.8394 16.6409L12.2196 14.739L13.911 15.1293C14.647 15.2994 15.1613 15.9455 15.1613 16.701V17.0968H15.8065V16.701C15.8065 15.6436 15.0868 14.7387 14.0562 14.5007L13.1565 14.2933L14.3797 13.9261C14.5675 14.1699 14.9307 14.5161 15.4839 14.5161C16.037 14.5161 16.4003 14.1699 16.588 13.9261L18.6651 14.5494ZM15.4839 13.871C15.8268 13.871 16.049 13.5832 16.129 13.4597V13.1307C15.9246 13.1919 15.708 13.2258 15.4839 13.2258C15.2597 13.2258 15.0432 13.1919 14.8387 13.1307V13.4597C14.9178 13.5819 15.1403 13.871 15.4839 13.871ZM15.4839 12.5806C14.5946 12.5806 13.871 11.857 13.871 10.9677V10.6452H14.06C14.341 10.6452 14.6094 10.5645 14.8387 10.4139C15.068 10.5645 15.3364 10.6452 15.6174 10.6452H17.0968V10.9677C17.0968 11.857 16.3732 12.5806 15.4839 12.5806ZM17.0968 10C17.0968 9.1107 16.3732 8.3871 15.4839 8.3871C14.5946 8.3871 13.871 9.1107 13.871 10H14.06C14.2649 10 14.4659 9.91683 14.6106 9.77192L14.8387 9.54385L15.0668 9.77192C15.2115 9.91683 15.4125 10 15.6174 10H17.0968ZM13.2258 9.38225C12.9404 9.16614 12.5858 9.03226 12.2026 9.03226H11.8123L11.4155 8.23872L11.1115 8.44128C10.5313 8.82812 9.85651 9.03226 9.15968 9.03226H7.79738C7.41416 9.03226 7.0596 9.16614 6.77419 9.38225V8.90515C6.77419 7.19679 8.16454 5.80645 9.87289 5.80645C10.7006 5.80645 11.479 6.12872 12.0642 6.71387L12.4064 7.05614L12.4787 7.08039C12.9254 7.2294 13.2258 7.64585 13.2258 8.11681V9.38225ZM17.0968 2.25806C17.0968 1.36876 16.3732 0.645161 15.4839 0.645161C14.5946 0.645161 13.871 1.36876 13.871 2.25806H15.3503C15.5552 2.25806 15.7562 2.1749 15.901 2.02999L16.129 1.80192L16.3571 2.02999C16.5019 2.1749 16.7028 2.25806 16.9078 2.25806H17.0968ZM13.871 3.22581V2.90323H15.3503C15.6313 2.90323 15.8997 2.82258 16.129 2.672C16.3584 2.82258 16.6268 2.90323 16.9078 2.90323H17.0968V3.22581C17.0968 4.11511 16.3732 4.83871 15.4839 4.83871C14.5946 4.83871 13.871 4.11511 13.871 3.22581ZM14.8387 5.71777C14.9178 5.84 15.1403 6.12903 15.4839 6.12903C15.8268 6.12903 16.049 5.84126 16.129 5.71746V5.38873C15.9246 5.45001 15.708 5.48387 15.4839 5.48387C15.2597 5.48387 15.0432 5.45001 14.8387 5.38873V5.71777Z" fill="#CAFD35"/>
</svg>
