<svg width="18" height="30" viewBox="0 0 18 30" fill="none" xmlns="http://www.w3.org/2000/svg">
<path fill-rule="evenodd" clip-rule="evenodd" d="M18 13.7368C17.9961 17.3977 15.0293 20.3645 11.3684 20.3684H10.4211V25.5789H10.8947C11.1563 25.5789 11.3684 25.791 11.3684 26.0526V27H16.1053C16.3092 27 16.4903 27.1305 16.5548 27.324L17.0285 28.7451C17.0766 28.8895 17.0523 29.0483 16.9633 29.1718C16.8742 29.2953 16.7312 29.3685 16.5789 29.3684H1.42105C1.26879 29.3685 1.12579 29.2953 1.03673 29.1718C0.947673 29.0483 0.923411 28.8895 0.971526 28.7451L1.44521 27.324C1.50967 27.1305 1.69076 27 1.89474 27H6.63158V26.0526C6.63158 25.791 6.84365 25.5789 7.10526 25.5789H7.57895V20.3684H6.63158C2.97068 20.3645 0.0039161 17.3977 0 13.7368V6.74811C0 6.4865 0.212076 6.27442 0.473684 6.27442C0.735293 6.27442 0.947368 6.4865 0.947368 6.74811V8.52632H2.36842V4.26316C2.37129 1.90987 4.27829 0.00287098 6.63158 0H11.3684C13.7217 0.00287098 15.6287 1.90987 15.6316 4.26316V8.52632H17.0526V7.17205C17.0526 6.91044 17.2647 6.69837 17.5263 6.69837C17.7879 6.69837 18 6.91044 18 7.17205V13.7368ZM10.8947 12.3158V13.2632H14.6842V12.3158H10.8947ZM14.6842 9.47368H10.8947V8.52632H14.6842V9.47368ZM10.8947 5.68421H14.6842V4.73684H10.8947V5.68421ZM6.63158 0.947368V2.36842C6.63158 2.63003 6.84365 2.84211 7.10526 2.84211C7.36687 2.84211 7.57895 2.63003 7.57895 2.36842V0.947368H8.52632V2.36842C8.52632 2.63003 8.73839 2.84211 9 2.84211C9.26161 2.84211 9.47368 2.63003 9.47368 2.36842V0.947368H10.4211V2.36842C10.4211 2.63003 10.6331 2.84211 10.8947 2.84211C11.1563 2.84211 11.3684 2.63003 11.3684 2.36842V0.947368C13.0152 0.949299 14.4111 2.15956 14.6463 3.78947H10.4211C10.1594 3.78947 9.94737 4.00155 9.94737 4.26316V6.1579C9.94737 6.4195 10.1594 6.63158 10.4211 6.63158H14.6842V7.57895H10.4211C10.1594 7.57895 9.94737 7.79102 9.94737 8.05263V9.94737C9.94737 10.209 10.1594 10.4211 10.4211 10.4211H14.6842V11.3684H10.4211C10.1594 11.3684 9.94737 11.5805 9.94737 11.8421V13.7368C9.94737 13.9985 10.1594 14.2105 10.4211 14.2105H14.6463C14.4111 15.8404 13.0152 17.0507 11.3684 17.0526V15.6316C11.3684 15.37 11.1563 15.1579 10.8947 15.1579C10.6331 15.1579 10.4211 15.37 10.4211 15.6316V17.0526H9.47368V15.6316C9.47368 15.37 9.26161 15.1579 9 15.1579C8.73839 15.1579 8.52632 15.37 8.52632 15.6316V17.0526H7.57895V15.6316C7.57895 15.37 7.36687 15.1579 7.10526 15.1579C6.84365 15.1579 6.63158 15.37 6.63158 15.6316V17.0526C4.98478 17.0507 3.58894 15.8404 3.35368 14.2105H7.57895C7.84056 14.2105 8.05263 13.9985 8.05263 13.7368V11.8421C8.05263 11.5805 7.84056 11.3684 7.57895 11.3684H3.31579V10.4211H7.57895C7.84056 10.4211 8.05263 10.209 8.05263 9.94737V8.05263C8.05263 7.79102 7.84056 7.57895 7.57895 7.57895H3.31579V6.63158H7.57895C7.84056 6.63158 8.05263 6.4195 8.05263 6.1579V4.26316C8.05263 4.00155 7.84056 3.78947 7.57895 3.78947H3.35368C3.58894 2.15956 4.98478 0.949299 6.63158 0.947368ZM7.10526 8.52632H3.31579V9.47368H7.10526V8.52632ZM3.31579 12.3158H7.10526V13.2632H3.31579V12.3158ZM7.10526 4.73684H3.31579V5.68421H7.10526V4.73684ZM0.947368 13.7368V9.47368H2.36842V13.7368C2.37129 16.0901 4.27829 17.9971 6.63158 18H11.3684C13.7217 17.9971 15.6287 16.0901 15.6316 13.7368V9.47368H17.0526V13.7368C17.0492 16.8747 14.5063 19.4177 11.3684 19.4211H6.63158C3.49368 19.4177 0.950762 16.8747 0.947368 13.7368ZM2.23626 27.9474L2.07805 28.4211H15.9219L15.7637 27.9474H2.23626ZM7.57895 27V26.5263H10.4211V27H7.57895ZM8.52632 20.3684V25.5789H9.47368V20.3684H8.52632Z" fill="#CAFD35"/>
</svg>
