<svg width="20" height="24" viewBox="0 0 20 24" fill="none" xmlns="http://www.w3.org/2000/svg">
<path fill-rule="evenodd" clip-rule="evenodd" d="M17.3016 0.122111C17.9094 -0.101788 18.5895 -0.0143571 19.1209 0.356193C19.6522 0.726744 19.9695 1.33463 19.9695 1.98239C19.9695 1.98239 19.9544 14.7216 19.934 14.8649C19.8046 15.7701 19.3364 16.6656 18.6157 17.3863C17.895 18.1071 16.9996 18.5752 16.0943 18.7045C15.9244 18.7289 15.7574 18.7409 15.5945 18.7409C14.8354 18.7409 14.1638 18.4799 13.6682 17.9843C13.0662 17.3823 12.8104 16.5206 12.9479 15.5581C13.0772 14.6529 13.5454 13.7574 14.2661 13.0367C14.9868 12.316 15.8823 11.8478 16.7875 11.7185C17.5899 11.6039 18.3216 11.7636 18.8918 12.1683V5.08408L7.08827 9.43229C7.08827 9.43229 7.0874 19.1789 7.08703 19.1872C7.08382 19.3258 7.07309 19.4667 7.05263 19.6102C6.92332 20.5154 6.45511 21.4109 5.73442 22.1316C5.01368 22.8523 4.11822 23.3205 3.213 23.4498C3.04304 23.4741 2.87602 23.4861 2.71318 23.4861C1.9541 23.4861 1.28254 23.2252 0.786895 22.7296C0.184876 22.1276 -0.0709035 21.2659 0.0665736 20.3034C0.195886 19.3983 0.664051 18.5028 1.38478 17.7821C2.10547 17.0613 3.00093 16.5932 3.90616 16.4639C4.7085 16.3492 5.4402 16.5089 6.01043 16.9136V5.66399C6.01043 4.83716 6.53176 4.0895 7.30767 3.80367L17.3016 0.122111ZM5.98566 19.4578C6.0018 19.3447 6.00988 19.2344 6.01043 19.1273H6.01047V19.1103C6.00923 18.6393 5.85781 18.2339 5.5702 17.9463C5.28144 17.6575 4.87387 17.5058 4.40047 17.5058C4.28983 17.5058 4.17575 17.514 4.05859 17.5308C3.38272 17.6274 2.70378 17.9873 2.14685 18.5442C1.58992 19.1011 1.23006 19.78 1.1335 20.4559C1.04511 21.0745 1.19267 21.6113 1.54891 21.9676C1.9052 22.3238 2.44217 22.4713 3.06052 22.383C3.73639 22.2865 4.41534 21.9266 4.97226 21.3696C5.52923 20.8127 5.8891 20.1338 5.98566 19.4578ZM18.8918 3.93569L7.08818 8.28395V5.66408C7.08818 5.2867 7.32611 4.94555 7.68024 4.81509L17.6741 1.13344C17.9557 1.02977 18.2583 1.06862 18.5045 1.24032C18.7506 1.41188 18.8918 1.68248 18.8918 1.98248V3.93569ZM18.8669 14.7126C18.8831 14.5992 18.8912 14.4885 18.8917 14.3812H18.8918V14.366C18.8907 13.8946 18.7393 13.4889 18.4515 13.2011C18.1628 12.9122 17.7552 12.7606 17.2818 12.7606C17.1712 12.7606 17.0571 12.7689 16.9399 12.7856C16.2641 12.8822 15.5852 13.242 15.0282 13.7989C14.4712 14.3559 14.1113 15.0348 14.0148 15.7107C13.9264 16.3292 14.074 16.8661 14.4302 17.2223C14.7865 17.5785 15.3233 17.7261 15.9418 17.6378C16.6177 17.5411 17.2967 17.1813 17.8536 16.6243C18.4105 16.0673 18.7704 15.3885 18.8669 14.7126Z" fill="#CAFD35"/>
</svg>
