<svg width="20" height="20" viewBox="0 0 20 20" fill="none" xmlns="http://www.w3.org/2000/svg">
<path fill-rule="evenodd" clip-rule="evenodd" d="M15.1429 18.1252C15.0347 17.9387 14.7958 17.8752 14.6091 17.9834L14.594 17.9921C14.4075 18.1004 14.344 18.3394 14.4522 18.526C14.5247 18.6509 14.6557 18.7206 14.7904 18.7206C14.8569 18.7206 14.9244 18.7036 14.9861 18.6678L15.0011 18.6591C15.1877 18.5509 15.2511 18.3118 15.1429 18.1252Z" fill="#CAFD35"/>
<path fill-rule="evenodd" clip-rule="evenodd" d="M12.5893 0.344963C15.1688 1.03614 17.3247 2.69039 18.6599 5.00309C19.8705 7.09989 20.2793 9.56141 19.8111 11.934C19.3472 14.284 18.0593 16.3885 16.1846 17.8598C16.0149 17.9931 15.7694 17.9635 15.6362 17.7938C15.503 17.624 15.5326 17.3785 15.7023 17.2454C18.299 15.2073 19.5274 11.9664 19.1365 8.83336C19.0839 9.05793 18.9737 9.26051 18.8136 9.42063L18.5608 9.6734C18.4868 9.74746 18.3871 9.78782 18.2846 9.78782C18.2565 9.78782 18.2281 9.78477 18.2 9.77856C18.0698 9.74965 17.9632 9.65621 17.9176 9.53074L17.3865 8.07047C17.3783 8.04793 17.3664 8.02738 17.3508 8.00922L16.8696 7.44582C16.8317 7.40145 16.7765 7.37602 16.7182 7.37602H16.5317L16.5525 7.40723C16.6558 7.56219 16.6353 7.7684 16.5037 7.90008C15.9884 8.41531 15.3546 8.82098 14.6708 9.07317L14.3765 9.18168C14.1923 9.24981 13.986 9.1702 13.8951 8.99598L12.8843 7.05977C12.8551 7.00395 12.8399 6.94192 12.8399 6.87899V6.60524L12.2945 6.08465L11.7194 5.8825C11.5158 5.81098 11.4089 5.58805 11.4804 5.38449C11.5519 5.18102 11.7748 5.07387 11.9784 5.14551L12.6329 5.37551C12.6852 5.39391 12.733 5.42321 12.7731 5.46149L13.5002 6.15559C13.5774 6.22922 13.6211 6.33137 13.6211 6.43809V6.78313L14.4285 8.32973C14.8973 8.15309 15.3375 7.89117 15.7181 7.56387L15.6585 7.47438C15.5425 7.30047 15.5317 7.07789 15.6304 6.8936C15.729 6.70934 15.9201 6.59481 16.1292 6.59481H16.7182C17.0054 6.59481 17.277 6.72 17.4636 6.9384L17.9448 7.5018C18.0213 7.59129 18.0805 7.69282 18.1207 7.80352L18.3905 8.54539L18.3907 8.53598C18.3955 8.24649 18.5222 7.96989 18.7383 7.77703L18.9039 7.62938C18.701 6.86012 18.3959 6.10801 17.9835 5.3936C16.4349 2.71149 13.7326 1.10188 10.8617 0.828791L9.73819 2.23813C9.69237 2.29559 9.63127 2.33895 9.56198 2.36324L7.03452 3.24934L6.46131 4.63875L7.04393 5.45489C7.36342 4.93922 7.93346 4.6116 8.55596 4.6116H8.77803C8.9937 4.6116 9.16862 4.78653 9.16862 5.00219C9.16862 5.21785 8.9937 5.39278 8.77803 5.39278H8.55596C8.13666 5.39278 7.75979 5.65793 7.61815 6.05258L7.60854 6.07938C7.79514 6.05844 7.98373 6.05164 8.15436 6.04559C8.26299 6.04176 8.36569 6.03813 8.44686 6.03133C8.58975 6.01918 9.31409 5.98305 9.53229 6.44461C9.57096 6.52641 9.60788 6.65739 9.56709 6.82059L9.57463 6.82563C9.69565 6.90629 9.89229 7.03735 10.0353 7.10598C10.0776 7.0027 10.1499 6.93844 10.1744 6.91887C10.2668 6.84481 10.3912 6.79328 10.5907 6.74653C10.6652 6.72903 10.7432 6.73383 10.8151 6.76039C10.901 6.79207 11.0311 6.82731 11.1689 6.86461L11.1692 6.86469C11.579 6.97569 12.0434 7.10147 12.2898 7.36254C12.564 7.65311 12.725 8.06992 12.8671 8.43768L12.8671 8.4377L12.8671 8.43772L12.8672 8.43789C12.9209 8.57688 12.9716 8.70817 13.0224 8.81668C13.0504 8.87637 13.0779 8.93782 13.1059 9.00009L13.1074 9.00364L13.1075 9.00369C13.2505 9.32262 13.3983 9.65236 13.64 9.81035C13.6947 9.84612 13.8665 9.87251 13.9804 9.89001L13.9809 9.89008C14.2694 9.9343 14.6285 9.98938 14.7698 10.3171C14.914 10.6513 14.6811 10.9885 14.6045 11.0994L14.6045 11.0995C14.4295 11.3527 14.2032 11.5635 13.9843 11.7674C13.4793 12.2377 13.2704 12.4841 13.3898 12.8693C13.5317 13.3272 13.6657 13.7597 13.1455 14.3258C13.1147 14.3593 13.0861 14.3898 13.0592 14.4184L13.0588 14.4187L13.0588 14.4187C12.9048 14.5828 12.8582 14.6324 12.7941 14.8343C12.7097 15.1002 12.5795 15.2469 12.4748 15.3648L12.4748 15.3648L12.4746 15.3649L12.4745 15.3651L12.4745 15.3651C12.4225 15.4237 12.3814 15.47 12.3465 15.5297C12.3238 15.5686 12.3118 15.6282 12.2967 15.7036L12.2967 15.7036L12.2965 15.7042C12.2661 15.8564 12.2243 16.0648 12.0548 16.273C11.7849 16.6044 11.1973 17.1272 10.6342 17.1273C10.5185 17.1273 10.404 17.1052 10.2933 17.0549C10.082 16.9588 9.81874 16.7202 9.46752 15.678C9.42392 15.5485 9.35738 15.402 9.28689 15.2467L9.28674 15.2464C9.06956 14.768 8.82338 14.2258 8.99998 13.6791C9.01018 13.6474 9.02034 13.6164 9.0303 13.5861C9.14655 13.2318 9.19959 13.0702 9.07776 12.7782C9.05858 12.7322 8.99631 12.6637 8.93612 12.5975L8.93608 12.5975C8.815 12.4642 8.66428 12.2983 8.60596 12.0583C8.56956 11.9082 8.57038 11.7768 8.57112 11.6712C8.57217 11.5052 8.56737 11.496 8.5151 11.447C8.40768 11.3465 8.30159 11.3548 7.9667 11.4376C7.84526 11.4677 7.71975 11.4988 7.58514 11.5145C6.75889 11.6117 5.98475 11.2796 5.51518 10.6263C5.02956 9.95059 4.95553 9.04895 5.32202 8.27321C5.4887 7.92055 5.72331 7.65653 5.95022 7.40125C5.99358 7.3525 6.03733 7.30328 6.08104 7.25289C6.13129 7.19502 6.20399 7.09184 6.28099 6.98255L6.28108 6.98242C6.45674 6.73313 6.60381 6.53235 6.75491 6.39449L5.69991 4.91668C5.62174 4.80715 5.60545 4.6652 5.65674 4.54078L6.37909 2.78969C6.42151 2.6868 6.50588 2.60688 6.61092 2.57008L9.19745 1.66332L9.89495 0.788362C8.36217 0.803557 6.81311 1.20071 5.39366 2.02024C5.00678 2.24356 4.64276 2.49137 4.30135 2.75977C4.61659 2.95621 4.86862 3.2477 5.01291 3.59782C5.25752 4.19141 5.13252 4.87824 4.69452 5.3477L4.26588 5.80699L3.20249 7.66344C3.17456 7.71219 3.13643 7.75434 3.09073 7.78703L2.40471 8.27758L2.88366 8.98008C2.9587 9.09016 2.97249 9.23082 2.92022 9.35332C2.86795 9.47578 2.7569 9.56328 2.62553 9.58528C2.62229 9.58582 2.29448 9.64071 1.96495 9.68942C1.61749 9.74074 1.40706 9.76906 1.26491 9.7691C1.11022 9.7691 1.03655 9.73551 0.955219 9.66145C0.926938 9.63567 0.902798 9.6059 0.883305 9.57344C0.867563 9.55711 0.841977 9.53223 0.80268 9.49563C0.782602 9.84985 0.782915 10.2059 0.804048 10.5622L1.79999 10.2386C1.92178 10.1991 2.05518 10.2217 2.15709 10.2992L3.85819 11.5926L4.73983 11.7648C5.08167 11.8317 5.37874 12.0423 5.55495 12.3428C5.73116 12.6432 5.76995 13.0053 5.66139 13.3363C5.63252 13.4243 5.63237 13.5175 5.661 13.6056L5.78475 13.9864C5.9917 14.6237 5.6417 15.3105 5.00448 15.5176L4.83584 15.5723L4.48588 17.3991C6.95084 19.2493 10.2501 19.7816 13.2978 18.6102C13.4991 18.5327 13.7251 18.6332 13.8025 18.8346C13.8799 19.036 13.7795 19.262 13.5781 19.3393C12.4331 19.7794 11.2219 19.9999 10.0084 19.9999C8.89233 19.9999 7.77456 19.8135 6.70381 19.4399C4.44498 18.6517 2.54139 17.0751 1.3437 15.0006C0.0085007 12.6879 -0.346187 9.99367 0.344946 7.41426C1.03608 4.83485 2.69038 2.67891 5.00303 1.34371C7.31573 0.0085181 10.0099 -0.346208 12.5893 0.344963ZM3.4576 12.2694L1.84694 11.0448L0.885454 11.3572C1.04991 12.4726 1.42303 13.5758 2.02022 14.61C2.50971 15.4579 3.11276 16.2009 3.79959 16.8295L4.11202 15.1987C4.13877 15.0589 4.23948 14.9447 4.37491 14.9007L4.76307 14.7746C4.99061 14.7006 5.11569 14.4553 5.04174 14.2277L4.91799 13.8469C4.8378 13.6002 4.83819 13.3393 4.91905 13.0927C4.95834 12.9728 4.94491 12.8468 4.88104 12.7379C4.81717 12.629 4.71381 12.5557 4.58991 12.5315L3.61913 12.3418C3.56045 12.3304 3.50522 12.3056 3.4576 12.2694ZM4.12338 4.81473L3.66389 5.30703C3.64338 5.32903 3.62545 5.35332 3.61049 5.37942L2.56706 7.20114L1.63967 7.86426C1.46694 7.98778 1.42452 8.22657 1.54413 8.40203L1.89096 8.91078C1.69104 8.94055 1.51163 8.96508 1.39233 8.97809C1.3694 8.9561 1.34541 8.93379 1.32061 8.91074C1.22776 8.82449 1.09874 8.7093 0.906391 8.54098C1.22362 6.57758 2.16971 4.72789 3.65768 3.31598C3.9426 3.40571 4.17643 3.61824 4.29065 3.89547C4.41916 4.20727 4.35346 4.56813 4.12338 4.81473ZM8.18195 6.82637C7.88672 6.83684 7.48236 6.85118 7.30815 6.94922C7.22264 7.0024 7.02576 7.28184 6.91991 7.43209L6.91975 7.43231C6.83112 7.55821 6.74729 7.67711 6.67112 7.76492C6.62722 7.81549 6.58332 7.86491 6.53979 7.9139L6.5342 7.9202C6.32655 8.15379 6.14721 8.35563 6.0285 8.60684C5.78327 9.12598 5.82971 9.72508 6.14967 10.1703C6.45553 10.5959 6.94545 10.8029 7.4942 10.7386C7.57945 10.7286 7.67556 10.7049 7.77731 10.6797L7.77924 10.6793C8.11284 10.5968 8.6169 10.4721 9.04916 10.8767C9.35574 11.1638 9.35373 11.4722 9.35241 11.6763V11.6763C9.3519 11.752 9.35147 11.8173 9.36522 11.8739C9.37651 11.9204 9.44975 12.001 9.5144 12.0721L9.51489 12.0727C9.61465 12.1825 9.72772 12.307 9.79877 12.4773C10.0325 13.0375 9.90635 13.4222 9.77268 13.8297L9.74342 13.9192C9.65975 14.1782 9.83174 14.5571 9.99811 14.9235L9.99817 14.9236C10.0736 15.0898 10.1516 15.2616 10.2079 15.4286C10.436 16.1057 10.587 16.3013 10.6287 16.346C10.6652 16.3482 10.7724 16.3323 10.956 16.2157C11.1535 16.0902 11.3459 15.9063 11.4491 15.7797C11.4944 15.724 11.5075 15.6661 11.5307 15.5507C11.5542 15.4334 11.5835 15.2873 11.6721 15.1357C11.746 15.0091 11.8262 14.9188 11.8906 14.8463L11.8906 14.8463C11.9711 14.7557 12.0154 14.7058 12.0496 14.598C12.1674 14.2269 12.3097 14.0755 12.4899 13.8837L12.4899 13.8836C12.5149 13.857 12.5417 13.8286 12.5703 13.7973C12.7807 13.5685 12.7746 13.5229 12.6438 13.1007C12.3666 12.2066 12.9684 11.6461 13.452 11.1958L13.4523 11.1955C13.642 11.0189 13.8215 10.8517 13.9476 10.6758C13.9177 10.6709 13.8882 10.6663 13.8625 10.6624L13.8622 10.6623C13.6497 10.6297 13.409 10.5928 13.2125 10.4644C12.7791 10.1811 12.5748 9.72539 12.3946 9.32336L12.3887 9.31018C12.364 9.25515 12.3396 9.20082 12.3149 9.14797C12.2526 9.01496 12.1972 8.87153 12.1385 8.71953L12.1383 8.7191C12.0221 8.41846 11.8905 8.07781 11.7216 7.89879C11.6265 7.79801 11.196 7.68145 10.9647 7.61883L10.9598 7.6175C10.8942 7.59972 10.8303 7.58238 10.7694 7.56496C10.7417 7.61727 10.7045 7.66063 10.6648 7.69297C10.6608 7.69671 10.6569 7.70072 10.6529 7.7048C10.6514 7.70638 10.6498 7.70798 10.6483 7.70957L10.6476 7.71022C10.5768 7.78234 10.4124 7.94975 10.1177 7.93063C9.7926 7.90992 9.44655 7.67926 9.14127 7.47574L9.14123 7.47571C9.03328 7.40373 8.9313 7.33574 8.85803 7.29653C8.74991 7.23867 8.67518 7.1334 8.65639 7.01219C8.64569 6.94328 8.6537 6.87383 8.67834 6.81055C8.62315 6.80625 8.56463 6.80543 8.51194 6.80985C8.41209 6.81821 8.3003 6.82219 8.18198 6.82637L8.18195 6.82637Z" fill="#CAFD35"/>
<path fill-rule="evenodd" clip-rule="evenodd" d="M15.8286 12.7395L16.0165 13.4479C16.0349 13.5173 16.0338 13.5904 16.0134 13.6593L15.5539 15.2078C15.3092 16.0326 15.0097 16.447 14.6112 16.5122C14.5789 16.5174 14.544 16.5207 14.5071 16.5206C14.318 16.5206 14.0746 16.4358 13.8432 16.1063C13.5188 15.6445 13.7501 15.1014 13.8745 14.8096L13.8784 14.8005C13.9096 14.7272 13.9056 14.6869 13.8884 14.5703C13.8684 14.436 13.8412 14.2519 13.9142 14.0192C14.0319 13.6442 14.3399 13.4955 14.5648 13.387C14.6588 13.3416 14.7562 13.2946 14.7941 13.251C14.8615 13.1734 14.9264 13.0328 14.9891 12.8968C15.0263 12.816 15.0649 12.7324 15.1077 12.6535C15.1841 12.5128 15.3383 12.4333 15.4974 12.4519C15.6563 12.4709 15.7875 12.5849 15.8286 12.7395ZM14.5062 15.6894C14.5699 15.6024 14.6803 15.4061 14.8051 14.9855L15.1007 13.9893C15.0333 14.0283 14.9665 14.0605 14.9057 14.0899L14.9043 14.0906C14.7664 14.1571 14.6749 14.2044 14.6596 14.2531C14.6409 14.3124 14.6463 14.3555 14.6611 14.4558L14.6612 14.4562C14.6843 14.6129 14.7161 14.8274 14.5971 15.1066L14.5931 15.1158L14.5931 15.1158C14.5193 15.2891 14.4077 15.551 14.4824 15.6573C14.4909 15.6694 14.4989 15.6801 14.5062 15.6894Z" fill="#CAFD35"/>
<path fill-rule="evenodd" clip-rule="evenodd" d="M10.5483 4.64261L10.5219 4.63339C10.3185 4.56214 10.0955 4.66913 10.0241 4.87269C9.95267 5.07628 10.0598 5.29913 10.2634 5.37054L10.2897 5.37976C10.3325 5.39476 10.3761 5.40187 10.419 5.40187C10.5802 5.40187 10.7312 5.3012 10.7876 5.14046C10.859 4.93687 10.7519 4.71398 10.5483 4.64261Z" fill="#CAFD35"/>
</svg>
