<svg width="24" height="26" viewBox="0 0 24 26" fill="none" xmlns="http://www.w3.org/2000/svg">
<path fill-rule="evenodd" clip-rule="evenodd" d="M16.0204 14.4413C16.1059 15.1113 15.8777 15.7834 15.4033 16.2591C16.9996 17.0644 18.006 18.7155 18 20.5192V25.5667C18 25.806 17.8081 26 17.5714 26H0.428591C0.191897 26 1.95109e-05 25.806 1.95109e-05 25.5667V20.5192C-0.00510901 18.7162 1.00116 17.0662 2.59673 16.2613C2.12169 15.785 1.89349 15.112 1.97959 14.4413L3.26102 4.8776C3.64134 2.08763 5.99606 0.00710978 8.78145 0H9.21859C12.0041 0.00713992 14.3589 2.08789 14.739 4.87803L16.0204 14.4413ZM13.5429 15.6065L14.4574 15.8955C14.9555 15.6514 15.2431 15.1123 15.1714 14.5574L14.3572 8.48553C14.1627 8.60278 13.9407 8.66532 13.7143 8.66667V9.1C13.7124 10.8895 12.7193 12.5272 11.1429 13.3406V14.8482L12.1513 15.1667H12.4286C12.902 15.1667 13.2857 14.7786 13.2857 14.3H14.1429C14.1412 14.8032 13.922 15.2805 13.5429 15.6065ZM13.1207 17.8572C13.2066 18.7373 13.5868 19.5613 14.1986 20.1933C14.7326 20.852 15.0168 21.6818 15 22.5333C15.0213 23.4052 14.7208 24.254 14.157 24.9141C14.0844 24.9825 14.0164 25.0557 13.9534 25.1333H4.04659C3.98364 25.0557 3.91563 24.9825 3.84302 24.9141C3.27924 24.254 2.97872 23.4052 3.00002 22.5333C2.98273 21.6804 3.26741 20.8493 3.80273 20.1899C4.41331 19.5588 4.79302 18.7362 4.8793 17.8577L5.03145 16.3332L6.93988 15.73C7.08827 16.2818 7.44688 16.7516 7.93716 17.0365C7.57253 17.5781 7.66355 18.3095 8.14952 18.7429C8.6355 19.1764 9.36454 19.1764 9.85051 18.7429C10.3365 18.3095 10.4275 17.5781 10.0629 17.0365C10.5532 16.7516 10.9118 16.2818 11.0602 15.73L12.9686 16.3332L13.1207 17.8572ZM5.14288 9.1C5.14547 11.2528 6.87086 12.9974 9.00002 13C11.1292 12.9974 12.8546 11.2528 12.8572 9.1V6.5H12.4286C11.4849 6.49769 10.5967 6.04866 10.0286 5.28667L9.81088 4.99287L9.19888 5.61167C8.63757 6.18228 7.87383 6.50215 7.07788 6.5H5.14288V9.1ZM7.71431 13.6821C8.55416 13.9282 9.44588 13.9282 10.2857 13.6821V15.1667C10.2857 15.8846 9.7101 16.4667 9.00002 16.4667C8.28994 16.4667 7.71431 15.8846 7.71431 15.1667V13.6821ZM9.00002 18.2C9.23671 18.2 9.42859 18.006 9.42859 17.7667C9.42859 17.5273 9.23671 17.3333 9.00002 17.3333C8.76333 17.3333 8.57145 17.5273 8.57145 17.7667C8.57145 18.006 8.76333 18.2 9.00002 18.2ZM13.7143 6.93333C13.951 6.93333 14.1429 7.12734 14.1429 7.36667C14.1429 7.60599 13.951 7.8 13.7143 7.8V6.93333ZM9.21859 0.866667H8.78145C6.42471 0.872435 4.43225 2.63269 4.11045 4.9933L3.96045 6.1139C4.06641 6.08402 4.17574 6.06815 4.28573 6.06667C4.28573 5.82734 4.47761 5.63333 4.7143 5.63333H7.07788C7.6464 5.63491 8.19192 5.40647 8.59288 4.99893L9.55416 4.0261C9.6427 3.93833 9.76382 3.89252 9.88759 3.9C10.0117 3.90918 10.1257 3.97244 10.2 4.07333L10.7143 4.76667C11.1201 5.31091 11.7545 5.63164 12.4286 5.63333H13.2857C13.5224 5.63333 13.7143 5.82734 13.7143 6.06667C13.8244 6.06811 13.9339 6.08399 14.04 6.1139L13.89 4.99373C13.5684 2.63279 11.5756 0.87225 9.21859 0.866667ZM4.28573 7.8C4.04904 7.8 3.85716 7.60599 3.85716 7.36667C3.85716 7.12734 4.04904 6.93333 4.28573 6.93333V7.8ZM3.64288 8.48553L2.82859 14.5574C2.75691 15.1123 3.04453 15.6514 3.54259 15.8955L4.45716 15.6065C4.07802 15.2805 3.85882 14.8032 3.85716 14.3H4.7143C4.7143 14.7786 5.09806 15.1667 5.57145 15.1667H5.84873L6.85716 14.8482V13.3406C5.28071 12.5272 4.28766 10.8895 4.28573 9.1V8.66667C4.05931 8.66532 3.83736 8.60278 3.64288 8.48553ZM0.857162 20.5192C0.851782 18.8117 1.95016 17.301 3.56359 16.7969L4.14173 16.614L4.02859 17.771C3.96201 18.4524 3.66803 19.0906 3.19502 19.5806C2.50023 20.4024 2.12609 21.4524 2.14288 22.5333C2.13795 23.4578 2.40514 24.3629 2.91045 25.1333H0.857162V20.5192ZM15.0896 25.1333H17.1429V20.5192C17.148 18.8111 16.0486 17.3003 14.4343 16.7969L13.8562 16.614L13.9714 17.771C14.0387 18.4531 14.3338 19.0916 14.808 19.5815C15.5015 20.4034 15.8746 21.453 15.8572 22.5333C15.862 23.4578 15.5948 24.3628 15.0896 25.1333Z" fill="#CAFD35"/>
<rect x="6.42871" y="7.36621" width="0.857143" height="0.866667" fill="#CAFD35"/>
<rect x="10.7139" y="7.36621" width="0.857143" height="0.866667" fill="#CAFD35"/>
<path fill-rule="evenodd" clip-rule="evenodd" d="M9.00042 10.8335C8.52703 10.8335 8.14328 10.4454 8.14328 9.9668H7.28613C7.28613 10.9241 8.05364 11.7001 9.00042 11.7001C9.94719 11.7001 10.7147 10.9241 10.7147 9.9668H9.85756C9.85756 10.4454 9.47381 10.8335 9.00042 10.8335Z" fill="#CAFD35"/>
<path fill-rule="evenodd" clip-rule="evenodd" d="M17.7092 15.1226C18.1019 13.8584 19.2613 12.9987 20.5719 13C21.8824 12.9987 23.0418 13.8584 23.4345 15.1226C23.8272 16.3868 23.3621 17.7624 22.2861 18.5189V24.2667C22.2861 25.224 21.5186 26 20.5719 26C19.6251 26 18.8576 25.224 18.8576 24.2667V18.5189C17.7816 17.7624 17.3165 16.3868 17.7092 15.1226ZM18.8687 17.3333C19.27 17.877 19.9009 18.198 20.5719 18.2C21.2428 18.198 21.8737 17.877 22.275 17.3333H18.8687ZM21.429 21.6667V22.1H19.7147V21.6667H21.429ZM19.7147 24.2667C19.7147 24.7453 20.0985 25.1333 20.5719 25.1333C21.0452 25.1333 21.429 24.7453 21.429 24.2667V22.9667H19.7147V24.2667ZM19.7147 20.8V18.9367C20.2737 19.1071 20.87 19.1071 21.429 18.9367V20.8H19.7147ZM18.4719 16.4667H22.6719C22.8447 15.6058 22.4865 14.7246 21.7647 14.2356C21.043 13.7466 20.1007 13.7466 19.379 14.2356C18.6573 14.7246 18.299 15.6058 18.4719 16.4667Z" fill="#CAFD35"/>
<path fill-rule="evenodd" clip-rule="evenodd" d="M23.835 4.85841C23.731 4.77627 23.5953 4.74718 23.4673 4.77954L20.0387 5.64621C19.848 5.69451 19.7143 5.86778 19.7143 6.06654V8.31294C19.577 8.26162 19.432 8.23464 19.2857 8.23321C18.5756 8.23321 18 8.81524 18 9.53321C18 10.2512 18.5756 10.8332 19.2857 10.8332C19.9958 10.8332 20.5714 10.2512 20.5714 9.53321V6.40497L23.1429 5.75497V7.44497C23.0055 7.39409 22.8605 7.36756 22.7143 7.36654C22.0042 7.36654 21.4286 7.94857 21.4286 8.66654C21.4286 9.38451 22.0042 9.96654 22.7143 9.96654C23.4244 9.96654 24 9.38451 24 8.66654V5.19987C23.9999 5.06644 23.9391 4.94047 23.835 4.85841ZM19.2857 9.96654C19.049 9.96654 18.8571 9.77253 18.8571 9.53321C18.8571 9.29388 19.049 9.09987 19.2857 9.09987C19.5224 9.09987 19.7143 9.29388 19.7143 9.53321C19.7143 9.77253 19.5224 9.96654 19.2857 9.96654ZM22.2857 8.66654C22.2857 8.90586 22.4776 9.09987 22.7143 9.09987C22.951 9.09987 23.1429 8.90586 23.1429 8.66654C23.1429 8.42722 22.951 8.23321 22.7143 8.23321C22.4776 8.23321 22.2857 8.42722 22.2857 8.66654Z" fill="#CAFD35"/>
</svg>
