<svg width="25" height="32" viewBox="0 0 25 32" fill="none" xmlns="http://www.w3.org/2000/svg">
<path fill-rule="evenodd" clip-rule="evenodd" d="M11.2553 0.4767L0.492498 10.8921C-0.164166 11.5276 -0.164166 12.5582 0.492498 13.1937C1.1493 13.8293 2.214 13.8293 2.8708 13.1937L10.7627 5.55643L10.7627 30.3726C10.7627 31.2713 11.5157 32 12.4444 32C13.373 32 14.1261 31.2713 14.1261 30.3726L14.1261 5.55643L22.0181 13.1934C22.6749 13.829 23.7396 13.829 24.3964 13.1934C24.7245 12.8757 24.8889 12.4591 24.8889 12.0426C24.8889 11.6261 24.7245 11.2096 24.3964 10.8918L13.6336 0.4767C12.9768 -0.158901 11.9121 -0.158901 11.2553 0.4767Z" fill="#CAFD35"/>
</svg>
