<svg width="37" height="50" viewBox="0 0 37 50" fill="none" xmlns="http://www.w3.org/2000/svg">
<path fill-rule="evenodd" clip-rule="evenodd" d="M0.625 18.108C0.625 8.12325 8.69975 0 18.625 0C28.5502 0 36.6248 8.12325 36.625 18.108C36.625 30.4995 20.5168 48.6908 19.8309 49.4591C19.1879 50.1796 18.0632 50.1809 17.4191 49.4591C16.7332 48.6908 0.625 30.4995 0.625 18.108ZM9.56883 18.108C9.56883 23.1316 13.6313 27.2187 18.625 27.2187C23.6185 27.2187 27.681 23.1317 27.681 18.1081C27.681 13.0845 23.6185 8.99744 18.625 8.99744C13.6314 8.99744 9.56883 13.0844 9.56883 18.108Z" fill="#D31797"/>
</svg>
