<svg width="51" height="40" viewBox="0 0 51 40" fill="none" xmlns="http://www.w3.org/2000/svg">
<g id="black-back-closed-envelope-shape">
<path id="Path" fill-rule="evenodd" clip-rule="evenodd" d="M46.1601 40.0001C47.284 40.0001 48.2579 39.6223 49.0858 38.8762L34.92 24.4523C34.5801 24.7001 34.2507 24.9411 33.9395 25.1702C32.8794 25.9655 32.019 26.586 31.3583 27.0307C30.6978 27.4764 29.8188 27.9307 28.7217 28.3945C27.6238 28.8588 26.601 29.0903 25.6522 29.0903H25.6244H25.5967C24.6478 29.0903 23.625 28.8589 22.5272 28.3945C21.4294 27.9307 20.5505 27.4764 19.8906 27.0307C19.23 26.586 18.37 25.9656 17.3094 25.1702C17.0138 24.9496 16.686 24.7075 16.3316 24.4485L2.16309 38.8762C2.99089 39.6223 3.96539 40.0001 5.08922 40.0001H46.1601Z" fill="#D31797"/>
<path id="Path_2" fill-rule="evenodd" clip-rule="evenodd" d="M3.44338 15.3694C2.38337 14.6499 1.44336 13.8258 0.625 12.8975V34.8422L13.1107 22.1296C10.6128 20.354 7.39449 18.1032 3.44338 15.3694Z" fill="#D31797"/>
<path id="Path_3" fill-rule="evenodd" clip-rule="evenodd" d="M47.8351 15.3694C44.0347 17.9884 40.8046 20.2431 38.1445 22.1347L50.6252 34.8428V12.8975C49.825 13.8071 48.8951 14.6306 47.8351 15.3694Z" fill="#D31797"/>
<path id="Path_4" fill-rule="evenodd" clip-rule="evenodd" d="M46.1603 0H5.08949C3.65665 0 2.55506 0.492642 1.78336 1.47691C1.01102 2.46164 0.625488 3.69315 0.625488 5.17006C0.625488 6.36302 1.13711 7.65563 2.15991 9.04824C3.1827 10.4403 4.27104 11.5337 5.42437 12.3291C6.05664 12.7839 7.96334 14.1335 11.1445 16.3775C12.8617 17.5892 14.3551 18.6452 15.6384 19.5566C16.7323 20.3326 17.6757 21.0046 18.4545 21.5624C18.544 21.6262 18.6846 21.7286 18.8712 21.8645C19.0723 22.0116 19.3267 22.1982 19.6406 22.429C20.2451 22.8741 20.7473 23.2339 21.1473 23.5088C21.5467 23.7838 22.0306 24.0909 22.5984 24.432C23.1656 24.7726 23.7007 25.0287 24.2029 25.199C24.7051 25.3693 25.1701 25.4547 25.5978 25.4547H25.6256H25.6534C26.0811 25.4547 26.5461 25.3693 27.0485 25.199C27.5506 25.0287 28.0852 24.7731 28.6529 24.432C29.2201 24.0909 29.7034 23.7831 30.1041 23.5088C30.504 23.2339 31.0062 22.8742 31.6108 22.429C31.9241 22.1982 32.1785 22.0115 32.3796 21.865C32.5663 21.7285 32.7068 21.6268 32.7968 21.5624C33.4036 21.1325 34.3491 20.4632 35.6204 19.5644C37.9336 17.928 41.3403 15.5194 45.8548 12.3291C47.2126 11.3635 48.347 10.1982 49.2586 8.83501C50.1687 7.47179 50.6249 6.04184 50.6249 4.54561C50.6249 3.29552 50.1826 2.22585 49.2998 1.33494C48.416 0.445134 47.3694 0 46.1603 0Z" fill="#D31797"/>
</g>
</svg>
