<svg width="51" height="50" viewBox="0 0 51 50" fill="none" xmlns="http://www.w3.org/2000/svg">
<g id="call-answer">
<path id="Path" fill-rule="evenodd" clip-rule="evenodd" d="M49.5041 39.5476L41.7824 31.8075C40.2444 30.2722 37.6974 30.3188 36.1057 31.9146L32.2155 35.8128C31.9697 35.677 31.7153 35.5352 31.4479 35.3848C28.9912 34.0205 25.6289 32.1506 22.0907 28.6018C18.5421 25.0456 16.6747 21.6704 15.3093 19.2066C15.1652 18.9456 15.0272 18.694 14.8909 18.455L17.5018 15.842L18.7854 14.5539C20.3795 12.9558 20.4234 10.4038 18.889 8.86399L11.1673 1.12304C9.63284 -0.41458 7.08469 -0.367934 5.49065 1.23016L3.3144 3.42386L3.37387 3.48303C2.64415 4.41626 2.03437 5.49259 1.58059 6.65329C1.16229 7.75814 0.901857 8.81244 0.782774 9.86891C-0.236829 18.3408 3.62583 26.0835 14.1086 36.5901C28.5989 51.1123 40.2762 50.0152 40.78 49.9617C41.8772 49.8302 42.9287 49.5675 43.9973 49.1515C45.1453 48.7021 46.2185 48.0918 47.149 47.362L47.1966 47.4043L49.4012 45.2405C50.992 43.6427 51.0378 41.0898 49.5041 39.5476Z" fill="#D31797"/>
</g>
</svg>
