<svg width="74" height="11" viewBox="0 0 74 11" fill="none" xmlns="http://www.w3.org/2000/svg">
<path fill-rule="evenodd" clip-rule="evenodd" d="M5.48848 0.173975L6.82169 3.50849L10.2349 3.81835C10.4716 3.83996 10.5679 4.15209 10.3882 4.3164L7.79927 6.68666L8.5751 10.2128C8.6289 10.4578 8.37764 10.6506 8.17427 10.5204L5.24099 8.65099L2.30771 10.5204C2.10381 10.65 1.85309 10.4573 1.90689 10.2128L2.68271 6.68666L0.0932288 4.31583C-0.0864695 4.15152 0.00929788 3.83939 0.246564 3.81778L3.65976 3.50793L4.99297 0.173975C5.08551 -0.0579916 5.39594 -0.0579916 5.48848 0.173975Z" fill="#CAFD35"/>
<path fill-rule="evenodd" clip-rule="evenodd" d="M36.9885 0.173975L38.3217 3.50849L41.7349 3.81835C41.9716 3.83996 42.0679 4.15209 41.8882 4.3164L39.2993 6.68666L40.0751 10.2128C40.1289 10.4578 39.8776 10.6506 39.6743 10.5204L36.741 8.65099L33.8077 10.5204C33.6038 10.65 33.3531 10.4573 33.4069 10.2128L34.1827 6.68666L31.5932 4.31583C31.4135 4.15152 31.5093 3.83939 31.7466 3.81778L35.1598 3.50793L36.493 0.173975C36.5855 -0.0579916 36.8959 -0.0579916 36.9885 0.173975Z" fill="#CAFD35"/>
<path fill-rule="evenodd" clip-rule="evenodd" d="M52.7385 0.173975L54.0717 3.50849L57.4849 3.81835C57.7216 3.83996 57.8179 4.15209 57.6382 4.3164L55.0493 6.68666L55.8251 10.2128C55.8789 10.4578 55.6276 10.6506 55.4243 10.5204L52.491 8.65099L49.5577 10.5204C49.3538 10.65 49.1031 10.4573 49.1569 10.2128L49.9327 6.68666L47.3432 4.31583C47.1635 4.15152 47.2593 3.83939 47.4966 3.81778L50.9098 3.50793L52.243 0.173975C52.3355 -0.0579916 52.6459 -0.0579916 52.7385 0.173975Z" fill="#CAFD35"/>
<path fill-rule="evenodd" clip-rule="evenodd" d="M68.4885 0.173975L69.8217 3.50849L73.2349 3.81835C73.4716 3.83996 73.5679 4.15209 73.3882 4.3164L70.7993 6.68666L71.5751 10.2128C71.6289 10.4578 71.3776 10.6506 71.1743 10.5204L68.241 8.65099L65.3077 10.5204C65.1038 10.65 64.8531 10.4573 64.9069 10.2128L65.6827 6.68666L63.0932 4.31583C62.9135 4.15152 63.0093 3.83939 63.2466 3.81778L66.6598 3.50793L67.993 0.173975C68.0855 -0.0579916 68.3959 -0.0579916 68.4885 0.173975Z" fill="#3D4D10"/>
<path fill-rule="evenodd" clip-rule="evenodd" d="M21.2385 0.173975L22.5717 3.50849L25.9849 3.81835C26.2216 3.83996 26.3179 4.15209 26.1382 4.3164L23.5493 6.68666L24.3251 10.2128C24.3789 10.4578 24.1276 10.6506 23.9243 10.5204L20.991 8.65099L18.0577 10.5204C17.8538 10.65 17.6031 10.4573 17.6569 10.2128L18.4327 6.68666L15.8432 4.31583C15.6635 4.15152 15.7593 3.83939 15.9966 3.81778L19.4098 3.50793L20.743 0.173975C20.8355 -0.0579916 21.1459 -0.0579916 21.2385 0.173975Z" fill="#CAFD35"/>
</svg>
