<svg width="117" height="98" viewBox="0 0 117 98" fill="none" xmlns="http://www.w3.org/2000/svg">
<path fill-rule="evenodd" clip-rule="evenodd" d="M5.27683 0H19.6576C22.5676 0 24.9344 2.39524 24.9344 5.34009V92.659C24.9344 95.6039 22.5676 98 19.6576 98H5.27683C2.36774 98 0 95.6039 0 92.659V5.34009C0 2.39524 2.36774 0 5.27683 0ZM19.6576 76.4041H21.5707V5.34034C21.5707 4.27304 20.7131 3.4043 19.6576 3.4043H5.27684C4.22217 3.4043 3.36372 4.27304 3.36372 5.34034V76.4041H12.4677C13.3962 76.4041 14.1495 77.1665 14.1495 78.1061C14.1495 79.0467 13.3962 79.8081 12.4677 79.8081H3.36372V92.6593C3.36372 93.7275 4.22217 94.5962 5.27684 94.5962H19.6576C20.7123 94.5962 21.5707 93.7275 21.5707 92.6593V79.8081H19.6576C18.7291 79.8081 17.9757 79.0467 17.9757 78.1061C17.9757 77.1665 18.7291 76.4041 19.6576 76.4041Z" fill="#CAFD35"/>
<path fill-rule="evenodd" clip-rule="evenodd" d="M7.67188 63.2721C7.67188 60.3871 10.0377 58.0391 12.9465 58.0391C15.8543 58.0391 18.2211 60.3871 18.2211 63.2721C18.2211 66.1579 15.8543 68.5051 12.9465 68.5051C10.0377 68.5051 7.67188 66.1579 7.67188 63.2721ZM11.0342 63.2721C11.0342 64.3188 11.8914 65.1693 12.9465 65.1693C14.0007 65.1693 14.8588 64.3188 14.8588 63.2721C14.8588 62.2262 14.0007 61.3748 12.9465 61.3748C11.8922 61.3748 11.0342 62.2262 11.0342 63.2721Z" fill="#CAFD35"/>
<path fill-rule="evenodd" clip-rule="evenodd" d="M7.67188 45.1939C7.67188 42.3081 10.0377 39.9609 12.9465 39.9609C15.8543 39.9609 18.2211 42.3081 18.2211 45.1939C18.2211 48.0797 15.8552 50.427 12.9465 50.427C10.0377 50.427 7.67188 48.0797 7.67188 45.1939ZM11.0342 45.1939C11.0342 46.2399 11.8914 47.0912 12.9465 47.0912C14.0007 47.0912 14.8588 46.2399 14.8588 45.1939C14.8588 44.148 14.0007 43.2967 12.9465 43.2967C11.8922 43.2967 11.0342 44.148 11.0342 45.1939Z" fill="#CAFD35"/>
<path fill-rule="evenodd" clip-rule="evenodd" d="M7.67188 27.1163C7.67188 24.2307 10.0377 21.8828 12.9465 21.8828C15.8543 21.8828 18.2211 24.2307 18.2211 27.1163C18.2211 30.0009 15.8543 32.3488 12.9465 32.3488C10.0377 32.3488 7.67188 30.0009 7.67188 27.1163ZM11.0342 27.1158C11.0342 28.1616 11.8914 29.0129 12.9465 29.0129C14.0007 29.0129 14.8588 28.1616 14.8588 27.1158C14.8588 26.07 14.0007 25.2188 12.9465 25.2188C11.8922 25.2188 11.0342 26.07 11.0342 27.1158Z" fill="#CAFD35"/>
<path fill-rule="evenodd" clip-rule="evenodd" d="M12.4718 14.2726C13.529 14.2726 14.3849 13.4203 14.3849 12.3697C14.3849 11.3182 13.529 10.4668 12.4718 10.4668H12.4519C11.3948 10.4668 10.5488 11.3182 10.5488 12.3697C10.5488 13.4203 11.4157 14.2726 12.4718 14.2726Z" fill="#CAFD35"/>
<path fill-rule="evenodd" clip-rule="evenodd" d="M97.3423 0H111.723C114.632 0 117 2.39524 117 5.34009V92.6599C117 95.6039 114.633 98 111.723 98H97.3423C94.4323 98 92.0654 95.6039 92.0654 92.6599V74.4678C92.0654 73.5273 92.8179 72.7658 93.7473 72.7658C94.6758 72.7658 95.4291 73.5273 95.4291 74.4678V76.4047H113.636V5.34009C113.636 4.27278 112.778 3.40404 111.723 3.40404H97.3423C96.2876 3.40404 95.4291 4.27278 95.4291 5.34009V67.1926C95.4291 68.1322 94.6758 68.8946 93.7473 68.8946C92.8179 68.8946 92.0654 68.1322 92.0654 67.1926V5.34009C92.0654 2.39612 94.4323 0 97.3423 0ZM111.723 94.5957C112.778 94.5957 113.636 93.727 113.636 92.6588V79.8076H95.4291V92.6588C95.4291 93.727 96.2867 94.5957 97.3423 94.5957H111.723Z" fill="#CAFD35"/>
<path fill-rule="evenodd" clip-rule="evenodd" d="M34.1586 65.6504H81.8824C84.8528 65.6504 87.2705 68.0346 87.2705 70.9648V92.6855C87.2705 95.6157 84.8537 97.9999 81.8824 97.9999H34.1586C31.1882 97.9999 28.7705 95.6157 28.7705 92.6855V70.9648C28.7705 68.0346 31.1882 65.6504 34.1586 65.6504ZM81.8824 94.6124C82.9593 94.6124 83.8358 93.748 83.8358 92.6851V70.9644C83.8358 69.9015 82.9593 69.0371 81.8824 69.0371H34.1586C33.0817 69.0371 32.2052 69.9015 32.2052 70.9644V92.6851C32.2052 93.748 33.0817 94.6124 34.1586 94.6124H81.8824Z" fill="#CAFD35"/>
<path fill-rule="evenodd" clip-rule="evenodd" d="M109.328 63.2721C109.328 66.1579 106.962 68.5051 104.053 68.5051C101.145 68.5051 98.7783 66.1579 98.7783 63.2721C98.7783 60.3871 101.145 58.0391 104.053 58.0391C106.962 58.0391 109.328 60.3871 109.328 63.2721ZM105.965 63.2721C105.965 62.2262 105.108 61.3748 104.053 61.3748C102.999 61.3748 102.141 62.2262 102.141 63.2721C102.141 64.3188 102.999 65.1693 104.053 65.1693C105.107 65.1693 105.965 64.3188 105.965 63.2721Z" fill="#CAFD35"/>
<path fill-rule="evenodd" clip-rule="evenodd" d="M109.328 45.1939C109.328 48.0797 106.962 50.427 104.053 50.427C101.145 50.427 98.7783 48.0797 98.7783 45.1939C98.7783 42.3081 101.145 39.9609 104.053 39.9609C106.962 39.9609 109.328 42.3081 109.328 45.1939ZM105.965 45.1939C105.965 44.148 105.108 43.2967 104.053 43.2967C102.999 43.2967 102.141 44.148 102.141 45.1939C102.141 46.2399 102.999 47.0912 104.053 47.0912C105.107 47.0912 105.965 46.2399 105.965 45.1939Z" fill="#CAFD35"/>
<path fill-rule="evenodd" clip-rule="evenodd" d="M104.053 32.3488C101.145 32.3488 98.7783 30.0016 98.7783 27.1158C98.7783 24.23 101.145 21.8828 104.053 21.8828C106.962 21.8828 109.328 24.23 109.328 27.1158C109.328 30.0008 106.962 32.3488 104.053 32.3488ZM105.965 27.1158C105.965 26.069 105.108 25.2177 104.053 25.2177C102.999 25.2177 102.141 26.069 102.141 27.1158C102.141 28.1617 102.999 29.013 104.053 29.013C105.107 29.013 105.965 28.1617 105.965 27.1158Z" fill="#CAFD35"/>
<path fill-rule="evenodd" clip-rule="evenodd" d="M106.451 12.3697C106.451 11.3182 105.595 10.4668 104.539 10.4668H104.518C103.462 10.4668 102.615 11.3182 102.615 12.3697C102.615 13.4203 103.482 14.2726 104.539 14.2726C105.595 14.2726 106.451 13.4203 106.451 12.3697Z" fill="#CAFD35"/>
<path fill-rule="evenodd" clip-rule="evenodd" d="M48.9102 81.3498C48.9102 76.3657 52.9968 72.3105 58.0208 72.3105C63.0448 72.3105 67.1315 76.3657 67.1315 81.3498C67.1315 86.3331 63.0448 90.3882 58.0208 90.3882C52.9968 90.3882 48.9102 86.334 48.9102 81.3498ZM52.3644 81.3498C52.3644 84.4438 54.9012 86.9613 58.0208 86.9613C61.1405 86.9613 63.6772 84.4438 63.6772 81.3498C63.6772 78.2549 61.1396 75.7374 58.0208 75.7374C54.9021 75.7374 52.3644 78.2549 52.3644 81.3498Z" fill="#CAFD35"/>
<path fill-rule="evenodd" clip-rule="evenodd" d="M43.451 79.9219H39.9829C39.0863 79.9219 38.3604 80.7732 38.3604 81.8248C38.3604 82.8754 39.0863 83.7277 39.9829 83.7277H43.451C44.3467 83.7277 45.0735 82.8754 45.0735 81.8248C45.0735 80.7732 44.3467 79.9219 43.451 79.9219Z" fill="#CAFD35"/>
<path fill-rule="evenodd" clip-rule="evenodd" d="M77.0164 79.9219H73.5483C72.6525 79.9219 71.9258 80.7732 71.9258 81.8248C71.9258 82.8754 72.6525 83.7277 73.5483 83.7277H77.0164C77.913 83.7277 78.6389 82.8754 78.6389 81.8248C78.6389 80.7732 77.913 79.9219 77.0164 79.9219Z" fill="#CAFD35"/>
<path fill-rule="evenodd" clip-rule="evenodd" d="M45.7957 37.7872C49.6319 35.3207 54.0243 34.0168 58.4995 34.0168C62.9747 34.0168 67.3671 35.3207 71.2034 37.7872C71.4869 37.9695 71.8027 38.057 72.1141 38.057C72.6909 38.057 73.2561 37.7584 73.5827 37.2143C74.0867 36.3773 73.8392 35.2761 73.0284 34.7543C68.6441 31.9353 63.6209 30.4453 58.4995 30.4453C53.3782 30.4453 48.3541 31.9353 43.9707 34.7543C43.1599 35.2751 42.9124 36.3763 43.4163 37.2143C43.9203 38.0514 44.9858 38.3081 45.7957 37.7872Z" fill="#CAFD35"/>
<path fill-rule="evenodd" clip-rule="evenodd" d="M68.2938 44.7181C68.8736 44.7181 69.44 44.4396 69.762 43.9349C70.2508 43.1687 69.9903 42.1728 69.1804 41.7103C66.0871 39.944 62.5602 39.0098 58.9799 39.0098C55.3995 39.0098 51.8727 39.944 48.7793 41.7103C47.9694 42.1728 47.709 43.1687 48.1978 43.9349C48.6866 44.7012 49.7391 44.9477 50.549 44.4852C53.108 43.0227 56.0239 42.2505 58.9799 42.2505C61.9358 42.2505 64.8508 43.0227 67.4098 44.4852C67.6872 44.643 67.9923 44.7181 68.2938 44.7181Z" fill="#CAFD35"/>
<path fill-rule="evenodd" clip-rule="evenodd" d="M63.5293 50.4271C64.119 50.4271 64.6902 50.1134 64.9986 49.5567C65.4525 48.7368 65.1633 47.6997 64.3529 47.2406C62.513 46.1982 60.5443 45.6699 58.5002 45.6699C56.4562 45.6699 54.4875 46.1982 52.6475 47.2406C51.8371 47.6997 51.548 48.7368 52.0018 49.5567C52.4557 50.3766 53.4808 50.6691 54.2912 50.21C55.6229 49.4557 57.0388 49.0736 58.5002 49.0736C59.9616 49.0736 61.3775 49.4557 62.7092 50.21C62.9695 50.3571 63.2516 50.4271 63.5293 50.4271Z" fill="#CAFD35"/>
<path fill-rule="evenodd" clip-rule="evenodd" d="M60.4181 56.1373C60.4181 57.1888 59.559 58.0402 58.5001 58.0402C57.4412 58.0402 56.582 57.1888 56.582 56.1373C56.582 55.0867 57.4412 54.2344 58.5001 54.2344C59.559 54.2344 60.4181 55.0867 60.4181 56.1373Z" fill="#CAFD35"/>
</svg>
