<svg width="97" height="99" viewBox="0 0 97 99" fill="none" xmlns="http://www.w3.org/2000/svg">
<path fill-rule="evenodd" clip-rule="evenodd" d="M30 90H36V93H30V90Z" fill="#CAFD35"/>
<path fill-rule="evenodd" clip-rule="evenodd" d="M93.8053 89.7325C93.2592 79.6429 86.5428 71.199 77.4123 68.2895C77.9254 67.5263 78.2258 66.6042 78.2258 65.6121C78.2258 62.9824 76.12 60.8424 73.5323 60.8424H67.2742C64.6865 60.8424 62.5806 62.9824 62.5806 65.6121C62.5806 66.5263 62.8482 67.3721 63.2878 68.0987C61.9533 67.1511 60.5202 66.3593 59.001 65.7599L46.7994 60.9393C44.9814 60.2175 43.8064 58.4734 43.8064 56.4924V55.4081C46.402 53.4398 48.5469 50.9595 50.1287 48.1231H51.629C55.9424 48.1231 59.4516 44.557 59.4516 40.1736C59.4516 38.2658 58.7585 36.5359 57.6524 35.1639C58.8102 32.7726 59.4516 30.1429 59.4516 27.4544V25.8645C59.4516 20.7625 57.4318 15.9213 53.896 12.3519C54.5375 11.0927 54.7581 9.69045 54.7581 8.3756C54.7581 2.68852 50.9281 0.675708 50.7639 0.593033L49.5967 0L48.8129 1.06046C46.1673 4.64569 41.9556 6.7857 37.5484 6.7857H31.2903C20.9379 6.7857 12.5161 15.3441 12.5161 25.8645V27.4544C12.5161 30.1398 13.1576 32.7711 14.3169 35.1623C13.2092 36.5344 12.5161 38.2642 12.5161 40.1736C12.5161 44.557 16.0253 48.1231 20.3387 48.1231H21.8391C23.4208 50.9595 25.5658 53.4398 28.1613 55.4081V56.4924C28.1613 58.4734 26.9863 60.2191 25.1699 60.9393L12.9667 65.7599C5.08937 68.873 0 76.4345 0 85.0232V99H48.5H92.3064C94.8942 99 97 96.86 97 94.2303C97 92.1364 95.6561 90.3716 93.8053 89.7325ZM90.6621 89.4606H50.1443C50.9485 78.8067 59.7176 70.3818 70.4032 70.3818C81.0889 70.3818 89.858 78.8067 90.6621 89.4606ZM73.5323 64.0225H67.2742C66.4106 64.0225 65.7097 64.7347 65.7097 65.6124C65.7097 66.49 66.4106 67.2023 67.2742 67.2023H73.5323C74.3959 67.2023 75.0968 66.49 75.0968 65.6124C75.0968 64.7347 74.3959 64.0225 73.5323 64.0225ZM59.9491 69.7299C52.6147 73.4598 47.4768 80.9657 47.0012 89.7325C45.1504 90.3716 43.8064 92.1364 43.8064 94.2303C43.8064 94.7899 43.9191 95.321 44.0943 95.8202H42.2419V83.8959L41.6161 83.419C40.3942 82.4873 39.2584 81.4602 38.1648 80.3902C42.2075 75.7811 45.1832 70.3055 46.8666 64.3751L57.8683 68.7219C58.5864 69.0065 59.2764 69.3515 59.9491 69.7299ZM35.5349 59.1857C34.0141 58.723 32.581 58.103 31.2246 57.3732C31.2207 57.4133 31.2187 57.4542 31.2167 57.4952C31.2138 57.5535 31.211 57.612 31.2027 57.6689L35.9839 64.4673L40.765 57.6673C40.7573 57.614 40.7548 57.5598 40.7522 57.5056V57.5056V57.5055V57.5055V57.5054C40.7501 57.4611 40.7481 57.4168 40.7431 57.3732C39.3867 58.103 37.952 58.723 36.4329 59.1857L35.9839 59.3224L35.5349 59.1857ZM35.9839 69.2725L39.9358 72.6192C38.7875 74.5541 37.4702 76.3841 35.9948 78.0885C34.5195 76.3825 33.2006 74.5478 32.046 72.6065L35.9839 69.2725ZM41.4659 69.7744C42.5204 67.601 43.3684 65.3259 44.0005 62.9744C43.287 62.4656 42.6644 61.8535 42.1621 61.1476L38.1007 66.9253L41.4659 69.7744ZM51.629 44.9433H51.6071C52.6272 42.2485 53.1935 39.3342 53.1935 36.2943V35.6981C55.01 36.3563 56.3226 38.1052 56.3226 40.1752C56.3226 42.8033 54.2167 44.9433 51.629 44.9433ZM31.2903 9.96583C22.6636 9.96583 15.6452 17.0981 15.6452 25.8649V27.4548C15.6452 29.4135 16.0504 31.3405 16.806 33.1212C17.4256 32.7984 18.0749 32.5297 18.7742 32.385V29.5137L42.5564 20.8821L53.1935 29.8889V32.385C53.8944 32.5297 54.5437 32.7984 55.1633 33.1212C55.9189 31.3421 56.3226 29.4135 56.3226 27.4548V25.8649C56.3226 21.6691 54.6845 17.6848 51.8136 14.7196C50.3884 15.6958 48.3263 16.3254 45.371 16.3254V13.1456C50.8718 13.1456 51.629 10.8546 51.629 8.37593C51.629 6.28521 50.9109 4.98308 50.2804 4.24219C47.0403 7.85285 42.3921 9.96583 37.5484 9.96583H31.2903ZM20.3387 44.9433C17.751 44.9433 15.6452 42.8033 15.6452 40.1736C15.6452 38.1036 16.9578 36.3547 18.7742 35.6965V36.2927C18.7742 39.3326 19.3405 42.2469 20.3606 44.9417H20.3387V44.9433ZM21.9032 31.7567V36.2943C21.9032 45.3551 27.5417 53.214 35.9839 55.9979C44.426 53.2156 50.0645 45.3551 50.0645 36.2943V31.3799L41.9275 24.4893L21.9032 31.7567ZM29.8056 61.1476L33.8671 66.9253L30.5159 69.7617C29.463 67.5915 28.6103 65.3195 27.9767 62.9681C28.687 62.4593 29.305 61.8504 29.8056 61.1476ZM39.1129 85.4763C32.3761 80.1279 27.487 72.7046 25.1183 64.3704L14.101 68.7235C14.0968 68.7244 14.093 68.7257 14.0895 68.7272C14.0864 68.7285 14.0835 68.73 14.0806 68.7315V95.8202H39.1129V85.4763ZM3.12903 85.0229C3.12903 78.9781 6.11413 73.5438 10.9516 70.3672V95.8199H3.12903V85.0229ZM46.9355 94.2303C46.9355 95.1079 47.6364 95.8202 48.5 95.8202H92.3064C93.1701 95.8202 93.871 95.1079 93.871 94.2303C93.871 93.3527 93.1701 92.6404 92.3064 92.6404H48.5C47.6364 92.6404 46.9355 93.3527 46.9355 94.2303Z" fill="#CAFD35"/>
<path fill-rule="evenodd" clip-rule="evenodd" d="M84.0837 87L87 86.0816C86.6637 85.0183 86.2159 83.9809 85.6718 83L83 84.4813C83.4448 85.2838 83.8086 86.1289 84.0837 87Z" fill="#CAFD35"/>
<path fill-rule="evenodd" clip-rule="evenodd" d="M78 75.2256C76.9868 74.713 75.9162 74.3014 74.8177 74L74 76.9981C74.8968 77.2435 75.7735 77.5806 76.6005 78L78 75.2256Z" fill="#CAFD35"/>
<path fill-rule="evenodd" clip-rule="evenodd" d="M81.3003 82L84 79.6987C83.1587 78.7104 82.2144 77.8038 81.1938 77L79 79.7892C79.8342 80.4475 80.6099 81.1909 81.3003 82Z" fill="#CAFD35"/>
<path fill-rule="evenodd" clip-rule="evenodd" d="M69.125 58H72.375C72.375 50.7607 69.9635 47.1369 67.8348 43.9391C65.9108 41.0479 64.25 38.5516 64.25 33.5263C64.25 31.7267 65.7076 30.2632 67.5 30.2632C69.2924 30.2632 70.75 31.7267 70.75 33.5263C70.75 35.3259 69.2924 36.7895 67.5 36.7895V40.0526C71.0848 40.0526 74 37.1256 74 33.5263C74 29.9271 71.0848 27 67.5 27C63.9153 27 61 29.9271 61 33.5263C61 39.5419 63.1011 42.6991 65.1324 45.7517C67.1864 48.8371 69.125 51.7511 69.125 58Z" fill="#CAFD35"/>
<path fill-rule="evenodd" clip-rule="evenodd" d="M81.5 34.0526V30.7895C79.7076 30.7895 78.25 29.3259 78.25 27.5263C78.25 25.7267 79.7076 24.2632 81.5 24.2632C83.2924 24.2632 84.75 25.7267 84.75 27.5263C84.75 32.5516 83.0892 35.0479 81.1652 37.9391C79.0365 41.1369 76.625 44.7607 76.625 52H79.875C79.875 45.7511 81.8136 42.8371 83.8676 39.7517C85.8989 36.6991 88 33.5419 88 27.5263C88 23.9271 85.0848 21 81.5 21C77.9153 21 75 23.9271 75 27.5263C75 31.1256 77.9153 34.0526 81.5 34.0526Z" fill="#CAFD35"/>
</svg>
