<svg width="101" height="100" viewBox="0 0 101 100" fill="none" xmlns="http://www.w3.org/2000/svg">
<path fill-rule="evenodd" clip-rule="evenodd" d="M16.4376 18.5631C16.715 18.846 17.0961 19.004 17.4927 18.9996C17.6936 19.004 17.8937 18.9688 18.0806 18.8945C18.4426 18.7336 18.7325 18.4441 18.8944 18.0818C18.968 17.8952 19.0041 17.696 18.9996 17.4947C19.0033 17.0993 18.8459 16.7187 18.5626 16.4416C18.425 16.3013 18.2609 16.1888 18.0806 16.1102C17.8017 16.0066 17.5008 15.975 17.2065 16.0198C17.116 16.05 17.0108 16.0801 16.9203 16.1102C16.8297 16.1403 16.7392 16.2006 16.6635 16.2462C16.5038 16.3652 16.3618 16.5078 16.2418 16.6672C16.197 16.7422 16.1513 16.8326 16.1065 16.923C16.0608 17.0133 16.0461 17.1184 16.0159 17.2088C16.0034 17.3036 15.9983 17.3991 16.0005 17.4947C15.9961 17.696 16.0321 17.8952 16.1065 18.0818C16.1844 18.2626 16.297 18.4257 16.4376 18.5631Z" fill="#CAFD35"/>
<path fill-rule="evenodd" clip-rule="evenodd" d="M13.4503 19.4242C13.0095 19.8479 12.8777 20.5032 13.1201 21.0659C13.1926 21.249 13.3053 21.4138 13.4503 21.5476C13.7286 21.8382 14.1131 22.0015 14.5151 22C14.7107 21.9963 14.904 21.9551 15.0849 21.8794C15.2672 21.8065 15.4312 21.6933 15.5645 21.5476C15.7044 21.4101 15.8164 21.2461 15.8948 21.0659C16.1138 20.501 15.9849 19.8596 15.5645 19.4242C14.9721 18.8586 14.0428 18.8586 13.4503 19.4242Z" fill="#CAFD35"/>
<path fill-rule="evenodd" clip-rule="evenodd" d="M12.5648 22.4463C12.288 22.1612 11.9064 22 11.508 22C11.1088 22 10.7273 22.1612 10.4504 22.4463C10.3017 22.5819 10.189 22.7511 10.1201 22.9392C10.0432 23.1186 10.0029 23.3119 10 23.5066C10.0044 23.9054 10.1663 24.2861 10.4504 24.5668C10.7331 24.8381 11.1081 24.9927 11.4999 25C11.8976 24.9971 12.2792 24.8425 12.5648 24.5668C12.8446 24.2846 13.0013 23.9033 12.9998 23.5066C13.0028 23.3126 12.9676 23.1201 12.8951 22.9392C12.8211 22.754 12.7083 22.5863 12.5648 22.4463Z" fill="#CAFD35"/>
<path fill-rule="evenodd" clip-rule="evenodd" d="M17.4999 25C17.7006 24.9978 17.8991 24.9577 18.0851 24.8811C18.2638 24.8082 18.4271 24.7018 18.5648 24.5668C18.8446 24.2846 19.0006 23.9033 18.9998 23.5066C19.0028 23.3126 18.9669 23.1201 18.8951 22.9392C18.8204 22.754 18.7083 22.5863 18.5648 22.4463C18.2872 22.1612 17.9057 22 17.5072 22C17.1088 22 16.7273 22.1612 16.4497 22.4463C16.3061 22.5863 16.1941 22.754 16.1201 22.9392C16.0432 23.1186 16.0022 23.3119 16 23.5066C16.0059 24.3291 16.6738 24.9949 17.4999 25Z" fill="#CAFD35"/>
<path fill-rule="evenodd" clip-rule="evenodd" d="M15.5648 26.4177C14.9694 25.8608 14.0459 25.8608 13.4504 26.4177C13.3018 26.5544 13.189 26.7248 13.1201 26.9144C13.0432 27.0952 13.0022 27.2899 13 27.4861C12.9964 28.0974 13.3618 28.6499 13.925 28.885C14.4875 29.1194 15.1356 28.9886 15.5648 28.5544C15.8446 28.27 16.0013 27.8858 15.9998 27.4861C16.0028 27.2906 15.9669 27.0959 15.8951 26.9144C15.8211 26.7278 15.7083 26.5581 15.5648 26.4177Z" fill="#CAFD35"/>
<path fill-rule="evenodd" clip-rule="evenodd" d="M21.5001 14.9998C21.6949 15.0028 21.889 14.9667 22.0699 14.8939C22.25 14.816 22.4126 14.7035 22.5503 14.563C22.6946 14.4292 22.8074 14.2645 22.8799 14.0806C22.9553 13.8997 22.9963 13.7056 23 13.5085C23.0015 13.1055 22.8389 12.7194 22.5503 12.4392C22.417 12.2944 22.253 12.1811 22.0699 12.1076C21.5082 11.8848 20.8673 12.0142 20.4352 12.4392C20.1503 12.7209 19.9936 13.1077 20.0002 13.5085C20.0002 13.9063 20.1591 14.288 20.4404 14.5682C20.7223 14.8483 21.1039 15.0035 21.5001 14.9998Z" fill="#CAFD35"/>
<path fill-rule="evenodd" clip-rule="evenodd" d="M24.9303 10.8946C25.1112 10.9667 25.3053 11.0028 25.5001 10.9998C25.8985 11.0006 26.2816 10.8438 26.565 10.5627C26.8411 10.275 26.9971 9.89229 27 9.49269C26.9919 9.09824 26.8367 8.72145 26.565 8.43739C26.1314 8.01497 25.4928 7.88545 24.9303 8.10623C24.7407 8.17467 24.5715 8.28873 24.4353 8.43739C24.2954 8.57574 24.1833 8.73911 24.105 8.92015C24.0332 9.10192 23.9973 9.29693 24.0002 9.49269C23.9929 9.89376 24.1504 10.2808 24.4353 10.5627C24.5751 10.7069 24.7436 10.8195 24.9303 10.8946Z" fill="#CAFD35"/>
<path fill-rule="evenodd" clip-rule="evenodd" d="M12.5638 8.42864C12.1297 8.00813 11.4891 7.88483 10.9298 8.11307C10.5535 8.24958 10.2562 8.5468 10.1201 8.92475C10.0432 9.10529 10.0029 9.29903 10 9.49571C10.0029 9.89421 10.1589 10.2758 10.4349 10.5628C10.5842 10.6949 10.7504 10.8064 10.9298 10.8938C11.1113 10.9657 11.3046 11.0016 11.4994 10.9987C11.6004 11.0038 11.7014 10.9936 11.7995 10.9686C11.891 10.9503 11.9818 10.9253 12.0697 10.8938C12.1626 10.849 12.2527 10.7991 12.3391 10.7433C12.4182 10.6875 12.4928 10.6274 12.5638 10.5628C12.629 10.4916 12.689 10.416 12.7439 10.3375C12.7996 10.2501 12.8501 10.1599 12.894 10.0667C12.9262 9.97861 12.9511 9.88834 12.9687 9.79587C12.9936 9.69827 13.0038 9.59699 12.9987 9.49571C13.0016 9.3005 12.9665 9.10602 12.894 8.92475C12.8069 8.74495 12.6964 8.57836 12.5638 8.42864Z" fill="#CAFD35"/>
<path fill-rule="evenodd" clip-rule="evenodd" d="M15.5638 5.43514L15.3391 5.255C15.1744 5.14808 14.9913 5.07193 14.7995 5.03019C14.5074 4.96941 14.2036 5.0009 13.9298 5.12026C13.7504 5.19275 13.5879 5.29966 13.4502 5.43514C13.1691 5.71926 13.0081 6.10078 13 6.49987C13.0029 6.60019 13.0124 6.70051 13.03 6.8001L13.1201 7.06958C13.1589 7.16258 13.2043 7.25265 13.2548 7.33979C13.3155 7.41814 13.3807 7.49357 13.4502 7.5646C13.5879 7.70007 13.7504 7.80698 13.9298 7.87948C14.1077 7.96369 14.3024 8.0047 14.4994 7.99957C14.5997 7.99738 14.7 7.98712 14.7995 7.96955C14.9913 7.92781 15.1744 7.85165 15.3391 7.74474C15.4174 7.68909 15.4928 7.62904 15.5638 7.5646C15.6327 7.49723 15.6934 7.42181 15.7439 7.33979C15.7996 7.25338 15.8494 7.16258 15.894 7.06958C15.9255 6.98171 15.9511 6.89164 15.9687 6.8001C15.9936 6.70198 16.0038 6.60092 15.9987 6.49987C16.0016 6.30508 15.9658 6.11103 15.894 5.93016C15.812 5.74782 15.7007 5.58086 15.5638 5.43514Z" fill="#CAFD35"/>
<path fill-rule="evenodd" clip-rule="evenodd" d="M8.56458 12.4501C8.49281 12.3813 8.41811 12.3162 8.33902 12.2554C8.25261 12.2042 8.16253 12.1595 8.06953 12.12L7.7993 12.0307C7.50711 11.9692 7.2032 12.0007 6.92931 12.12C6.74403 12.1961 6.5756 12.3081 6.435 12.4501C6.16257 12.7327 6.00732 13.1075 6 13.4998C6.0022 13.6001 6.01245 13.7004 6.03003 13.7992C6.07177 13.9917 6.14793 14.174 6.25485 14.3394L6.435 14.5642C6.58 14.701 6.74696 14.8123 6.92931 14.8936C7.11093 14.966 7.30426 15.0019 7.49979 14.999C7.60011 15.0034 7.70117 14.9938 7.7993 14.969C7.89158 14.9507 7.98165 14.9258 8.06953 14.8936C8.16253 14.8496 8.25261 14.7999 8.33902 14.7435C8.42177 14.693 8.4972 14.633 8.56458 14.5642C8.62902 14.4924 8.68907 14.4178 8.74399 14.3394C8.85164 14.174 8.92781 13.9917 8.96955 13.7992C8.98639 13.7004 8.99664 13.6001 8.99957 13.4998C9.0047 13.3029 8.96369 13.1075 8.87947 12.9296C8.80624 12.751 8.69932 12.5877 8.56458 12.4501Z" fill="#CAFD35"/>
<path fill-rule="evenodd" clip-rule="evenodd" d="M15.5638 12.4497C15.4928 12.3809 15.4174 12.3157 15.3391 12.255C15.2571 12.2037 15.1722 12.1591 15.0843 12.1195C14.9943 12.0902 14.8896 12.0602 14.7995 12.0302C14.5074 11.9694 14.2036 12.0009 13.9298 12.1195C13.5688 12.2806 13.2804 12.569 13.1201 12.9293C13.0432 13.1101 13.0022 13.3034 13 13.4996C13.0029 13.5999 13.0124 13.7002 13.03 13.799C13.06 13.8891 13.09 13.9938 13.1201 14.0838C13.1589 14.1724 13.2043 14.2573 13.2548 14.3393C13.3155 14.4177 13.3807 14.4923 13.4502 14.5641C13.5872 14.7039 13.7497 14.8159 13.9298 14.8935C14.1106 14.966 14.3046 15.0019 14.4994 14.999C14.6004 15.0034 14.7014 14.9938 14.7995 14.9689C14.8962 14.9506 14.9913 14.9258 15.0843 14.8935C15.1722 14.8496 15.2578 14.7991 15.3391 14.7435C15.5023 14.6402 15.6407 14.5026 15.7439 14.3393C15.7996 14.2573 15.8494 14.1724 15.894 14.0838C15.9255 13.9908 15.9511 13.8957 15.9687 13.799C15.9936 13.7009 16.0038 13.5999 15.9987 13.4996C16.0016 13.3041 15.9658 13.1108 15.894 12.9293C15.8157 12.7499 15.7037 12.5866 15.5638 12.4497Z" fill="#CAFD35"/>
<path fill-rule="evenodd" clip-rule="evenodd" d="M16.1064 10.0842C16.1513 10.1735 16.1969 10.249 16.2418 10.339C16.3028 10.4174 16.3683 10.4928 16.4374 10.5638C16.5022 10.6363 16.5787 10.6971 16.6633 10.7439C16.7434 10.8025 16.8295 10.853 16.92 10.894C17.0134 10.9255 17.109 10.9504 17.2061 10.9687C17.2995 10.9936 17.3959 11.0038 17.4922 10.9987C17.8931 11.0024 18.2786 10.8457 18.5618 10.5638C18.8479 10.2834 19.0053 9.89824 18.9987 9.4992C19.0039 9.40328 18.9936 9.30736 18.9686 9.21438C18.9524 9.11699 18.9274 9.02181 18.8935 8.92955C18.8111 8.74724 18.6993 8.57957 18.5618 8.4346C18.4235 8.29914 18.2595 8.19224 18.08 8.11976C17.8049 8.00114 17.4996 7.96966 17.2061 8.0297C17.1068 8.0458 17.0104 8.07582 16.92 8.11976C16.8273 8.14904 16.7405 8.19517 16.6633 8.25448C16.5882 8.31452 16.4977 8.37456 16.4374 8.4346C16.1564 8.71795 15.9998 9.10089 16.0005 9.4992C15.9983 9.59951 16.0034 9.69982 16.0159 9.79866C16.0461 9.88872 16.0763 9.99415 16.1064 10.0842Z" fill="#CAFD35"/>
<path fill-rule="evenodd" clip-rule="evenodd" d="M20.4352 7.56394C20.4997 7.6364 20.5758 7.69715 20.66 7.744C20.7421 7.79963 20.827 7.8494 20.9149 7.89405C21.0079 7.92552 21.1031 7.95114 21.2005 7.96871C21.2979 7.99359 21.399 8.00384 21.5001 7.99872C21.8948 8.00238 22.2742 7.84574 22.5503 7.56394C22.6983 7.4278 22.8118 7.25871 22.8799 7.06914C22.9568 6.88908 22.9978 6.69585 23 6.49968C22.9956 6.10004 22.8337 5.71723 22.5503 5.43543C22.4119 5.30002 22.2493 5.19315 22.0699 5.12069C21.7967 5.00065 21.4928 4.96918 21.2005 5.03066C21.0079 5.07238 20.8248 5.1485 20.66 5.25537C20.5853 5.31539 20.4953 5.37541 20.4352 5.43543C20.1554 5.71869 19.9994 6.1015 20.0002 6.49968C19.9972 6.69438 20.0331 6.88835 20.1049 7.06914C20.1796 7.25579 20.2917 7.42414 20.4352 7.56394Z" fill="#CAFD35"/>
<path fill-rule="evenodd" clip-rule="evenodd" d="M12.894 16.925C12.853 16.8347 12.8025 16.7496 12.7439 16.6696C12.6971 16.5845 12.6363 16.5082 12.5638 16.4443C12.4928 16.3746 12.4182 16.3093 12.3391 16.2491C12.249 16.2036 12.1744 16.1589 12.0843 16.1134C11.9943 16.0686 11.8896 16.0532 11.7995 16.0231C11.3039 15.9372 10.7973 16.0935 10.4349 16.4443C10.3748 16.5045 10.3148 16.5947 10.2555 16.6696C10.1955 16.7459 10.1501 16.8325 10.1201 16.925C10.0769 17.0152 10.0469 17.1113 10.03 17.2104C10.0132 17.3051 10.0029 17.4005 10 17.4959C10.0007 17.6977 10.0417 17.8965 10.1201 18.0822C10.1925 18.262 10.3002 18.4249 10.4349 18.5628C10.5806 18.7001 10.7475 18.8123 10.9298 18.8938C11.022 18.9275 11.1179 18.9525 11.2146 18.9686C11.3075 18.9936 11.4035 19.0038 11.4994 18.9987C11.8991 19.0061 12.2842 18.8483 12.5638 18.5628C12.8464 18.2803 13.0031 17.8958 12.9987 17.4959C13.0038 17.3997 12.9936 17.3036 12.9687 17.2104C12.9511 17.1135 12.9262 17.0182 12.894 16.925Z" fill="#CAFD35"/>
<path fill-rule="evenodd" clip-rule="evenodd" d="M8.89353 19.9167C8.8496 19.8289 8.79908 19.7433 8.74344 19.662C8.69731 19.5772 8.63654 19.5011 8.56406 19.4374C8.42348 19.294 8.25508 19.1813 8.06911 19.1074C7.5068 18.8849 6.86616 19.0144 6.43491 19.4374C6.37487 19.4967 6.31483 19.5867 6.2548 19.662C6.1479 19.8267 6.07175 20.0096 6.03002 20.2013C6.01245 20.3001 6.0022 20.4004 6 20.5014C6.00732 20.8929 6.16254 21.2675 6.43491 21.55C6.71679 21.8339 7.09899 21.9956 7.49948 22C7.69497 21.9971 7.889 21.9568 8.06911 21.88C8.25801 21.8112 8.42787 21.6985 8.56406 21.55C8.84521 21.2741 9.00263 20.895 8.99897 20.5014C9.00336 20.4004 8.99384 20.2994 8.96895 20.2013C8.95064 20.1048 8.92575 20.0096 8.89353 19.9167Z" fill="#CAFD35"/>
<path fill-rule="evenodd" clip-rule="evenodd" d="M21.5006 22C21.6968 21.9971 21.8901 21.9568 22.0702 21.8798C22.4311 21.7187 22.7196 21.43 22.8799 21.0696C22.9568 20.8894 22.9978 20.6952 23 20.4996C23.0015 20.0974 22.8389 19.7128 22.5505 19.4344C22.1961 19.0828 21.6903 18.9312 21.2012 19.0293C21.1038 19.0469 21.0087 19.0718 20.9157 19.104C20.8264 19.1487 20.751 19.1942 20.6609 19.2388C20.502 19.3583 20.3607 19.4996 20.2414 19.6594C20.196 19.7495 20.1514 19.8242 20.106 19.9143C20.0745 20.0073 20.0496 20.1026 20.0313 20.1993C20.0064 20.2974 19.9962 20.3985 20.0013 20.4996C19.9976 20.8938 20.1543 21.2733 20.4362 21.5494C20.7151 21.8388 21.0994 22.0015 21.5006 22Z" fill="#CAFD35"/>
<path fill-rule="evenodd" clip-rule="evenodd" d="M24.4354 18.5627C24.5752 18.7069 24.7437 18.8203 24.9304 18.8946C25.1113 18.9674 25.3054 19.0028 25.5002 18.9998C25.8986 19.0013 26.2816 18.8446 26.565 18.5627C26.7005 18.4243 26.8074 18.261 26.8799 18.0807C26.9568 17.8945 26.9978 17.695 27 17.4927C26.9971 17.0982 26.8411 16.7192 26.565 16.4381C26.1315 16.0149 25.4929 15.8854 24.9304 16.1062C24.7437 16.1805 24.5752 16.2939 24.4354 16.4381C24.1534 16.7155 23.9967 17.0967 24.0004 17.4927C23.996 17.6943 24.0319 17.8937 24.1051 18.0807C24.1834 18.2617 24.2955 18.4251 24.4354 18.5627Z" fill="#CAFD35"/>
<path fill-rule="evenodd" clip-rule="evenodd" d="M27.9322 14.8939C28.1142 14.9667 28.3079 15.0028 28.5038 14.9998C29.1076 14.9969 29.6513 14.6319 29.8839 14.0734C30.1165 13.5141 29.9933 12.8703 29.5706 12.4376C29.1363 12.0152 28.4964 11.8857 27.9322 12.1057C27.7429 12.1749 27.5727 12.2889 27.4369 12.4376C26.8544 13.0255 26.8544 13.9748 27.4369 14.5627C27.5771 14.707 27.7458 14.8195 27.9322 14.8939Z" fill="#CAFD35"/>
<path fill-rule="evenodd" clip-rule="evenodd" d="M100.045 96.8282L92.3655 93.0252C89.5008 91.6202 87.6895 88.7023 87.7017 85.5117V84.1837C87.6976 79.9689 85.4411 76.0783 81.7849 73.9839L72.7242 68.8096C73.4208 66.9641 72.9755 64.8821 71.5841 63.4837L70.3621 62.2614C71.9196 60.3439 71.8484 57.5774 70.1951 55.7426L41.8926 24.4237L44.3219 21.9938C44.6362 21.6794 44.813 21.2528 44.813 20.8074C44.813 20.3628 44.6362 19.9363 44.3219 19.6219L39.5812 14.8798C39.2669 14.5654 38.8404 14.3886 38.396 14.3886C38.0719 14.3976 37.7568 14.5032 37.4924 14.6915C35.618 5.66827 27.3726 -0.586014 18.181 0.0435897C8.98935 0.672375 1.67207 7.99101 1.04347 17.1862C0.414869 26.3805 6.6673 34.6284 15.6879 36.5033C15.4996 36.7677 15.394 37.0821 15.3842 37.4072C15.3842 37.8517 15.561 38.2783 15.8753 38.5927L20.616 43.334C20.9303 43.6492 21.3567 43.826 21.802 43.826C22.2472 43.826 22.6737 43.6492 22.988 43.334L25.4148 40.9048L56.7326 69.2198C58.5603 70.8891 61.3374 70.9612 63.2486 69.3876L64.4722 70.6116C66.065 72.2163 68.5393 72.5454 70.4963 71.4131L80.1234 76.9117C82.7311 78.4043 84.3427 81.1773 84.3492 84.1837V85.5117C84.3328 89.9811 86.8726 94.0666 90.8865 96.0299L98.5672 99.8329C98.798 99.9451 99.0517 100.002 99.3079 99.9999C100.093 100.007 100.777 99.4702 100.956 98.7063C101.135 97.9425 100.76 97.1565 100.054 96.8142L100.045 96.8282ZM8.76345 7.76504C12.9697 3.55676 19.2565 2.21486 24.814 4.33865C30.3715 6.46162 34.1628 11.654 34.4935 17.5963L33.6553 18.4347C34.2193 17.869 34.306 16.9848 33.8624 16.32C33.4196 15.656 32.57 15.3964 31.8317 15.6994C31.6279 15.791 31.4413 15.9155 31.2784 16.0686C30.9707 16.3814 30.7963 16.803 30.7922 17.2418C30.7947 17.3548 30.8062 17.467 30.8258 17.5775C30.8446 17.688 30.8782 17.7953 30.9265 17.896C30.96 17.9992 31.0108 18.0958 31.0779 18.1809C31.136 18.271 31.2039 18.3553 31.2784 18.4323C31.596 18.7467 32.0224 18.9268 32.4685 18.9358C32.9117 18.9293 33.334 18.7506 33.6477 18.4383L30.1072 21.9807C30.4149 21.6671 30.5884 21.2463 30.5917 20.8066C30.5876 20.5823 30.5418 20.3612 30.4575 20.1532C30.3765 19.9527 30.2561 19.7709 30.1055 19.6162C29.621 19.1462 28.9073 19.0021 28.2778 19.2477C28.07 19.3304 27.8817 19.4565 27.7254 19.6162C27.5739 19.7709 27.4544 19.9527 27.3726 20.1532C27.2883 20.3612 27.2433 20.5823 27.2392 20.8066C27.2425 21.2463 27.4168 21.6671 27.7254 21.9807C27.8768 22.146 28.0667 22.2729 28.2778 22.3499C28.48 22.4359 28.6961 22.4809 28.9154 22.4834C29.3586 22.4777 29.7815 22.2999 30.096 21.9869L26.5819 25.502C26.8643 25.1901 27.0256 24.7864 27.0346 24.3648C27.0321 24.1462 26.9863 23.9292 26.9003 23.7278C26.8234 23.5207 26.7031 23.3324 26.5484 23.1744C26.3814 23.027 26.1956 22.9025 25.9951 22.8059C25.5867 22.6381 25.1291 22.6381 24.7215 22.8059C24.3033 22.9779 23.971 23.3095 23.7991 23.7278C23.6427 24.138 23.6427 24.5916 23.7991 25.0026C23.8965 25.2024 24.0201 25.389 24.1682 25.5552C24.3254 25.7108 24.5136 25.8303 24.7215 25.9073C24.9229 25.9932 25.1389 26.0391 25.3583 26.0416C25.779 26.0325 26.1825 25.8721 26.4944 25.5888L22.9814 29.1036C23.2933 28.7899 23.4717 28.3661 23.4774 27.923C23.475 27.7044 23.4291 27.4874 23.3432 27.286C23.2662 27.0748 23.1402 26.8848 22.9749 26.7326C22.316 26.0931 21.2691 26.0931 20.6111 26.7326C20.4506 26.8889 20.3254 27.0781 20.2419 27.286C20.1617 27.4883 20.1216 27.7052 20.1249 27.923C20.1232 28.3684 20.2984 28.7966 20.6111 29.1134C20.7649 29.2649 20.9475 29.3844 21.1472 29.4655C21.3551 29.5506 21.5769 29.5957 21.8011 29.5998C22.2407 29.5973 22.6614 29.4237 22.9749 29.1151L19.4338 32.6572C19.7459 32.3434 19.9236 31.9204 19.9301 31.4779C19.9219 31.0309 19.7418 30.6052 19.4275 30.2875C19.3506 30.2122 19.2663 30.145 19.1763 30.0861C19.0903 30.0198 18.9937 29.969 18.8914 29.9354C18.7899 29.8863 18.6827 29.8527 18.5722 29.8347C18.0263 29.7324 17.464 29.9011 17.0637 30.2875C16.9107 30.4496 16.7863 30.6371 16.6954 30.841C16.6095 31.0424 16.5636 31.2585 16.5612 31.4779C16.5579 32.1575 16.9647 32.7715 17.5917 33.0335C18.2194 33.2947 18.9422 33.1522 19.4226 32.6716L18.5845 33.51C12.6423 33.1784 7.45059 29.3844 5.32907 23.8228C3.20755 18.2612 4.55233 11.9717 8.76345 7.76504ZM19.4308 37.4072L21.8028 39.7782L38.396 23.1776L40.7663 20.8082L38.396 18.4364L19.4308 37.4072ZM58.981 66.7316L27.7884 38.5305L39.5222 26.7931L67.7126 57.9974C68.3109 58.6606 68.2856 59.6766 67.6537 60.3079L61.2842 66.6801C60.6515 67.3056 59.6407 67.3285 58.981 66.7316ZM65.6574 67.0553L66.8426 68.2408C67.4973 68.8958 68.5589 68.8958 69.2137 68.24C69.8677 67.585 69.8677 66.5231 69.2129 65.8681L68.0294 64.6826L65.6574 67.0553Z" fill="#CAFD35"/>
<path fill-rule="evenodd" clip-rule="evenodd" d="M100.293 6.32411C99.8503 6.00184 99.2809 5.91395 98.7629 6.08722L78.3629 12.9443C77.6682 13.1779 77.2 13.8333 77.2 14.5716V29.2383C76.1707 28.6214 74.997 28.2925 73.8 28.2858C70.0447 28.2858 67 31.3552 67 35.1429C67 38.9297 70.0447 42 73.8 42C77.5553 42 80.6 38.9297 80.6 35.1429V15.807L97.6 10.0917V22.3812C96.5707 21.7643 95.397 21.4354 94.2 21.4287C90.4447 21.4287 87.4 24.4981 87.4 28.2858C87.4 32.0726 90.4447 35.1429 94.2 35.1429C97.9553 35.1429 101 32.0726 101 28.2858V7.71445C101 7.16283 100.736 6.64553 100.293 6.32411ZM73.8 38.571C71.9224 38.571 70.4 37.0358 70.4 35.1424C70.4 33.2482 71.9224 31.7139 73.8 31.7139C75.6776 31.7139 77.2 33.2482 77.2 35.1424C77.2 37.0358 75.6776 38.571 73.8 38.571ZM90.8 28.2858C90.8 30.1792 92.3224 31.7143 94.2 31.7143C96.0776 31.7143 97.6 30.1792 97.6 28.2858C97.6 26.3915 96.0776 24.8572 94.2 24.8572C92.3224 24.8572 90.8 26.3915 90.8 28.2858Z" fill="#CAFD35"/>
<path fill-rule="evenodd" clip-rule="evenodd" d="M11.3104 67.8478L34.8558 61.0651C35.3633 60.9194 35.9094 61.0212 36.3307 61.3416C36.752 61.6621 37 62.163 37 62.6953V86.4347C37 90.1804 33.9878 93.2173 30.2727 93.2173C26.5576 93.2173 23.5455 90.1804 23.5455 86.4347C23.5455 82.6881 26.5576 79.652 30.2727 79.652C31.4569 79.6586 32.6181 79.984 33.6364 80.5942V71.7665L13.4545 77.5424V93.2173C13.4545 96.963 10.4424 100 6.72727 100C3.01216 100 0 96.963 0 93.2173C0 89.4708 3.01216 86.4347 6.72727 86.4347C7.91144 86.4413 9.07262 86.7667 10.0909 87.3769V69.478C10.0909 68.7213 10.5886 68.0564 11.3104 67.8478ZM3.36364 93.2173C3.36364 95.0902 4.86972 96.6087 6.72727 96.6087C8.58483 96.6087 10.0909 95.0902 10.0909 93.2173C10.0909 91.3437 8.58483 89.826 6.72727 89.826C4.86972 89.826 3.36364 91.3437 3.36364 93.2173ZM13.4545 74.0169V70.7564L33.6364 64.9433V68.2435L13.4545 74.0169ZM26.9091 86.4343C26.9091 88.3072 28.4152 89.8256 30.2727 89.8256C32.1303 89.8256 33.6364 88.3072 33.6364 86.4343C33.6364 84.5606 32.1303 83.043 30.2727 83.043C28.4152 83.043 26.9091 84.5606 26.9091 86.4343Z" fill="#CAFD35"/>
</svg>
