<svg width="73" height="100" viewBox="0 0 73 100" fill="none" xmlns="http://www.w3.org/2000/svg">
<path fill-rule="evenodd" clip-rule="evenodd" d="M1.65903 77C2.57478 77 3.31807 76.2501 3.31807 75.3261V8.36964C3.31807 5.92899 5.87632 3.34789 8.29536 3.34789H64.7046C67.1237 3.34789 69.6819 5.92899 69.6819 8.36964C69.6819 9.29356 70.4252 10.0435 71.341 10.0435C72.2567 10.0435 73 9.29356 73 8.36964C73.0002 4.06761 68.9686 0 64.7048 0H8.29536C4.03161 0 0 4.06761 0 8.36964V75.3261C0 76.2501 0.743289 77 1.65903 77Z" fill="#CAFD35"/>
<path fill-rule="evenodd" clip-rule="evenodd" d="M71.3408 14H8.29532C7.37958 14 6.63629 14.7409 6.63629 15.6538C6.63629 16.5666 7.37958 17.3076 8.29532 17.3076H69.6816V91.7307C69.6816 94.1421 67.1233 96.6922 64.7043 96.6922H8.29532C5.87629 96.6922 3.31805 94.1421 3.31805 91.7307V83.4614H64.7043C65.62 83.4614 66.3633 82.7205 66.3633 81.8076C66.3633 80.8948 65.62 80.1538 64.7043 80.1538H1.65902C0.743285 80.1538 0 80.8948 0 81.8076V91.7307C0 95.9811 4.03159 100 8.29551 100H64.7045C68.9684 100 73 95.9811 73 91.7307V15.6538C72.9998 14.7409 72.2565 14 71.3408 14Z" fill="#CAFD35"/>
<path fill-rule="evenodd" clip-rule="evenodd" d="M36.4889 7C35.663 7 35 7.67204 35 8.5C35 9.32796 35.6779 10 36.5038 10C37.3312 10 38 9.32796 38 8.5C38 7.67204 37.3312 7 36.5038 7H36.4889Z" fill="#CAFD35"/>
<path fill-rule="evenodd" clip-rule="evenodd" d="M46.4984 23.4986C45.8339 24.1634 45.8339 25.2377 46.4984 25.9023L60.0978 39.502C60.4293 39.8335 60.8645 40 61.2996 40C61.7349 40 62.1699 39.8335 62.5014 39.502C63.1662 38.8372 63.1662 37.7628 62.5014 37.0983L48.9021 23.4986C48.2375 22.8338 47.1632 22.8338 46.4984 23.4986Z" fill="#CAFD35"/>
<path fill-rule="evenodd" clip-rule="evenodd" d="M33 90C33 91.6544 34.3454 93 36 93C37.6546 93 39 91.6546 39 90C39 88.3456 37.6546 87 36 87C34.3454 87 33 88.3456 33 90Z" fill="#CAFD35"/>
<path fill-rule="evenodd" clip-rule="evenodd" d="M60.4998 30C60.8838 30 61.2677 29.8531 61.5601 29.5606C62.1466 28.974 62.1466 28.0261 61.5601 27.4397L58.5605 24.4398C57.974 23.8534 57.0262 23.8534 56.4399 24.4398C55.8534 25.0263 55.8534 25.9743 56.4399 26.5607L59.4395 29.5606C59.7319 29.8531 60.1158 30 60.4998 30Z" fill="#CAFD35"/>
</svg>
