<svg width="103" height="103" viewBox="0 0 103 103" fill="none" xmlns="http://www.w3.org/2000/svg">
<path fill-rule="evenodd" clip-rule="evenodd" d="M77.7349 92.9852C77.1913 92.0409 75.9911 91.7193 75.0531 92.2672L74.9776 92.3111C74.0405 92.8592 73.7216 94.0695 74.2651 95.0144C74.6291 95.6467 75.2874 96 75.964 96C76.298 96 76.637 95.9136 76.9469 95.7324L77.0224 95.6885C77.9595 95.1404 78.2784 93.9301 77.7349 92.9852Z" fill="#CAFD35"/>
<path fill-rule="evenodd" clip-rule="evenodd" d="M64.835 1.77657C78.1192 5.33612 89.222 13.8556 96.0985 25.766C102.333 36.5645 104.438 49.2414 102.027 61.4605C99.6381 73.5628 93.0055 84.401 83.3508 91.9786C82.4765 92.6648 81.2124 92.5123 80.5266 91.6382C79.8404 90.7641 79.9929 89.4997 80.867 88.8139C94.2397 78.3179 100.566 61.627 98.553 45.492C98.2818 46.6485 97.7143 47.6918 96.8899 48.5164L95.5881 49.8182C95.2071 50.1996 94.6935 50.4074 94.1658 50.4074C94.0208 50.4074 93.8749 50.3917 93.7301 50.3598C93.0594 50.2109 92.5106 49.7297 92.2756 49.0835L89.5407 41.5631C89.4985 41.447 89.4367 41.3412 89.3568 41.2476L86.8786 38.3461C86.6835 38.1176 86.3992 37.9866 86.0988 37.9866H85.1383L85.2453 38.1474C85.7774 38.9454 85.672 40.0074 84.994 40.6856C82.3401 43.339 79.0761 45.4282 75.5546 46.727L74.0388 47.2858C73.0905 47.6367 72.0279 47.2267 71.5598 46.3295L66.354 36.3579C66.204 36.0705 66.1255 35.751 66.1255 35.4269V34.0171L63.3167 31.3361L60.3547 30.295C59.3066 29.9267 58.7556 28.7786 59.1239 27.7303C59.4921 26.6823 60.6399 26.1305 61.6887 26.4995L65.0593 27.684C65.3287 27.7787 65.5749 27.9296 65.7815 28.1268L69.5259 31.7014C69.9236 32.0806 70.1485 32.6067 70.1485 33.1563V34.9332L74.3068 42.8983C76.7208 41.9886 78.988 40.6397 80.9482 38.9541L80.6413 38.4932C80.044 37.5976 79.9885 36.4513 80.4964 35.5022C81.0044 34.5532 81.9885 33.9634 83.0654 33.9634H86.0988C87.5777 33.9634 88.9766 34.6081 89.9374 35.7329L92.4156 38.6344C92.8095 39.0953 93.1145 39.6181 93.3215 40.1883L94.7108 44.0089C94.7114 43.9928 94.7118 43.9768 94.712 43.9605C94.737 42.4696 95.3892 41.0451 96.5023 40.0519L97.355 39.2914C96.3103 35.3298 94.739 31.4564 92.6148 27.7771C84.6399 13.9642 70.7229 5.67469 55.938 4.26829L50.1517 11.5264C49.9157 11.8223 49.6011 12.0456 49.2442 12.1708L36.2277 16.7342L33.2758 23.8897L36.2762 28.0928C37.9216 25.4371 40.8573 23.7499 44.0632 23.7499H45.2069C46.3175 23.7499 47.2184 24.6507 47.2184 25.7614C47.2184 26.872 46.3175 27.7729 45.2069 27.7729H44.0632C41.9038 27.7729 39.9629 29.1385 39.2335 31.1709L39.184 31.3089C40.145 31.2011 41.1162 31.1661 41.9949 31.1349C42.5544 31.1152 43.0833 31.0965 43.5013 31.0615C44.2372 30.9989 47.9675 30.8128 49.0913 33.1899C49.2904 33.6111 49.4805 34.2857 49.2705 35.1262L49.3093 35.1521C49.9326 35.5675 50.9453 36.2425 51.6818 36.5959C51.8998 36.064 52.2722 35.7331 52.3979 35.6323C52.8739 35.2509 53.5148 34.9855 54.5422 34.7447C54.9257 34.6546 55.3276 34.6794 55.698 34.8162C56.1399 34.9793 56.81 35.1608 57.52 35.3529L57.5215 35.3533L57.5215 35.3533C59.632 35.9249 62.0237 36.5727 63.2926 37.9172C64.7044 39.4137 65.5338 41.5604 66.2656 43.4544L66.2659 43.4553C66.5425 44.1711 66.8039 44.8472 67.0654 45.4061C67.2094 45.7138 67.3516 46.0306 67.4956 46.3516L67.5033 46.3689L67.5034 46.3691C68.2399 48.0116 69.0013 49.7098 70.2459 50.5235C70.5277 50.7077 71.4124 50.8436 71.9992 50.9337L72.0017 50.9341C73.4876 51.1618 75.337 51.4455 76.0646 53.1333C76.8069 54.8546 75.6075 56.5912 75.2132 57.1623L75.213 57.1624C74.312 58.4668 73.1464 59.5523 72.019 60.6023C69.4183 63.0242 68.3426 64.2932 68.9576 66.2773C69.6885 68.6355 70.3785 70.8627 67.6991 73.7783C67.5407 73.9505 67.3933 74.1078 67.2549 74.2548L67.2531 74.2568C66.4597 75.1018 66.2198 75.3573 65.8897 76.3969C65.4552 77.7661 64.7842 78.5217 64.245 79.1289L64.2449 79.129L64.2443 79.1297L64.2435 79.1306C63.9758 79.4323 63.7642 79.6707 63.5845 79.9782C63.4674 80.1788 63.4058 80.4854 63.3279 80.8736L63.3279 80.8737L63.3272 80.877C63.1703 81.661 62.9552 82.7343 62.0821 83.8061C60.6921 85.5131 57.666 88.2056 54.7661 88.2058C54.1703 88.206 53.5804 88.0923 53.0105 87.8332C51.9224 87.3383 50.5665 86.1091 48.7577 80.7421C48.5332 80.075 48.1905 79.3204 47.8275 78.521L47.8267 78.5193C46.7082 76.0557 45.4404 73.2631 46.3499 70.4477C46.4024 70.2843 46.4547 70.125 46.506 69.9689C47.1047 68.1442 47.3779 67.3116 46.7504 65.808C46.6517 65.5712 46.331 65.2184 46.021 64.8774L46.0208 64.8772C45.3972 64.1908 44.621 63.3365 44.3207 62.1004C44.1332 61.3277 44.1374 60.6509 44.1412 60.107C44.1467 59.2522 44.1219 59.2045 43.8528 58.9524C43.2995 58.4346 42.7532 58.4773 41.0285 58.904C40.4031 59.0589 39.7567 59.2188 39.0635 59.3001C34.8083 59.8006 30.8215 58.0902 28.4032 54.7256C25.9022 51.2457 25.521 46.6023 27.4084 42.6072C28.2668 40.791 29.475 39.4313 30.6436 38.1166C30.8669 37.8655 31.0922 37.6121 31.3173 37.3525C31.5762 37.0545 31.9506 36.523 32.3472 35.9601L32.3475 35.9596C33.2522 34.6757 34.0096 33.6417 34.7878 32.9318L29.3545 25.321C28.952 24.7569 28.8681 24.0259 29.1322 23.3851L32.8523 14.367C33.0708 13.8371 33.5053 13.4255 34.0462 13.236L47.3668 8.56614L50.959 4.06008C43.0652 4.13833 35.0875 6.18366 27.7773 10.4043C25.7849 11.5544 23.9102 12.8306 22.152 14.2129C23.7754 15.2246 25.0734 16.7257 25.8165 18.5288C27.0762 21.5858 26.4325 25.1231 24.1768 27.5407L21.9693 29.9061L16.4928 39.4669C16.349 39.7179 16.1526 39.935 15.9172 40.1034L12.3843 42.6297L14.8508 46.2476C15.2373 46.8145 15.3083 47.5389 15.0391 48.1698C14.77 48.8005 14.198 49.2511 13.5215 49.3644C13.5048 49.3672 11.8166 49.6498 10.1195 49.9007C8.33005 50.165 7.24633 50.3109 6.51427 50.3111C5.71763 50.3111 5.33822 50.1381 4.91938 49.7566C4.77373 49.6239 4.64941 49.4706 4.54902 49.3034C4.46795 49.2193 4.33618 49.0912 4.1338 48.9027C4.0304 50.7269 4.03201 52.5608 4.14084 54.3953L9.26992 52.7292C9.89717 52.5256 10.5842 52.6421 11.109 53.0412L19.8697 59.702L24.4101 60.5892C26.1706 60.9334 27.7005 62.0183 28.608 63.5655C29.5155 65.113 29.7152 66.9776 29.1562 68.682C29.0075 69.1354 29.0067 69.6152 29.1541 70.069L29.7915 72.0303C30.8573 75.3122 29.0548 78.8496 25.7731 79.9158L24.9046 80.1979L23.1023 89.6057C35.7968 99.1345 52.7882 101.875 68.4836 95.8429C69.5203 95.4436 70.6843 95.9616 71.083 96.9986C71.4817 98.0357 70.9643 99.1994 69.9272 99.598C64.0307 101.864 57.7926 103 51.5432 103C45.7955 103 40.0389 102.04 34.5246 100.116C22.8917 96.0565 13.0882 87.937 6.92003 77.2533C0.0437789 65.3431 -1.78286 51.4676 1.77647 38.1836C5.3358 24.8996 13.8554 13.7964 25.7656 6.92015C37.676 0.0438685 51.5512 -1.78298 64.835 1.77657ZM17.8066 63.1877L9.51173 56.8808L4.56009 58.4895C5.40702 64.2342 7.32861 69.9156 10.4041 75.242C12.925 79.6085 16.0307 83.4348 19.5679 86.6722L21.1769 78.2735C21.3147 77.5537 21.8333 76.9654 22.5308 76.7389L24.5298 76.0893C25.7016 75.7085 26.3458 74.445 25.965 73.2729L25.3277 71.3119C24.9147 70.0411 24.9167 68.6979 25.3331 67.4278C25.5355 66.8101 25.4663 66.1613 25.1373 65.6006C24.8084 65.0397 24.2761 64.6623 23.638 64.5376L18.6385 63.5607C18.3363 63.5018 18.0519 63.3742 17.8066 63.1877ZM21.2354 24.7959L18.869 27.3313C18.7634 27.4446 18.6711 27.5697 18.594 27.7041L13.2203 37.086L8.44431 40.5011C7.55473 41.1372 7.33626 42.367 7.95225 43.2706L9.73845 45.8907C8.70885 46.044 7.78487 46.1703 7.17049 46.2373C7.0524 46.1241 6.92888 46.0092 6.80114 45.8905C6.32296 45.4463 5.65848 44.8531 4.66791 43.9862C6.30163 33.8747 11.174 24.3487 18.837 17.0774C20.3044 17.5394 21.5086 18.634 22.0968 20.0618C22.7587 21.6675 22.4203 23.5259 21.2354 24.7959ZM42.137 35.1559C40.6165 35.2099 38.5341 35.2837 37.637 35.7886C37.1966 36.0625 36.1827 37.5015 35.6375 38.2753L35.6367 38.2765C35.1802 38.9249 34.7485 39.5373 34.3562 39.9895C34.1302 40.2499 33.9042 40.5043 33.6801 40.7565L33.6511 40.7892C32.5817 41.9922 31.6581 43.0316 31.0468 44.3254C29.7838 46.999 30.023 50.0844 31.6708 52.3771C33.246 54.5691 35.7691 55.6353 38.5951 55.3042C39.0341 55.2526 39.5291 55.1303 40.0531 55.0009L40.0631 54.9984C41.7811 54.5735 44.377 53.9316 46.6032 56.0153C48.1821 57.4938 48.1717 59.0819 48.1649 60.1331V60.1333C48.1623 60.523 48.1601 60.8596 48.2309 61.1511C48.289 61.3901 48.6662 61.8053 48.9991 62.1716L49.0017 62.1744C49.5154 62.7402 50.0977 63.3815 50.4637 64.2586C51.6675 67.1434 51.0177 69.1247 50.3293 71.223C50.2798 71.3732 50.2295 71.5269 50.1786 71.6843C49.7477 73.0178 50.6335 74.9692 51.4903 76.8562L51.4906 76.857C51.8792 77.7128 52.2809 78.5976 52.5705 79.4576C53.7454 82.9445 54.5229 83.9522 54.7376 84.1823C54.9257 84.1936 55.4777 84.1115 56.4232 83.5112C57.4405 82.8648 58.4315 81.9177 58.9628 81.2655C59.1961 80.979 59.2637 80.6807 59.383 80.0862C59.5039 79.4821 59.6548 78.7301 60.1111 77.9492C60.4918 77.2974 60.9048 76.8324 61.2363 76.459L61.2364 76.4589C61.651 75.9922 61.8794 75.7351 62.0556 75.18C62.6623 73.269 63.3951 72.4888 64.3228 71.5012L64.323 71.501C64.452 71.3638 64.5896 71.2173 64.7372 71.0566C65.8205 69.8781 65.7891 69.6432 65.1154 67.4689C63.6881 62.8642 66.7874 59.9778 69.2777 57.6587L69.2794 57.6571C70.2562 56.7474 71.1807 55.8864 71.8301 54.9805C71.676 54.9551 71.5244 54.9318 71.392 54.9115L71.3904 54.9112C70.296 54.7433 69.0561 54.5531 68.0445 53.8917C65.8125 52.4328 64.7604 50.086 63.8321 48.0155L63.8012 47.9466C63.6742 47.6636 63.5488 47.3841 63.4216 47.1122C63.1011 46.4272 62.8154 45.6885 62.5131 44.9058L62.5122 44.9035C61.9139 43.3552 61.236 41.6009 60.3664 40.6789C59.8765 40.1599 57.6594 39.5596 56.4683 39.2371L56.4422 39.23C56.1049 39.1386 55.7758 39.0493 55.4622 38.9597C55.3198 39.2291 55.1282 39.4524 54.9239 39.6189C54.903 39.6382 54.8829 39.6589 54.8625 39.6799C54.8546 39.6881 54.8466 39.6963 54.8386 39.7044L54.8353 39.7078C54.4705 40.0792 53.6239 40.9414 52.106 40.8429C50.4319 40.7363 48.6497 39.5483 47.0775 38.5002L47.0775 38.5002C46.5215 38.1294 45.9962 37.7792 45.6189 37.5772C45.062 37.2793 44.6772 36.7372 44.5804 36.1129C44.5253 35.758 44.5665 35.4004 44.6935 35.0745C44.4092 35.0523 44.1078 35.0481 43.8365 35.0708C43.3223 35.1139 42.7465 35.1344 42.1372 35.1559L42.137 35.1559Z" fill="#CAFD35"/>
<path fill-rule="evenodd" clip-rule="evenodd" d="M81.9744 65.4975L82.9333 69.1512C83.0274 69.5091 83.0218 69.8863 82.9175 70.2415L80.5732 78.2285C79.3243 82.483 77.796 84.6208 75.763 84.9567C75.5982 84.9839 75.42 85.0006 75.2316 85C74.2668 85 73.025 84.563 71.8441 82.8632C70.189 80.4815 71.3693 77.6799 72.0038 76.175L72.0237 76.128C72.1829 75.75 72.1626 75.5417 72.0747 74.9407C71.9731 74.2476 71.8339 73.2982 72.2067 72.0981C72.807 70.1635 74.3786 69.3968 75.526 68.8371C76.006 68.603 76.5027 68.3606 76.696 68.1358C77.0402 67.7354 77.3711 67.0101 77.691 66.3087C77.8811 65.8918 78.0778 65.4607 78.2963 65.0537C78.6859 64.3281 79.473 63.9179 80.2846 64.0138C81.0952 64.1117 81.7649 64.6996 81.9744 65.4975ZM75.2272 80.7128C75.5523 80.2638 76.1156 79.2512 76.7522 77.082L78.2604 71.9434C77.9165 72.1445 77.5757 72.3109 77.2658 72.4622L77.2584 72.4658C76.5549 72.8091 76.0879 73.0529 76.0097 73.3042C75.9147 73.6098 75.9418 73.8323 76.0177 74.3499L76.018 74.3516C76.1361 75.1598 76.2979 76.2662 75.6908 77.7066L75.6707 77.7538L75.6706 77.7541C75.2939 78.648 74.7248 79.9986 75.1057 80.5469C75.1491 80.6096 75.1898 80.6644 75.2272 80.7128Z" fill="#CAFD35"/>
<path fill-rule="evenodd" clip-rule="evenodd" d="M53.7055 24.1583L53.5749 24.1116C52.5677 23.7511 51.4632 24.2925 51.1096 25.3224C50.756 26.3526 51.2865 27.4802 52.2945 27.8415L52.4249 27.8881C52.6367 27.964 52.8526 28 53.0652 28C53.8637 28 54.6111 27.4907 54.8904 26.6773C55.244 25.6472 54.7135 24.5194 53.7055 24.1583Z" fill="#CAFD35"/>
</svg>
