<svg width="103" height="102" viewBox="0 0 103 102" fill="none" xmlns="http://www.w3.org/2000/svg">
<path fill-rule="evenodd" clip-rule="evenodd" d="M75.0927 29.158C84.0806 30.4767 91.6203 36.5508 94.7435 44.9901V44.9917C100.313 58.2091 103.119 72.404 102.993 86.7216C103.115 91.2548 101.69 95.6972 98.9487 99.3321C97.6695 100.993 95.6864 101.977 93.5752 101.999H93.484C91.3296 101.996 89.293 101.024 87.9486 99.3593L77.761 85.7542C75.8132 83.1628 72.7418 81.6336 69.4764 81.6297H33.5243C30.2643 81.639 27.1993 83.1674 25.2538 85.7542L15.1118 99.3034C13.7525 101.038 11.6444 102.038 9.42552 101.999C7.31509 101.978 5.33193 100.994 4.05278 99.3344C1.31063 95.6987 -0.113882 91.2556 0.00711874 86.7216C-0.118596 72.4047 2.6872 58.2098 8.25638 44.9932C10.1845 40.0816 13.5725 35.8631 17.9734 32.894C20.9944 30.9965 24.3746 29.726 27.908 29.1596C30.7153 28.6833 33.6005 29.2979 35.9616 30.8753C37.3586 31.8062 38.9897 32.3353 40.6728 32.4029H62.3272C64.0102 32.3353 65.6405 31.8062 67.0375 30.8753C69.397 29.2956 72.2838 28.6802 75.0927 29.158ZM96.2254 97.2663C98.5001 94.2203 99.6747 90.5069 99.56 86.7212C99.6881 72.8682 96.9789 59.1325 91.5959 46.3425C89.9522 42.0517 87.0223 38.36 83.1974 35.7624C80.566 34.1104 77.6227 33.0047 74.5466 32.5097C72.6106 32.1709 70.6165 32.5859 68.9838 33.6691C67.0163 34.9939 64.7063 35.7329 62.3271 35.7974H40.6728C38.2944 35.7337 35.9844 34.9947 34.0185 33.6691C32.3842 32.5867 30.3901 32.1709 28.4533 32.5097C25.3772 33.0047 22.4347 34.1104 19.8025 35.7624C15.9776 38.36 13.0469 42.0525 11.404 46.3441C6.021 59.1333 3.31185 72.869 3.43992 86.7212C3.3252 90.5069 4.50064 94.2203 6.77686 97.2663C7.4133 98.104 8.41037 98.5989 9.46952 98.6036H9.51431C10.6355 98.6005 11.6939 98.0931 12.3916 97.2251L22.4928 83.7342C25.0865 80.2827 29.1753 78.2445 33.5243 78.2344H69.4764C73.8246 78.2445 77.9134 80.2827 80.5079 83.7342L90.6554 97.2811C91.339 98.1584 92.4115 98.6518 93.5304 98.6036C94.5903 98.5989 95.5874 98.104 96.2254 97.2663Z" fill="#CAFD35"/>
<path fill-rule="evenodd" clip-rule="evenodd" d="M91.3132 60.0522C90.3819 60.2825 89.8178 61.2071 90.0536 62.1176C91.1897 66.5139 92.0175 70.9818 92.5298 75.4886C92.6286 76.3486 93.3727 76.9992 94.2587 77C94.324 77 94.3901 76.9969 94.4555 76.9899C95.406 76.8848 96.0919 76.0498 95.99 75.1198C95.4593 70.4581 94.6037 65.8376 93.4301 61.2896C93.3186 60.8506 93.0325 60.4732 92.635 60.2413C92.2382 60.0094 91.7626 59.9409 91.3132 60.0522Z" fill="#CAFD35"/>
<path fill-rule="evenodd" clip-rule="evenodd" d="M11.6893 61.045C10.7775 60.8308 9.86648 61.402 9.65194 62.3225C8.99278 65.1545 8.44477 68.0854 8.01802 71.039C7.88277 71.9744 8.52328 72.8446 9.44984 72.9827C9.53223 72.9945 9.61463 73 9.6978 73C10.5404 72.9984 11.254 72.3746 11.3752 71.5326C11.788 68.6771 12.3181 65.8419 12.9547 63.1072C13.0581 62.6646 12.9827 62.1985 12.7456 61.8117C12.5086 61.4248 12.1285 61.1494 11.6893 61.045Z" fill="#CAFD35"/>
<path fill-rule="evenodd" clip-rule="evenodd" d="M9.31991 77.0053C8.31792 76.9316 7.44181 77.6359 7.36262 78.5788C7.12254 81.4606 7 84.3926 7 87.2861C7 88.2329 7.81526 89 8.82142 89C9.82674 89 10.642 88.2329 10.642 87.2861C10.642 84.4812 10.7604 81.6441 10.9938 78.8541C11.0338 78.3999 10.8796 77.9497 10.5653 77.603C10.251 77.2555 9.8034 77.0406 9.31991 77.0053Z" fill="#CAFD35"/>
<path fill-rule="evenodd" clip-rule="evenodd" d="M25.5 38C30.1947 38 34 41.8054 34 46.5004C33.9946 51.1922 30.1924 54.9946 25.5 55C20.8061 55 17 51.1946 17 46.5004C17 41.8054 20.8061 38 25.5 38ZM20.4006 46.5008C20.4006 49.3171 22.6838 51.6004 25.5 51.6004C28.317 51.6004 30.6002 49.3171 30.6002 46.5008C30.6002 43.6837 28.317 41.4004 25.5 41.4004C22.6838 41.4004 20.4006 43.6837 20.4006 46.5008Z" fill="#CAFD35"/>
<path fill-rule="evenodd" clip-rule="evenodd" d="M37.5 58C32.8053 58 29 61.8061 29 66.5C29 71.1939 32.8053 75 37.5 75C42.1939 75 46 71.1939 46 66.5C45.9938 61.8084 42.1916 58.0062 37.5 58ZM42.2866 64.8005H39.1995V61.7127C40.6399 62.227 41.773 63.3601 42.2866 64.8005ZM35.7997 64.8005V61.7127C34.3601 62.227 33.227 63.3601 32.7127 64.8005H35.7997ZM32.7127 68.2003H35.7997V71.2873C34.3601 70.773 33.227 69.6399 32.7127 68.2003ZM39.1995 68.2003V71.2873C40.6399 70.773 41.773 69.6399 42.2866 68.2003H39.1995Z" fill="#CAFD35"/>
<path fill-rule="evenodd" clip-rule="evenodd" d="M57 66.5C57 61.8061 60.8054 58 65.4996 58C70.1922 58.0062 73.9946 61.8084 74 66.5C74 71.1939 70.1946 75 65.4996 75C60.8054 75 57 71.1939 57 66.5ZM60.4 66.4996C60.4 69.3166 62.6833 71.5997 65.4996 71.5997C68.3167 71.5997 70.6 69.3166 70.6 66.4996C70.6 63.6834 68.3167 61.3994 65.4996 61.3994C62.6833 61.3994 60.4 63.6834 60.4 66.4996Z" fill="#CAFD35"/>
<path fill-rule="evenodd" clip-rule="evenodd" d="M67 66.9995C67 68.1046 66.1046 69 64.9995 69C63.8954 69 63 68.1046 63 66.9995C63 65.8954 63.8954 65 64.9995 65C66.1046 65 67 65.8954 67 66.9995Z" fill="#CAFD35"/>
<path fill-rule="evenodd" clip-rule="evenodd" d="M47 46.0005C47 47.1046 46.1039 48 45 48C43.8961 48 43 47.1046 43 46.0005C43 44.8954 43.8961 44 45 44C46.1039 44 47 44.8954 47 46.0005Z" fill="#CAFD35"/>
<path fill-rule="evenodd" clip-rule="evenodd" d="M60 46.0005C60 47.1046 59.1046 48 57.9995 48C56.8954 48 56 47.1046 56 46.0005C56 44.8954 56.8954 44 57.9995 44C59.1046 44 60 44.8954 60 46.0005Z" fill="#CAFD35"/>
<path fill-rule="evenodd" clip-rule="evenodd" d="M53 24.0005C53 25.1046 52.1046 26 50.9995 26C49.8954 26 49 25.1046 49 24.0005C49 22.8954 49.8954 22 50.9995 22C52.1046 22 53 22.8954 53 24.0005Z" fill="#CAFD35"/>
<path fill-rule="evenodd" clip-rule="evenodd" d="M38.8397 7.6122C45.887 1.93476 56.1122 1.93476 63.1603 7.6122C63.8955 8.20474 64.9881 8.10726 65.5997 7.39499C66.2113 6.68272 66.1107 5.62429 65.3755 5.03176C57.0423 -1.67725 44.9568 -1.67725 36.6236 5.03176C35.8892 5.62429 35.7886 6.68195 36.401 7.39423C37.0127 8.1065 38.1044 8.20321 38.8397 7.61067V7.6122Z" fill="#CAFD35"/>
<path fill-rule="evenodd" clip-rule="evenodd" d="M61.2477 14.9997C61.945 14.9997 62.5765 14.5845 62.855 13.9424C63.1326 13.3011 63.005 12.5552 62.5292 12.0435C59.5529 8.82734 55.3755 7 50.9998 7C46.6249 7 42.4474 8.82734 39.4704 12.0435C38.8108 12.7532 38.8493 13.866 39.5579 14.5282C40.2656 15.1896 41.3754 15.151 42.035 14.4413C44.3484 11.9389 47.5975 10.5163 50.9998 10.5163C54.4029 10.5163 57.6512 11.9389 59.9646 14.4413C60.296 14.7978 60.7614 15.0005 61.2477 14.9997Z" fill="#CAFD35"/>
<path fill-rule="evenodd" clip-rule="evenodd" d="M55.8959 20.2213C56.2109 20.7083 56.7399 21.0007 57.3077 20.9999C57.6412 20.9999 57.967 20.8982 58.2447 20.7059C59.0235 20.17 59.2345 19.0829 58.7155 18.2786C57.0967 15.7584 54.4237 14.173 51.5001 14C48.5774 14.173 45.9036 15.7584 44.2847 18.2786C43.7658 19.0829 43.976 20.1692 44.754 20.7059C45.5328 21.2419 46.5854 21.0248 47.1043 20.2213C48.1026 18.6808 49.7145 17.6826 51.5001 17.5C53.2858 17.6826 54.8984 18.6808 55.8959 20.2213Z" fill="#CAFD35"/>
<path fill-rule="evenodd" clip-rule="evenodd" d="M74 47.9995C74 49.1046 73.1046 50 72.0005 50C70.8954 50 70 49.1046 70 47.9995C70 46.8954 70.8954 46 72.0005 46C73.1046 46 74 46.8954 74 47.9995Z" fill="#CAFD35"/>
<path fill-rule="evenodd" clip-rule="evenodd" d="M81 54.9995C81 56.1046 80.1046 57 79.0005 57C77.8954 57 77 56.1046 77 54.9995C77 53.8954 77.8954 53 79.0005 53C80.1046 53 81 53.8954 81 54.9995Z" fill="#CAFD35"/>
<path fill-rule="evenodd" clip-rule="evenodd" d="M88 47.9995C88 49.1046 87.1046 50 86.0005 50C84.8954 50 84 49.1046 84 47.9995C84 46.8954 84.8954 46 86.0005 46C87.1046 46 88 46.8954 88 47.9995Z" fill="#CAFD35"/>
<path fill-rule="evenodd" clip-rule="evenodd" d="M81 40.9995C81 42.1046 80.1046 43 79.0005 43C77.8954 43 77 42.1046 77 40.9995C77 39.8954 77.8954 39 79.0005 39C80.1046 39 81 39.8954 81 40.9995Z" fill="#CAFD35"/>
</svg>
