<svg width="56" height="56" viewBox="0 0 56 56" fill="none" xmlns="http://www.w3.org/2000/svg">
<path fill-rule="evenodd" clip-rule="evenodd" d="M9.1137 10.2922C9.26751 10.4491 9.47884 10.5367 9.69873 10.5343C9.81011 10.5367 9.92108 10.5171 10.0247 10.476C10.2254 10.3868 10.3862 10.2262 10.4759 10.0254C10.5167 9.92187 10.5367 9.81146 10.5343 9.69982C10.5363 9.48062 10.449 9.26956 10.2919 9.11596C10.2156 9.03814 10.1247 8.9758 10.0247 8.9322C9.87008 8.87476 9.70322 8.85724 9.54003 8.88209C9.48985 8.89879 9.43151 8.9155 9.38133 8.9322C9.33115 8.94891 9.28097 8.98232 9.23895 9.00758C9.15042 9.07359 9.07168 9.15263 9.00518 9.24104C8.9803 9.2826 8.955 9.33272 8.93012 9.38283C8.90482 9.43295 8.89666 9.49121 8.87994 9.54133C8.873 9.59389 8.87015 9.64685 8.87137 9.69982C8.86892 9.81146 8.88891 9.92187 8.93012 10.0254C8.97336 10.1256 9.03578 10.216 9.1137 10.2922Z" fill="#CAFD35"/>
<path fill-rule="evenodd" clip-rule="evenodd" d="M7.4577 10.7704C7.21327 11.0053 7.14019 11.3686 7.27458 11.6806C7.31478 11.7821 7.37731 11.8735 7.4577 11.9477C7.612 12.1088 7.82516 12.1993 8.04808 12.1985C8.15649 12.1965 8.26368 12.1736 8.36397 12.1316C8.46507 12.0913 8.55603 12.0285 8.62992 11.9477C8.70748 11.8715 8.7696 11.7805 8.81304 11.6806C8.93445 11.3674 8.86299 11.0118 8.62992 10.7704C8.30144 10.4568 7.78618 10.4568 7.4577 10.7704Z" fill="#CAFD35"/>
<path fill-rule="evenodd" clip-rule="evenodd" d="M6.96699 12.4447C6.81349 12.2866 6.60193 12.1973 6.38102 12.1973C6.15972 12.1973 5.94815 12.2866 5.79466 12.4447C5.71222 12.5199 5.64969 12.6137 5.61152 12.718C5.56888 12.8175 5.54655 12.9246 5.54492 13.0326C5.54736 13.2537 5.6371 13.4648 5.79466 13.6205C5.9514 13.7709 6.15931 13.8566 6.37656 13.8606C6.59706 13.859 6.80862 13.7733 6.96699 13.6205C7.12211 13.464 7.20901 13.2525 7.20819 13.0326C7.20982 12.925 7.19033 12.8183 7.15013 12.718C7.10911 12.6153 7.04658 12.5223 6.96699 12.4447Z" fill="#CAFD35"/>
<path fill-rule="evenodd" clip-rule="evenodd" d="M9.70273 13.8606C9.81399 13.8594 9.92404 13.8372 10.0272 13.7947C10.1263 13.7543 10.2168 13.6953 10.2932 13.6205C10.4483 13.464 10.5348 13.2525 10.5344 13.0326C10.536 12.925 10.5161 12.8183 10.4763 12.718C10.4349 12.6153 10.3728 12.5223 10.2932 12.4447C10.1393 12.2866 9.9277 12.1973 9.70679 12.1973C9.48589 12.1973 9.27432 12.2866 9.12042 12.4447C9.04083 12.5223 8.9787 12.6153 8.93769 12.718C8.89505 12.8175 8.87231 12.9246 8.87109 13.0326C8.87434 13.4887 9.24468 13.8578 9.70273 13.8606Z" fill="#CAFD35"/>
<path fill-rule="evenodd" clip-rule="evenodd" d="M8.63008 14.6476C8.29994 14.3388 7.78789 14.3388 7.45776 14.6476C7.37532 14.7234 7.31279 14.8179 7.27462 14.923C7.23198 15.0232 7.20924 15.1312 7.20802 15.24C7.20599 15.5789 7.40862 15.8853 7.72089 16.0156C8.03275 16.1456 8.39212 16.0731 8.63008 15.8323C8.7852 15.6747 8.87209 15.4616 8.87128 15.24C8.87291 15.1316 8.85301 15.0236 8.81321 14.923C8.7722 14.8195 8.70967 14.7254 8.63008 14.6476Z" fill="#CAFD35"/>
<path fill-rule="evenodd" clip-rule="evenodd" d="M11.9206 8.31757C12.0286 8.3192 12.1362 8.29922 12.2365 8.25886C12.3364 8.21564 12.4266 8.15325 12.5029 8.07538C12.5829 8.00117 12.6454 7.90983 12.6856 7.8079C12.7275 7.7076 12.7502 7.59995 12.7522 7.49068C12.753 7.26724 12.6629 7.05318 12.5029 6.89783C12.429 6.81751 12.338 6.75472 12.2365 6.71394C11.9251 6.5904 11.5698 6.66216 11.3302 6.89783C11.1722 7.054 11.0853 7.26846 11.089 7.49068C11.089 7.71127 11.1771 7.92288 11.333 8.07823C11.4894 8.23358 11.7009 8.31961 11.9206 8.31757Z" fill="#CAFD35"/>
<path fill-rule="evenodd" clip-rule="evenodd" d="M13.8225 6.04047C13.9228 6.08046 14.0304 6.10045 14.1384 6.09882C14.3593 6.09923 14.5717 6.01232 14.7288 5.85645C14.8819 5.69691 14.9684 5.48473 14.97 5.26317C14.9655 5.04447 14.8795 4.83556 14.7288 4.67806C14.4884 4.44385 14.1343 4.37204 13.8225 4.49444C13.7173 4.53239 13.6235 4.59564 13.548 4.67806C13.4704 4.75477 13.4083 4.84535 13.3648 4.94573C13.325 5.04651 13.3052 5.15464 13.3068 5.26317C13.3027 5.48555 13.39 5.70018 13.548 5.85645C13.6255 5.93642 13.7189 5.99885 13.8225 6.04047Z" fill="#CAFD35"/>
<path fill-rule="evenodd" clip-rule="evenodd" d="M6.96646 4.67321C6.72575 4.44005 6.37057 4.37169 6.06044 4.49824C5.8518 4.57393 5.68699 4.73872 5.61149 4.94828C5.56887 5.04838 5.54655 5.1558 5.54492 5.26485C5.54655 5.4858 5.63301 5.6974 5.78604 5.8565C5.86885 5.92974 5.96099 5.99159 6.06044 6.04001C6.16111 6.07989 6.26827 6.09983 6.37625 6.0982C6.43227 6.10105 6.48828 6.09535 6.54268 6.08152C6.59342 6.07134 6.64375 6.05751 6.69246 6.04001C6.74401 6.01519 6.79394 5.98752 6.84184 5.9566C6.88568 5.92567 6.92708 5.8923 6.96646 5.8565C7.00259 5.81703 7.03587 5.77512 7.06632 5.73158C7.09717 5.68315 7.12517 5.6331 7.14953 5.58143C7.16739 5.5326 7.18119 5.48255 7.19093 5.43128C7.20473 5.37716 7.21042 5.32101 7.20758 5.26485C7.2092 5.15662 7.18972 5.04879 7.14953 4.94828C7.10122 4.84859 7.03993 4.75622 6.96646 4.67321Z" fill="#CAFD35"/>
<path fill-rule="evenodd" clip-rule="evenodd" d="M8.62954 3.01275L8.50493 2.91287C8.41359 2.85359 8.31211 2.81136 8.20576 2.78822C8.0438 2.75452 7.87534 2.77198 7.72353 2.83816C7.62408 2.87836 7.53396 2.93764 7.45765 3.01275C7.30178 3.17028 7.21247 3.38182 7.20801 3.60309C7.20963 3.65872 7.21491 3.71434 7.22465 3.76956L7.27458 3.91897C7.29609 3.97054 7.32126 4.02048 7.34927 4.06879C7.38296 4.11224 7.41909 4.15406 7.45765 4.19344C7.53396 4.26855 7.62408 4.32783 7.72353 4.36803C7.82217 4.41472 7.93014 4.43746 8.03933 4.43461C8.09495 4.4334 8.15056 4.42771 8.20576 4.41797C8.31211 4.39482 8.41359 4.3526 8.50493 4.29332C8.54836 4.26246 8.59017 4.22917 8.62954 4.19344C8.6677 4.15609 8.70139 4.11427 8.7294 4.06879C8.76025 4.02088 8.78785 3.97054 8.81262 3.91897C8.83007 3.87025 8.84428 3.82031 8.85402 3.76956C8.86782 3.71515 8.8735 3.65912 8.87066 3.60309C8.87229 3.49509 8.8524 3.3875 8.81262 3.28721C8.76715 3.18612 8.70545 3.09355 8.62954 3.01275Z" fill="#CAFD35"/>
<path fill-rule="evenodd" clip-rule="evenodd" d="M4.74909 6.90387C4.7093 6.86572 4.66788 6.8296 4.62403 6.79591C4.57612 6.7675 4.52618 6.74275 4.47461 6.72083L4.32478 6.67131C4.16277 6.63722 3.99427 6.65467 3.84241 6.72083C3.73968 6.76304 3.64629 6.82514 3.56833 6.90387C3.41729 7.06054 3.33121 7.26834 3.32715 7.48588C3.32837 7.54148 3.33405 7.59709 3.3438 7.65188C3.36694 7.75862 3.40917 7.85968 3.46845 7.95141L3.56833 8.07601C3.64873 8.1519 3.74131 8.21359 3.84241 8.25865C3.94311 8.29883 4.0503 8.31871 4.15871 8.31709C4.21434 8.31952 4.27037 8.31425 4.32478 8.30045C4.37594 8.2903 4.42589 8.2765 4.47461 8.25865C4.52618 8.23429 4.57612 8.20669 4.62403 8.17544C4.66991 8.14744 4.71174 8.11416 4.74909 8.07601C4.78482 8.03623 4.81812 7.99483 4.84857 7.95141C4.90826 7.85968 4.95049 7.75862 4.97363 7.65188C4.98297 7.59709 4.98865 7.54148 4.99028 7.48588C4.99312 7.3767 4.97038 7.26834 4.92369 7.16971C4.88308 7.07068 4.8238 6.98018 4.74909 6.90387Z" fill="#CAFD35"/>
<path fill-rule="evenodd" clip-rule="evenodd" d="M8.62954 6.90364C8.59017 6.86549 8.54836 6.82936 8.50493 6.79567C8.45946 6.76725 8.41238 6.74249 8.36367 6.72057C8.31374 6.70433 8.25569 6.68769 8.20576 6.67105C8.0438 6.63735 7.87534 6.65481 7.72353 6.72057C7.52341 6.80987 7.36348 6.96981 7.27458 7.16953C7.23196 7.26979 7.20923 7.37696 7.20801 7.48575C7.20963 7.54136 7.21491 7.59697 7.22465 7.65177C7.24129 7.7017 7.25794 7.75975 7.27458 7.80968C7.29609 7.8588 7.32126 7.90588 7.34927 7.95135C7.38296 7.99478 7.41909 8.03619 7.45765 8.07597C7.53356 8.1535 7.62367 8.21561 7.72353 8.25864C7.82379 8.29882 7.93136 8.31871 8.03933 8.31709C8.09535 8.31953 8.15137 8.31425 8.20576 8.30045C8.25934 8.2903 8.31211 8.2765 8.36367 8.25864C8.41238 8.23428 8.45987 8.20627 8.50493 8.17542C8.59545 8.11818 8.67217 8.04187 8.7294 7.95135C8.76025 7.90588 8.78785 7.8588 8.81262 7.80968C8.83007 7.75812 8.84428 7.70535 8.85402 7.65177C8.86782 7.59738 8.8735 7.54136 8.87066 7.48575C8.87229 7.37736 8.8524 7.2702 8.81262 7.16953C8.76918 7.07007 8.70708 6.97955 8.62954 6.90364Z" fill="#CAFD35"/>
<path fill-rule="evenodd" clip-rule="evenodd" d="M8.9301 5.59115C8.95498 5.64068 8.98026 5.68249 9.00514 5.73243C9.03899 5.77586 9.07529 5.81768 9.11363 5.85706C9.14952 5.89725 9.19194 5.93094 9.23884 5.95693C9.28329 5.9894 9.33101 6.01741 9.38117 6.04015C9.43297 6.0576 9.48599 6.07141 9.53983 6.08156C9.59162 6.09536 9.64505 6.10104 9.69848 6.0982C9.92075 6.10023 10.1345 6.01335 10.2915 5.85706C10.4501 5.70157 10.5374 5.48804 10.5337 5.26678C10.5366 5.2136 10.5309 5.16042 10.517 5.10886C10.5081 5.05487 10.4942 5.00209 10.4754 4.95094C10.4297 4.84986 10.3678 4.75689 10.2915 4.67651C10.2148 4.60141 10.1239 4.54214 10.0243 4.50195C9.87181 4.43618 9.70256 4.41872 9.53983 4.45201C9.48477 4.46094 9.43134 4.47759 9.38117 4.50195C9.32979 4.51818 9.28166 4.54376 9.23884 4.57664C9.19724 4.60993 9.14707 4.64322 9.11363 4.67651C8.95783 4.83362 8.87096 5.04594 8.87137 5.26678C8.87015 5.3224 8.873 5.37802 8.87993 5.43282C8.89666 5.48276 8.91338 5.54122 8.9301 5.59115Z" fill="#CAFD35"/>
<path fill-rule="evenodd" clip-rule="evenodd" d="M11.3302 4.19307C11.3659 4.23325 11.4081 4.26694 11.4548 4.29291C11.5003 4.32375 11.5474 4.35135 11.5961 4.3761C11.6477 4.39356 11.7005 4.40776 11.7545 4.4175C11.8085 4.4313 11.8646 4.43698 11.9206 4.43414C12.1395 4.43617 12.3498 4.34932 12.5029 4.19307C12.5849 4.11759 12.6479 4.02384 12.6856 3.91873C12.7283 3.8189 12.751 3.71176 12.7522 3.60299C12.7498 3.38141 12.6601 3.16916 12.5029 3.01291C12.4262 2.93783 12.336 2.87858 12.2365 2.8384C12.0851 2.77185 11.9165 2.75439 11.7545 2.78848C11.6477 2.81162 11.5462 2.85382 11.4548 2.91308C11.4134 2.94635 11.3635 2.97963 11.3302 3.01291C11.175 3.16997 11.0886 3.38222 11.089 3.60299C11.0873 3.71094 11.1072 3.81849 11.147 3.91873C11.1884 4.02222 11.2506 4.11556 11.3302 4.19307Z" fill="#CAFD35"/>
<path fill-rule="evenodd" clip-rule="evenodd" d="M7.14953 9.38394C7.1268 9.3339 7.09879 9.2867 7.06632 9.24235C7.04034 9.19516 7.00664 9.15284 6.96646 9.11744C6.92708 9.07879 6.88568 9.04258 6.84184 9.00922C6.79191 8.98399 6.75051 8.95917 6.70058 8.93395C6.65065 8.90913 6.5926 8.90058 6.54268 8.8839C6.26787 8.8363 5.98697 8.92296 5.78604 9.11744C5.75275 9.15081 5.71947 9.20085 5.68659 9.24235C5.6533 9.28467 5.62814 9.33268 5.61149 9.38394C5.58754 9.43399 5.5709 9.48729 5.56156 9.54221C5.55223 9.5947 5.54655 9.64759 5.54492 9.70048C5.54533 9.81237 5.56806 9.92263 5.61149 10.0256C5.65168 10.1253 5.71135 10.2156 5.78604 10.2921C5.86682 10.3682 5.95937 10.4304 6.06044 10.4756C6.11159 10.4943 6.16476 10.5081 6.21835 10.5171C6.2699 10.5309 6.32307 10.5366 6.37625 10.5337C6.59788 10.5378 6.8114 10.4503 6.96646 10.2921C7.12314 10.1354 7.21001 9.92223 7.20758 9.70048C7.21042 9.64718 7.20473 9.59388 7.19093 9.54221C7.18119 9.48851 7.16739 9.43561 7.14953 9.38394Z" fill="#CAFD35"/>
<path fill-rule="evenodd" clip-rule="evenodd" d="M4.93148 11.0434C4.90713 10.9947 4.87912 10.9473 4.84826 10.9022C4.82269 10.8552 4.78899 10.813 4.7488 10.7777C4.67086 10.6981 4.57749 10.6357 4.47438 10.5947C4.1626 10.4713 3.80739 10.5432 3.56829 10.7777C3.535 10.8105 3.50171 10.8604 3.46842 10.9022C3.40915 10.9935 3.36693 11.0949 3.34379 11.2012C3.33405 11.256 3.32837 11.3116 3.32715 11.3676C3.33121 11.5847 3.41727 11.7924 3.56829 11.949C3.72458 12.1064 3.93649 12.1961 4.15854 12.1985C4.26693 12.1969 4.37451 12.1746 4.47438 12.132C4.57911 12.0938 4.6733 12.0314 4.7488 11.949C4.90469 11.796 4.99197 11.5859 4.98994 11.3676C4.99238 11.3116 4.9871 11.2556 4.9733 11.2012C4.96315 11.1477 4.94935 11.0949 4.93148 11.0434Z" fill="#CAFD35"/>
<path fill-rule="evenodd" clip-rule="evenodd" d="M11.9209 12.1985C12.0297 12.1969 12.1369 12.1746 12.2367 12.1319C12.4368 12.0425 12.5968 11.8825 12.6857 11.6827C12.7283 11.5827 12.751 11.4751 12.7522 11.3666C12.753 11.1436 12.6629 10.9304 12.503 10.776C12.3065 10.5811 12.026 10.497 11.7549 10.5514C11.7009 10.5612 11.6481 10.575 11.5966 10.5928C11.5471 10.6176 11.5052 10.6428 11.4553 10.6676C11.3672 10.7338 11.2889 10.8122 11.2227 10.9007C11.1976 10.9507 11.1728 10.9921 11.1476 11.0421C11.1302 11.0937 11.1164 11.1465 11.1062 11.2001C11.0924 11.2545 11.0867 11.3106 11.0896 11.3666C11.0875 11.5852 11.1744 11.7956 11.3307 11.9487C11.4854 12.1092 11.6985 12.1993 11.9209 12.1985Z" fill="#CAFD35"/>
<path fill-rule="evenodd" clip-rule="evenodd" d="M13.548 10.292C13.6256 10.372 13.719 10.4348 13.8225 10.476C13.9228 10.5164 14.0304 10.536 14.1384 10.5344C14.3593 10.5352 14.5717 10.4483 14.7288 10.292C14.8039 10.2153 14.8632 10.1247 14.9034 10.0247C14.9461 9.9215 14.9688 9.81092 14.97 9.69871C14.9684 9.48001 14.8819 9.26987 14.7288 9.114C14.4884 8.87938 14.1344 8.80757 13.8225 8.92998C13.719 8.97119 13.6256 9.03403 13.548 9.114C13.3917 9.26783 13.3048 9.47919 13.3068 9.69871C13.3044 9.81051 13.3243 9.92109 13.3649 10.0247C13.4084 10.1251 13.4705 10.2157 13.548 10.292Z" fill="#CAFD35"/>
<path fill-rule="evenodd" clip-rule="evenodd" d="M15.4876 8.25882C15.5885 8.29921 15.6959 8.3192 15.8045 8.31757C16.1393 8.31594 16.4408 8.11357 16.5697 7.8039C16.6987 7.49382 16.6303 7.13682 16.396 6.89692C16.1552 6.66272 15.8004 6.59092 15.4876 6.71291C15.3826 6.75126 15.2882 6.8145 15.213 6.89692C14.8899 7.22291 14.8899 7.74923 15.213 8.07522C15.2907 8.15519 15.3842 8.21761 15.4876 8.25882Z" fill="#CAFD35"/>
<path fill-rule="evenodd" clip-rule="evenodd" d="M55.4709 53.6869L51.2128 51.5783C49.6244 50.7993 48.6201 49.1815 48.6269 47.4124V46.6761C48.6247 44.3392 47.3735 42.182 45.3463 41.0208L40.3226 38.1518C40.7088 37.1286 40.4619 35.9742 39.6904 35.1989L39.0129 34.5212C39.8765 33.458 39.837 31.9241 38.9203 30.9068L23.2278 13.5419L24.5747 12.1946C24.749 12.0202 24.847 11.7837 24.847 11.5368C24.847 11.2903 24.749 11.0538 24.5747 10.8795L21.9462 8.25019C21.772 8.07587 21.5355 7.97782 21.2891 7.97782C21.1094 7.98281 20.9347 8.04137 20.7881 8.14578C19.7489 3.1428 15.1771 -0.324919 10.0808 0.0241686C4.98443 0.372802 0.927319 4.43066 0.578789 9.52896C0.230259 14.6268 3.69695 19.1999 8.69845 20.2394C8.59407 20.3861 8.53553 20.5604 8.53009 20.7406C8.53009 20.9871 8.62811 21.2236 8.80238 21.3979L11.4309 24.0267C11.6051 24.2015 11.8416 24.2996 12.0885 24.2996C12.3353 24.2996 12.5718 24.2015 12.746 24.0267L14.0916 22.6799L31.4559 38.3793C32.4693 39.3049 34.0091 39.3448 35.0688 38.4723L35.7472 39.151C36.6303 40.0407 38.0022 40.2232 39.0873 39.5954L44.4251 42.6441C45.8709 43.4717 46.7645 45.0092 46.7681 46.6761V47.4124C46.759 49.8905 48.1672 52.1557 50.3927 53.2443L54.6513 55.3529C54.7793 55.4151 54.92 55.4469 55.062 55.4455C55.4972 55.4496 55.8766 55.1518 55.9756 54.7283C56.075 54.3047 55.8671 53.8689 55.4759 53.6792L55.4709 53.6869ZM4.85917 4.30537C7.19133 1.97207 10.6771 1.22804 13.7585 2.40559C16.8399 3.58268 18.942 6.46163 19.1253 9.75639L18.6606 10.2212C18.9733 9.90756 19.0214 9.41729 18.7754 9.04869C18.5299 8.68053 18.0588 8.53663 17.6495 8.70459C17.5365 8.75543 17.433 8.82443 17.3427 8.90932C17.1721 9.08273 17.0754 9.31651 17.0732 9.55983C17.0745 9.62248 17.0809 9.68467 17.0918 9.74595C17.1022 9.80723 17.1208 9.8667 17.1476 9.92254C17.1662 9.97974 17.1943 10.0333 17.2315 10.0805C17.2638 10.1304 17.3014 10.1772 17.3427 10.2199C17.5188 10.3942 17.7552 10.4941 18.0026 10.4991C18.2483 10.4954 18.4824 10.3964 18.6564 10.2232L16.6933 12.1873C16.864 12.0134 16.9602 11.7801 16.962 11.5363C16.9597 11.4119 16.9343 11.2894 16.8875 11.1741C16.8426 11.0629 16.7759 10.9621 16.6924 10.8763C16.4237 10.6157 16.028 10.5358 15.679 10.672C15.5638 10.7179 15.4594 10.7878 15.3727 10.8763C15.2888 10.9621 15.2225 11.0629 15.1771 11.1741C15.1304 11.2894 15.1054 11.4119 15.1031 11.5363C15.105 11.7801 15.2016 12.0134 15.3727 12.1873C15.4567 12.279 15.562 12.3494 15.679 12.392C15.7911 12.4397 15.9109 12.4647 16.0326 12.466C16.2783 12.4629 16.5127 12.3643 16.6871 12.1908L14.7387 14.1397C14.8953 13.9668 14.9847 13.743 14.9897 13.5092C14.9883 13.388 14.9629 13.2677 14.9153 13.156C14.8726 13.0412 14.8059 12.9368 14.7201 12.8491C14.6275 12.7674 14.5245 12.6984 14.4133 12.6449C14.1869 12.5518 13.9332 12.5518 13.7072 12.6449C13.4753 12.7402 13.2911 12.9241 13.1958 13.156C13.1091 13.3834 13.1091 13.6349 13.1958 13.8628C13.2498 13.9736 13.3183 14.0771 13.4004 14.1692C13.4876 14.2555 13.5919 14.3218 13.7072 14.3644C13.8189 14.4121 13.9387 14.4375 14.0603 14.4389C14.2935 14.4339 14.5173 14.3449 14.6902 14.1878L12.7424 16.1367C12.9153 15.9627 13.0143 15.7277 13.0174 15.4821C13.0161 15.3609 12.9906 15.2406 12.943 15.1289C12.9003 15.0118 12.8304 14.9064 12.7388 14.822C12.3734 14.4675 11.793 14.4675 11.4282 14.822C11.3392 14.9087 11.2698 15.0136 11.2235 15.1289C11.179 15.241 11.1568 15.3613 11.1586 15.4821C11.1577 15.729 11.2548 15.9664 11.4282 16.1421C11.5135 16.2261 11.6147 16.2924 11.7254 16.3373C11.8407 16.3845 11.9637 16.4095 12.088 16.4117C12.3317 16.4104 12.565 16.3141 12.7388 16.143L10.7754 18.107C10.9484 17.933 11.047 17.6984 11.0506 17.4531C11.046 17.2052 10.9462 16.9692 10.7719 16.7931C10.7293 16.7513 10.6825 16.7141 10.6326 16.6814C10.585 16.6446 10.5314 16.6165 10.4747 16.5979C10.4184 16.5706 10.359 16.552 10.2977 16.542C9.995 16.4853 9.68323 16.5788 9.46132 16.7931C9.37645 16.8829 9.30747 16.9869 9.2571 17.0999C9.20945 17.2116 9.18403 17.3314 9.18267 17.4531C9.18086 17.8299 9.4064 18.1703 9.75403 18.3156C10.1021 18.4604 10.5028 18.3814 10.7692 18.115L10.3045 18.5798C7.00981 18.396 4.13125 16.2924 2.95497 13.2087C1.77868 10.125 2.52429 6.63776 4.85917 4.30537ZM10.7737 20.7406L12.0889 22.0552L21.2891 12.851L22.6034 11.5372L21.2891 10.2221L10.7737 20.7406ZM32.7026 36.9997L15.4077 21.3634L21.9136 14.8556L37.5439 32.157C37.8756 32.5247 37.8615 33.088 37.5112 33.438L33.9796 36.9711C33.6288 37.3179 33.0683 37.3306 32.7026 36.9997ZM36.4043 37.179L37.0615 37.8363C37.4245 38.1995 38.0131 38.1995 38.3762 37.8359C38.7388 37.4727 38.7388 36.884 38.3757 36.5208L37.7195 35.8635L36.4043 37.179Z" fill="#CAFD35"/>
<path fill-rule="evenodd" clip-rule="evenodd" d="M55.6078 3.50587C55.3625 3.32719 55.0468 3.27846 54.7596 3.37453L43.4487 7.17649C43.0635 7.30598 42.8039 7.66938 42.8039 8.07872V16.2108C42.2332 15.8687 41.5824 15.6864 40.9187 15.6826C38.8366 15.6826 37.1484 17.3845 37.1484 19.4846C37.1484 21.5842 38.8366 23.2866 40.9187 23.2866C43.0009 23.2866 44.689 21.5842 44.689 19.4846V8.76374L54.1148 5.59482V12.4088C53.5441 12.0668 52.8933 11.8844 52.2296 11.8807C50.1475 11.8807 48.4593 13.5826 48.4593 15.6826C48.4593 17.7823 50.1475 19.4846 52.2296 19.4846C54.3118 19.4846 55.9999 17.7823 55.9999 15.6826V4.27676C55.9999 3.97091 55.8536 3.68409 55.6078 3.50587ZM40.9187 21.3856C39.8777 21.3856 39.0336 20.5344 39.0336 19.4846C39.0336 18.4343 39.8777 17.5836 40.9187 17.5836C41.9598 17.5836 42.8039 18.4343 42.8039 19.4846C42.8039 20.5344 41.9598 21.3856 40.9187 21.3856ZM50.3445 15.6826C50.3445 16.7325 51.1886 17.5836 52.2296 17.5836C53.2707 17.5836 54.1148 16.7325 54.1148 15.6826C54.1148 14.6324 53.2707 13.7817 52.2296 13.7817C51.1886 13.7817 50.3445 14.6324 50.3445 15.6826Z" fill="#CAFD35"/>
<path fill-rule="evenodd" clip-rule="evenodd" d="M6.27111 37.619L19.326 33.8584C19.6074 33.7776 19.9102 33.834 20.1438 34.0117C20.3773 34.1893 20.5149 34.4671 20.5149 34.7623V47.9247C20.5149 50.0015 18.8447 51.6853 16.7849 51.6853C14.725 51.6853 13.0549 50.0015 13.0549 47.9247C13.0549 45.8474 14.725 44.164 16.7849 44.164C17.4414 44.1676 18.0853 44.3481 18.6499 44.6864V39.7918L7.45995 42.9943V51.6853C7.45995 53.7622 5.78984 55.446 3.72997 55.446C1.67011 55.446 0 53.7622 0 51.6853C0 49.6081 1.67011 47.9247 3.72997 47.9247C4.38654 47.9283 5.03036 48.1087 5.59496 48.4471V38.5229C5.59496 38.1034 5.87088 37.7347 6.27111 37.619ZM1.86499 51.6853C1.86499 52.7238 2.70004 53.5657 3.72997 53.5657C4.7599 53.5657 5.59496 52.7238 5.59496 51.6853C5.59496 50.6465 4.7599 49.805 3.72997 49.805C2.70004 49.805 1.86499 50.6465 1.86499 51.6853ZM7.45995 41.0396V39.2317L18.6499 36.0086V37.8385L7.45995 41.0396ZM14.9199 47.9247C14.9199 48.9631 15.7549 49.805 16.7849 49.805C17.8148 49.805 18.6499 48.9631 18.6499 47.9247C18.6499 46.8858 17.8148 46.0443 16.7849 46.0443C15.7549 46.0443 14.9199 46.8858 14.9199 47.9247Z" fill="#CAFD35"/>
</svg>
