<svg width="50" height="70" viewBox="0 0 50 70" fill="none" xmlns="http://www.w3.org/2000/svg">
<path fill-rule="evenodd" clip-rule="evenodd" d="M34.9477 26.5278C35.7786 26.5278 36.4516 27.2009 36.4516 28.0317C36.4516 28.8622 35.7786 29.5355 34.9477 29.5355C34.1172 29.5355 33.444 28.8622 33.444 28.0317C33.444 27.2009 34.1172 26.5278 34.9477 26.5278ZM11.5678 20.7472C14.2373 20.978 16.6358 22.1575 18.4245 23.9461C20.4264 25.9479 21.6653 28.7143 21.6653 31.7692C21.6653 33.136 21.4171 34.4452 20.9634 35.654C21.5036 35.404 22.035 35.1345 22.5565 34.8463C23.6868 34.2222 24.7619 33.5132 25.7723 32.7286V21.9733C25.7723 21.4611 26.1641 21.0405 26.6641 20.9942C28.3357 20.7501 29.9073 20.6377 31.3612 20.6774C31.0443 19.317 30.3808 18.0594 29.3815 17.0265C28.2289 15.8345 26.619 14.9319 24.5639 14.4996L24.3065 14.4475C23.5638 14.3181 22.7656 14.2145 21.8623 14.1548L21.4899 14.1341C20.4502 14.089 19.4012 14.1073 18.36 14.1481L18.3247 14.1499C17.7839 14.1773 17.3229 13.7612 17.2953 13.2203C17.2676 12.6794 17.6838 12.2181 18.2249 12.1906C19.6687 12.1126 20.8968 12.124 21.9854 12.1955L22.0268 12.1982C22.6442 12.2356 23.2599 12.2951 23.8715 12.3847C23.9534 10.9389 23.8928 9.66672 23.7015 8.5548C23.648 8.44698 23.6136 8.32774 23.6033 8.20053C23.5989 8.1486 23.5989 8.09756 23.6025 8.04736C23.1647 6.04299 22.2662 4.60259 20.9828 3.64145C18.8522 2.04548 15.5943 1.67046 11.5678 2.16216V20.7472ZM17.0337 25.3369C15.6057 23.9086 13.7041 22.9531 11.5849 22.7251V40.8129C13.7041 40.5851 15.6057 39.6296 17.0337 38.2014C18.6799 36.5556 19.6982 34.2809 19.6982 31.7692C19.6982 29.2571 18.6799 26.9827 17.0337 25.3369ZM19.4813 38.3691C19.1588 38.8021 18.8056 39.2112 18.4245 39.592C16.6358 41.3804 14.2373 42.5598 11.5678 42.7907V47.6864C11.5678 48.9366 9.60072 48.8847 9.60072 47.6864V15.9024C7.41248 18.0005 5.60794 20.4952 4.3042 23.2707C2.80505 26.4618 1.96686 30.0313 1.96686 33.8021C1.96686 40.6308 4.72566 46.8135 9.18842 51.2954C13.4624 55.5876 19.2993 58.3229 25.7723 58.5756V35.1602C25.0405 35.666 24.2826 36.1362 23.5015 36.5674C22.2312 37.2691 20.8871 37.8736 19.4813 38.3691ZM9.60072 13.2742V1.30381C9.60072 0.791583 9.99232 0.370783 10.4923 0.324533C15.3852 -0.389862 19.4224 0.0246542 22.1583 2.07396C23.7003 3.22914 24.8044 4.87106 25.3887 7.08299C25.5764 7.07383 25.7822 7.06606 26.0062 7.05995C26.3405 7.0508 26.5908 7.04601 26.7562 7.04601C31.0918 7.04601 35.1907 8.08009 38.8184 9.91586C42.5823 11.8204 45.8355 14.5885 48.3168 17.9586C48.637 18.3957 48.5424 19.0098 48.1055 19.33C47.6687 19.6502 47.0543 19.5558 46.7341 19.1189C44.4353 15.9965 41.4216 13.4318 37.9349 11.6676C34.5793 9.96965 30.7814 9.01293 26.7562 9.01293C26.4384 9.01293 26.2059 9.01515 26.06 9.01904L25.7505 9.02987C25.8816 10.1608 25.9043 11.4103 25.811 12.7854C27.8781 13.3614 29.5445 14.3731 30.7955 15.6664C32.1978 17.1164 33.0703 18.9132 33.397 20.8456C35.3212 21.1224 36.9834 21.7349 38.3301 22.7438C40.9835 24.7314 42.3412 28.1608 41.9828 33.4549C44.2106 34.0756 45.9712 35.1998 47.2472 36.6362C48.8105 38.3966 49.6399 40.6181 49.708 42.9554C49.7669 44.985 49.1886 47.1052 48.2444 49.0063C47.2218 51.0646 45.7595 52.8897 44.2089 54.0791C42.9519 55.162 41.5937 56.1298 40.153 56.9649C38.7326 57.788 37.2268 58.4852 35.6519 59.0404C35.3296 59.4732 34.9768 59.8811 34.5964 60.2618C32.8078 62.0503 30.4091 63.2297 27.7395 63.4605V68.3559C27.7395 69.5974 25.7723 69.5883 25.7723 68.3559V60.536C18.7547 60.2822 12.4261 57.3265 7.79768 52.6787C2.9791 47.8392 0 41.1673 0 33.8021C0 29.7455 0.906875 25.8943 2.52892 22.4411C4.19782 18.8887 6.62521 15.7636 9.60072 13.2742ZM27.7395 22.8316V41.4168C30.4091 41.6479 32.8078 42.8273 34.5964 44.616C36.5983 46.6176 37.8369 49.3842 37.8369 52.4387C37.8369 53.8057 37.5887 55.1151 37.1352 56.3234C37.8308 56.0023 38.5093 55.6494 39.1695 55.267C40.5088 54.4907 41.7681 53.5934 42.9312 52.5912L43.0021 52.5316C44.3286 51.5183 45.5911 49.9369 46.4846 48.1379C47.2984 46.4994 47.7978 44.6985 47.7488 43.0091C47.6943 41.1321 47.0306 39.3506 45.7797 37.9424C44.6121 36.6278 42.9258 35.6302 40.7356 35.1694L40.4783 35.1173C39.7352 34.9879 38.9372 34.8843 38.034 34.8245L37.6619 34.8037C36.6223 34.7588 35.5734 34.7771 34.5318 34.8176L34.4966 34.8195C33.9555 34.8472 33.4946 34.4309 33.467 33.8901C33.4396 33.3489 33.8558 32.8879 34.3966 32.8605C35.8403 32.7823 37.0689 32.7934 38.1571 32.8654L38.1966 32.8679C38.8145 32.905 39.4308 32.9649 40.0434 33.0544C40.292 28.6558 39.2237 25.8608 37.1545 24.3109C35.0245 22.7151 31.7661 22.3403 27.7395 22.8316ZM33.2055 46.0065C31.7773 44.5783 29.8759 43.6226 27.7565 43.395V61.4825C29.8759 61.2547 31.7773 60.2991 33.2055 58.8712C34.8516 57.2251 35.87 54.9507 35.87 52.4387C35.87 49.9269 34.8516 47.6523 33.2055 46.0065ZM18.7759 5.85817C19.6064 5.85817 20.2799 6.53146 20.2799 7.36199C20.2799 8.19222 19.6064 8.86569 18.7759 8.86569C17.9457 8.86569 17.2722 8.19222 17.2722 7.36199C17.2722 6.53146 17.9457 5.85817 18.7759 5.85817Z" fill="#CAFD35"/>
</svg>
