<svg width="70" height="70" viewBox="0 0 70 70" fill="none" xmlns="http://www.w3.org/2000/svg">
<g clip-path="url(#clip0_101_2042)">
<path d="M35 70C54.33 70 70 54.33 70 35C70 15.67 54.33 0 35 0C15.67 0 0 15.67 0 35C0 54.33 15.67 70 35 70Z" fill="white"/>
<path d="M14.2501 50.0999C11.9028 46.8952 10.3321 43.1891 9.66167 39.2737C8.99129 35.3583 9.2396 31.3407 10.387 27.5376C11.5345 23.7345 13.5497 20.25 16.2737 17.3588C18.9978 14.4675 22.3562 12.2486 26.0843 10.8769L26.1653 11.1039C22.4642 12.4582 19.1293 14.6557 16.4246 17.5222C13.7199 20.3887 11.7197 23.8456 10.5825 27.6191C9.44522 31.3926 9.20216 35.379 9.87251 39.2627C10.5429 43.1464 12.1082 46.8207 14.4446 49.9946L14.2501 50.0999ZM30.283 9.72592C31.0395 9.58542 31.8095 9.48005 32.5931 9.4098C33.3766 9.33955 34.1548 9.30442 34.9275 9.30442C39.7237 9.30212 44.4243 10.6456 48.4948 13.1822C52.5653 15.7187 55.8424 19.3466 57.9535 23.6531C60.0645 27.9597 60.9249 32.7723 60.4366 37.5435C59.9483 42.3148 58.1311 46.8533 55.1915 50.643L54.997 50.4971C57.9062 46.7426 59.7043 42.2475 60.1868 37.5224C60.6693 32.7972 59.817 28.0315 57.7267 23.7664C55.6364 19.5014 52.3919 15.9081 48.3617 13.3946C44.3315 10.8812 39.6772 9.54837 34.9275 9.54759C34.144 9.54759 33.3739 9.58272 32.6174 9.65297C31.8609 9.72321 31.099 9.82859 30.3316 9.96908L30.283 9.72592ZM18.538 49.5488C16.0764 46.789 14.3517 43.4523 13.5239 39.8482C12.696 36.244 12.7918 32.4891 13.8024 28.9319C14.813 25.3746 16.7056 22.1302 19.3047 19.4996C21.9038 16.869 25.1252 14.9375 28.67 13.8841L28.7429 14.1192C25.2366 15.1581 22.0497 17.0664 19.4783 19.6668C16.907 22.2672 15.0346 25.4753 14.035 28.9931C13.0355 32.5109 12.9413 36.2242 13.7611 39.7882C14.5809 43.3521 16.2882 46.6511 18.7244 49.3785L18.538 49.5488ZM52.9382 22.395C55.8151 26.5038 57.1933 31.4762 56.8421 36.4797C56.4909 41.4833 54.4317 46.2144 51.009 49.8811L50.8307 49.7109C54.2074 46.0811 56.2383 41.4038 56.5849 36.4584C56.9315 31.5129 55.5729 26.5981 52.7355 22.5328L52.9382 22.395ZM28.0702 51.8751C24.3582 50.3724 21.2427 47.6917 19.203 44.2455C17.1633 40.7992 16.3125 36.7783 16.7813 32.8012C17.2501 28.8241 19.0126 25.1112 21.7977 22.2337C24.5828 19.3561 28.2362 17.4734 32.1959 16.8751V17.1182C28.2917 17.7129 24.6907 19.5731 21.9465 22.4132C19.2023 25.2532 17.4666 28.9158 17.0062 32.8382C16.5458 36.7605 17.3863 40.7255 19.3983 44.1238C21.4103 47.5221 24.4827 50.1656 28.1431 51.6481L28.0702 51.8751ZM52.5896 30.2817C53.5852 34.0577 53.3448 38.0534 51.9036 41.6827C50.4623 45.3121 47.8961 48.3842 44.5813 50.4485L44.4516 50.2377C47.7208 48.1992 50.2517 45.1677 51.6738 41.587C53.0958 38.0064 53.3344 34.0645 52.3546 30.3385L52.5896 30.2817ZM29.975 48.6571C26.7572 47.4834 24.0549 45.2149 22.3415 42.249C20.628 39.2832 20.0127 35.8091 20.6032 32.4351C21.1937 29.0612 22.9524 26.0026 25.5713 23.795C28.1902 21.5874 31.5023 20.3716 34.9275 20.3605H35.5679V20.6036H34.9437C31.5734 20.6096 28.3129 21.8026 25.7346 23.9732C23.1563 26.1437 21.425 29.1531 20.8446 32.4731C20.2642 35.793 20.8718 39.2113 22.5607 42.1279C24.2497 45.0445 26.912 47.273 30.0804 48.4221L29.975 48.6571ZM49.5095 35.1937C49.4588 38.1117 48.5343 40.9474 46.8552 43.3345C45.1762 45.7215 42.8199 47.5502 40.0908 48.5842L40.0016 48.3734C42.6868 47.356 45.0048 45.5558 46.6551 43.206C48.3055 40.8561 49.2124 38.0649 49.2582 35.1937H49.5095ZM12.8641 54.2581C9.12203 49.9922 6.69725 44.7328 5.88343 39.1169C5.0696 33.501 5.90164 27.7696 8.27878 22.6169C10.6559 17.4643 14.4761 13.1114 19.2767 10.0857C24.0773 7.05992 29.6522 5.49108 35.3262 5.56919C41.0003 5.64729 46.5299 7.36898 51.2454 10.5257C55.9609 13.6825 59.6598 18.1388 61.8942 23.3549C64.1286 28.5711 64.8026 34.3232 63.8345 39.9146C62.8664 45.5059 60.2978 50.6966 56.4398 54.8579L56.2615 54.6877C60.0885 50.5615 62.637 45.4141 63.5981 39.869C64.5592 34.324 63.8918 28.6192 61.6767 23.4457C59.4615 18.2722 55.7937 13.8521 51.1176 10.7207C46.4414 7.58937 40.9576 5.88117 35.3304 5.80306C29.7032 5.72495 24.174 7.28027 19.4128 10.2806C14.6515 13.281 10.8624 17.5976 8.50454 22.7076C6.14666 27.8176 5.32113 33.5017 6.12798 39.0713C6.93483 44.6409 9.33943 49.8571 13.0505 54.0879L12.8641 54.2581Z" fill="#1262A7"/>
<path d="M32.8519 55.2159C32.9237 55.1712 33.0035 55.1409 33.0869 55.1268C33.1537 55.12 33.2212 55.1273 33.2849 55.1482C33.3487 55.1692 33.4073 55.2033 33.457 55.2484C33.5067 55.2935 33.5463 55.3486 33.5734 55.41C33.6004 55.4715 33.6142 55.5379 33.6138 55.605C33.6138 56.14 33.1761 56.4642 32.3007 56.4156C32.2931 56.1865 32.3389 55.9589 32.4346 55.7507C32.5303 55.5424 32.6731 55.3594 32.8519 55.2159ZM53.9264 57.1775C53.9264 55.9373 53.9264 54.7053 53.9264 53.4651C53.9553 53.1496 53.8752 52.8337 53.6995 52.5701C53.5238 52.3065 53.2631 52.111 52.9608 52.0162C52.6584 51.9214 52.3328 51.9331 52.038 52.0493C51.7432 52.1654 51.4972 52.379 51.3408 52.6546C51.2678 52.8734 51.8433 52.7924 51.8757 53.5138V55.1349C51.7342 54.8662 51.522 54.6411 51.2621 54.484C51.0021 54.3269 50.7042 54.2437 50.4005 54.2433C49.0874 54.2433 48.3984 55.5645 48.3984 56.8452C48.3984 58.1259 49.0955 59.3903 50.3438 59.3903C50.6894 59.3804 51.024 59.2669 51.3044 59.0646C51.5847 58.8622 51.7979 58.5804 51.9163 58.2556C51.9654 58.5341 52.0995 58.7905 52.3002 58.9897C52.501 59.189 52.7584 59.3212 53.0373 59.3683C53.3161 59.4153 53.6027 59.3749 53.8577 59.2526C54.1127 59.1303 54.3236 58.9321 54.4614 58.6851C54.5344 58.4177 53.9427 58.7581 53.9264 57.1775ZM21.7877 53.6029C21.6499 52.6789 21.1636 52.8896 21.2365 52.6627C21.3508 52.4245 21.5462 52.2348 21.7877 52.1277C21.7897 52.1163 21.7956 52.1059 21.8045 52.0985C21.8135 52.091 21.8248 52.087 21.8364 52.0872H21.8769C22.0556 52.008 22.2488 51.9666 22.4443 51.9656C22.7547 51.9557 23.0586 52.0561 23.3019 52.249C23.5453 52.4419 23.7124 52.7149 23.7736 53.0193C23.8297 53.2032 23.857 53.3945 23.8547 53.5867V57.2099C23.8547 58.7824 24.5274 58.4501 24.4383 58.7095C24.3029 58.9248 24.1152 59.1024 23.8927 59.2257C23.6702 59.349 23.4201 59.414 23.1657 59.4147C22.973 59.4178 22.7818 59.3803 22.6046 59.3045C22.4274 59.2287 22.2682 59.1163 22.1374 58.9748C22.0065 58.8333 21.9071 58.6657 21.8454 58.4831C21.7838 58.3005 21.7614 58.107 21.7796 57.9151L21.7877 53.6029ZM51.9082 56.6831C51.9082 57.1775 51.819 58.1097 51.1624 58.1097C50.6761 58.1097 50.4086 57.5504 50.4086 56.8533C50.4086 56.1562 50.6761 55.5159 51.1624 55.5159C51.7866 55.5077 51.9082 56.3021 51.9082 56.6831ZM49.4197 51.9899C47.9688 52.1196 47.4744 54.0163 47.3366 54.6486C47.2316 54.4303 47.0633 54.2487 46.8537 54.1272C46.6441 54.0058 46.4029 53.9502 46.1613 53.9677C45.9166 53.9674 45.6762 54.0326 45.4653 54.1566C45.2543 54.2806 45.0804 54.4589 44.9617 54.6729C44.8725 54.9404 45.5453 54.5999 45.5453 56.1886C45.5453 56.8776 45.5453 59.1391 45.5453 59.1391V59.1877H47.5473C47.5473 59.1877 47.5473 59.1877 47.5473 59.1391C47.4736 58.4039 47.4465 57.6648 47.4663 56.9262C47.4623 55.727 47.7725 54.5477 48.366 53.5057C48.5119 53.2868 48.7632 53.1977 48.7632 53.5543C48.7632 53.7569 48.7632 53.8218 48.7632 53.9109C48.8981 54.035 49.0744 54.1043 49.2576 54.1055C49.422 54.1195 49.5875 54.0983 49.743 54.0432C49.8985 53.9881 50.0404 53.9005 50.1594 53.7862C50.2783 53.6719 50.3715 53.5335 50.4326 53.3803C50.4938 53.227 50.5215 53.0625 50.514 52.8977C50.5038 52.7652 50.4673 52.636 50.4065 52.5177C50.3456 52.3995 50.2618 52.2946 50.1598 52.2092C50.0579 52.1239 49.9399 52.0598 49.8128 52.0207C49.6857 51.9817 49.552 51.9684 49.4197 51.9818V51.9899ZM35.4132 57.6638C35.3947 57.6494 35.3719 57.6415 35.3484 57.6415C35.3249 57.6415 35.3021 57.6494 35.2836 57.6638C34.0758 58.3366 32.7627 58.2393 32.4142 57.2505C33.7111 57.4693 35.5186 57.2505 35.5186 55.7266C35.5186 55.0214 34.8134 54.0001 33.1923 54.0001C32.4764 53.9829 31.7831 54.2508 31.2647 54.7448C30.7464 55.2389 30.4455 55.9186 30.4283 56.6344C30.4111 57.3503 30.679 58.0437 31.173 58.562C31.667 59.0804 32.3468 59.3812 33.0626 59.3984C33.5742 59.3926 34.0727 59.2356 34.4953 58.9471C34.9179 58.6586 35.2457 58.2516 35.4376 57.7773C35.47 57.7206 35.4538 57.68 35.4132 57.6557V57.6638ZM29.8042 57.2099C29.8042 56.5291 29.8852 54.2757 29.8852 54.2757C29.8895 54.2683 29.8917 54.2599 29.8917 54.2514C29.8917 54.2428 29.8895 54.2345 29.8852 54.2271H27.8588C27.8538 54.2357 27.8512 54.2455 27.8512 54.2554C27.8512 54.2654 27.8538 54.2752 27.8588 54.2838V56.9992C27.8588 58.1096 26.9267 58.4258 26.9267 57.4531V55.5321C26.9348 55.3337 26.9015 55.1358 26.8288 54.9511C26.7561 54.7663 26.6457 54.5988 26.5046 54.4592C26.3634 54.3196 26.1947 54.2109 26.0092 54.1403C25.8236 54.0696 25.6254 54.0384 25.4271 54.0487C25.1823 54.0476 24.9416 54.1124 24.7305 54.2365C24.5193 54.3606 24.3456 54.5394 24.2275 54.7539C24.1384 55.0214 24.8922 54.681 24.8922 56.2535V57.7935C24.871 57.9895 24.8895 58.1878 24.9466 58.3764C25.0037 58.5651 25.0983 58.7403 25.2246 58.8916C25.351 59.0429 25.5065 59.1672 25.682 59.2571C25.8574 59.347 26.0492 59.4005 26.2458 59.4147C26.5966 59.4016 26.9361 59.2875 27.2237 59.0862C27.5112 58.885 27.7346 58.605 27.8669 58.2799C27.9126 58.6013 28.075 58.8946 28.3232 59.1039C28.5714 59.3133 28.8879 59.4239 29.2125 59.4147C29.4574 59.4158 29.698 59.351 29.9092 59.2269C30.1203 59.1028 30.294 58.924 30.4121 58.7095C30.4769 58.4339 29.8042 58.7743 29.8042 57.2018V57.2099ZM18.4563 58.2312C17.8241 58.2312 17.6458 57.7368 17.6458 57.2505V55.9617C17.8385 55.895 18.0443 55.8749 18.2462 55.9032C18.4482 55.9315 18.6405 56.0073 18.8075 56.1244C18.9744 56.2415 19.1112 56.3966 19.2066 56.5768C19.3019 56.7571 19.3532 56.9574 19.356 57.1613C19.2831 57.8016 18.967 58.2231 18.4239 58.2231L18.4563 58.2312ZM18.8778 53.8542C18.8778 54.3811 18.5293 54.8917 17.6052 54.8917V53.0112C18.0592 52.8896 18.8535 52.9464 18.8535 53.838L18.8778 53.8542ZM40.6089 55.1025C40.8624 54.9563 41.0716 54.7442 41.2143 54.4888C41.357 54.2334 41.4279 53.944 41.4195 53.6516C41.4195 52.2412 39.8794 51.8602 38.615 51.8602C37.7166 51.8488 36.8204 51.9523 35.9482 52.1682C35.9346 52.1702 35.9222 52.177 35.9132 52.1875C35.9043 52.1979 35.8994 52.2112 35.8996 52.225V56.4804C35.8719 56.8675 35.9277 57.2561 36.0633 57.6198C36.1989 57.9834 36.4112 58.3137 36.6856 58.5881C36.9601 58.8625 37.2903 59.0748 37.6539 59.2104C38.0176 59.346 38.4062 59.4018 38.7933 59.3741C40.4144 59.3741 41.9139 58.677 41.9139 56.9424C41.9092 56.5432 41.7802 56.1554 41.5448 55.833C41.3095 55.5105 40.9796 55.2693 40.6008 55.143C40.6008 55.143 40.5765 55.1187 40.6089 55.1025ZM44.6617 59.1553V56.2616C44.6906 55.9461 44.6105 55.6302 44.4348 55.3665C44.2591 55.1029 43.9984 54.9074 43.6961 54.8126C43.3937 54.7179 43.0681 54.7295 42.7733 54.8457C42.4785 54.9618 42.2325 55.1755 42.0761 55.451C41.9869 55.7185 42.6597 55.3781 42.6597 56.9668C42.6597 57.6557 42.5786 59.1391 42.5786 59.1391L42.6272 59.1877H44.6131C44.6222 59.1816 44.6293 59.173 44.6337 59.1629C44.638 59.1529 44.6393 59.1417 44.6374 59.131L44.6617 59.1553ZM44.5888 53.5867C44.5267 53.326 44.3785 53.0938 44.1682 52.9277C43.9579 52.7616 43.6977 52.6713 43.4297 52.6713C43.1617 52.6713 42.9015 52.7616 42.6912 52.9277C42.4809 53.0938 42.3327 53.326 42.2706 53.5867C42.3327 53.8474 42.4809 54.0796 42.6912 54.2457C42.9015 54.4118 43.1617 54.5022 43.4297 54.5022C43.6977 54.5022 43.9579 54.4118 44.1682 54.2457C44.3785 54.0796 44.5267 53.8474 44.5888 53.5867ZM39.3931 53.838C39.3931 54.3649 39.0446 54.8836 38.1124 54.8836V52.9707C38.5825 52.8491 39.3769 52.914 39.3769 53.8056L39.3931 53.838ZM38.9635 58.2474C38.3232 58.2474 38.1529 57.753 38.1043 57.2667V55.9454C38.2975 55.879 38.5036 55.8592 38.7059 55.8875C38.9082 55.9158 39.101 55.9915 39.2685 56.1084C39.4359 56.2254 39.5735 56.3802 39.6698 56.5604C39.7661 56.7405 39.8185 56.9409 39.8227 57.1451C39.8146 57.7935 39.4985 58.215 38.9473 58.215L38.9635 58.2474ZM20.0774 55.1268C20.3297 54.9813 20.5381 54.7705 20.6807 54.5166C20.8233 54.2627 20.8949 53.9751 20.888 53.684C20.888 52.2817 19.356 51.9008 18.0997 51.9008C17.2066 51.8898 16.3159 51.9933 15.4491 52.2088C15.4355 52.2107 15.4231 52.2176 15.4142 52.228C15.4052 52.2384 15.4004 52.2518 15.4005 52.2655V56.5291C15.3728 56.9141 15.4282 57.3005 15.563 57.6622C15.6978 58.0239 15.9088 58.3524 16.1817 58.6253C16.4547 58.8983 16.7832 59.1093 17.1448 59.2441C17.5065 59.3789 17.893 59.4343 18.278 59.4065C19.8991 59.4065 21.3824 58.7176 21.3824 56.9749C21.3784 56.5787 21.2514 56.1937 21.0191 55.8728C20.7868 55.5519 20.4606 55.3111 20.0856 55.1835C20.0856 55.1835 20.045 55.143 20.0774 55.1268Z" fill="#151616"/>
<path d="M22.0956 62.648V63.5963H21.7471V61.5699H22.0956V62.4696L22.7603 61.5699H23.1412L22.4036 62.5426L23.1412 63.5882H22.7278L22.0956 62.6399V62.648ZM24.9974 63.5963L24.9245 63.3288L24.8515 63.0614H24.3003L24.1706 63.5882H23.8059L24.3814 61.5699H24.7786L25.0704 62.5831L25.3622 63.5963H24.9974ZM24.5678 61.9266L24.5273 62.1211L24.4624 62.3156L24.4057 62.5507L24.349 62.7858H24.7624L24.6489 62.3156L24.6246 62.1535L24.584 61.959L24.5678 61.9266ZM27.0643 63.5963L26.7401 62.7858H26.4888V63.5963H26.1484V61.578H26.7077C26.7885 61.5695 26.87 61.5695 26.9509 61.578C27.0265 61.5929 27.0983 61.6233 27.1616 61.6672C27.2237 61.7108 27.2739 61.7694 27.3075 61.8374C27.348 61.9235 27.3675 62.0179 27.3643 62.113C27.3726 62.2544 27.3326 62.3945 27.2508 62.5102C27.1752 62.6065 27.0697 62.675 26.9509 62.7047L27.1373 62.8425L27.4372 63.572L27.0643 63.5963ZM26.9995 62.1535C27.0106 62.1055 27.0106 62.0556 26.9995 62.0076C26.9758 61.9647 26.9388 61.9305 26.8941 61.9104C26.8621 61.8899 26.8262 61.8761 26.7888 61.8698H26.4807V62.494H26.6753C26.7192 62.4972 26.7632 62.4917 26.805 62.4778C26.8467 62.4639 26.8853 62.4418 26.9184 62.4129C26.949 62.3775 26.972 62.3363 26.986 62.2916C26.9999 62.247 27.0045 62.2 26.9995 62.1535ZM29.3258 63.5963L29.2529 63.3288L29.1799 63.0614H28.5963L28.4666 63.5882H28.1019L28.6774 61.5699H29.0745L29.3258 62.5831L29.6176 63.5963H29.3258ZM28.8962 61.9266L28.8557 62.1211L28.8152 62.3156L28.7584 62.5507L28.7017 62.7858H29.1151L29.0016 62.3156L28.9205 62.1535L28.88 61.959L28.8962 61.9266ZM31.1577 63.6368C31.0399 63.6417 30.9227 63.6166 30.8172 63.5639C30.7232 63.5128 30.6448 63.4372 30.5903 63.345C30.5301 63.2425 30.4889 63.1299 30.4687 63.0127C30.4558 62.8698 30.4558 62.726 30.4687 62.5831C30.4548 62.4403 30.4548 62.2964 30.4687 62.1535C30.4889 62.0363 30.5301 61.9238 30.5903 61.8212C30.6462 61.7323 30.7244 61.6596 30.8172 61.6104C30.9202 61.5587 31.0344 61.5336 31.1496 61.5375C31.2647 61.534 31.3789 61.5591 31.4819 61.6104C31.5724 61.6598 31.648 61.7326 31.7008 61.8212C31.7606 61.9239 31.8018 62.0364 31.8223 62.1535C31.8361 62.2964 31.8361 62.4402 31.8223 62.5831C31.835 62.726 31.835 62.8698 31.8223 63.0127C31.8015 63.1297 31.7603 63.2422 31.7008 63.345C31.6492 63.4366 31.5735 63.5123 31.4819 63.5639C31.3716 63.6194 31.2485 63.6446 31.1253 63.6368H31.1577ZM31.1577 61.8131C31.0934 61.8106 31.0304 61.8307 30.9794 61.8698C30.93 61.9131 30.8935 61.9692 30.874 62.0319C30.8471 62.1105 30.8308 62.1923 30.8253 62.2751C30.8253 62.367 30.8253 62.4696 30.8253 62.5831C30.8253 62.6966 30.8253 62.802 30.8253 62.8992C30.831 62.982 30.8474 63.0638 30.874 63.1424C30.8941 63.2026 30.9306 63.2559 30.9794 63.2964C31.0304 63.3355 31.0934 63.3556 31.1577 63.3532C31.222 63.3563 31.2853 63.3362 31.336 63.2964C31.3845 63.2556 31.4209 63.2024 31.4414 63.1424C31.4676 63.0637 31.484 62.982 31.49 62.8992C31.49 62.802 31.49 62.6966 31.49 62.5831C31.49 62.4696 31.49 62.367 31.49 62.2751C31.4845 62.1923 31.4682 62.1105 31.4414 62.0319C31.4218 61.9692 31.3854 61.9131 31.336 61.8698C31.3068 61.8461 31.273 61.8288 31.2367 61.819C31.2004 61.8092 31.1624 61.8072 31.1253 61.8131H31.1577ZM33.0868 62.6236V63.572H32.7383V61.5699H33.0868V62.4696L33.7515 61.5699H34.1324L33.3786 62.5426L34.1162 63.5882H33.7028L33.0706 62.6399L33.0868 62.6236ZM34.9268 61.5456H36.0454V61.8293H35.2348V62.3643H35.9157V62.648H35.2429V63.2721H36.0535V63.5558H34.8944L34.9268 61.5456ZM38.5986 63.572L38.2744 62.7614H38.0231V63.572H37.6827V61.578H38.242C38.3228 61.5695 38.4043 61.5695 38.4851 61.578C38.5608 61.5929 38.6325 61.6233 38.6959 61.6672C38.758 61.7108 38.8082 61.7694 38.8418 61.8374C38.8823 61.9235 38.9017 62.0179 38.8985 62.113C38.9069 62.2544 38.8669 62.3945 38.785 62.5102C38.7099 62.607 38.6042 62.6756 38.4851 62.7047L38.6716 62.8425L38.9715 63.572H38.5986ZM38.5014 62.1535C38.5124 62.1055 38.5124 62.0556 38.5014 62.0076C38.4848 61.9723 38.4597 61.9417 38.4284 61.9185C38.3964 61.898 38.3605 61.8842 38.323 61.8779H38.015V62.5021H38.2096C38.2534 62.5053 38.2975 62.4998 38.3393 62.4859C38.381 62.472 38.4196 62.4499 38.4527 62.421C38.4788 62.3822 38.4965 62.3384 38.5049 62.2923C38.5133 62.2463 38.5121 62.1991 38.5014 62.1535ZM40.4062 63.6449C40.2884 63.6495 40.1713 63.6244 40.0657 63.572C39.9717 63.5209 39.8932 63.4453 39.8388 63.3532C39.7788 63.2505 39.7376 63.138 39.7172 63.0208C39.7045 62.8779 39.7045 62.7341 39.7172 62.5912C39.7033 62.4484 39.7033 62.3045 39.7172 62.1616C39.7372 62.0444 39.7784 61.9318 39.8388 61.8293C39.8947 61.7404 39.9729 61.6677 40.0657 61.6185C40.1687 61.5668 40.2829 61.5418 40.3981 61.5456C40.5132 61.5421 40.6273 61.5672 40.7304 61.6185C40.8209 61.6679 40.8965 61.7407 40.9492 61.8293C41.0091 61.932 41.0503 62.0445 41.0708 62.1616C41.0846 62.3045 41.0846 62.4484 41.0708 62.5912C41.0835 62.7341 41.0835 62.8779 41.0708 63.0208C41.05 63.1378 41.0088 63.2503 40.9492 63.3532C40.8977 63.4447 40.822 63.5204 40.7304 63.572C40.6291 63.6193 40.5179 63.6415 40.4062 63.6368V63.6449ZM40.4062 61.8212C40.3419 61.8187 40.2789 61.8388 40.2278 61.8779C40.1785 61.9212 40.142 61.9773 40.1225 62.04C40.0956 62.1186 40.0792 62.2004 40.0738 62.2832C40.0738 62.3751 40.0738 62.4777 40.0738 62.5912C40.0738 62.7047 40.0738 62.8101 40.0738 62.9073C40.0796 62.9901 40.096 63.0719 40.1225 63.1505C40.143 63.2105 40.1794 63.2637 40.2278 63.3045C40.2789 63.3436 40.3419 63.3637 40.4062 63.3613C40.4678 63.3625 40.5279 63.3425 40.5764 63.3045C40.6249 63.2637 40.6613 63.2105 40.6818 63.1505C40.7079 63.0718 40.7242 62.9901 40.7304 62.9073C40.7304 62.8101 40.7304 62.7047 40.7304 62.5912C40.7304 62.4777 40.7304 62.3751 40.7304 62.2832C40.725 62.2004 40.7086 62.1186 40.6818 62.04C40.6622 61.9773 40.6258 61.9212 40.5764 61.8779C40.529 61.8371 40.4688 61.8141 40.4062 61.8131V61.8212ZM42.6595 63.6449C42.5417 63.6498 42.4246 63.6247 42.3191 63.572C42.225 63.5209 42.1466 63.4453 42.0921 63.3532C42.032 63.2506 41.9908 63.138 41.9706 63.0208C41.9576 62.8779 41.9576 62.7341 41.9706 62.5912C41.9567 62.4484 41.9567 62.3045 41.9706 62.1616C41.9908 62.0444 42.032 61.9319 42.0921 61.8293C42.148 61.7404 42.2263 61.6677 42.3191 61.6185C42.422 61.5668 42.5363 61.5418 42.6514 61.5456C42.7665 61.5421 42.8807 61.5672 42.9838 61.6185C43.0743 61.6679 43.1499 61.7407 43.2026 61.8293C43.2625 61.932 43.3036 62.0445 43.3242 62.1616C43.3379 62.3045 43.3379 62.4484 43.3242 62.5912C43.3371 62.7341 43.3371 62.8779 43.3242 63.0208C43.3035 63.1379 43.2623 63.2504 43.2026 63.3532C43.151 63.4447 43.0753 63.5204 42.9838 63.572C42.88 63.6206 42.7658 63.6429 42.6514 63.6368L42.6595 63.6449ZM42.6595 61.8212C42.5953 61.8187 42.5322 61.8388 42.4812 61.8779C42.4318 61.9212 42.3954 61.9773 42.3758 62.04C42.349 62.1186 42.3326 62.2004 42.3272 62.2832C42.3272 62.3751 42.3272 62.4777 42.3272 62.5912C42.3272 62.7047 42.3272 62.8101 42.3272 62.9073C42.3329 62.9902 42.3492 63.0719 42.3758 63.1505C42.3959 63.2107 42.4324 63.264 42.4812 63.3045C42.5322 63.3436 42.5953 63.3637 42.6595 63.3613C42.7239 63.3644 42.7872 63.3443 42.8379 63.3045C42.8863 63.2637 42.9228 63.2105 42.9432 63.1505C42.9695 63.0718 42.9858 62.9901 42.9919 62.9073C42.9919 62.8101 42.9919 62.7047 42.9919 62.5912C42.9919 62.4777 42.9919 62.3751 42.9919 62.2832C42.9864 62.2004 42.97 62.1186 42.9432 62.04C42.9237 61.9773 42.8872 61.9212 42.8379 61.8779C42.7862 61.8333 42.7196 61.8101 42.6514 61.8131L42.6595 61.8212ZM45.0912 62.6804L45.2047 62.4129L45.5208 61.6023H45.9342V63.6206H45.6181V62.1535L45.5289 62.3724L45.2209 63.1829H44.9939L44.6778 62.3724L44.5968 62.1535V63.6287H44.2401V61.5699H44.6616L44.9858 62.3805L45.0912 62.648V62.6804ZM47.377 63.6368H47.2392H47.0933H46.9555L46.842 63.5963L46.9312 63.3288H47.0609H47.1825H47.3608C47.4571 63.3355 47.5532 63.3129 47.6364 63.264C47.6721 63.2352 47.6998 63.1977 47.7168 63.1551C47.7338 63.1125 47.7396 63.0663 47.7336 63.0208C47.7428 62.9726 47.7428 62.9231 47.7336 62.8749C47.7189 62.8408 47.6967 62.8103 47.6688 62.7858C47.6378 62.758 47.6021 62.7361 47.5634 62.7209L47.4094 62.6642L47.1581 62.5993C47.0933 62.5742 47.0331 62.5386 46.9798 62.494C46.9311 62.4516 46.8923 62.399 46.8663 62.34C46.8361 62.2626 46.8223 62.1798 46.8258 62.0968C46.8226 62.0069 46.8421 61.9177 46.8826 61.8374C46.9198 61.7694 46.9726 61.7111 47.0366 61.6672C47.1027 61.6213 47.177 61.5883 47.2554 61.5699C47.3389 61.5605 47.4232 61.5605 47.5067 61.5699H47.6283H47.758H47.8795L47.9849 61.6104L47.9039 61.8617L47.7499 61.8131H47.6039H47.3608H47.2797C47.2503 61.8317 47.2254 61.8566 47.2068 61.886C47.1953 61.9257 47.1953 61.9679 47.2068 62.0076C47.2 62.0479 47.2 62.089 47.2068 62.1292C47.2187 62.1605 47.2382 62.1883 47.2635 62.2103L47.3608 62.267L47.5067 62.3237L47.7661 62.421C47.8347 62.4506 47.8977 62.4918 47.9525 62.5426C48.0029 62.593 48.0417 62.6539 48.066 62.7209C48.0816 62.8067 48.0816 62.8945 48.066 62.9803C48.0683 63.0753 48.0489 63.1695 48.0092 63.2559C47.9736 63.3295 47.9207 63.3934 47.8552 63.4423C47.7872 63.492 47.7101 63.5278 47.6283 63.5477C47.5507 63.5862 47.4692 63.6161 47.3851 63.6368H47.377Z" fill="#1262A7"/>
<path d="M30.8419 29.4154C29.9774 29.1157 29.0305 29.1622 28.1995 29.5451L25.9218 27.2512C25.9089 27.2351 25.8901 27.2247 25.8696 27.2225C25.8491 27.2202 25.8285 27.2261 25.8124 27.239C25.7963 27.2519 25.7859 27.2707 25.7836 27.2912C25.7814 27.3118 25.7873 27.3324 25.8002 27.3485C25.8975 27.5106 26.0515 27.7213 26.2136 27.9645C26.8459 28.8642 27.7699 30.1692 27.397 30.769C27.0242 31.3689 25.4274 31.1257 24.3493 30.9393C24.0656 30.8906 23.8063 30.8501 23.6198 30.8339C23.6005 30.8339 23.5819 30.8416 23.5682 30.8552C23.5546 30.8689 23.5469 30.8875 23.5469 30.9068C23.5469 30.9262 23.5546 30.9447 23.5682 30.9584C23.5819 30.9721 23.6005 30.9798 23.6198 30.9798L26.2947 31.8957C27.9158 33.1035 26.4973 36.7023 28.6615 40.5525C29.5244 42.2072 30.8686 43.5616 32.5167 44.437C34.1648 45.3125 36.0396 45.6679 37.8938 45.4564L35.989 47.3288C35.3775 47.9103 34.5711 48.2427 33.7275 48.2609H32.2523C31.4985 48.2609 31.1094 49.0715 31.8713 49.0715H38.1775C38.9313 49.0715 38.6233 48.2609 37.8695 48.2609H37.0589C36.7914 48.2609 36.4834 48.0178 36.8563 47.6206L39.4906 44.8566C48.2041 40.9416 44.4918 25.5328 40.8523 22.2663C46.2183 23.247 49.2497 27.2431 48.2609 33.7843C47.9691 35.908 56.0747 25.7436 48.7796 18.5944C43.9163 13.9175 37.294 15.2063 28.6615 10.6428C27.5186 10.0349 27.3079 11.0643 27.851 11.4534C33.0791 15.417 41.3711 22.3392 40.8199 29.618C40.6578 31.7579 39.0286 33.1197 37.7317 32.99C34.6434 32.6901 33.1601 30.307 30.8419 29.4154ZM29.1397 30.153C29.0147 30.153 28.8925 30.1901 28.7885 30.2596C28.6845 30.329 28.6035 30.4278 28.5556 30.5433C28.5078 30.6588 28.4953 30.786 28.5197 30.9086C28.544 31.0312 28.6043 31.1439 28.6927 31.2323C28.7811 31.3207 28.8938 31.3809 29.0164 31.4053C29.139 31.4297 29.2662 31.4172 29.3817 31.3694C29.4972 31.3215 29.596 31.2405 29.6654 31.1365C29.7349 31.0325 29.772 30.9103 29.772 30.7852C29.7731 30.7015 29.7575 30.6185 29.7262 30.5408C29.6949 30.4632 29.6485 30.3925 29.5897 30.3329C29.5309 30.2734 29.4608 30.2261 29.3836 30.1938C29.3063 30.1615 29.2235 30.1449 29.1397 30.1449V30.153Z" fill="#F17E00"/>
<path d="M40.8443 22.2748C46.2183 23.2475 49.2498 27.2436 48.261 33.7848C48.2542 33.8359 48.2542 33.8877 48.261 33.9388L48.3096 33.7929C50.7413 26.4979 47.7827 20.4673 43.0977 17.371C38.6072 14.4043 32.5604 14.1287 28.2969 10.4731C27.4863 10.2623 27.3809 11.0972 27.851 11.4458C31.1906 14.0152 35.8107 17.7843 38.5423 22.0803L40.8443 22.2748Z" fill="#E00985"/>
<path d="M30.8415 29.4147C29.977 29.115 29.0301 29.1615 28.1991 29.5444L25.9214 27.2505C25.9085 27.2344 25.8897 27.224 25.8692 27.2217C25.8487 27.2195 25.8281 27.2254 25.812 27.2383C25.7959 27.2512 25.7855 27.27 25.7832 27.2905C25.781 27.311 25.7869 27.3316 25.7998 27.3477C25.8971 27.5099 26.0511 27.7206 26.2132 27.9638C26.8454 28.8635 27.7695 30.1685 27.3966 30.7683C27.0238 31.3681 25.427 31.125 24.3489 30.9385C24.0652 30.8899 23.8058 30.8494 23.6194 30.8332C23.6098 30.832 23.6001 30.8328 23.5908 30.8355C23.5815 30.8381 23.5729 30.8426 23.5653 30.8486C23.5578 30.8547 23.5515 30.8621 23.5469 30.8706C23.5423 30.8791 23.5394 30.8884 23.5384 30.898C23.537 30.9149 23.5409 30.9318 23.5496 30.9464C23.5584 30.9609 23.5714 30.9723 23.587 30.9791L26.2618 31.895C27.883 33.1027 26.4645 36.7016 28.6287 40.5518C29.4936 42.2121 30.8429 43.5703 32.4976 44.4461C34.1522 45.3219 36.034 45.674 37.8934 45.4557L35.9886 47.3281C35.3771 47.9095 34.5707 48.2419 33.7271 48.2602H32.2519C31.4981 48.2602 31.109 49.0708 31.8709 49.0708H38.1771C38.939 49.0708 38.6229 48.2602 37.8691 48.2602H37.0585C36.791 48.2602 36.483 48.017 36.8559 47.6199L39.4902 44.8559C48.147 40.9733 44.5319 25.7266 40.9168 22.3304C40.1156 22.1595 39.3028 22.0484 38.4851 21.998C40.0621 24.2218 40.8678 26.9007 40.779 29.6254C40.6169 31.7653 38.9876 33.127 37.6907 32.9974C34.643 32.6893 33.1597 30.3063 30.8415 29.4147ZM48.4145 32.4056C48.382 32.8596 48.3307 33.3243 48.2605 33.7998C48.2605 33.9538 48.2605 34.043 48.3253 34.0754C48.3739 33.4918 48.4064 32.973 48.4064 32.3975L48.4145 32.4056ZM29.1393 30.1442C29.0143 30.1442 28.892 30.1813 28.7881 30.2507C28.6841 30.3202 28.6031 30.4189 28.5552 30.5345C28.5074 30.65 28.4948 30.7771 28.5192 30.8998C28.5436 31.0224 28.6039 31.1351 28.6923 31.2235C28.7807 31.3119 28.8933 31.3721 29.016 31.3965C29.1386 31.4209 29.2658 31.4084 29.3813 31.3605C29.4968 31.3127 29.5955 31.2316 29.665 31.1277C29.7345 31.0237 29.7716 30.9015 29.7716 30.7764C29.7716 30.6087 29.705 30.4479 29.5864 30.3294C29.4678 30.2108 29.307 30.1442 29.1393 30.1442Z" fill="#00A659"/>
<path d="M30.8415 29.4161C29.977 29.1164 29.0301 29.1629 28.1991 29.5458L25.9214 27.2519C25.9085 27.2358 25.8897 27.2254 25.8692 27.2231C25.8487 27.2209 25.8281 27.2268 25.812 27.2397C25.7959 27.2526 25.7855 27.2714 25.7832 27.2919C25.781 27.3124 25.7869 27.333 25.7998 27.3491C25.8971 27.5113 26.0511 27.722 26.2132 27.9652C26.8454 28.8649 27.7695 30.1699 27.3966 30.7697C27.0238 31.3695 25.427 31.1264 24.3489 30.9399C24.0652 30.8913 23.8058 30.8508 23.6194 30.8346C23.6098 30.8334 23.6001 30.8342 23.5908 30.8369C23.5815 30.8395 23.5729 30.844 23.5653 30.85C23.5578 30.8561 23.5515 30.8635 23.5469 30.872C23.5423 30.8805 23.5394 30.8898 23.5384 30.8994C23.537 30.9163 23.5409 30.9332 23.5496 30.9477C23.5584 30.9623 23.5714 30.9737 23.587 30.9805L26.2618 31.8964C26.5445 32.1654 26.7682 32.4902 26.9189 32.8502C27.0696 33.2102 27.1439 33.5975 27.1372 33.9876C27.1372 34.0768 27.1372 34.166 27.1372 34.2632C27.9478 43.7144 37.099 43.5036 39.9684 35.0089C40.7791 32.7241 41.0347 30.2791 40.7141 27.876C40.7706 28.4691 40.7706 29.0662 40.7141 29.6592C40.552 31.7991 38.9228 33.1609 37.6259 33.0312C34.643 32.6907 33.1597 30.3077 30.8415 29.4161ZM29.1393 30.1537C29.0143 30.1537 28.892 30.1908 28.7881 30.2602C28.6841 30.3297 28.6031 30.4284 28.5552 30.544C28.5074 30.6595 28.4948 30.7866 28.5192 30.9093C28.5436 31.0319 28.6039 31.1446 28.6923 31.233C28.7807 31.3214 28.8933 31.3816 29.016 31.406C29.1386 31.4304 29.2658 31.4179 29.3813 31.37C29.4968 31.3222 29.5955 31.2411 29.665 31.1372C29.7345 31.0332 29.7716 30.911 29.7716 30.7859C29.7726 30.7022 29.7571 30.6191 29.7258 30.5415C29.6945 30.4638 29.6481 30.3932 29.5893 30.3336C29.5305 30.274 29.4604 30.2267 29.3832 30.1945C29.3059 30.1622 29.223 30.1456 29.1393 30.1456V30.1537Z" fill="#FAE016"/>
<path d="M33.2167 44.7745C34.7022 45.3594 36.303 45.5924 37.8936 45.4554L35.9888 47.3278C35.3773 47.9092 34.5709 48.2416 33.7273 48.2599H32.2521C31.4983 48.2599 31.1092 49.0705 31.8711 49.0705H38.1773C38.9392 49.0705 38.6231 48.2599 37.8693 48.2599H37.0587C36.7912 48.2599 36.4832 48.0167 36.8561 47.6196L39.4904 44.8556C48.1472 40.973 44.5321 25.7263 40.917 22.3301C49.2414 40.2678 25.492 34.2696 33.2167 44.7745Z" fill="#E00985"/>
<path d="M37.8936 45.4553L35.9888 47.3277C35.3773 47.9092 34.5709 48.2415 33.7273 48.2598H32.2521C31.4983 48.2598 31.1092 49.0704 31.8711 49.0704H38.1773C38.9392 49.0704 38.6231 48.2598 37.8693 48.2598H37.0587C36.7912 48.2598 36.4832 48.0167 36.8561 47.6195L39.4904 44.8555L37.8936 45.4553Z" fill="#7B95D0"/>
<path d="M48.2522 33.954C48.4143 35.2995 55.8796 25.5323 48.7547 18.5939C43.9157 13.917 37.2934 15.2057 28.6609 10.6423C28.5429 10.5771 28.4178 10.5254 28.2881 10.4883C32.5678 14.1763 38.5984 14.4195 43.1051 17.3862C47.774 20.4906 50.773 26.4887 48.3008 33.7838L48.2522 33.954Z" fill="#00A2D3"/>
<path d="M31.5225 43.8428C33.2422 45.0179 35.3037 45.5882 37.3828 45.4639C38.2784 45.268 39.1506 44.9772 39.9847 44.5966C41.4416 43.8236 42.631 42.6285 43.3972 41.168C39.4984 44.1022 35.5347 44.8722 31.5225 43.8185" fill="#00A2D3"/>
<path d="M30.8415 29.4161C29.977 29.1164 29.0301 29.1629 28.1991 29.5458L25.9214 27.2519C25.9085 27.2358 25.8897 27.2254 25.8692 27.2231C25.8487 27.2209 25.8281 27.2268 25.812 27.2397C25.7959 27.2526 25.7855 27.2714 25.7832 27.2919C25.781 27.3124 25.7869 27.333 25.7998 27.3491C25.8971 27.5113 26.0511 27.722 26.2132 27.9652C26.8454 28.8649 27.7695 30.1699 27.3966 30.7697C27.0238 31.3695 25.427 31.1264 24.3489 30.9399C24.0652 30.8913 23.8058 30.8508 23.6194 30.8346C23.6098 30.8334 23.6001 30.8342 23.5908 30.8369C23.5815 30.8395 23.5729 30.844 23.5653 30.85C23.5578 30.8561 23.5515 30.8635 23.5469 30.872C23.5423 30.8805 23.5394 30.8898 23.5384 30.8994C23.537 30.9163 23.5409 30.9332 23.5496 30.9477C23.5584 30.9623 23.5714 30.9737 23.587 30.9805L26.2618 31.8964C26.5445 32.1654 26.7682 32.4902 26.9189 32.8502C27.0696 33.2102 27.1439 33.5975 27.1372 33.9876C27.1372 34.0768 27.1372 34.166 27.1372 34.2632C27.7046 40.9098 32.5113 41.0233 36.1669 39.2725C39.9765 37.4487 42.5136 33.5986 37.6664 33.0231C34.6511 32.634 33.1597 30.3077 30.8415 29.4161ZM29.1393 30.1537C29.0143 30.1537 28.892 30.1908 28.7881 30.2602C28.6841 30.3297 28.6031 30.4284 28.5552 30.544C28.5074 30.6595 28.4948 30.7866 28.5192 30.9093C28.5436 31.0319 28.6039 31.1446 28.6923 31.233C28.7807 31.3214 28.8933 31.3816 29.016 31.406C29.1386 31.4304 29.2658 31.4179 29.3813 31.37C29.4968 31.3222 29.5955 31.2411 29.665 31.1372C29.7345 31.0332 29.7716 30.911 29.7716 30.7859C29.7726 30.7022 29.7571 30.6191 29.7258 30.5415C29.6945 30.4638 29.6481 30.3932 29.5893 30.3336C29.5305 30.274 29.4604 30.2267 29.3832 30.1945C29.3059 30.1622 29.223 30.1456 29.1393 30.1456V30.1537Z" fill="#00A989"/>
<path d="M26.2617 31.8796C26.5444 32.1487 26.7681 32.4735 26.9188 32.8334C27.0694 33.1934 27.1438 33.5807 27.1371 33.9709C28.0125 39.126 30.7198 37.5292 30.3794 36.0378C29.5688 32.7956 26.1077 31.4744 26.286 31.8796" fill="#7B95D0"/>
<path d="M31.9764 32.0738C31.8873 30.3959 28.0371 28.2885 28.0371 30.9877C28.0371 32.779 32.017 32.8114 31.9764 32.0738ZM29.1314 30.1447C29.0063 30.1447 28.8841 30.1817 28.7801 30.2512C28.6761 30.3207 28.5951 30.4194 28.5473 30.535C28.4994 30.6505 28.4869 30.7776 28.5113 30.9002C28.5357 31.0229 28.5959 31.1355 28.6843 31.224C28.7727 31.3124 28.8854 31.3726 29.008 31.397C29.1307 31.4214 29.2578 31.4089 29.3733 31.361C29.4888 31.3132 29.5876 31.2321 29.6571 31.1282C29.7265 31.0242 29.7636 30.902 29.7636 30.7769C29.7636 30.6106 29.6981 30.451 29.5813 30.3327C29.4645 30.2144 29.3057 30.1468 29.1395 30.1447H29.1314Z" fill="#AC498C"/>
</g>
<defs>
<clipPath id="clip0_101_2042">
<rect width="70" height="70" fill="white"/>
</clipPath>
</defs>
</svg>
