<svg width="38" height="42" viewBox="0 0 38 42" fill="none" xmlns="http://www.w3.org/2000/svg">
<path d="M3.51785 42C2.57287 42 1.75011 41.6497 1.04956 40.9492C0.349853 40.2495 0 39.4271 0 38.4821V6.98278C0 6.0378 0.349853 5.22428 1.04956 4.54221C1.75011 3.8593 2.57287 3.51785 3.51785 3.51785H6.45737V1.8383C6.45737 1.31331 6.63251 0.875682 6.98278 0.52541C7.33221 0.175137 7.76943 0 8.29442 0C8.81941 0 9.25704 0.175137 9.60731 0.52541C9.95758 0.875682 10.1327 1.31331 10.1327 1.8383V3.51785H27.6665V1.8383C27.6665 1.31331 27.8417 0.875682 28.1919 0.52541C28.5422 0.175137 28.9622 0 29.4519 0C29.9769 0 30.4234 0.175137 30.7913 0.52541C31.1583 0.875682 31.3419 1.31331 31.3419 1.8383V3.51785H34.2814C35.2264 3.51785 36.0491 3.8593 36.7497 4.54221C37.4494 5.22428 37.7992 6.0378 37.7992 6.98278V38.4821C37.7992 39.4271 37.4494 40.2495 36.7497 40.9492C36.0491 41.6497 35.2264 42 34.2814 42H3.51785ZM2.95708 39.0006H34.8422V16.4326H2.95708V39.0006ZM2.95708 13.2868H34.8422V7.11548H2.95708V13.2868Z" fill="#CAFD35"/>
</svg>
