<svg width="44" height="50" viewBox="0 0 44 50" fill="none" xmlns="http://www.w3.org/2000/svg">
<g clip-path="url(#clip0_1_4902)">
<path d="M21.8284 3C17.511 2.99987 13.2906 4.27681 9.70073 6.6693C6.11089 9.0618 3.31291 12.4624 1.66062 16.4411C0.00833216 20.4198 -0.424052 24.7979 0.418136 29.0217C1.26032 33.2455 3.33926 37.1254 6.39205 40.1706C9.44485 43.2159 13.3344 45.2898 17.5688 46.13C21.8032 46.9702 26.1923 46.5391 30.1811 44.8911C34.1698 43.2431 37.5791 40.4523 39.9778 36.8716C42.3764 33.2908 43.6567 29.081 43.6568 24.7744C43.6503 19.0016 41.3485 13.4671 37.2563 9.38503C33.1641 5.30296 27.6157 3.0067 21.8284 3ZM21.8284 43.511C18.1133 43.5111 14.4815 42.4123 11.3924 40.3536C8.30333 38.2948 5.89565 35.3685 4.47386 31.9448C3.05206 28.5211 2.68002 24.7537 3.40476 21.1191C4.12951 17.4845 5.9185 14.1458 8.54549 11.5254C11.1725 8.90498 14.5195 7.12045 18.1633 6.39748C21.807 5.67451 25.5839 6.04559 29.0162 7.46377C32.4486 8.88196 35.3822 11.2836 37.4462 14.3649C39.5101 17.4462 40.6118 21.0688 40.6117 24.7747C40.6062 29.7421 38.6255 34.5046 35.1041 38.0171C31.5828 41.5297 26.8084 43.5055 21.8284 43.511Z" fill="#CAFD35"/>
<path d="M32.5542 30.5428L23.3511 23.9928V12.8192C23.3511 12.4165 23.1907 12.0303 22.9052 11.7455C22.6198 11.4608 22.2326 11.3008 21.8289 11.3008C21.4251 11.3008 21.038 11.4608 20.7525 11.7455C20.467 12.0303 20.3066 12.4165 20.3066 12.8192V24.7748C20.3067 25.0167 20.3646 25.2551 20.4757 25.4701C20.5867 25.6851 20.7477 25.8706 20.9451 26.011L30.7866 33.0153C30.9493 33.1311 31.1333 33.2139 31.3281 33.2587C31.5229 33.3036 31.7247 33.3098 31.9219 33.2769C32.1191 33.244 32.3078 33.1727 32.4774 33.067C32.6469 32.9613 32.794 32.8234 32.9101 32.661C33.0262 32.4987 33.1091 32.3151 33.1541 32.1208C33.1991 31.9265 33.2052 31.7253 33.1723 31.5286C33.1393 31.3319 33.0678 31.1436 32.9619 30.9745C32.8559 30.8053 32.7176 30.6587 32.5549 30.5428H32.5542Z" fill="#CAFD35"/>
</g>
<defs>
<clipPath id="clip0_1_4902">
<rect width="43.6567" height="50" fill="white"/>
</clipPath>
</defs>
</svg>
