<svg width="41" height="50" viewBox="0 0 41 50" fill="none" xmlns="http://www.w3.org/2000/svg">
<path fill-rule="evenodd" clip-rule="evenodd" d="M20.8164 33.2363C20.3124 33.2363 19.9033 33.6388 19.9033 34.1348C19.9033 34.6307 20.3124 35.0332 20.8164 35.0332C21.3204 35.0332 21.7294 34.6307 21.7294 34.1348C21.7294 33.6388 21.3204 33.2363 20.8164 33.2363Z" fill="#CAFD35" stroke="#CAFD35"/>
<path fill-rule="evenodd" clip-rule="evenodd" d="M18.1079 32.251C16.0733 31.1388 14.8094 29.0306 14.8094 26.7491C14.8094 26.2529 14.4006 25.8507 13.8963 25.8507C13.3921 25.8507 12.9833 26.2529 12.9833 26.7491C12.9833 29.6828 14.6071 32.3929 17.2211 33.8218C17.3616 33.8986 17.5137 33.935 17.6637 33.935C17.9846 33.935 18.2958 33.7683 18.4627 33.4727C18.7076 33.0389 18.5487 32.492 18.1079 32.251Z" fill="#CAFD35" stroke="#CAFD35"/>
<path fill-rule="evenodd" clip-rule="evenodd" d="M35.7136 2H26.583C26.1365 2 25.7554 2.31787 25.6823 2.75136L24.294 10.9844H23.8101C23.6211 8.6921 22.6309 6.56281 20.9731 4.91965C19.0907 3.05297 16.5679 2.01689 13.8673 2.00099L13.8581 2.00086L13.852 2.00081L13.8458 2.00054L13.8424 2.00072C13.8285 2.00036 13.8147 2 13.8002 2C11.1066 2 8.57389 3.05468 6.66906 4.96934C4.81875 6.82695 3.78499 9.276 3.7576 11.8661L3.7575 11.8728L3.75723 11.8778L3.75696 11.8828L3.75714 11.8863L3.75732 11.8896C3.75696 11.9174 3.75659 11.9453 3.75659 11.9727C3.75659 14.6124 4.80131 17.0941 6.69837 18.9608L6.69846 18.9609C7.63828 19.8857 8.76462 20.6216 9.98757 21.1167C9.84724 21.6032 9.72626 22.0803 9.62491 22.5584C9.34268 23.8866 9.20052 25.2194 9.19029 26.6246C9.18929 26.6817 9.18929 26.7398 9.18929 26.7968V26.7969C9.18929 29.9173 10.4241 32.8503 12.6659 35.0552C14.2467 36.6114 16.1958 37.6736 18.3199 38.165V46.2031H11.9285C11.4242 46.2031 11.0154 46.6054 11.0154 47.1016C11.0154 47.5977 11.4242 48 11.9285 48H30.1896C30.6939 48 31.1027 47.5977 31.1027 47.1016C31.1027 46.6054 30.6939 46.2031 30.1896 46.2031H23.7982V38.1621C29.027 36.942 32.9288 32.3097 32.9288 26.7969V26.7286C32.9251 25.5136 32.8086 24.15 32.6016 22.8587C32.6058 22.8243 32.6084 22.7894 32.6084 22.7538C32.6084 22.6154 32.5756 22.4847 32.5188 22.3677C32.355 21.4589 32.1511 20.6228 31.9106 19.8812L29.2336 11.6101C29.1129 11.2375 28.7611 10.9844 28.3636 10.9844H26.1451L27.3571 3.79688H35.7136C36.2179 3.79688 36.6267 3.39464 36.6267 2.89844C36.6267 2.40223 36.2179 2 35.7136 2ZM21.9769 10.9856H16.1302L20.287 6.86623C21.2399 8.0528 21.8237 9.47233 21.9769 10.9856ZM19.0025 5.58444C17.7879 4.61943 16.3262 4.02134 14.7595 3.84821V9.78904L19.0025 5.58444ZM14.4339 12.7812H23.9915L22.4613 21.8555H11.6745C11.7568 21.5557 11.8465 21.2529 11.947 20.9422L11.952 20.9265L14.4339 12.7812ZM12.9331 9.84622V3.84088C11.3568 4.00619 9.877 4.62108 8.64136 5.6232L12.9331 9.84622ZM7.36512 6.91024L11.5047 10.9836H5.64537C5.82753 9.49522 6.41946 8.09303 7.36512 6.91024ZM11.7216 12.7812H5.62285C5.77898 14.3384 6.38644 15.7996 7.38021 17.0189L11.5555 12.9097C11.6067 12.8594 11.6627 12.8171 11.7216 12.7812ZM8.6718 18.2909L11.781 15.2309L10.5146 19.3867C9.85668 19.1034 9.23534 18.7339 8.6718 18.2909ZM20.1454 46.2031H21.9715V38.4766H20.1454V46.2031ZM31.103 26.7295V26.795H31.1029C31.1029 32.2444 26.5974 36.6779 21.0593 36.6779C18.376 36.6779 15.8539 35.6499 13.9574 33.7828C12.0604 31.917 11.0157 29.4354 11.0157 26.795C11.0157 26.748 11.0157 26.7 11.0166 26.6443C11.0241 25.6094 11.1101 24.6236 11.2753 23.6505H23.233L23.2363 23.6506L23.2393 23.6505H30.8749C31.0194 24.6949 31.1001 25.7651 31.103 26.7295ZM30.1704 20.4269L27.6957 12.7812H25.8418L24.3116 21.8555H30.5543C30.4396 21.3417 30.3102 20.8583 30.1704 20.4269Z" fill="#CAFD35"/>
<path d="M25.6823 2.75136L25.1893 2.66818L25.1893 2.66822L25.6823 2.75136ZM24.294 10.9844V11.4844H24.7168L24.787 11.0675L24.294 10.9844ZM23.8101 10.9844L23.3118 11.0255L23.3496 11.4844H23.8101V10.9844ZM20.9731 4.91965L20.6211 5.27469L20.6211 5.27477L20.9731 4.91965ZM13.8673 2.00099L13.8603 2.50096L13.8644 2.50098L13.8673 2.00099ZM13.8581 2.00086L13.8652 1.5009L13.8622 1.50088L13.8581 2.00086ZM13.852 2.00081L13.8303 2.50034L13.8391 2.50072L13.8479 2.50079L13.852 2.00081ZM13.8458 2.00054L13.8675 1.50101L13.8433 1.49996L13.8192 1.50124L13.8458 2.00054ZM13.8424 2.00072L13.8295 2.50055L13.8492 2.50106L13.869 2.50001L13.8424 2.00072ZM6.66906 4.96934L7.02331 5.32219L7.02353 5.32198L6.66906 4.96934ZM3.7576 11.8661L4.25755 11.873L4.25757 11.8714L3.7576 11.8661ZM3.7575 11.8728L4.25677 11.8999L4.25732 11.8898L4.25746 11.8796L3.7575 11.8728ZM3.75723 11.8778L3.25797 11.8506L3.25797 11.8506L3.75723 11.8778ZM3.75696 11.8828L3.2577 11.8556L3.25623 11.8825L3.25766 11.9094L3.75696 11.8828ZM3.75714 11.8863L3.25785 11.9129L3.25786 11.9131L3.75714 11.8863ZM3.75732 11.8896L4.25728 11.8962L4.2575 11.8795L4.2566 11.8628L3.75732 11.8896ZM6.69837 18.9608L7.0524 18.6077L7.04906 18.6044L6.69837 18.9608ZM6.69846 18.9609L6.34444 19.314L6.34776 19.3173L6.69846 18.9609ZM9.98757 21.1167L10.468 21.2553L10.5929 20.8223L10.1752 20.6532L9.98757 21.1167ZM9.62491 22.5584L10.114 22.6623L10.114 22.6621L9.62491 22.5584ZM9.19029 26.6246L9.69024 26.6333L9.69028 26.6282L9.19029 26.6246ZM12.6659 35.0552L13.0167 34.6989L13.0165 34.6988L12.6659 35.0552ZM18.3199 38.165H18.8199V37.7674L18.4326 37.6778L18.3199 38.165ZM18.3199 46.2031V46.7031H18.8199V46.2031H18.3199ZM23.7982 46.2031H23.2982V46.7031H23.7982V46.2031ZM23.7982 38.1621L23.6846 37.6752L23.2982 37.7653V38.1621H23.7982ZM32.9288 26.7286H33.4288L33.4288 26.7271L32.9288 26.7286ZM32.6016 22.8587L32.1052 22.7994L32.0969 22.8688L32.1079 22.9378L32.6016 22.8587ZM32.5188 22.3677L32.0268 22.4564L32.039 22.524L32.069 22.5859L32.5188 22.3677ZM31.9106 19.8812L31.4349 20.0351L31.435 20.0353L31.9106 19.8812ZM29.2336 11.6101L28.7579 11.7641L28.7579 11.7641L29.2336 11.6101ZM26.1451 10.9844L25.6521 10.9012L25.5538 11.4844H26.1451V10.9844ZM27.3571 3.79688V3.29688H26.9344L26.8641 3.71374L27.3571 3.79688ZM16.1302 10.9856L15.7783 10.6304L14.9153 11.4856H16.1302V10.9856ZM21.9769 10.9856V11.4856H22.5301L22.4744 10.9352L21.9769 10.9856ZM20.287 6.86623L20.6769 6.55316L20.3293 6.12038L19.9351 6.51108L20.287 6.86623ZM14.7595 3.84821L14.8144 3.35124L14.2595 3.28992V3.84821H14.7595ZM19.0025 5.58444L19.3544 5.9396L19.7544 5.54326L19.3135 5.19297L19.0025 5.58444ZM14.7595 9.78904H14.2595V10.9884L15.1115 10.1442L14.7595 9.78904ZM23.9915 12.7812L24.4845 12.8644L24.5828 12.2812H23.9915V12.7812ZM14.4339 12.7812V12.2812H14.0636L13.9557 12.6355L14.4339 12.7812ZM22.4613 21.8555V22.3555H22.884L22.9543 21.9386L22.4613 21.8555ZM11.6745 21.8555L11.1923 21.7231L11.0188 22.3555H11.6745V21.8555ZM11.947 20.9422L12.4228 21.0961L12.4241 21.0918L11.947 20.9422ZM11.952 20.9265L12.4291 21.0761L12.4303 21.0722L11.952 20.9265ZM12.9331 3.84088H13.4331V3.2857L12.8809 3.34361L12.9331 3.84088ZM12.9331 9.84622L12.5824 10.2026L13.4331 11.0397V9.84622H12.9331ZM8.64136 5.6232L8.32642 5.23486L7.89193 5.58723L8.29067 5.9796L8.64136 5.6232ZM11.5047 10.9836V11.4836H12.7258L11.8554 10.6272L11.5047 10.9836ZM7.36512 6.91024L7.71581 6.55384L7.32072 6.16508L6.97459 6.59801L7.36512 6.91024ZM5.64537 10.9836L5.14908 10.9228L5.08045 11.4836H5.64537V10.9836ZM5.62285 12.7812V12.2812H5.0702L5.12534 12.8311L5.62285 12.7812ZM11.7216 12.7812L11.9816 13.2083L13.5047 12.2812H11.7216V12.7812ZM7.38021 17.0189L6.99264 17.3348L7.33956 17.7604L7.73093 17.3753L7.38021 17.0189ZM11.5555 12.9097L11.2048 12.5533L11.2048 12.5534L11.5555 12.9097ZM11.781 15.2309L12.2593 15.3766L11.4303 14.8745L11.781 15.2309ZM8.6718 18.2909L8.32107 17.9346L7.91622 18.333L8.36282 18.6841L8.6718 18.2909ZM10.5146 19.3867L10.3169 19.8459L10.8301 20.0669L10.9929 19.5324L10.5146 19.3867ZM21.9715 46.2031V46.7031H22.4715V46.2031H21.9715ZM20.1454 46.2031H19.6454V46.7031H20.1454V46.2031ZM21.9715 38.4766H22.4715V37.9766H21.9715V38.4766ZM20.1454 38.4766V37.9766H19.6454V38.4766H20.1454ZM31.103 26.795V27.295H31.603V26.795H31.103ZM31.103 26.7295H31.603L31.603 26.7279L31.103 26.7295ZM31.1029 26.795V26.295H30.6029V26.795H31.1029ZM13.9574 33.7828L14.3082 33.4265L14.308 33.4263L13.9574 33.7828ZM11.0166 26.6443L11.5165 26.6525L11.5166 26.6479L11.0166 26.6443ZM11.2753 23.6505V23.1505H10.8531L10.7824 23.5668L11.2753 23.6505ZM23.233 23.6505L23.2466 23.1505H23.233V23.6505ZM23.2363 23.6506L23.2227 24.1504L23.2369 24.1508L23.2512 24.1504L23.2363 23.6506ZM23.2393 23.6505V23.1505H23.2319L23.2244 23.1507L23.2393 23.6505ZM30.8749 23.6505L31.3702 23.582L31.3105 23.1505H30.8749V23.6505ZM27.6957 12.7812L28.1714 12.6273L28.0594 12.2812H27.6957V12.7812ZM30.1704 20.4269L29.6947 20.5808L29.6947 20.5811L30.1704 20.4269ZM25.8418 12.7812V12.2812H25.4191L25.3488 12.6981L25.8418 12.7812ZM24.3116 21.8555L23.8186 21.7723L23.7203 22.3555H24.3116V21.8555ZM30.5543 21.8555V22.3555H31.1782L31.0423 21.7465L30.5543 21.8555ZM26.583 2.5H35.7136V1.5H26.583V2.5ZM26.1753 2.83455C26.2069 2.64733 26.3747 2.5 26.583 2.5V1.5C25.8982 1.5 25.304 1.9884 25.1893 2.66818L26.1753 2.83455ZM24.787 11.0675L26.1753 2.8345L25.1893 2.66822L23.801 10.9012L24.787 11.0675ZM23.8101 11.4844H24.294V10.4844H23.8101V11.4844ZM20.6211 5.27477C22.1947 6.83448 23.1326 8.8526 23.3118 11.0255L24.3084 10.9433C24.1095 8.5316 23.067 6.29113 21.3251 4.56454L20.6211 5.27477ZM13.8644 2.50098C16.4369 2.51613 18.8335 3.50208 20.6211 5.27469L21.3252 4.56462C19.3479 2.60386 16.6989 1.51765 13.8703 1.501L13.8644 2.50098ZM13.8511 2.50081L13.8603 2.50094L13.8744 1.50104L13.8652 1.50091L13.8511 2.50081ZM13.8479 2.50079L13.854 2.50084L13.8622 1.50088L13.8561 1.50083L13.8479 2.50079ZM13.8241 2.50007L13.8303 2.50034L13.8737 1.50128L13.8675 1.50101L13.8241 2.50007ZM13.869 2.50001L13.8724 2.49983L13.8192 1.50124L13.8159 1.50142L13.869 2.50001ZM13.8002 2.5C13.8072 2.5 13.8147 2.50017 13.8295 2.50055L13.8554 1.50089C13.8424 1.50055 13.8221 1.5 13.8002 1.5V2.5ZM7.02353 5.32198C8.8348 3.50135 11.2401 2.5 13.8002 2.5V1.5C10.9731 1.5 8.31297 2.608 6.3146 4.61669L7.02353 5.32198ZM4.25757 11.8714C4.28356 9.41347 5.26381 7.08864 7.02331 5.32219L6.31482 4.61648C4.3737 6.56525 3.28641 9.13853 3.25762 11.8608L4.25757 11.8714ZM4.25746 11.8796L4.25755 11.873L3.25764 11.8592L3.25755 11.8659L4.25746 11.8796ZM4.25649 11.905L4.25677 11.8999L3.25824 11.8456L3.25797 11.8506L4.25649 11.905ZM4.25622 11.91L4.25649 11.905L3.25797 11.8506L3.2577 11.8556L4.25622 11.91ZM4.25644 11.8597L4.25625 11.8562L3.25766 11.9094L3.25785 11.9129L4.25644 11.8597ZM4.2566 11.8628L4.25642 11.8595L3.25786 11.9131L3.25804 11.9165L4.2566 11.8628ZM4.25659 11.9727C4.25659 11.9491 4.25691 11.9245 4.25728 11.8962L3.25737 11.8831C3.25701 11.9103 3.25659 11.9414 3.25659 11.9727H4.25659ZM7.04906 18.6044C5.24664 16.8308 4.25659 14.4771 4.25659 11.9727H3.25659C3.25659 14.7476 4.35599 17.3574 6.34768 19.3172L7.04906 18.6044ZM7.05248 18.6078L7.05239 18.6077L6.34436 19.3139L6.34445 19.314L7.05248 18.6078ZM10.1752 20.6532C9.01235 20.1825 7.9416 19.4827 7.04917 18.6045L6.34776 19.3173C7.33495 20.2887 8.51689 21.0608 9.79997 21.5802L10.1752 20.6532ZM10.114 22.6621C10.2126 22.197 10.3306 21.7316 10.468 21.2553L9.50716 20.9781C9.36389 21.4748 9.23989 21.9635 9.13577 22.4547L10.114 22.6621ZM9.69028 26.6282C9.70027 25.2555 9.83903 23.9563 10.114 22.6623L9.13583 22.4545C8.84633 23.8169 8.70077 25.1833 8.6903 26.6209L9.69028 26.6282ZM9.68929 26.7968C9.68929 26.739 9.6893 26.6853 9.69021 26.6333L8.69037 26.6158C8.68927 26.678 8.68929 26.7405 8.68929 26.7968H9.68929ZM9.68929 26.7969V26.7968H8.68929V26.7969H9.68929ZM13.0165 34.6988C10.8694 32.587 9.68929 29.7821 9.68929 26.7969H8.68929C8.68929 30.0525 9.97877 33.1136 12.3153 35.4117L13.0165 34.6988ZM18.4326 37.6778C16.398 37.2072 14.5314 36.1901 13.0167 34.6989L12.3152 35.4115C13.962 37.0327 15.9936 38.1401 18.2072 38.6521L18.4326 37.6778ZM18.8199 46.2031V38.165H17.8199V46.2031H18.8199ZM11.9285 46.7031H18.3199V45.7031H11.9285V46.7031ZM11.5154 47.1016C11.5154 46.8891 11.6927 46.7031 11.9285 46.7031V45.7031C11.1556 45.7031 10.5154 46.3218 10.5154 47.1016H11.5154ZM11.9285 47.5C11.6927 47.5 11.5154 47.314 11.5154 47.1016H10.5154C10.5154 47.8814 11.1556 48.5 11.9285 48.5V47.5ZM30.1896 47.5H11.9285V48.5H30.1896V47.5ZM30.6027 47.1016C30.6027 47.314 30.4254 47.5 30.1896 47.5V48.5C30.9624 48.5 31.6027 47.8814 31.6027 47.1016H30.6027ZM30.1896 46.7031C30.4254 46.7031 30.6027 46.8891 30.6027 47.1016H31.6027C31.6027 46.3218 30.9624 45.7031 30.1896 45.7031V46.7031ZM23.7982 46.7031H30.1896V45.7031H23.7982V46.7031ZM23.2982 38.1621V46.2031H24.2982V38.1621H23.2982ZM32.4288 26.7969C32.4288 32.0665 28.6978 36.5054 23.6846 37.6752L23.9118 38.649C29.3562 37.3787 33.4288 32.5529 33.4288 26.7969H32.4288ZM32.4288 26.7286V26.7969H33.4288V26.7286H32.4288ZM32.1079 22.9378C32.3112 24.2059 32.4252 25.5435 32.4288 26.7301L33.4288 26.7271C33.4251 25.4838 33.3061 24.0941 33.0953 22.7795L32.1079 22.9378ZM32.1084 22.7538C32.1084 22.7647 32.1076 22.7791 32.1052 22.7994L33.0981 22.9179C33.1039 22.8694 33.1084 22.8141 33.1084 22.7538H32.1084ZM32.069 22.5859C32.0948 22.6391 32.1084 22.6954 32.1084 22.7538H33.1084C33.1084 22.5353 33.0565 22.3304 32.9687 22.1494L32.069 22.5859ZM31.435 20.0353C31.6673 20.7518 31.8662 21.5655 32.0268 22.4564L33.0109 22.279C32.8439 21.3523 32.6348 20.4938 32.3863 19.727L31.435 20.0353ZM28.7579 11.7641L31.4349 20.0351L32.3863 19.7272L29.7093 11.4562L28.7579 11.7641ZM28.3636 11.4844C28.5487 11.4844 28.7053 11.6019 28.7579 11.7641L29.7093 11.4562C29.5205 10.8731 28.9736 10.4844 28.3636 10.4844V11.4844ZM26.1451 11.4844H28.3636V10.4844H26.1451V11.4844ZM26.8641 3.71374L25.6521 10.9012L26.6382 11.0675L27.8502 3.88001L26.8641 3.71374ZM35.7136 3.29688H27.3571V4.29688H35.7136V3.29688ZM36.1267 2.89844C36.1267 3.11093 35.9494 3.29688 35.7136 3.29688V4.29688C36.4864 4.29688 37.1267 3.67836 37.1267 2.89844H36.1267ZM35.7136 2.5C35.9494 2.5 36.1267 2.68595 36.1267 2.89844H37.1267C37.1267 2.11851 36.4864 1.5 35.7136 1.5V2.5ZM16.1302 11.4856H21.9769V10.4856H16.1302V11.4856ZM19.9351 6.51108L15.7783 10.6304L16.4822 11.3407L20.639 7.22138L19.9351 6.51108ZM22.4744 10.9352C22.3114 9.3253 21.6899 7.81464 20.6769 6.55316L19.8972 7.1793C20.7899 8.29096 21.336 9.61936 21.4794 11.0359L22.4744 10.9352ZM14.7046 4.34519C16.1793 4.50815 17.5519 5.07049 18.6914 5.97592L19.3135 5.19297C18.024 4.16837 16.4731 3.53453 14.8144 3.35124L14.7046 4.34519ZM15.2595 9.78904V3.84821H14.2595V9.78904H15.2595ZM18.6505 5.22929L14.4076 9.43389L15.1115 10.1442L19.3544 5.9396L18.6505 5.22929ZM23.9915 12.2812H14.4339V13.2812H23.9915V12.2812ZM22.9543 21.9386L24.4845 12.8644L23.4984 12.6981L21.9682 21.7723L22.9543 21.9386ZM11.6745 22.3555H22.4613V21.3555H11.6745V22.3555ZM11.4713 20.7883C11.3683 21.1066 11.2764 21.4167 11.1923 21.7231L12.1567 21.9878C12.2371 21.6948 12.3247 21.3991 12.4228 21.0961L11.4713 20.7883ZM11.4749 20.7769L11.47 20.7926L12.4241 21.0918L12.4291 21.0761L11.4749 20.7769ZM13.9557 12.6355L11.4737 20.7807L12.4303 21.0722L14.9122 12.927L13.9557 12.6355ZM12.4331 3.84088V9.84622H13.4331V3.84088H12.4331ZM8.95631 6.01154C10.1171 5.0701 11.5057 4.49331 12.9853 4.33815L12.8809 3.34361C11.2079 3.51907 9.63687 4.17207 8.32642 5.23486L8.95631 6.01154ZM13.2838 9.48982L8.99205 5.26681L8.29067 5.9796L12.5824 10.2026L13.2838 9.48982ZM11.8554 10.6272L7.71581 6.55384L7.01443 7.26663L11.154 11.34L11.8554 10.6272ZM5.64537 11.4836H11.5047V10.4836H5.64537V11.4836ZM6.97459 6.59801C5.97164 7.85246 5.34261 9.34152 5.14908 10.9228L6.14167 11.0443C6.31245 9.64892 6.86728 8.3336 7.75564 7.22247L6.97459 6.59801ZM5.62285 13.2812H11.7216V12.2812H5.62285V13.2812ZM7.76778 16.703C6.8353 15.5589 6.2666 14.19 6.12035 12.7314L5.12534 12.8311C5.29135 14.4868 5.93757 16.0403 6.99264 17.3348L7.76778 16.703ZM11.2048 12.5534L7.02949 16.6625L7.73093 17.3753L11.9062 13.2661L11.2048 12.5534ZM11.4616 12.3542C11.3738 12.4076 11.2865 12.473 11.2048 12.5533L11.9062 13.2661C11.9269 13.2458 11.9517 13.2266 11.9816 13.2083L11.4616 12.3542ZM11.4303 14.8745L8.32107 17.9346L9.02253 18.6473L12.1318 15.5872L11.4303 14.8745ZM10.9929 19.5324L12.2593 15.3766L11.3028 15.0851L10.0363 19.2409L10.9929 19.5324ZM8.36282 18.6841C8.96036 19.1537 9.61909 19.5455 10.3169 19.8459L10.7124 18.9274C10.0943 18.6613 9.51031 18.314 8.98078 17.8978L8.36282 18.6841ZM21.9715 45.7031H20.1454V46.7031H21.9715V45.7031ZM21.4715 38.4766V46.2031H22.4715V38.4766H21.4715ZM20.1454 38.9766H21.9715V37.9766H20.1454V38.9766ZM20.6454 46.2031V38.4766H19.6454V46.2031H20.6454ZM31.603 26.795V26.7295H30.603V26.795H31.603ZM31.1029 27.295H31.103V26.295H31.1029V27.295ZM21.0593 37.1779C26.8659 37.1779 31.6029 32.5281 31.6029 26.795H30.6029C30.6029 31.9607 26.3288 36.1779 21.0593 36.1779V37.1779ZM13.6067 34.1391C15.5976 36.0991 18.246 37.1779 21.0593 37.1779V36.1779C18.506 36.1779 16.1103 35.2006 14.3082 33.4265L13.6067 34.1391ZM10.5157 26.795C10.5157 29.5706 11.615 32.1803 13.6068 34.1393L14.308 33.4263C12.5057 31.6537 11.5157 29.3002 11.5157 26.795H10.5157ZM10.5166 26.6361C10.5156 26.6964 10.5157 26.7482 10.5157 26.795H11.5157C11.5157 26.7478 11.5157 26.7036 11.5165 26.6525L10.5166 26.6361ZM10.7824 23.5668C10.6125 24.5672 10.5243 25.5798 10.5166 26.6406L11.5166 26.6479C11.5239 25.6389 11.6076 24.68 11.7683 23.7342L10.7824 23.5668ZM23.233 23.1505H11.2753V24.1505H23.233V23.1505ZM23.2499 23.1508L23.2466 23.1507L23.2194 24.1503L23.2227 24.1504L23.2499 23.1508ZM23.2244 23.1507L23.2214 23.1508L23.2512 24.1504L23.2542 24.1503L23.2244 23.1507ZM30.8749 23.1505H23.2393V24.1505H30.8749V23.1505ZM31.603 26.7279C31.6 25.7385 31.5174 24.6458 31.3702 23.582L30.3797 23.719C30.5214 24.7439 30.6002 25.7916 30.603 26.731L31.603 26.7279ZM27.22 12.9352L29.6947 20.5808L30.6461 20.2729L28.1714 12.6273L27.22 12.9352ZM25.8418 13.2812H27.6957V12.2812H25.8418V13.2812ZM24.8047 21.9386L26.3349 12.8644L25.3488 12.6981L23.8186 21.7723L24.8047 21.9386ZM30.5543 21.3555H24.3116V22.3555H30.5543V21.3555ZM29.6947 20.5811C29.8289 20.995 29.9544 21.463 30.0663 21.9644L31.0423 21.7465C30.9249 21.2205 30.7915 20.7216 30.646 20.2727L29.6947 20.5811Z" fill="#CAFD35"/>
</svg>
