<svg width="81" height="80" viewBox="0 0 81 80" fill="none" xmlns="http://www.w3.org/2000/svg">
<g id="room-key">
<path id="Shape" fill-rule="evenodd" clip-rule="evenodd" d="M80.1373 30.3972L78.0989 28.359V11.9147C78.0989 5.34487 72.7541 0 66.1842 0C63.4811 0 60.9866 0.906199 58.9852 2.42885C50.1638 -1.90222 39.1818 -0.40499 31.855 6.92164C24.0086 14.7682 22.8492 26.8064 28.3734 35.8938L19.439 44.8282H15.6648C14.8036 44.8282 14.1053 45.5264 14.1053 46.3877V49.2487H11.2442C10.3831 49.2487 9.68474 49.9468 9.68474 50.8081V53.6691H6.82392C5.96279 53.6691 5.26446 54.3673 5.26446 55.2285V58.0895H2.40365C1.99008 58.0895 1.59351 58.2539 1.30096 58.5463L1.20676 58.6405C0.914366 58.9326 0.75 59.3293 0.75 59.7428V69.8615C0.75 70.7228 1.44832 71.421 2.30945 71.421H12.6167C13.0302 71.421 13.4268 71.2566 13.7194 70.9642L30.9215 53.762C31.5305 53.1531 31.5305 52.1656 30.9215 51.5565C30.3124 50.9475 29.3253 50.9475 28.716 51.5565L11.9706 68.3022H3.86891V61.208H6.82407C7.6852 61.208 8.38353 60.5098 8.38353 59.6485V56.7875H11.2445C12.1056 56.7875 12.804 56.0894 12.804 55.2281V52.3671H15.6651C16.5262 52.3671 17.2245 51.6689 17.2245 50.8076V47.9467H20.0855C20.4991 47.9467 20.8957 47.7823 21.1882 47.4899L30.1964 38.4819C30.7118 39.1178 31.2646 39.7333 31.856 40.3247C36.0752 44.5439 41.61 46.969 47.5352 47.2198V73.2919C47.5352 76.9032 50.4734 79.8414 54.0847 79.8414H74.0453C77.6567 79.8414 80.5948 76.9032 80.5948 73.2919V31.4997C80.5941 31.0863 80.4297 30.6897 80.1373 30.3972ZM66.1841 3.11719C71.0341 3.11719 74.98 7.06292 74.98 11.913V25.2384L72.1758 22.4341C72.1738 22.4321 72.1718 22.4302 72.1697 22.4283C72.1685 22.4271 72.1673 22.426 72.1661 22.4249C72.1611 22.4203 72.156 22.4158 72.1508 22.4113L72.1402 22.402L72.1332 22.3956C71.843 16.7621 69.552 11.2133 65.2587 6.9196C64.2332 5.89426 63.1358 4.9837 61.9832 4.18666C63.2323 3.50518 64.6636 3.11719 66.1841 3.11719ZM57.388 12.9023V16.3448C57.388 17.206 56.6898 17.9044 55.8287 17.9044C54.9675 17.9044 54.2692 17.2063 54.2692 16.345V12.9094C53.8686 13.0915 53.492 13.3429 53.1629 13.6719C51.6889 15.1458 51.6889 17.5441 53.1629 19.0181C54.6369 20.4922 57.0352 20.4921 58.5089 19.0181C59.2231 18.304 59.6164 17.3546 59.6164 16.3448C59.6164 15.3351 59.223 14.3859 58.5089 13.6718C58.176 13.3387 57.7941 13.085 57.388 12.9023ZM48.5566 44.1134C43.3075 44.1129 38.0565 42.1145 34.0603 38.1184C26.0673 30.1252 26.0673 17.1191 34.0604 9.12577C37.9325 5.25365 43.0809 3.12109 48.5569 3.12109C51.3859 3.12109 54.1267 3.6917 56.65 4.77567C55.6024 6.17139 54.8546 7.80398 54.5006 9.57692C53.2015 9.83127 51.9619 10.4602 50.9576 11.4645C48.2677 14.1545 48.2677 18.5313 50.9576 21.2214C52.3027 22.5664 54.0691 23.2388 55.836 23.2388C57.6024 23.2388 59.3694 22.5662 60.7143 21.2214C62.0174 19.9183 62.7352 18.1856 62.7352 16.3429C62.7352 14.5001 62.0174 12.7676 60.7143 11.4645C59.8397 10.5899 58.7866 10.0017 57.6715 9.69591C58.0066 8.41029 58.6268 7.2393 59.4591 6.25232C60.7458 7.06339 61.9512 8.02402 63.053 9.12593C66.9251 12.9981 69.0577 18.1463 69.0577 23.6223C69.0577 29.0983 66.9251 34.2466 63.053 38.1187C59.056 42.1157 53.8072 44.1138 48.5566 44.1134ZM74.0445 76.7248C75.9361 76.7248 77.4751 75.1858 77.4751 73.294V32.1474L71.9721 26.6445C71.3321 31.6507 69.0954 36.49 65.2587 40.3267C61.2952 44.2901 56.1711 46.6698 50.6532 47.152V73.294C50.6532 75.1858 52.1922 76.7248 54.084 76.7248H74.0445Z" fill="#CAFD35"/>
<path id="Path" fill-rule="evenodd" clip-rule="evenodd" d="M40.1509 15.6621C40.7602 15.0531 40.7602 14.0657 40.1511 13.4567C39.542 12.8478 38.5548 12.8478 37.9456 13.4567C32.3515 19.051 32.3515 28.1533 37.9456 33.7474C38.2501 34.052 38.6492 34.2042 39.0482 34.2042C39.4473 34.2042 39.8464 34.0518 40.1509 33.7474C40.7599 33.1384 40.7599 32.151 40.1509 31.542C35.7729 27.1639 35.7729 20.0401 40.1509 15.6621Z" fill="#CAFD35"/>
<path id="Path_2" fill-rule="evenodd" clip-rule="evenodd" d="M45.7478 34.064C45.7433 34.0628 45.7255 34.0578 45.721 34.0566C44.8922 33.8275 44.0362 34.3151 43.8068 35.1446C43.5771 35.9734 44.0652 36.8327 44.8937 37.0638C45.0361 37.1042 45.1793 37.1234 45.3202 37.1234C45.9989 37.1234 46.6232 36.6769 46.8189 35.992C47.0556 35.1638 46.5761 34.3006 45.7478 34.064Z" fill="#CAFD35"/>
<path id="Path_3" fill-rule="evenodd" clip-rule="evenodd" d="M70.5645 68H57.3095C56.4483 68 55.75 68.6982 55.75 69.5595C55.75 70.4207 56.4483 71.1189 57.3095 71.1189H70.5645C71.4256 71.1189 72.124 70.4207 72.124 69.5595C72.124 68.6982 71.4256 68 70.5645 68Z" fill="#CAFD35"/>
<path id="Path_4" fill-rule="evenodd" clip-rule="evenodd" d="M34.4118 47.4569C34.1219 47.1669 33.7196 47 33.3095 47C32.8993 47 32.497 47.1669 32.2069 47.4569C31.9169 47.747 31.75 48.1493 31.75 48.5595C31.75 48.9696 31.9167 49.3719 32.2069 49.662C32.4971 49.952 32.8993 50.1189 33.3095 50.1189C33.7212 50.1189 34.1219 49.952 34.4118 49.662C34.7035 49.3719 34.8689 48.9696 34.8689 48.5595C34.8689 48.1493 34.7035 47.747 34.4118 47.4569Z" fill="#CAFD35"/>
</g>
</svg>
