<svg width="81" height="80" viewBox="0 0 81 80" fill="none" xmlns="http://www.w3.org/2000/svg">
<g id="karaoke">
<path id="Path" fill-rule="evenodd" clip-rule="evenodd" d="M13.8928 15.0036C14.1118 15.2297 14.4127 15.3559 14.7258 15.3524C14.8844 15.3559 15.0424 15.3277 15.19 15.2684C15.4758 15.1398 15.7046 14.9084 15.8324 14.6189C15.8905 14.4697 15.919 14.3106 15.9155 14.1496C15.9184 13.8337 15.7941 13.5294 15.5704 13.308C15.4618 13.1959 15.3323 13.106 15.19 13.0432C14.9698 12.9604 14.7322 12.9351 14.4998 12.9709C14.4284 12.995 14.3453 13.0191 14.2739 13.0432C14.2024 13.0672 14.131 13.1154 14.0711 13.1518C13.9451 13.247 13.833 13.3609 13.7383 13.4883C13.7029 13.5482 13.6668 13.6205 13.6314 13.6927C13.5954 13.765 13.5838 13.8489 13.56 13.9212C13.5501 13.9969 13.546 14.0733 13.5478 14.1496C13.5443 14.3106 13.5727 14.4697 13.6314 14.6189C13.693 14.7634 13.7819 14.8937 13.8928 15.0036Z" fill="#CAFD35"/>
<path id="Path_2" fill-rule="evenodd" clip-rule="evenodd" d="M10.9498 15.2873C10.6017 15.6259 10.4977 16.1496 10.689 16.5993C10.7463 16.7457 10.8353 16.8774 10.9498 16.9843C11.1695 17.2165 11.473 17.347 11.7904 17.3459C11.9448 17.3429 12.0974 17.31 12.2402 17.2495C12.3841 17.1913 12.5136 17.1007 12.6189 16.9843C12.7293 16.8744 12.8177 16.7433 12.8796 16.5993C13.0525 16.1479 12.9507 15.6353 12.6189 15.2873C12.1511 14.8352 11.4175 14.8352 10.9498 15.2873Z" fill="#CAFD35"/>
<path id="Path_3" fill-rule="evenodd" clip-rule="evenodd" d="M10.6498 18.2945C10.4313 18.0667 10.13 17.9379 9.8155 17.9379C9.50039 17.9379 9.19915 18.0667 8.98059 18.2945C8.86322 18.4029 8.77417 18.5381 8.71982 18.6885C8.65911 18.8319 8.62731 18.9863 8.625 19.1419C8.62847 19.4607 8.75625 19.7649 8.98059 19.9893C9.20377 20.2061 9.49981 20.3297 9.80914 20.3355C10.1231 20.3332 10.4243 20.2096 10.6498 19.9893C10.8707 19.7638 10.9944 19.459 10.9933 19.1419C10.9956 18.9869 10.9678 18.833 10.9106 18.6885C10.8522 18.5405 10.7632 18.4064 10.6498 18.2945Z" fill="#CAFD35"/>
<path id="Path_4" fill-rule="evenodd" clip-rule="evenodd" d="M14.7315 20.3355C14.8899 20.3337 15.0466 20.3017 15.1935 20.2405C15.3346 20.1822 15.4635 20.0971 15.5722 19.9893C15.7931 19.7638 15.9162 19.459 15.9157 19.1419C15.918 18.9869 15.8896 18.833 15.833 18.6885C15.774 18.5405 15.6855 18.4064 15.5722 18.2945C15.3531 18.0667 15.0518 17.9379 14.7373 17.9379C14.4228 17.9379 14.1215 18.0667 13.9024 18.2945C13.789 18.4064 13.7006 18.5405 13.6422 18.6885C13.5815 18.8319 13.5491 18.9863 13.5474 19.1419C13.552 19.7993 14.0793 20.3314 14.7315 20.3355Z" fill="#CAFD35"/>
<path id="Path_5" fill-rule="evenodd" clip-rule="evenodd" d="M12.6191 21.2613C12.149 20.8162 11.4199 20.8162 10.9498 21.2613C10.8325 21.3706 10.7434 21.5068 10.6891 21.6583C10.6284 21.8028 10.596 21.9584 10.5943 22.1152C10.5914 22.6037 10.8799 23.0453 11.3245 23.2332C11.7686 23.4206 12.2803 23.316 12.6191 22.969C12.84 22.7417 12.9637 22.4346 12.9625 22.1152C12.9648 21.959 12.9365 21.8033 12.8798 21.6583C12.8214 21.5091 12.7324 21.3735 12.6191 21.2613Z" fill="#CAFD35"/>
<path id="Path_6" fill-rule="evenodd" clip-rule="evenodd" d="M17.6848 12.363C17.8386 12.3653 17.9918 12.3365 18.1346 12.2783C18.2768 12.216 18.4052 12.1261 18.5139 12.0138C18.6278 11.9069 18.7168 11.7752 18.7741 11.6283C18.8336 11.4837 18.866 11.3286 18.8689 11.171C18.8701 10.849 18.7417 10.5404 18.5139 10.3165C18.4087 10.2007 18.2792 10.1102 18.1346 10.0514C17.6911 9.87335 17.1852 9.97679 16.8441 10.3165C16.6192 10.5416 16.4954 10.8507 16.5006 11.171C16.5006 11.489 16.6261 11.794 16.8481 12.018C17.0707 12.2419 17.372 12.3659 17.6848 12.363Z" fill="#CAFD35"/>
<path id="Path_7" fill-rule="evenodd" clip-rule="evenodd" d="M20.1881 9.28922C20.3309 9.34686 20.4841 9.37568 20.6379 9.37333C20.9525 9.37392 21.2548 9.24864 21.4786 9.02397C21.6966 8.794 21.8197 8.48816 21.822 8.1688C21.8157 7.85355 21.6931 7.55242 21.4786 7.32539C21.1363 6.9878 20.6321 6.88428 20.1881 7.06073C20.0383 7.11543 19.9048 7.20659 19.7972 7.32539C19.6868 7.43597 19.5984 7.56654 19.5365 7.71122C19.4798 7.85649 19.4515 8.01235 19.4538 8.1688C19.448 8.48934 19.5723 8.79871 19.7972 9.02397C19.9077 9.13925 20.0407 9.22923 20.1881 9.28922Z" fill="#CAFD35"/>
<path id="Path_8" fill-rule="evenodd" clip-rule="evenodd" d="M10.6491 7.31841C10.3063 6.98233 9.80061 6.88379 9.35903 7.0662C9.06195 7.17529 8.82729 7.41284 8.71979 7.7149C8.6591 7.85919 8.62731 8.01403 8.625 8.17122C8.62731 8.48971 8.75042 8.7947 8.96832 9.02403C9.08623 9.12961 9.21743 9.21876 9.35903 9.28856C9.50237 9.34604 9.65496 9.37478 9.8087 9.37243C9.88846 9.37654 9.96823 9.36833 10.0457 9.34839C10.1179 9.33372 10.1896 9.31378 10.2589 9.28856C10.3324 9.25278 10.4034 9.2129 10.4716 9.16832C10.5341 9.12374 10.593 9.07565 10.6491 9.02403C10.7005 8.96714 10.7479 8.90673 10.7913 8.84397C10.8352 8.77417 10.8751 8.70203 10.9098 8.62754C10.9352 8.55716 10.9548 8.48501 10.9687 8.41111C10.9884 8.3331 10.9965 8.25216 10.9924 8.17122C10.9947 8.0152 10.967 7.85977 10.9098 7.7149C10.841 7.5712 10.7537 7.43806 10.6491 7.31841Z" fill="#CAFD35"/>
<path id="Path_9" fill-rule="evenodd" clip-rule="evenodd" d="M12.6183 4.33397L12.4409 4.19C12.3108 4.10456 12.1663 4.04369 12.0149 4.01033C11.7843 3.96176 11.5444 3.98692 11.3283 4.08232C11.1867 4.14026 11.0584 4.2257 10.9497 4.33397C10.7278 4.56105 10.6006 4.86596 10.5942 5.18492C10.5966 5.26509 10.6041 5.34527 10.6179 5.42487L10.689 5.64024C10.7197 5.71456 10.7555 5.78655 10.7954 5.85619C10.8433 5.91881 10.8948 5.97909 10.9497 6.03586C11.0584 6.14413 11.1867 6.22958 11.3283 6.28752C11.4687 6.35482 11.6225 6.38759 11.7779 6.3835C11.8571 6.38174 11.9363 6.37355 12.0149 6.3595C12.1663 6.32614 12.3108 6.26528 12.4409 6.17983C12.5027 6.13535 12.5623 6.08736 12.6183 6.03586C12.6727 5.98202 12.7206 5.92174 12.7605 5.85619C12.8044 5.78713 12.8437 5.71456 12.879 5.64024C12.9038 5.57001 12.9241 5.49802 12.9379 5.42487C12.9576 5.34644 12.9657 5.26568 12.9616 5.18492C12.964 5.02924 12.9356 4.87415 12.879 4.7296C12.8143 4.58387 12.7264 4.45044 12.6183 4.33397Z" fill="#CAFD35"/>
<path id="Path_10" fill-rule="evenodd" clip-rule="evenodd" d="M7.69654 10.3252C7.63988 10.2702 7.58091 10.2181 7.51847 10.1696C7.45025 10.1286 7.37914 10.0929 7.30571 10.0614L7.09238 9.98998C6.8617 9.94084 6.62177 9.966 6.40554 10.0614C6.25927 10.1222 6.1263 10.2117 6.01529 10.3252C5.80022 10.551 5.67766 10.8506 5.67188 11.1641C5.67361 11.2443 5.6817 11.3244 5.69558 11.4034C5.72853 11.5573 5.78866 11.7029 5.87307 11.8352L6.01529 12.0148C6.12977 12.1242 6.26158 12.2131 6.40554 12.278C6.54892 12.3359 6.70155 12.3646 6.85592 12.3623C6.93512 12.3658 7.01491 12.3582 7.09238 12.3383C7.16522 12.3236 7.23634 12.3038 7.30571 12.278C7.37914 12.2429 7.45025 12.2031 7.51847 12.1581C7.5838 12.1177 7.64335 12.0697 7.69654 12.0148C7.74742 11.9574 7.79482 11.8977 7.83819 11.8352C7.92317 11.7029 7.9833 11.5573 8.01625 11.4034C8.02955 11.3244 8.03765 11.2443 8.03996 11.1641C8.04401 11.0068 8.01163 10.8506 7.94514 10.7084C7.88733 10.5656 7.80292 10.4352 7.69654 10.3252Z" fill="#CAFD35"/>
<path id="Path_11" fill-rule="evenodd" clip-rule="evenodd" d="M12.6183 10.3249C12.5623 10.2699 12.5027 10.2178 12.4409 10.1692C12.3762 10.1283 12.3091 10.0926 12.2397 10.061C12.1687 10.0376 12.086 10.0136 12.0149 9.9896C11.7843 9.94103 11.5444 9.96619 11.3283 10.061C11.0433 10.1897 10.8156 10.4202 10.689 10.7081C10.6283 10.8526 10.596 11.0071 10.5942 11.1639C10.5966 11.2441 10.6041 11.3243 10.6179 11.4032C10.6416 11.4752 10.6653 11.5589 10.689 11.6309C10.7197 11.7017 10.7555 11.7695 10.7954 11.8351C10.8433 11.8977 10.8948 11.9574 10.9497 12.0147C11.0578 12.1265 11.1861 12.216 11.3283 12.278C11.471 12.3359 11.6242 12.3646 11.7779 12.3623C11.8577 12.3658 11.9375 12.3582 12.0149 12.3383C12.0912 12.3236 12.1663 12.3037 12.2397 12.278C12.3091 12.2429 12.3767 12.2025 12.4409 12.1581C12.5698 12.0756 12.679 11.9655 12.7605 11.8351C12.8044 11.7695 12.8437 11.7017 12.879 11.6309C12.9038 11.5565 12.9241 11.4805 12.9379 11.4032C12.9576 11.3248 12.9657 11.2441 12.9616 11.1639C12.964 11.0077 12.9356 10.8532 12.879 10.7081C12.8172 10.5648 12.7287 10.4343 12.6183 10.3249Z" fill="#CAFD35"/>
<path id="Path_12" fill-rule="evenodd" clip-rule="evenodd" d="M13.6314 8.64156C13.6668 8.71295 13.7028 8.77322 13.7382 8.8452C13.7864 8.90781 13.8381 8.96808 13.8927 9.02484C13.9438 9.08278 14.0042 9.13134 14.071 9.1688C14.1343 9.21561 14.2022 9.25599 14.2737 9.28876C14.3474 9.31392 14.4229 9.33381 14.4996 9.34844C14.5733 9.36834 14.6494 9.37653 14.7255 9.37244C15.0419 9.37536 15.3462 9.25013 15.5698 9.02484C15.7957 8.80072 15.92 8.49292 15.9148 8.174C15.9188 8.09735 15.9107 8.02069 15.891 7.94637C15.8782 7.86854 15.8584 7.79247 15.8317 7.71874C15.7667 7.57303 15.6784 7.43903 15.5698 7.32316C15.4606 7.21491 15.3311 7.12947 15.1894 7.07154C14.9723 6.97674 14.7313 6.95158 14.4996 6.99956C14.4212 7.01244 14.3451 7.03643 14.2737 7.07154C14.2005 7.09495 14.132 7.13181 14.071 7.17921C14.0117 7.2272 13.9403 7.27518 13.8927 7.32316C13.6709 7.54963 13.5472 7.85567 13.5478 8.174C13.546 8.25417 13.5501 8.33434 13.56 8.41334C13.5838 8.48531 13.6076 8.56958 13.6314 8.64156Z" fill="#CAFD35"/>
<path id="Path_13" fill-rule="evenodd" clip-rule="evenodd" d="M16.8441 6.03533C16.8949 6.09325 16.9551 6.1418 17.0216 6.17924C17.0863 6.2237 17.1534 6.26348 17.2228 6.29916C17.2962 6.32431 17.3714 6.34479 17.4483 6.35883C17.5252 6.37872 17.605 6.38691 17.6848 6.38281C17.9964 6.38574 18.2959 6.26055 18.5139 6.03533C18.6307 5.92653 18.7203 5.79139 18.7741 5.63988C18.8348 5.49598 18.8672 5.34154 18.8689 5.18477C18.8654 4.86537 18.7377 4.55942 18.5139 4.33421C18.4046 4.22598 18.2763 4.14058 18.1346 4.08266C17.9189 3.98673 17.679 3.96157 17.4483 4.01071C17.2962 4.04405 17.1517 4.10489 17.0216 4.1903C16.9626 4.23827 16.8915 4.28624 16.8441 4.33421C16.6232 4.56059 16.5 4.86654 16.5006 5.18477C16.4983 5.34037 16.5266 5.49539 16.5833 5.63988C16.6423 5.78906 16.7307 5.9236 16.8441 6.03533Z" fill="#CAFD35"/>
<path id="Path_14" fill-rule="evenodd" clip-rule="evenodd" d="M10.9098 13.6943C10.8774 13.6222 10.8375 13.5541 10.7913 13.4902C10.7543 13.4222 10.7063 13.3612 10.6491 13.3102C10.593 13.2545 10.5341 13.2023 10.4716 13.1542C10.4006 13.1178 10.3416 13.082 10.2705 13.0457C10.1994 13.0099 10.1168 12.9976 10.0457 12.9735C9.65438 12.9049 9.25442 13.0298 8.96832 13.3102C8.92093 13.3583 8.87353 13.4304 8.82672 13.4902C8.77932 13.5512 8.74349 13.6204 8.71979 13.6943C8.68569 13.7665 8.66199 13.8433 8.6487 13.9225C8.6354 13.9981 8.62731 14.0743 8.625 14.1506C8.62558 14.3119 8.65794 14.4708 8.71979 14.6192C8.77701 14.7629 8.86197 14.8931 8.96832 15.0033C9.08334 15.113 9.21512 15.2027 9.35903 15.2678C9.43186 15.2948 9.50758 15.3147 9.58387 15.3276C9.65727 15.3476 9.73299 15.3558 9.8087 15.3517C10.1243 15.3575 10.4283 15.2315 10.6491 15.0033C10.8722 14.7775 10.9959 14.4702 10.9924 14.1506C10.9965 14.0738 10.9884 13.9969 10.9687 13.9225C10.9548 13.845 10.9352 13.7688 10.9098 13.6943Z" fill="#CAFD35"/>
<path id="Path_15" fill-rule="evenodd" clip-rule="evenodd" d="M7.95624 15.6809C7.92156 15.6107 7.88168 15.5423 7.83775 15.4774C7.80133 15.4095 7.75336 15.3487 7.69613 15.2978C7.58515 15.1832 7.4522 15.0931 7.30538 15.0341C6.86146 14.8563 6.35568 14.9598 6.01522 15.2978C5.96783 15.3452 5.92043 15.4171 5.87303 15.4774C5.78864 15.6089 5.72852 15.7551 5.69557 15.9084C5.6817 15.9873 5.67361 16.0674 5.67188 16.1481C5.67766 16.461 5.8002 16.7605 6.01522 16.9862C6.23776 17.2131 6.5395 17.3424 6.85568 17.3459C7.01001 17.3435 7.16319 17.3114 7.30538 17.25C7.45451 17.195 7.58862 17.1049 7.69613 16.9862C7.91809 16.7657 8.04237 16.4628 8.03948 16.1481C8.04295 16.0674 8.03543 15.9867 8.01578 15.9084C8.00133 15.8312 7.98168 15.7551 7.95624 15.6809Z" fill="#CAFD35"/>
<path id="Path_16" fill-rule="evenodd" clip-rule="evenodd" d="M17.6852 17.3459C17.8401 17.3435 17.9927 17.3113 18.1349 17.2498C18.4198 17.121 18.6475 16.8903 18.7741 16.6023C18.8348 16.4583 18.8672 16.3031 18.8689 16.1468C18.8701 15.8253 18.7417 15.5179 18.514 15.2955C18.2343 15.0144 17.8349 14.8932 17.4488 14.9717C17.3719 14.9857 17.2968 15.0056 17.2234 15.0314C17.1529 15.0671 17.0934 15.1034 17.0223 15.1391C16.8968 15.2346 16.7853 15.3476 16.6911 15.4752C16.6552 15.5472 16.62 15.6069 16.5842 15.679C16.5593 15.7533 16.5396 15.8294 16.5252 15.9067C16.5055 15.9852 16.4975 16.066 16.5015 16.1468C16.4986 16.4618 16.6223 16.7651 16.8448 16.9858C17.065 17.2171 17.3685 17.347 17.6852 17.3459Z" fill="#CAFD35"/>
<path id="Path_17" fill-rule="evenodd" clip-rule="evenodd" d="M19.7973 15.0032C19.9078 15.1185 20.0407 15.2091 20.1882 15.2685C20.331 15.3267 20.4842 15.3549 20.638 15.3526C20.9525 15.3538 21.2549 15.2285 21.4786 15.0032C21.5856 14.8926 21.67 14.7621 21.7272 14.618C21.7879 14.4692 21.8203 14.3098 21.822 14.148C21.8197 13.8328 21.6966 13.5299 21.4786 13.3052C21.1363 12.967 20.6322 12.8635 20.1882 13.04C20.0407 13.0994 19.9078 13.1899 19.7973 13.3052C19.5747 13.5269 19.451 13.8316 19.4539 14.148C19.4504 14.3092 19.4788 14.4686 19.5366 14.618C19.5984 14.7627 19.6869 14.8932 19.7973 15.0032Z" fill="#CAFD35"/>
<path id="Path_18" fill-rule="evenodd" clip-rule="evenodd" d="M23.1427 12.2783C23.2863 12.3365 23.4393 12.3653 23.5939 12.363C24.0707 12.3606 24.4999 12.0689 24.6835 11.6225C24.8672 11.1756 24.7698 10.661 24.4362 10.3152C24.0933 9.9776 23.5881 9.8741 23.1427 10.0499C22.9932 10.1052 22.8589 10.1964 22.7517 10.3152C22.2918 10.7851 22.2918 11.5437 22.7517 12.0136C22.8623 12.1289 22.9956 12.2189 23.1427 12.2783Z" fill="#CAFD35"/>
<path id="Shape" fill-rule="evenodd" clip-rule="evenodd" d="M79.9281 77.3861L73.865 74.3467C71.6034 73.2239 70.1734 70.8918 70.1831 68.3418V67.2805C70.1799 63.912 68.3984 60.8026 65.5119 59.1288L58.3588 54.9933C58.9087 53.5185 58.5571 51.8545 57.4586 50.7369L56.4939 49.7599C57.7236 48.2275 57.6674 46.0165 56.3621 44.5501L34.018 19.5197L35.9358 17.5776C36.184 17.3264 36.3235 16.9855 36.3235 16.6295C36.3235 16.2742 36.184 15.9333 35.9358 15.682L32.1932 11.8921C31.9451 11.6408 31.6084 11.4995 31.2575 11.4995C31.0016 11.5067 30.7529 11.5911 30.5442 11.7416C29.0644 4.53014 22.5548 -0.468349 15.2983 0.0348374C8.04176 0.537369 2.26495 6.3865 1.76869 13.7354C1.27243 21.0836 6.20856 27.6754 13.3301 29.1738C13.1814 29.3852 13.0981 29.6364 13.0903 29.8962C13.0903 30.2515 13.2299 30.5924 13.478 30.8437L17.2207 34.633C17.4688 34.8849 17.8055 35.0262 18.157 35.0262C18.5085 35.0262 18.8452 34.8849 19.0933 34.633L21.0092 32.6915L45.7338 55.3212C47.1767 56.6554 49.3692 56.7129 50.878 55.4553L51.844 56.4335C53.1015 57.716 55.0549 57.9791 56.5999 57.0741L64.2002 61.4687C66.2589 62.6615 67.5312 64.8778 67.5364 67.2805V68.3418C67.5235 71.9139 69.5285 75.179 72.6974 76.7481L78.7611 79.7875C78.9433 79.8772 79.1436 79.923 79.3459 79.921C79.9656 79.9269 80.5058 79.4977 80.6466 78.8872C80.7881 78.2767 80.4922 77.6485 79.9352 77.375L79.9281 77.3861ZM7.86341 6.2072C11.1841 2.8439 16.1474 1.77144 20.5349 3.46879C24.9224 5.16549 27.9155 9.3153 28.1766 14.0645L27.5149 14.7345C27.9601 14.2824 28.0286 13.5757 27.6784 13.0444C27.3288 12.5137 26.6581 12.3063 26.0752 12.5484C25.9143 12.6217 25.767 12.7211 25.6384 12.8435C25.3954 13.0934 25.2578 13.4304 25.2546 13.7812C25.2565 13.8715 25.2656 13.9611 25.2811 14.0494C25.2959 14.1378 25.3224 14.2235 25.3605 14.304C25.387 14.3864 25.4271 14.4636 25.4801 14.5317C25.526 14.6037 25.5796 14.6711 25.6384 14.7326C25.8891 14.9838 26.2258 15.1278 26.5779 15.135C26.9279 15.1298 27.2612 14.987 27.5088 14.7374L24.7137 17.5685C24.9567 17.3179 25.0937 16.9815 25.0963 16.6301C25.093 16.4509 25.0568 16.2742 24.9903 16.108C24.9263 15.9477 24.8313 15.8024 24.7124 15.6787C24.3299 15.3031 23.7664 15.188 23.2695 15.3843C23.1054 15.4504 22.9568 15.5511 22.8333 15.6787C22.7138 15.8024 22.6195 15.9477 22.5548 16.108C22.4883 16.2742 22.4528 16.4509 22.4495 16.6301C22.4521 16.9815 22.5897 17.3179 22.8333 17.5685C22.9529 17.7006 23.1028 17.8021 23.2695 17.8636C23.4291 17.9323 23.5997 17.9683 23.7729 17.9702C24.1227 17.9657 24.4566 17.8236 24.7049 17.5735L21.9306 20.3828C22.1536 20.1335 22.2809 19.8109 22.288 19.4739C22.286 19.2992 22.2499 19.1258 22.182 18.9648C22.1213 18.7993 22.0263 18.6488 21.9042 18.5225C21.7723 18.4047 21.6256 18.3053 21.4673 18.228C21.1449 18.0939 20.7837 18.0939 20.4619 18.228C20.1317 18.3654 19.8693 18.6305 19.7336 18.9648C19.6102 19.2926 19.6102 19.6552 19.7336 19.9836C19.8105 20.1433 19.9081 20.2925 20.0251 20.4253C20.1491 20.5496 20.2978 20.6452 20.4619 20.7067C20.6208 20.7754 20.7914 20.812 20.9646 20.814C21.2967 20.8068 21.6153 20.6785 21.8615 20.4521L19.0881 23.2612C19.3343 23.0105 19.4752 22.6718 19.4797 22.3177C19.4778 22.1429 19.4416 21.9695 19.3737 21.8086C19.313 21.6398 19.2135 21.488 19.083 21.3662C18.5628 20.8552 17.7363 20.8552 17.2168 21.3662C17.0901 21.4912 16.9913 21.6424 16.9254 21.8086C16.862 21.9702 16.8304 22.1436 16.833 22.3177C16.8317 22.6736 16.97 23.0158 17.2168 23.2691C17.3383 23.3901 17.4824 23.4856 17.64 23.5504C17.8042 23.6185 17.9793 23.6545 18.1563 23.6577C18.5033 23.6558 18.8355 23.5171 19.083 23.2704L16.2874 26.1013C16.5337 25.8505 16.674 25.5124 16.6792 25.1588C16.6727 24.8015 16.5306 24.4613 16.2824 24.2074C16.2217 24.1472 16.1551 24.0935 16.0841 24.0464C16.0162 23.9934 15.94 23.9528 15.8592 23.926C15.7791 23.8868 15.6944 23.8599 15.6072 23.8455C15.1762 23.7637 14.7323 23.8985 14.4163 24.2074C14.2954 24.3369 14.1972 24.4868 14.1255 24.6497C14.0576 24.8107 14.0215 24.9834 14.0195 25.1588C14.0169 25.7019 14.3381 26.1926 14.8331 26.402C15.3287 26.6108 15.8992 26.4969 16.2786 26.1128L15.6169 26.7829C10.9256 26.5178 6.82695 23.4856 5.15206 19.0407C3.47718 14.5958 4.53884 9.56918 7.86341 6.2072ZM16.285 29.8958L18.1576 31.7907L31.2575 18.5234L33.1289 16.6297L31.2575 14.7341L16.285 29.8958ZM47.5088 53.3333L22.8831 30.7947L32.1467 21.4141L54.4022 46.3529C54.8746 46.8829 54.8546 47.6949 54.3557 48.1994L49.3272 53.2921C48.8277 53.792 48.0297 53.8103 47.5088 53.3333ZM52.7797 53.5921L53.7153 54.5396C54.2323 55.0631 55.0704 55.0631 55.5873 54.539C56.1036 54.0155 56.1036 53.1668 55.5867 52.6433L54.6523 51.6959L52.7797 53.5921Z" fill="#CAFD35"/>
<path id="Shape_2" fill-rule="evenodd" clip-rule="evenodd" d="M80.1915 5.24011C79.8422 4.98255 79.3926 4.91231 78.9837 5.05079L62.8785 10.5311C62.3299 10.7177 61.9603 11.2415 61.9603 11.8316V23.5534C61.1477 23.0604 60.2211 22.7975 59.2761 22.7921C56.3114 22.7921 53.9077 25.2453 53.9077 28.2724C53.9077 31.2988 56.3114 33.7527 59.2761 33.7527C62.2408 33.7527 64.6446 31.2988 64.6446 28.2724V12.819L78.0656 8.25118V18.0731C77.253 17.5801 76.3264 17.3172 75.3814 17.3118C72.4167 17.3118 70.013 19.765 70.013 22.7921C70.013 25.8186 72.4167 28.2724 75.3814 28.2724C78.3461 28.2724 80.7498 25.8186 80.7498 22.7921V6.35128C80.7498 5.91043 80.5414 5.497 80.1915 5.24011ZM59.2761 31.0112C57.7938 31.0112 56.5919 29.7843 56.5919 28.2711C56.5919 26.7572 57.7938 25.531 59.2761 25.531C60.7585 25.531 61.9603 26.7572 61.9603 28.2711C61.9603 29.7843 60.7585 31.0112 59.2761 31.0112ZM72.6972 22.794C72.6972 24.3072 73.8991 25.5341 75.3814 25.5341C76.8637 25.5341 78.0656 24.3072 78.0656 22.794C78.0656 21.2801 76.8637 20.0538 75.3814 20.0538C73.8991 20.0538 72.6972 21.2801 72.6972 22.794Z" fill="#CAFD35"/>
<path id="Shape_3" fill-rule="evenodd" clip-rule="evenodd" d="M9.67926 54.3024L28.2678 48.8816C28.6684 48.7651 29.0996 48.8465 29.4321 49.1026C29.7647 49.3587 29.9605 49.759 29.9605 50.1845V69.1572C29.9605 72.1509 27.5825 74.578 24.6495 74.578C21.7165 74.578 19.3385 72.1509 19.3385 69.1572C19.3385 66.163 21.7165 63.7365 24.6495 63.7365C25.5844 63.7418 26.5011 64.0018 27.305 64.4895V57.4343L11.372 62.0504V74.578C11.372 77.5716 8.99399 79.9988 6.06101 79.9988C3.12802 79.9988 0.75 77.5716 0.75 74.578C0.75 71.5838 3.12802 69.1572 6.06101 69.1572C6.99588 69.1625 7.9126 69.4226 8.71651 69.9103V55.6053C8.71651 55.0005 9.10939 54.4691 9.67926 54.3024ZM3.4055 74.5773C3.4055 76.0741 4.59451 77.2877 6.061 77.2877C7.5275 77.2877 8.71651 76.0741 8.71651 74.5773C8.71651 73.0799 7.5275 71.8669 6.061 71.8669C4.59451 71.8669 3.4055 73.0799 3.4055 74.5773ZM11.372 59.2345V56.6286L27.305 51.9827V54.6203L11.372 59.2345ZM21.994 69.1586C21.994 70.6554 23.183 71.869 24.6495 71.869C26.116 71.869 27.305 70.6554 27.305 69.1586C27.305 67.6611 26.116 66.4482 24.6495 66.4482C23.183 66.4482 21.994 67.6611 21.994 69.1586Z" fill="#CAFD35"/>
</g>
</svg>
