<svg width="81" height="80" viewBox="0 0 81 80" fill="none" xmlns="http://www.w3.org/2000/svg">
<g id="food">
<path id="Path" fill-rule="evenodd" clip-rule="evenodd" d="M25.4018 26.1817C25.6618 26.4679 26.003 26.6117 26.3448 26.6117C26.686 26.6117 27.0272 26.4679 27.2872 26.1817C27.8084 25.608 27.8084 24.6801 27.2872 24.1063C25.9341 22.6154 25.9341 20.1907 27.2872 18.6998C28.4475 17.4226 29.0871 15.7261 29.0871 13.9208C29.0871 12.1155 28.4487 10.4183 27.2872 9.14177C26.766 8.56733 25.9231 8.56733 25.4018 9.14177C24.8806 9.71555 24.8806 10.6434 25.4018 11.2165C26.058 11.9388 26.4211 12.8989 26.4211 13.9201C26.4211 14.942 26.0592 15.9015 25.4018 16.6237C23.0086 19.2581 23.0086 23.5473 25.4018 26.1817Z" fill="#CAFD35"/>
<path id="Path_2" fill-rule="evenodd" clip-rule="evenodd" d="M54.4131 26.1817C54.6731 26.4679 55.0143 26.6117 55.3554 26.6117C55.6972 26.6117 56.0384 26.4679 56.2984 26.1817C56.8197 25.608 56.8197 24.6801 56.2984 24.1063C54.9453 22.6154 54.9453 20.1907 56.2984 18.6998C57.4581 17.4226 58.0984 15.7261 58.0984 13.9208C58.0984 12.1155 57.4599 10.4183 56.2984 9.14177C55.7772 8.56733 54.9343 8.56733 54.4131 9.14177C53.8918 9.71555 53.8918 10.6434 54.4131 11.2165C55.0692 11.9388 55.4317 12.8989 55.4317 13.9201C55.4317 14.942 55.0704 15.9015 54.4131 16.6237C52.0199 19.2581 52.0199 23.5473 54.4131 26.1817Z" fill="#CAFD35"/>
<path id="Path_3" fill-rule="evenodd" clip-rule="evenodd" d="M39.4677 17.4708C39.7277 17.757 40.0695 17.9008 40.4107 17.9008C40.7518 17.9008 41.093 17.757 41.353 17.4708C41.8749 16.897 41.8749 15.9692 41.353 15.3954C39.9999 13.9045 39.9999 11.4797 41.353 9.98818C42.5133 8.71163 43.153 7.01449 43.153 5.20917C43.153 3.40453 42.5145 1.70739 41.353 0.430836C40.8318 -0.143612 39.9889 -0.143612 39.4683 0.430836C38.9464 1.00461 38.9464 1.93179 39.4683 2.50557C40.1238 3.22783 40.487 4.18793 40.487 5.20917C40.487 6.23041 40.1256 7.19052 39.4683 7.91278C37.0745 10.5472 37.0745 14.8364 39.4677 17.4708Z" fill="#CAFD35"/>
<path id="Path_4" fill-rule="evenodd" clip-rule="evenodd" d="M34.6101 37.5576C34.7071 37.5576 34.806 37.5462 34.9049 37.5227C36.822 37.047 38.8044 36.8058 40.7996 36.8058H40.8167C41.5528 36.8058 42.1497 36.1501 42.1497 35.3398C42.1497 34.5282 41.554 33.8711 40.8167 33.8711C40.8112 33.8711 40.8045 33.8711 40.7978 33.8711C38.6073 33.8711 36.4271 34.1365 34.3183 34.6592C33.5993 34.8366 33.1489 35.622 33.31 36.4128C33.4516 37.0954 34.0003 37.5576 34.6101 37.5576Z" fill="#CAFD35"/>
<path id="Path_5" fill-rule="evenodd" clip-rule="evenodd" d="M14.1516 62.5225C14.2333 62.54 14.3133 62.5474 14.3914 62.5474C15.0237 62.5474 15.5853 62.0509 15.7025 61.3434C17.088 52.9806 21.6662 45.539 27.9504 41.4413C28.5833 41.0294 28.7933 40.1278 28.4185 39.4304C28.0425 38.7336 27.2253 38.5032 26.5917 38.9157C19.6527 43.4401 14.6026 51.6275 13.0798 60.8153C12.9467 61.6141 13.4265 62.3767 14.1516 62.5225Z" fill="#CAFD35"/>
<path id="Shape" fill-rule="evenodd" clip-rule="evenodd" d="M47.3589 29.332C61.4391 32.338 72.4993 44.7474 74.915 60.3657C77.7019 62.1018 80.75 64.6569 80.75 67.5238C80.75 74.9869 60.067 79.999 40.75 79.999C21.4324 79.999 0.75 74.9869 0.75 67.5238C0.75 64.6569 3.7981 62.1018 6.58435 60.3657C9.00073 44.7474 20.0603 32.338 34.1405 29.332C34.1352 29.2797 34.1294 29.2274 34.1236 29.1749L34.1236 29.1747C34.1034 28.9921 34.0831 28.809 34.0831 28.6279C34.0831 24.5812 37.0739 21.2891 40.75 21.2891C44.4261 21.2891 47.4163 24.5812 47.4163 28.6279C47.4163 28.8047 47.3966 28.9835 47.377 29.1619C47.3707 29.2186 47.3645 29.2754 47.3589 29.332ZM36.7498 28.63C36.7498 28.7126 36.7528 28.7973 36.7583 28.8826C36.7929 28.8778 36.8276 28.8752 36.8627 28.8726C36.8907 28.8705 36.919 28.8684 36.9475 28.8651C37.4065 28.8107 37.8679 28.7697 38.3318 28.7341C38.4028 28.7288 38.4738 28.7223 38.5447 28.7158C38.6438 28.7067 38.7428 28.6977 38.842 28.6918C39.4744 28.6535 40.1104 28.6313 40.7518 28.6313C41.3927 28.6313 42.0287 28.6535 42.661 28.6918C42.7602 28.6977 42.8593 28.7067 42.9583 28.7158C43.0293 28.7223 43.1002 28.7288 43.1713 28.7341C43.6351 28.7697 44.0972 28.8094 44.5555 28.8651C44.5865 28.8689 44.618 28.8714 44.6497 28.874L44.6497 28.874C44.6804 28.8765 44.7114 28.879 44.7423 28.8826C44.7478 28.7973 44.7502 28.714 44.7502 28.63C44.7502 26.2025 42.9552 24.2266 40.75 24.2266C38.5448 24.2266 36.7498 26.2025 36.7498 28.63ZM35.9484 31.9595C36.6643 31.842 37.3845 31.7566 38.1072 31.6921C38.2555 31.6787 38.4032 31.6673 38.5509 31.6559C40.0151 31.547 41.4861 31.547 42.9497 31.6559C43.098 31.6673 43.2457 31.6787 43.394 31.6921C44.1167 31.7566 44.8369 31.842 45.5522 31.9595C59.4432 34.2708 70.4283 46.4484 72.4218 61.7778C72.4828 62.2488 72.5322 62.7211 72.5762 63.1941C72.5827 63.267 72.5904 63.3397 72.5981 63.4124C72.6075 63.5017 72.617 63.5912 72.6244 63.6812C72.6763 64.3309 72.7147 64.9813 72.7336 65.6316C51.787 70.9757 29.7148 70.9757 8.76819 65.6316C8.78833 64.9813 8.82556 64.3309 8.87744 63.6812C8.8855 63.5832 8.89553 63.486 8.90557 63.3888C8.91226 63.3239 8.91895 63.2591 8.92505 63.1941C8.96899 62.7197 9.01843 62.2467 9.08008 61.7778C11.0729 46.4484 22.058 34.2694 35.9484 31.9595ZM3.41663 67.5219C3.41663 70.7959 17.9552 77.0618 40.75 77.0618C63.5448 77.0618 78.0834 70.7959 78.0828 67.5219C78.0828 66.9596 77.451 65.7213 75.3307 64.1055C75.3335 64.1488 75.3343 64.1918 75.335 64.2349C75.3356 64.2746 75.3363 64.3145 75.3386 64.3547C75.3844 65.1603 75.4161 65.9692 75.4161 66.7882V67.9445L74.3938 68.216C63.3885 71.1238 52.0684 72.5784 40.7494 72.5784C29.431 72.5784 18.1115 71.1225 7.10559 68.216L6.08325 67.9445V66.7882C6.08325 65.9692 6.11499 65.159 6.16016 64.3547C6.1629 64.3128 6.16366 64.2713 6.16443 64.2299C6.16519 64.1885 6.16595 64.1472 6.1687 64.1055C4.04834 65.7213 3.41663 66.9596 3.41663 67.5219Z" fill="#CAFD35"/>
</g>
</svg>
