<svg width="58" height="80" viewBox="0 0 58 80" fill="none" xmlns="http://www.w3.org/2000/svg">
<path fill-rule="evenodd" clip-rule="evenodd" d="M56.1667 0H40.3333C39.5589 0 38.8982 0.552813 38.7714 1.30672L36.3639 15.625H35.5247C35.197 11.6384 33.4799 7.93531 30.6052 5.07766C27.3408 1.83125 22.9661 0.029375 18.283 0.00171875C18.2777 0.00153125 18.2724 0.0015125 18.2671 0.00149375L18.2564 0.00140625L18.2511 0.00117188L18.2457 0.0009375L18.2426 0.00109844L18.2398 0.00125C18.2157 0.000625 18.1917 0 18.1667 0C13.4957 0 9.10367 1.83422 5.80052 5.16406C2.59189 8.39469 0.799242 12.6539 0.751742 17.1584L0.751662 17.1642L0.751583 17.17C0.751583 17.173 0.751346 17.1759 0.751108 17.1787C0.750871 17.1816 0.750633 17.1845 0.750633 17.1875C0.750633 17.1896 0.750795 17.1916 0.750955 17.1936C0.751111 17.1955 0.751267 17.1974 0.751267 17.1994C0.750633 17.2477 0.75 17.2961 0.75 17.3438C0.75 21.9345 2.56165 26.2506 5.85134 29.497L5.85144 29.4971L5.8515 29.4972C7.48123 31.1056 9.43443 32.3855 11.5551 33.2464C11.3118 34.0925 11.102 34.9222 10.9262 35.7537C10.4368 38.0636 10.1903 40.3816 10.1726 42.8253C10.1708 42.9247 10.1708 43.0258 10.1708 43.125C10.1708 48.5519 12.3121 53.6527 16.1997 57.4873C18.9409 60.1938 22.3209 62.0411 26.0042 62.8956V76.875H14.9208C14.0464 76.875 13.3375 77.5747 13.3375 78.4375C13.3375 79.3003 14.0464 80 14.9208 80H46.5875C47.462 80 48.1708 79.3003 48.1708 78.4375C48.1708 77.5747 47.462 76.875 46.5875 76.875H35.5042V62.8906C44.5714 60.7687 51.3375 52.7125 51.3375 43.125V43.0062C51.3312 40.8933 51.1291 38.5217 50.7702 36.2759C50.7773 36.2161 50.7819 36.1555 50.7819 36.0936C50.7819 35.8528 50.7251 35.6256 50.6266 35.422C50.3425 33.8416 49.9888 32.3875 49.5719 31.0977L44.9296 16.7133C44.7204 16.0652 44.1104 15.625 43.421 15.625H39.574L41.6757 3.125H56.1667C57.0411 3.125 57.75 2.42547 57.75 1.5625C57.75 0.699531 57.0411 0 56.1667 0ZM32.3457 15.625H22.207L29.4153 8.46094C31.0677 10.5245 32.0801 12.9933 32.3457 15.625ZM27.1878 6.23828C25.0817 4.56 22.5469 3.51984 19.8301 3.21875V13.5506L27.1878 6.23828ZM19.2656 18.75H35.8393L33.1858 34.5312H14.4805C14.6231 34.01 14.7788 33.4833 14.9531 32.943L14.9586 32.9255L14.9616 32.9156L19.2656 18.75ZM16.663 13.6472V3.20312C13.9295 3.49062 11.3634 4.56 9.2207 6.30281L16.663 13.6472ZM7.0076 8.53906L14.1861 15.6231H4.02539C4.34127 13.0347 5.36774 10.5961 7.0076 8.53906ZM14.5622 18.75H3.98633C4.25708 21.4581 5.31047 23.9994 7.03377 26.1198L14.2742 18.9734C14.3629 18.8859 14.4601 18.8123 14.5622 18.75ZM9.27344 28.3297L14.6652 23.0078L12.4691 30.2353C11.3281 29.7427 10.2507 29.1 9.27344 28.3297ZM29.1699 76.875H32.3366V63.4375H29.1699V76.875ZM48.1714 43.0109V43.125H48.1712C48.1712 52.6022 40.3581 60.3125 30.7546 60.3125C26.1015 60.3125 21.728 58.5247 18.4392 55.2777C15.1495 52.0328 13.3379 47.7169 13.3379 43.125C13.3379 43.0431 13.3379 42.9597 13.3395 42.8628C13.3526 41.063 13.5016 39.3486 13.7882 37.6562H34.524L34.5297 37.6564L34.5349 37.6562H47.7759C48.0264 39.4725 48.1663 41.3338 48.1714 43.0109ZM46.5541 32.0467L42.2628 18.75H39.048L36.3945 34.5312H47.2199C47.0211 33.6378 46.7967 32.797 46.5541 32.0467Z" fill="#CAFD35"/>
</svg>
