<svg width="81" height="80" viewBox="0 0 81 80" fill="none" xmlns="http://www.w3.org/2000/svg">
<g id="xbox">
<path id="Shape" fill-rule="evenodd" clip-rule="evenodd" d="M59.0744 23.1227C66.0553 24.1469 71.9114 28.8647 74.3372 35.4195V35.4207C78.6628 45.6867 80.842 56.7118 80.7444 67.8323C80.839 71.3533 79.7326 74.8036 77.6034 77.6269C76.6098 78.9172 75.0695 79.6813 73.4297 79.6982H73.359C71.6856 79.6958 70.1038 78.9414 69.0596 77.648L61.1469 67.0809C59.6341 65.0682 57.2485 63.8805 54.7123 63.8774H26.7883C24.2563 63.8847 21.8756 65.0718 20.3646 67.0809L12.4873 77.6046C11.4315 78.9522 9.79419 79.7284 8.0708 79.6982C6.43162 79.6819 4.89131 78.9178 3.89779 77.6287C1.76796 74.8048 0.661548 71.3539 0.755529 67.8323C0.657886 56.7124 2.83715 45.6873 7.16272 35.4219C8.66031 31.6071 11.2918 28.3305 14.7099 26.0245C17.0564 24.5507 19.6817 23.5639 22.4261 23.124C24.6066 22.754 26.8475 23.2314 28.6813 24.4565C29.7664 25.1795 31.0333 25.5905 32.3405 25.6431H49.1594C50.4666 25.5905 51.7329 25.1795 52.818 24.4565C54.6506 23.2296 56.8927 22.7516 59.0744 23.1227ZM75.4882 76.0227C77.2549 73.6569 78.1672 70.7727 78.0781 67.8323C78.1776 57.0727 76.0734 46.4042 71.8925 36.4703C70.6158 33.1376 68.3401 30.2703 65.3693 28.2527C63.3256 26.9696 61.0395 26.1108 58.6503 25.7263C57.1466 25.4632 55.5978 25.7855 54.3296 26.6268C52.8015 27.6558 51.0073 28.2298 49.1594 28.2798H32.3405C30.4932 28.2304 28.699 27.6564 27.1721 26.6268C25.9028 25.7861 24.3539 25.4632 22.8496 25.7263C20.4604 26.1108 18.175 26.9696 16.1306 28.2527C13.1598 30.2703 10.8835 33.1382 9.60745 36.4715C5.42651 46.4048 3.32231 57.0733 3.42178 67.8323C3.33269 70.7727 4.24564 73.6569 6.01359 76.0227C6.5079 76.6733 7.28233 77.0578 8.10497 77.0614H8.13976C9.01061 77.059 9.83264 76.6649 10.3746 75.9907L18.2201 65.5124C20.2346 62.8315 23.4105 61.2485 26.7883 61.2406H54.7123C58.0895 61.2485 61.2653 62.8315 63.2804 65.5124L71.162 76.0342C71.6929 76.7156 72.5259 77.0988 73.395 77.0614C74.2182 77.0578 74.9926 76.6733 75.4882 76.0227Z" fill="#CAFD35"/>
<path id="Path" fill-rule="evenodd" clip-rule="evenodd" d="M71.77 47.0405C71.0466 47.2194 70.6085 47.9375 70.7916 48.6448C71.6741 52.0594 72.317 55.5296 72.7149 59.03C72.7916 59.6979 73.3696 60.2033 74.0577 60.2039C74.1085 60.2039 74.1598 60.2015 74.2106 60.196C74.9488 60.1144 75.4816 59.4658 75.4024 58.7435C74.9903 55.1228 74.3257 51.5341 73.4142 48.0016C73.3275 47.6607 73.1054 47.3675 72.7966 47.1874C72.4884 47.0073 72.119 46.9541 71.77 47.0405Z" fill="#CAFD35"/>
<path id="Path_2" fill-rule="evenodd" clip-rule="evenodd" d="M9.61546 47.0349C8.90727 46.8686 8.19969 47.3123 8.03306 48.0272C7.52109 50.2268 7.09545 52.5032 6.764 54.7973C6.65895 55.5238 7.15643 56.1997 7.87609 56.307C7.94008 56.3161 8.00408 56.3204 8.06868 56.3204C8.72313 56.3192 9.27736 55.8346 9.37155 55.1807C9.69213 52.9628 10.1039 50.7607 10.5983 48.6367C10.6786 48.2929 10.6201 47.9309 10.4359 47.6304C10.2518 47.3299 9.95657 47.116 9.61546 47.0349Z" fill="#CAFD35"/>
<path id="Path_3" fill-rule="evenodd" clip-rule="evenodd" d="M7.55187 60.0041C6.77363 59.9468 6.09315 60.4939 6.03164 61.2262C5.84518 63.4645 5.75 65.7418 5.75 67.9892C5.75 68.7246 6.38321 69.3204 7.16469 69.3204C7.94553 69.3204 8.57874 68.7246 8.57874 67.9892C8.57874 65.8106 8.67068 63.6071 8.85196 61.4401C8.88304 61.0873 8.76326 60.7376 8.51917 60.4683C8.27508 60.1985 7.9274 60.0315 7.55187 60.0041Z" fill="#CAFD35"/>
<path id="Shape_2" fill-rule="evenodd" clip-rule="evenodd" d="M20.3519 30C23.9983 30 26.9539 32.9557 26.9539 36.6022C26.9497 40.2464 23.9965 43.1997 20.3519 43.2039C16.7062 43.2039 13.75 40.2482 13.75 36.6022C13.75 32.9557 16.7062 30 20.3519 30ZM16.3913 36.6022C16.3913 38.7897 18.1646 40.5631 20.3519 40.5631C22.5399 40.5631 24.3132 38.7897 24.3132 36.6022C24.3132 34.4142 22.5399 32.6408 20.3519 32.6408C18.1646 32.6408 16.3913 34.4142 16.3913 36.6022Z" fill="#CAFD35"/>
<path id="Shape_3" fill-rule="evenodd" clip-rule="evenodd" d="M30.3519 45C26.7056 45 23.75 47.9562 23.75 51.6019C23.75 55.2477 26.7056 58.2039 30.3519 58.2039C33.9977 58.2039 36.9539 55.2477 36.9539 51.6019C36.949 47.958 33.9959 45.0048 30.3519 45ZM34.0697 50.2819H31.672V47.8836C32.7907 48.2831 33.6707 49.1632 34.0697 50.2819ZM29.0313 50.2819V47.8836C27.9132 48.2831 27.0331 49.1632 26.6336 50.2819H29.0313ZM26.6336 52.9226H29.0313V55.3203C27.9132 54.9207 27.0331 54.0407 26.6336 52.9226ZM31.672 52.9226V55.3203C32.7907 54.9207 33.6707 54.0407 34.0697 52.9226H31.672Z" fill="#CAFD35"/>
<path id="Shape_4" fill-rule="evenodd" clip-rule="evenodd" d="M44.75 51.6019C44.75 47.9562 47.7057 45 51.3516 45C54.9964 45.0048 57.9497 47.958 57.9539 51.6019C57.9539 55.2477 54.9982 58.2039 51.3516 58.2039C47.7057 58.2039 44.75 55.2477 44.75 51.6019ZM47.3908 51.6019C47.3908 53.7899 49.1642 55.5632 51.3516 55.5632C53.5397 55.5632 55.3131 53.7899 55.3131 51.6019C55.3131 49.4146 53.5397 47.6407 51.3516 47.6407C49.1642 47.6407 47.3908 49.4146 47.3908 51.6019Z" fill="#CAFD35"/>
<path id="Path_4" fill-rule="evenodd" clip-rule="evenodd" d="M52.8568 52.553C52.8568 53.4113 52.1613 54.1068 51.303 54.1068C50.4455 54.1068 49.75 53.4113 49.75 52.553C49.75 51.6955 50.4455 51 51.303 51C52.1613 51 52.8568 51.6955 52.8568 52.553Z" fill="#CAFD35"/>
<path id="Path_5" fill-rule="evenodd" clip-rule="evenodd" d="M36.8568 35.5538C36.8568 36.4113 36.1608 37.1068 35.3034 37.1068C34.446 37.1068 33.75 36.4113 33.75 35.5538C33.75 34.6955 34.446 34 35.3034 34C36.1608 34 36.8568 34.6955 36.8568 35.5538Z" fill="#CAFD35"/>
<path id="Path_6" fill-rule="evenodd" clip-rule="evenodd" d="M46.8568 35.5538C46.8568 36.4113 46.1613 37.1068 45.303 37.1068C44.4455 37.1068 43.75 36.4113 43.75 35.5538C43.75 34.6955 44.4455 34 45.303 34C46.1613 34 46.8568 34.6955 46.8568 35.5538Z" fill="#CAFD35"/>
<path id="Path_7" fill-rule="evenodd" clip-rule="evenodd" d="M41.8568 18.5538C41.8568 19.4113 41.1613 20.1068 40.303 20.1068C39.4455 20.1068 38.75 19.4113 38.75 18.5538C38.75 17.6955 39.4455 17 40.303 17C41.1613 17 41.8568 17.6955 41.8568 18.5538Z" fill="#CAFD35"/>
<path id="Path_8" fill-rule="evenodd" clip-rule="evenodd" d="M30.9556 5.91239C36.4292 1.50273 44.3711 1.50273 49.8454 5.91239C50.4164 6.37261 51.265 6.2969 51.7401 5.74368C52.2151 5.19046 52.137 4.36838 51.5659 3.90816C45.0935 -1.30272 35.7068 -1.30272 29.2344 3.90816C28.6639 4.36838 28.5858 5.18987 29.0615 5.74309C29.5365 6.29631 30.3845 6.37142 30.9556 5.9112V5.91239Z" fill="#CAFD35"/>
<path id="Path_9" fill-rule="evenodd" clip-rule="evenodd" d="M48.0297 12.2134C48.5714 12.2134 49.0618 11.8909 49.2781 11.3922C49.4938 10.8941 49.3947 10.3147 49.0251 9.91727C46.7134 7.41929 43.4688 6 40.0702 6C36.6723 6 33.4276 7.41929 31.1154 9.91727C30.6031 10.4685 30.633 11.3328 31.1833 11.8472C31.733 12.3609 32.595 12.3309 33.1073 11.7797C34.9041 9.83602 37.4276 8.73109 40.0702 8.73109C42.7134 8.73109 45.2363 9.83602 47.0332 11.7797C47.2906 12.0565 47.6521 12.214 48.0297 12.2134Z" fill="#CAFD35"/>
<path id="Path_10" fill-rule="evenodd" clip-rule="evenodd" d="M43.9896 15.8321C44.2342 16.2104 44.6451 16.4375 45.0861 16.4368C45.3451 16.4368 45.5982 16.3578 45.8139 16.2085C46.4187 15.7922 46.5826 14.9479 46.1796 14.3232C44.9222 12.3657 42.8461 11.1344 40.5754 11C38.3052 11.1344 36.2285 12.3657 34.9712 14.3232C34.5681 14.9479 34.7314 15.7916 35.3356 16.2085C35.9405 16.6248 36.7581 16.4561 37.1611 15.8321C37.9365 14.6356 39.1885 13.8603 40.5754 13.7184C41.9622 13.8603 43.2148 14.6356 43.9896 15.8321Z" fill="#CAFD35"/>
<path id="Path_11" fill-rule="evenodd" clip-rule="evenodd" d="M57.8568 37.553C57.8568 38.4113 57.1613 39.1068 56.3038 39.1068C55.4455 39.1068 54.75 38.4113 54.75 37.553C54.75 36.6955 55.4455 36 56.3038 36C57.1613 36 57.8568 36.6955 57.8568 37.553Z" fill="#CAFD35"/>
<path id="Path_12" fill-rule="evenodd" clip-rule="evenodd" d="M63.8568 42.553C63.8568 43.4113 63.1613 44.1068 62.3038 44.1068C61.4455 44.1068 60.75 43.4113 60.75 42.553C60.75 41.6955 61.4455 41 62.3038 41C63.1613 41 63.8568 41.6955 63.8568 42.553Z" fill="#CAFD35"/>
<path id="Path_13" fill-rule="evenodd" clip-rule="evenodd" d="M68.8568 37.553C68.8568 38.4113 68.1613 39.1068 67.3038 39.1068C66.4455 39.1068 65.75 38.4113 65.75 37.553C65.75 36.6955 66.4455 36 67.3038 36C68.1613 36 68.8568 36.6955 68.8568 37.553Z" fill="#CAFD35"/>
<path id="Path_14" fill-rule="evenodd" clip-rule="evenodd" d="M63.8568 31.553C63.8568 32.4113 63.1613 33.1068 62.3038 33.1068C61.4455 33.1068 60.75 32.4113 60.75 31.553C60.75 30.6955 61.4455 30 62.3038 30C63.1613 30 63.8568 30.6955 63.8568 31.553Z" fill="#CAFD35"/>
</g>
</svg>
