<svg width="81" height="80" viewBox="0 0 81 80" fill="none" xmlns="http://www.w3.org/2000/svg">
<g clip-path="url(#clip0_1_3461)">
<path d="M63.5591 54.0885H56.4973C56.0117 54.0885 55.6191 53.696 55.6191 53.2104C55.6191 52.7248 56.0117 52.3323 56.4973 52.3323H63.5591C64.0447 52.3323 64.4373 52.7248 64.4373 53.2104C64.4373 53.696 64.0439 54.0885 63.5591 54.0885Z" fill="#CAFD35" stroke="#CAFD35"/>
<path d="M64.0157 62.5475H56.4963C56.0107 62.5475 55.6182 62.155 55.6182 61.6694C55.6182 61.1838 56.0107 60.7913 56.4963 60.7913H64.0157C64.5013 60.7913 64.8938 61.1838 64.8938 61.6694C64.8938 62.155 64.5013 62.5475 64.0157 62.5475Z" fill="#CAFD35" stroke="#CAFD35"/>
<path d="M59.1226 71.0048H54.6125C54.1269 71.0048 53.7344 70.6123 53.7344 70.1267C53.7344 69.6411 54.1269 69.2485 54.6125 69.2485H59.1226C59.6082 69.2485 60.0007 69.6411 60.0007 70.1267C60.0007 70.6123 59.6082 71.0048 59.1226 71.0048Z" fill="#CAFD35" stroke="#CAFD35"/>
<path d="M42.8298 79.4707C38.7193 79.4707 34.6466 78.453 32.0974 76.7652C31.1701 76.1514 30.1655 75.8265 29.1934 75.8265H26.9357C26.451 75.8265 26.0576 75.434 26.0576 74.9484C26.0576 74.4628 26.451 74.0702 26.9357 74.0702H29.1934C30.5115 74.0702 31.8506 74.4953 33.0668 75.3005C35.4246 76.8609 39.5035 77.8111 43.4304 77.7066L59.1217 77.7074C60.7576 77.7074 62.0897 76.3753 62.0897 74.7394V73.9728C62.0897 72.3368 60.7576 71.0047 59.1217 71.0047C58.6361 71.0047 58.2435 70.6122 58.2435 70.1266C58.2435 69.641 58.6361 69.2485 59.1217 69.2485H64.1832C65.8191 69.2485 67.1504 67.9172 67.1504 66.2813V65.5138C67.1504 63.8778 65.8191 62.5466 64.1832 62.5466H64.0163C63.5307 62.5466 63.1382 62.1541 63.1382 61.6685C63.1382 61.1829 63.5307 60.7904 64.0163 60.7904C65.6523 60.7904 66.9844 59.4582 66.9844 57.8223V57.0557C66.9844 55.4197 65.6523 54.0876 64.0163 54.0876H63.5588C63.0732 54.0876 62.6807 53.6951 62.6807 53.2095C62.6807 52.7239 63.0732 52.3314 63.5588 52.3314C65.1948 52.3314 66.526 51.0001 66.526 49.3642V48.5976C66.526 46.9616 65.1948 45.6295 63.5588 45.6295L48.6386 45.655H48.6368C48.3225 45.655 48.0327 45.4873 47.8755 45.2142C47.7183 44.9411 47.7201 44.6056 47.879 44.3334C49.4711 41.6139 49.9514 34.3711 48.2215 30.1078C47.5111 28.3577 46.5355 27.2995 45.3219 26.9632C45.0207 26.8807 44.7722 27.0036 44.6519 27.0844C44.4113 27.2477 44.2489 27.5182 44.2172 27.808C43.1802 37.3497 37.3284 48.71 31.3378 49.056L26.9357 49.0577C26.451 49.0577 26.0576 48.6652 26.0576 48.1796C26.0576 47.694 26.451 47.3015 26.9357 47.3015H31.2877C36.1666 47.0178 41.5337 36.2406 42.4715 27.6183C42.5593 26.8113 42.9949 26.0869 43.6658 25.6311C44.2963 25.2035 45.0734 25.0726 45.79 25.2702C47.5322 25.7523 48.9354 27.1968 49.8487 29.4466C51.5996 33.7599 51.338 40.2589 50.0041 43.8952L63.5579 43.8724C66.1642 43.8724 68.2831 45.9913 68.2831 48.5967V49.3633C68.2831 50.85 67.5921 52.1795 66.5137 53.0453C67.8502 53.8813 68.7406 55.3662 68.7406 57.0539V57.8205C68.7406 59.3687 67.9916 60.7447 66.8386 61.607C68.0864 62.4588 68.9066 63.8919 68.9066 65.512V66.2795C68.9066 68.884 66.7877 71.003 64.1832 71.003H62.7949C63.4517 71.8152 63.846 72.8479 63.846 73.971V74.7376C63.846 77.343 61.7271 79.4619 59.1217 79.4619L43.4524 79.4611C43.246 79.4681 43.037 79.4707 42.8298 79.4707Z" fill="#CAFD35" stroke="#CAFD35"/>
<path d="M25.3135 79.4707H14.5038C13.1252 79.4707 12.0029 78.3494 12.0029 76.9698V46.3145C12.0029 44.9358 13.1243 43.8136 14.5038 43.8136H25.3135C26.6922 43.8136 27.8144 44.935 27.8144 46.3145V76.9698C27.8136 78.3494 26.6922 79.4707 25.3135 79.4707ZM14.5038 45.5707C14.0937 45.5707 13.7592 45.9044 13.7592 46.3154V76.9707C13.7592 77.3817 14.0929 77.7154 14.5038 77.7154H25.3135C25.7236 77.7154 26.0582 77.3817 26.0582 76.9707V46.3154C26.0582 45.9044 25.7245 45.5707 25.3135 45.5707H14.5038Z" fill="#CAFD35" stroke="#CAFD35"/>
<path d="M19.9084 75.7378C19.4237 75.7378 19.0303 75.3453 19.0303 74.8597V70.6745C19.0303 70.1889 19.4237 69.7964 19.9084 69.7964C20.3931 69.7964 20.7865 70.1889 20.7865 70.6745V74.8597C20.7865 75.3453 20.3931 75.7378 19.9084 75.7378Z" fill="#CAFD35" stroke="#CAFD35"/>
<path d="M45.436 19.5451C45.0794 19.5451 44.7302 19.4 44.4793 19.1491L36.8968 11.5666C35.6646 10.3344 34.9883 8.69891 34.9883 6.95761C34.9883 5.21632 35.6671 3.58078 36.8968 2.3486C38.1265 1.11641 39.7645 0.440063 41.5058 0.440063C42.9422 0.440063 44.3096 0.90244 45.436 1.75833C46.5625 0.9049 47.9299 0.440063 49.3662 0.440063C51.11 0.440063 52.7455 1.11887 53.9753 2.3486C55.205 3.57833 55.8838 5.21386 55.8838 6.95515C55.8838 8.69645 55.205 10.332 53.9753 11.5642L46.3903 19.1467C46.1394 19.4 45.7927 19.5451 45.436 19.5451ZM45.7213 17.9046C45.7213 17.9071 45.7238 17.9071 45.7213 17.9046V17.9046ZM41.5058 2.19611C40.2343 2.19611 39.039 2.69046 38.1388 3.59062C37.2387 4.49078 36.7443 5.68608 36.7443 6.95761C36.7443 8.22915 37.2387 9.42444 38.1388 10.3246L45.436 17.6218L52.7332 10.3246C53.6334 9.42444 54.1277 8.22915 54.1277 6.95761C54.1277 5.68608 53.6334 4.49078 52.7332 3.59062C51.8355 2.69046 50.6402 2.19611 49.3662 2.19611C48.1193 2.19611 46.9412 2.67325 46.0484 3.54389C45.7066 3.87592 45.1655 3.87592 44.8236 3.54389C43.9309 2.67325 42.7528 2.19611 41.5058 2.19611Z" fill="#CAFD35" stroke="#CAFD35"/>
<path d="M25.8178 39.078C25.4292 39.078 25.0652 38.928 24.7922 38.6526L15.5791 29.4395C14.1182 27.9785 13.3164 26.038 13.3164 23.9745C13.3164 21.9111 14.1206 19.9706 15.5791 18.5096C17.0376 17.0487 18.9781 16.2469 21.044 16.2469C22.7951 16.2469 24.4626 16.8274 25.8178 17.8972C27.173 16.8274 28.8405 16.2469 30.5916 16.2469C32.6575 16.2469 34.5981 17.0512 36.0565 18.5096C37.515 19.9681 38.3192 21.9086 38.3192 23.9745C38.3192 26.038 37.515 27.9785 36.0565 29.4395L26.8434 38.6526C26.5704 38.9256 26.2064 39.078 25.8178 39.078ZM21.044 18.003C19.4478 18.003 17.95 18.6252 16.8211 19.7517C15.6922 20.8781 15.0725 22.3784 15.0725 23.9745C15.0725 25.5707 15.6947 27.071 16.8211 28.1974L25.8178 37.1941L34.8145 28.1974C35.9434 27.0685 36.5632 25.5683 36.5632 23.9745C36.5632 22.3808 35.9409 20.8806 34.8145 19.7517C33.6856 18.6228 32.1878 18.003 30.5916 18.003C29.0274 18.003 27.5493 18.6031 26.4302 19.6926C26.0908 20.0247 25.5473 20.0247 25.2054 19.6926C24.0863 18.6006 22.6082 18.003 21.044 18.003Z" fill="#CAFD35"/>
<path d="M26.0342 37.4105H26.0441M25.8178 39.078C25.4292 39.078 25.0652 38.928 24.7922 38.6526L15.5791 29.4395C14.1182 27.9785 13.3164 26.038 13.3164 23.9745C13.3164 21.9111 14.1206 19.9706 15.5791 18.5096C17.0376 17.0487 18.9781 16.2469 21.044 16.2469C22.7951 16.2469 24.4626 16.8274 25.8178 17.8972C27.173 16.8274 28.8405 16.2469 30.5916 16.2469C32.6575 16.2469 34.5981 17.0512 36.0565 18.5096C37.515 19.9681 38.3192 21.9086 38.3192 23.9745C38.3192 26.038 37.515 27.9785 36.0565 29.4395L26.8434 38.6526C26.5704 38.9256 26.2064 39.078 25.8178 39.078ZM21.044 18.003C19.4478 18.003 17.95 18.6252 16.8211 19.7517C15.6922 20.8781 15.0725 22.3784 15.0725 23.9745C15.0725 25.5707 15.6947 27.071 16.8211 28.1974L25.8178 37.1941L34.8145 28.1974C35.9434 27.0685 36.5632 25.5683 36.5632 23.9745C36.5632 22.3808 35.9409 20.8806 34.8145 19.7517C33.6856 18.6228 32.1878 18.003 30.5916 18.003C29.0274 18.003 27.5493 18.6031 26.4302 19.6926C26.0908 20.0247 25.5473 20.0247 25.2054 19.6926C24.0863 18.6006 22.6082 18.003 21.044 18.003Z" stroke="#CAFD35"/>
<path d="M60.7117 37.1056C60.3846 37.1056 60.0649 36.9728 59.8362 36.7416L54.0663 30.9717C53.0899 29.9953 52.5537 28.6967 52.5537 27.317C52.5537 25.9348 53.0923 24.6386 54.0663 23.6622C55.0402 22.6858 56.3413 22.1472 57.721 22.1472C58.8056 22.1472 59.8435 22.4817 60.7117 23.099C61.5799 22.4817 62.6178 22.1472 63.7024 22.1472C65.0846 22.1472 66.3832 22.6858 67.3572 23.6622C68.3336 24.6386 68.8697 25.9372 68.8697 27.317C68.8697 28.6992 68.3311 29.9978 67.3547 30.9742L61.5824 36.7441C61.3585 36.9728 61.0388 37.1056 60.7117 37.1056ZM60.3453 35.502C60.3428 35.502 60.3428 35.5045 60.3453 35.502V35.502ZM57.721 23.9033C56.8086 23.9033 55.9527 24.2574 55.3058 24.9018C54.6615 25.5462 54.3073 26.4045 54.3073 27.317C54.3073 28.2294 54.6615 29.0853 55.3058 29.7297L60.7117 35.1356L66.1151 29.7322C66.7595 29.0878 67.1161 28.2294 67.1161 27.317C67.1161 26.4045 66.7595 25.5486 66.1176 24.9043C64.8411 23.6278 62.6178 23.6131 61.3241 24.8698C60.9823 25.2019 60.4412 25.2019 60.0993 24.8698C59.4599 24.2451 58.6138 23.9033 57.721 23.9033Z" fill="#CAFD35"/>
<path d="M61.0757 35.4996L61.0782 35.502M60.7117 37.1056C60.3846 37.1056 60.0649 36.9728 59.8362 36.7416L54.0663 30.9717C53.0899 29.9953 52.5537 28.6967 52.5537 27.317C52.5537 25.9348 53.0923 24.6386 54.0663 23.6622C55.0402 22.6858 56.3413 22.1472 57.721 22.1472C58.8056 22.1472 59.8435 22.4817 60.7117 23.099C61.5799 22.4817 62.6178 22.1472 63.7024 22.1472C65.0846 22.1472 66.3832 22.6858 67.3572 23.6622C68.3336 24.6386 68.8697 25.9372 68.8697 27.317C68.8697 28.6992 68.3311 29.9978 67.3547 30.9742L61.5824 36.7441C61.3585 36.9728 61.0388 37.1056 60.7117 37.1056ZM60.3453 35.502C60.3428 35.502 60.3428 35.5045 60.3453 35.502ZM57.721 23.9033C56.8086 23.9033 55.9527 24.2574 55.3058 24.9018C54.6615 25.5462 54.3073 26.4045 54.3073 27.317C54.3073 28.2294 54.6615 29.0853 55.3058 29.7297L60.7117 35.1356L66.1151 29.7322C66.7595 29.0878 67.1161 28.2294 67.1161 27.317C67.1161 26.4045 66.7595 25.5486 66.1176 24.9043C64.8411 23.6278 62.6178 23.6131 61.3241 24.8698C60.9823 25.2019 60.4412 25.2019 60.0993 24.8698C59.4599 24.2451 58.6138 23.9033 57.721 23.9033Z" stroke="#CAFD35"/>
</g>
<defs>
<clipPath id="clip0_1_3461">
<rect width="80" height="80" fill="white" transform="translate(0.5)"/>
</clipPath>
</defs>
</svg>
