<svg width="71" height="70" viewBox="0 0 71 70" fill="none" xmlns="http://www.w3.org/2000/svg">
<g clip-path="url(#clip0_1_3447)">
<path d="M29.01 59.9085C28.4527 60.4705 28.2748 61.3045 28.5541 62.0437C28.8335 62.783 29.5199 63.2935 30.3112 63.35H30.3721C31.0599 63.3796 31.7158 63.0605 32.1157 62.5027C32.5149 61.9441 32.6035 61.2225 32.3511 60.5849C32.0987 59.9474 31.5399 59.4798 30.8649 59.3436C30.1906 59.2066 29.4922 59.4191 29.01 59.9085Z" fill="#CAFD35" stroke="#CAFD35"/>
<path d="M60.2672 36.4221C59.5043 35.6235 58.4811 35.1214 57.3807 35.0049C57.6927 34.3998 57.8629 33.7318 57.8785 33.051C57.9104 31.8775 57.4758 30.7385 56.6689 29.8828C55.9236 29.0835 54.904 28.5927 53.8129 28.5059C54.1539 27.6592 54.2461 26.7335 54.0767 25.8367C53.9072 24.9399 53.4839 24.1102 52.8571 23.4444C52.1346 22.6776 51.1759 22.172 50.1329 22.0075L58.3565 14.2332C59.1931 13.4317 59.6803 12.3359 59.7129 11.1806C59.7448 10.0254 59.3201 8.90405 58.5295 8.05825C57.7368 7.21444 56.6392 6.71875 55.4798 6.68133C54.312 6.64956 53.1797 7.07887 52.3289 7.87608L32.6181 26.4515C31.9928 23.4293 30.5605 20.6317 28.4709 18.353C26.667 16.1119 24.0245 14.6974 21.1521 14.4355C20.5317 14.3663 19.9049 14.4708 19.3405 14.7377C18.7768 15.0039 18.2989 15.4219 17.9607 15.9438C17.4779 16.7953 17.2297 17.7585 17.2403 18.7357C17.251 19.7136 17.5204 20.6711 18.0217 21.5113C20.385 25.6837 21.3904 30.4832 20.8984 35.248C20.7232 36.9003 20.3581 38.5272 19.8107 40.0968C19.4285 39.9429 19.0229 39.8539 18.611 39.8334C17.7296 39.8087 16.8745 40.1328 16.2327 40.7345L10.5504 46.0592C9.90729 46.6594 9.53079 47.4891 9.50173 48.3662C9.47337 49.2432 9.79527 50.0954 10.398 50.7358L27.5768 68.9569C28.1823 69.5952 29.0169 69.9688 29.8982 69.9977C30.7795 70.0259 31.6368 69.7068 32.2828 69.1087L37.9651 63.7839C38.6018 63.1823 38.9684 62.3505 38.9819 61.4763C39.0017 60.9029 38.872 60.3345 38.6054 59.8261L41.2891 58.3885C44.8237 56.5011 48.0945 54.1595 51.0165 51.4241L60.0228 42.9918C60.9268 42.1473 61.4572 40.9801 61.4976 39.7458C61.5373 38.5122 61.0835 37.3133 60.2362 36.4123L60.2672 36.4221ZM36.6738 62.4269L30.9817 67.741V67.7417C30.7058 68.0058 30.335 68.1485 29.9521 68.1365C29.5699 68.1252 29.2083 67.9606 28.9488 67.681L11.77 49.4599C11.5077 49.1838 11.3658 48.8153 11.3772 48.4347C11.3892 48.0548 11.5523 47.6946 11.831 47.4355L17.5338 42.0903C17.8096 41.8361 18.1741 41.6984 18.5499 41.7055C18.937 41.7125 19.305 41.8771 19.5667 42.1616L33.7774 57.2745L36.7355 60.4123H36.7348C36.9957 60.6849 37.1383 61.0485 37.1312 61.4249C37.1177 61.8062 36.9532 62.1664 36.6738 62.4269ZM59.6355 39.7012C59.615 40.4362 59.3001 41.1325 58.7613 41.6344L49.745 50.0668C46.945 52.69 43.8111 54.9362 40.4239 56.748L37.3742 58.3572L29.9745 50.4918L21.3645 41.3816C22.0892 39.5188 22.5614 37.5678 22.7677 35.5809C23.313 30.4135 22.2487 25.2039 19.7181 20.66C19.0374 19.5563 18.9835 18.1794 19.5756 17.0257C19.8819 16.5392 20.4491 16.2808 21.0192 16.3676C23.4243 16.5682 25.6358 17.7608 27.1177 19.6581C31.082 24.1024 31.0005 28.404 31.0005 28.4449L31.0012 28.4442C30.9835 28.8255 31.2012 29.1778 31.55 29.3353C31.8932 29.4829 32.2917 29.4158 32.5668 29.163L53.5863 9.27165C54.072 8.81692 54.7194 8.5726 55.3859 8.59308C56.0496 8.60932 56.6799 8.89035 57.1344 9.37263C58.081 10.3725 58.0399 11.9456 57.0429 12.8954L43.8284 25.4274C43.5001 25.7918 43.5058 26.3454 43.8426 26.702C44.1794 27.0586 44.7346 27.0988 45.1196 26.7945L47.4268 24.6379C48.1763 23.9361 49.2456 23.6861 50.2304 23.9827C51.2152 24.2785 51.9675 25.075 52.2022 26.0727C52.4376 27.0704 52.1206 28.1169 51.3704 28.8187L48.3208 31.6834C47.9393 32.0386 47.9188 32.6346 48.2754 33.0145C48.6321 33.3944 49.2305 33.4148 49.612 33.0597L51.747 31.0353C52.2397 30.5735 52.897 30.3256 53.5741 30.3461C54.2513 30.3673 54.8915 30.6554 55.3552 31.1468C55.819 31.6362 56.0671 32.2893 56.0465 32.9615C56.0253 33.6338 55.7367 34.2707 55.2432 34.7304L53.6982 36.1779L52.1021 37.6657C51.7356 38.0364 51.7356 38.6316 52.1021 39.0023C52.4708 39.366 53.0657 39.366 53.4337 39.0023L55.0397 37.504C55.5793 37.0019 56.2968 36.7336 57.0349 36.7576C57.7723 36.7823 58.4707 37.0972 58.975 37.6339C59.4798 38.1705 59.7499 38.8851 59.7258 39.6194L59.6355 39.7012Z" fill="#CAFD35" stroke="#CAFD35"/>
<path d="M27.9317 9.27266C28.1104 9.44919 28.3515 9.54734 28.6032 9.54593C28.8528 9.54028 29.0917 9.44283 29.274 9.27266C29.6391 8.9055 29.6391 8.31376 29.274 7.94659L25.9698 4.63643C25.5976 4.28126 25.0084 4.28902 24.6453 4.65337C24.2823 5.01773 24.2795 5.60451 24.6382 5.9724L27.9317 9.27266Z" fill="#CAFD35" stroke="#CAFD35"/>
<path d="M35.3631 6.51874C35.885 6.51874 36.3083 6.0979 36.3083 5.5775V0.941242C36.3083 0.421544 35.885 0 35.3631 0C34.8413 0 34.418 0.421544 34.418 0.941242V5.5775C34.418 6.0979 34.8413 6.51874 35.3631 6.51874Z" fill="#CAFD35" stroke="#CAFD35"/>
<path d="M42.3773 9.4951C42.6283 9.49651 42.8701 9.39836 43.0481 9.22184L46.3417 5.94186C46.5629 5.77804 46.7005 5.52596 46.7196 5.25199C46.7381 4.97802 46.6359 4.70969 46.4395 4.51693C46.2431 4.32416 45.9723 4.22671 45.6972 4.2493C45.4228 4.27261 45.1718 4.41383 45.0101 4.63625L41.7165 7.89562C41.5357 8.06932 41.4336 8.3087 41.4336 8.55866C41.4336 8.80863 41.5357 9.04799 41.7165 9.22171C41.8916 9.39683 42.1292 9.4951 42.3773 9.4951Z" fill="#CAFD35" stroke="#CAFD35"/>
</g>
<defs>
<clipPath id="clip0_1_3447">
<rect width="70" height="70" fill="white" transform="translate(0.5)"/>
</clipPath>
</defs>
</svg>
