<svg width="81" height="80" viewBox="0 0 81 80" fill="none" xmlns="http://www.w3.org/2000/svg">
<g clip-path="url(#clip0_1_3438)">
<path d="M77.4874 15.9789H59.8467C59.8774 15.8033 59.9012 15.625 59.9012 15.4406V6.76647C59.9012 5.61964 59.3058 4.59662 58.3074 4.03111C57.3089 3.46472 56.1252 3.47877 55.1417 4.06887L40.6614 12.7421C40.5877 12.786 40.5245 12.8405 40.4551 12.8896C40.3866 12.8405 40.3234 12.7869 40.2496 12.743L25.7684 4.06887C24.7841 3.48053 23.6012 3.4656 22.6037 4.03111C21.6052 4.59662 21.0099 5.61964 21.0099 6.76647V15.4397C21.0099 15.6241 21.0336 15.8024 21.0643 15.978H3.42279C2.05379 15.9789 0.939453 17.0923 0.939453 18.4613V27.2602C0.939453 28.6291 2.05379 29.7435 3.42279 29.7435H5.62952V72.733C5.62952 74.6965 7.22683 76.2947 9.19032 76.2947H34.4118H46.4983H71.7207C73.6842 76.2947 75.2815 74.6965 75.2815 72.733V29.7435H77.4882C78.8581 29.7435 79.9716 28.6291 79.9716 27.2602V18.4613C79.9707 17.0923 78.8572 15.9789 77.4874 15.9789ZM41.9997 14.9778L56.48 6.30458C56.5783 6.24574 56.6714 6.22467 56.7548 6.22467C56.869 6.22467 56.9638 6.26418 57.0227 6.29755C57.1245 6.35551 57.2958 6.49337 57.2958 6.76647V15.4397C57.2958 15.7365 57.0543 15.978 56.7575 15.978H52.0595H42.2772C41.9391 15.978 41.8144 15.7585 41.7679 15.6092C41.7749 15.4845 41.7828 15.3589 41.7758 15.236C41.8109 15.1455 41.8732 15.0533 41.9997 14.9778ZM49.4532 27.1381H46.4975H34.4118H31.4561V18.5843H38.6338H42.2772H49.4541L49.4532 27.1381ZM23.6144 15.4397V6.76647C23.6144 6.49337 23.7856 6.35551 23.8875 6.29755C23.9472 6.26418 24.0412 6.22467 24.1553 6.22467C24.2379 6.22467 24.3309 6.24574 24.4293 6.3037L38.9105 14.9778C39.0369 15.0542 39.0984 15.1455 39.1344 15.2377C39.1274 15.3598 39.1353 15.4845 39.1423 15.6083C39.0957 15.7576 38.9719 15.9789 38.633 15.9789H28.8507H24.1536C23.8568 15.9789 23.6144 15.7365 23.6144 15.4397ZM3.54485 27.1381V18.5843H24.1536H28.8507V27.1381H5.62952H3.54485ZM9.19032 73.6884C8.66344 73.6884 8.23492 73.259 8.23492 72.733V29.7435H28.8507H34.4118V73.6884H9.19032ZM37.0172 73.6884V29.7435H43.8929V73.6884H37.0172ZM72.6752 72.733C72.6752 73.2599 72.2467 73.6884 71.7198 73.6884H46.4983V29.7435H52.0595H72.6752V72.733ZM77.3653 27.1381H75.2806H52.0595V18.5843H56.7575H77.3662L77.3653 27.1381Z" fill="#CAFD35"/>
</g>
<defs>
<clipPath id="clip0_1_3438">
<rect width="80" height="80" fill="white" transform="translate(0.5)"/>
</clipPath>
</defs>
</svg>
