<svg width="81" height="80" viewBox="0 0 81 80" fill="none" xmlns="http://www.w3.org/2000/svg">
<g clip-path="url(#clip0_1_3477)">
<path d="M3.28457 18.8021H12.372C13.0344 23.1396 16.7844 26.4773 21.2972 26.4773C25.8094 26.4773 29.5593 23.1397 30.2223 18.8021H79.4588C80.221 18.8021 80.8338 18.1894 80.8338 17.4271C80.8338 16.6648 80.221 16.0521 79.4588 16.0521H30.2352C29.5728 11.7146 25.8228 8.37695 21.31 8.37695C16.7978 8.37695 13.0479 11.7145 12.3849 16.0521H3.28514C2.52288 16.0521 1.91016 16.6648 1.91016 17.4271C1.91016 18.1899 2.53515 18.8021 3.28514 18.8021H3.28457ZM21.31 11.1275C24.7848 11.1275 27.6102 13.9522 27.6102 17.4148C27.6102 20.8896 24.7855 23.7022 21.31 23.7022C17.8352 23.7022 15.0098 20.8775 15.0098 17.402C15.0104 13.9523 17.8351 11.1275 21.31 11.1275Z" fill="#CAFD35"/>
<path d="M46.4713 40.9774C47.1337 45.3149 50.8837 48.6526 55.3965 48.6526C59.9216 48.6526 63.6586 45.315 64.3216 40.9774H78.3589C79.1211 40.9774 79.7338 40.3647 79.7338 39.6024C79.7338 38.8401 79.1211 38.2274 78.3589 38.2274H64.3339C63.6715 33.8899 59.9216 30.5522 55.4088 30.5522C50.8837 30.5522 47.1466 33.8898 46.4836 38.2274H2.20994C1.44768 38.2274 0.834961 38.8401 0.834961 39.6024C0.834961 40.3647 1.44768 40.9774 2.20994 40.9774H46.4722H46.4713ZM55.4086 33.3151C58.8834 33.3151 61.7088 36.1397 61.7088 39.6153C61.7088 43.0901 58.8841 45.9155 55.4086 45.9155C51.9338 45.9155 49.1084 43.0908 49.1084 39.6281V39.6158C49.109 36.1276 51.9337 33.3152 55.4086 33.3152V33.3151Z" fill="#CAFD35"/>
<path d="M79.4597 60.7272H30.2362C29.5738 56.3897 25.8238 53.052 21.311 53.052C16.7988 53.052 13.0488 56.3895 12.3858 60.7272H3.28611C2.52385 60.7272 1.91113 61.3399 1.91113 62.1022C1.91113 62.8644 2.52385 63.4771 3.28611 63.4771H12.3736C13.0359 67.8146 16.7859 71.1523 21.2987 71.1523C25.8109 71.1523 29.5609 67.8148 30.2239 63.4771H79.4603C80.2226 63.4771 80.8353 62.8644 80.8353 62.1022C80.8353 61.3393 80.2226 60.7272 79.4603 60.7272H79.4597ZM21.3106 68.4018C17.8358 68.4018 15.0104 65.5771 15.0104 62.1016C15.0104 58.6268 17.835 55.8014 21.3106 55.8014C24.7854 55.8014 27.6108 58.6261 27.6108 62.1016C27.6108 65.5771 24.7855 68.4018 21.3106 68.4018Z" fill="#CAFD35"/>
</g>
<defs>
<clipPath id="clip0_1_3477">
<rect width="80" height="80" fill="white" transform="translate(0.5)"/>
</clipPath>
</defs>
</svg>
